<?xml version="1.0" encoding="utf-8"?>
<!-- Generator: Adobe Illustrator 23.0.3, SVG Export Plug-In . SVG Version: 6.00 Build 0)  -->
<svg version="1.1" id="圖層_1" xmlns="http://www.w3.org/2000/svg" xmlns:xlink="http://www.w3.org/1999/xlink" x="0px" y="0px"
	 viewBox="0 0 19.3 16.9" style="enable-background:new 0 0 19.3 16.9;" xml:space="preserve">
<style type="text/css">
	.st0{fill-rule:evenodd;clip-rule:evenodd;fill:#3E0E00;}
	.st1{fill-rule:evenodd;clip-rule:evenodd;fill:#4E1800;}
	.st2{fill-rule:evenodd;clip-rule:evenodd;fill:#5B1E00;}
	.st3{fill-rule:evenodd;clip-rule:evenodd;fill:#5E1F00;}
	.st4{fill-rule:evenodd;clip-rule:evenodd;fill:#652100;}
	.st5{fill-rule:evenodd;clip-rule:evenodd;fill:#6C2200;}
	.st6{fill-rule:evenodd;clip-rule:evenodd;fill:#540900;}
	.st7{fill-rule:evenodd;clip-rule:evenodd;fill:#5D1700;}
</style>
<g>
	<path class="st0" d="M7.4,0.1c9.9-1.8,17.1,17.7,7.1,16.8C3.5,15.9-7.9,3.1,7.4,0.1z"/>
	<path class="st1" d="M7.4,0.1c-2.9,0.5-6.1,1.7-7,4.2c-0.6,1.8,0.2,3.7,1.3,5.3c1.4,1.9,3.5,3.5,5.7,4.8c2.1,1.1,4.6,2,7.1,2.2
		C24.1,17.6,17-1.7,7.4,0.1z"/>
	<path class="st2" d="M7.4,0.2C4.6,0.7,1.3,1.9,0.4,4.4C-0.2,6.1,0.6,8,1.7,9.5c1.4,1.9,3.5,3.5,5.7,4.7c2.1,1.1,4.5,2,7,2.2
		C23.8,17.3,16.7-1.6,7.4,0.2z"/>
	<path class="st3" d="M7.4,0.2c-2.6,0.5-5.8,1.6-6.7,4C0.1,5.9,0.9,7.7,2,9.2c1.4,1.8,3.5,3.5,5.6,4.7C9.7,15,12,15.8,14.5,16
		C23.4,16.9,16.4-1.5,7.4,0.2z"/>
	<path class="st4" d="M7.4,0.4C4.8,0.8,1.7,1.9,0.9,4.2C0.3,5.8,1.1,7.6,2.1,8.9c1.3,1.8,3.4,3.4,5.5,4.6c2,1,4.3,1.9,6.7,2.2
		c0.9,0.1,1.8,0,2.5-0.5c1.1-0.9,1.3-2.5,1.2-3.6C18,9.6,17.2,7.6,16.3,6C14.9,3.3,11.5-0.4,7.4,0.4z"/>
	<path class="st5" d="M7.6,0.5C5.4,0.9,2.3,1.9,1.6,3.9C1,5.4,1.8,7.1,2.8,8.3c1.3,1.7,3.3,3.3,5.4,4.4c1.9,1,4.2,1.8,6.6,2.1
		c0.7,0.1,1.5,0,2.1-0.3c1-0.7,1.1-2.2,1-3.2c-0.1-1.8-0.9-3.8-1.7-5.4C14.6,3.4,11.5-0.2,7.6,0.5z"/>
	<path class="st4" d="M4.3,1.4C4.1,1.6,3.7,1.7,3.5,1.9c0.8,1.3,1.6,2.2,3.5,3.5c1,0.8,1.8,1.8,3.2,2.4c1.6,0.7,2.5,1.6,3.5,2.6
		c1.4,1.5,2.5,2.2,3.3,4c0.9-0.7,1-2.1,0.9-3c-1.6-3.3-5.1-4.7-7.5-7C8.2,2.4,6.2,1.9,4.3,1.4z"/>
	<path class="st0" d="M18,14.3l0.2,1.3l-0.7-1.2c-1-1.7-2.3-3.8-3.9-5.3c-0.8-0.8-1.4-1.2-2.5-1.6c-1-0.4-1.6-0.7-2.4-1.3
		C6.9,5.1,6.1,4.1,5.1,2.5C10.4,5.2,17.4,8.9,18,14.3z"/>
	<path class="st6" d="M5.5,2.9c4.8,3.6,11.5,5.7,12.4,12C11.2,3.5,11.7,9.8,5.5,2.9z"/>
	<path class="st0" d="M5,2.4C0,0.9,0.3,7.2,2.1,9.6C-1.2,5.7,1.4,0.4,5,2.4z"/>
	<path class="st7" d="M12.7,2.4C15,4.9,16.2,5.8,17.4,9C17.2,7,16.8,5.6,12.7,2.4L12.7,2.4z M2.1,4.1c2.7,0.6,4,0.7,6.1,2.2
		C7.3,5.1,6.5,4.4,2.1,4.1L2.1,4.1z M4.8,9.4c3.5,2.8,4.9,4.2,9.9,5.2C11.6,14.7,9.3,14.5,4.8,9.4z"/>
	<path class="st4" d="M10.4,2.1c1.7,1.8,3.3,1.9,4.2,4.4C14.4,5,13.5,4.5,10.4,2.1L10.4,2.1z M2.4,3.5c2.2,0.4,3.5,0.4,4.5,1.7
		C6.3,4.2,5.7,3.7,2.4,3.5L2.4,3.5z M4.5,7.4c2.7,2.1,3.4,5.1,7,5.9C9.2,13.4,7.9,11.2,4.5,7.4z"/>
</g>
</svg>
