<?xml version="1.0" encoding="utf-8"?>
<!-- Generator: Adobe Illustrator 23.0.3, SVG Export Plug-In . SVG Version: 6.00 Build 0)  -->
<svg version="1.1" id="圖層_1" xmlns="http://www.w3.org/2000/svg" xmlns:xlink="http://www.w3.org/1999/xlink" x="0px" y="0px"
	 viewBox="0 0 30 26.4" style="enable-background:new 0 0 30 26.4;" xml:space="preserve">
<style type="text/css">
	.st0{fill-rule:evenodd;clip-rule:evenodd;fill:#460100;}
</style>
<path class="st0" d="M18.8,6.4L18.8,6.4c0.1,0,0.2-0.1,0.2-0.1c0.2,1.3,0.3,2,0.9,3c0.1,0.1-0.4,0.3-0.6,0.2
	C18.8,9.4,17.8,7.2,18.8,6.4L18.8,6.4z M14.3,23.6c-0.3,0.2-0.6,0.2-0.8,0.3c0,0.1-0.1,0.1-0.2,0.2l0,0c-0.3,0.1-0.2,0-0.4-0.2l0,0
	c-0.2-0.1-0.4-0.2-0.5-0.3c-0.1,0.2-0.2,0.4-0.3,0.5c-0.3,0.3-0.1-0.5-0.4-0.8l0,0c-0.3-0.3-0.7-0.4-0.4-0.7c0.2-0.2,0.4-0.1,0.7,0
	c-0.1-0.7,0-1.5,0.5-2.1c0-0.1,0.1,0.3,0.1,0.7c0,0,0.1,0,0.2,0.1c0.3,0.1,0.6,0.4,0.1,0.4c0,0-0.1,0-0.2,0c0.1,0.5,0.3,0.9,0.6,1.1
	c0.2-0.2,0.3-0.6,0.6-0.3c0.1,0.1,0.1,0.2,0.1,0.3c0.3-0.2,0.7-0.5,1.1-1.2c1.6-2.3-1.4-0.5-0.2-2.8c0.4,0,0.7,0,0.9,0.2
	c-0.1-0.1-0.1-0.1-0.1-0.2c-0.1-0.2,0.4,0,0.7-0.1l0,0c0.3-0.1,0.4-0.4,0.6-0.2c0.1,0.3-0.2,0.6-0.4,0.8c-0.2,0.1-0.3,0-0.5-0.1
	C16.6,19.9,15.1,22.2,14.3,23.6L14.3,23.6z M10.1,2C9.5,3,10.8,4.3,12,4.6c-0.1,0.1,0.1,0.3,0.3,0.4c0.3,0.1,0.3,0.2,0.5-0.1l0,0
	c0.1-0.3-0.1-0.4-0.2-0.4c-0.7-0.4-3.1-1.7-0.9-2.3h0.1C11.9,2.3,12,2.4,12,2.4c0.3,0.3,0.4,0,0.4-0.3c0.7,0.1,0.1,1.3,1.6,1.2
	c0-1.1-0.8-1.4-1.6-1.5c-0.1-0.2-0.1-0.2-0.3-0.1l0,0c-0.1,0-0.1,0.1-0.2,0.1C11.1,1.8,10.6,1.9,10.1,2L10.1,2z M13.7,10.2
	c0.5,0.1,1.3,0.2,2,0.2v0.1c0.1,0.3,0.1,0.3,0.4,0.2l0,0c0.3-0.1,0.2-0.3,0.1-0.4c0.8-0.2,1.5-0.7,1.8-2c-1.5,0-1.2,1.7-2.1,1.7
	c-0.1,0-0.1,0-0.1,0c-0.1,0-0.2,0-0.3-0.1c-0.6-0.2-0.8-0.5-0.7-0.9C14.9,9,15,8.9,15,8.7l0,0l0,0c0.3-0.5,0.8-0.9,1.4-1.3v0.1l0,0
	c0,0.3-0.5,0.7-0.2,0.7S17,8,17,7.7c0-0.2-0.1-0.4-0.2-0.6c0.4-0.3,0.7-0.4,0.6-0.5c-0.6-0.2-1.6,0.3-2.4,1.1
	c-0.2-0.2-0.2-0.1-0.4,0.2c-0.1,0.2-0.2,0.4-0.1,0.5C13.9,9,13.6,9.7,13.7,10.2L13.7,10.2z M13.9,16.7c0.2-0.4,0.5,0.1,0.6,0.2
	c0.1-0.4,0.2-0.5,0.4-0.5c-0.3-0.1-0.7-0.2-0.8-0.3c-0.4,0.4-1.3,0.4-1.7,0.3c-0.6-0.2,0.6-0.5,0.8-1.2l0,0c0.2-0.6,0-1.2,0.6-1.1
	c0.1,0,0.2,0.1,0.2,0.1c0-0.3,0.1-0.6,0.5-0.5l0,0c0.5,0.1,0.4,0.1,0.4,0.7c0,0.4-0.3,0.9-0.6,0.7c0,0.1,0,0.3,0,0.4
	c0.3-0.2,0.8-0.2,1.2-0.1v-0.1c-0.1-0.1-0.1-0.1,0-0.3l0,0c0.2-0.3,0.4-0.1,0.5,0.1c0.1,0,0.2,0.1,0.4,0.1c0.5,0.1,1,0.6,0.8,0.9
	c0,0.1,0.1,0.1,0.1,0.1c0,0.1,0.1,0.1,0.1,0.2c0.2,0,0.3,0,0.5-0.1l0,0l0.1-0.1c-0.6-0.1-0.7-1.1-0.7-1.5c0-0.1,0-0.1,0-0.1
	c-0.2,0.1-0.3-0.4-0.6-0.9c-0.2,0.2-0.7,0.3-0.9,0.2c-0.2,0-0.1-0.1,0-0.2c-0.1,0-0.1,0.1-0.2,0.1c-0.4,0.2-0.9-0.3-1.1-0.6
	c-0.2-0.3,0.5,0,0.9-0.2l0,0l0.1-0.1c-0.5-0.1-1-0.2-0.7-0.8c0.1-0.2,0.2-0.3,0.4-0.4c0-0.1-0.1-0.3-0.2-0.4l0,0
	c-0.3-0.3-0.7-0.4-0.4-0.7s0.9,0,1.1,0.3c0.1,0.2,0.1,0.4,0.1,0.6c0.3,0,0.6,0,0.9,0.1c0,0,0.1,0,0.1-0.1c0.3-0.1,0.5,0.2,0.7,0.5
	c0.4,0.6,0.2,1.7,0,2.3c0,0.1-0.1,0.1-0.1,0.1c0.2,0,0.6,0.6,1.1,0.7l0,0c0.5,0.1,1.1-0.2,1,0.4c0,0.4-0.4,0.6-0.8,0.6v0.1l0,0
	c0.1,0.3,0,0.3-0.1,0.3c-0.1,0.2-0.3,0.4-0.5,0.4c-0.4,0.2-0.9-0.3-1.1-0.6v-0.1l0,0l-0.1-0.1h-0.1c0,0-0.2,0-0.4,0.1
	c0,0.2,0,0.5-0.1,0.7c0.2,0.3,0.2,0.6-0.5,0.7c-0.1,0-1.4,0.3-1.3-0.5c-0.1,0-0.2,0-0.3-0.1C13.8,17,13.7,17,13.9,16.7L13.9,16.7z
	 M17.2,4.9L17.2,4.9c-0.1-0.3-0.1-0.2-0.4-0.2c-0.3,0.1-0.6,0.4-0.2,0.5C16.6,5.2,17.3,5.4,17.2,4.9L17.2,4.9z M19.2,22.7L19.2,22.7
	c0.3-0.1,0.2-0.1,0.1-0.5c-0.1-0.3-0.4-0.6-0.5-0.1C18.8,22.1,18.7,22.9,19.2,22.7L19.2,22.7z M8.5,2.8L8.5,2.8
	c0.3-0.1,0.3,0,0.4,0.3v0.1c0.1,0,0.3,0.2,0.3,0.2c0.3,0.4-0.1,0.4-0.4,0.3C8.6,3.6,8.5,3.6,8.5,3.4C8.4,3.3,8,2.9,8.5,2.8L8.5,2.8z
	 M5.1,15.4c0,0.1-0.2,0.2-0.4,0c0,0-0.5-0.4-0.1-0.6c0-0.1,0-0.1,0-0.2c0-0.4,0.6-0.6,0.9-0.5c0.3,0-0.2,0.4-0.2,0.7l0,0l0,0h0.1
	c0.3,0.1,0.6,0.4,0.1,0.4c0,0-0.1,0-0.2,0C5.3,15.3,5.3,15.4,5.1,15.4L5.1,15.4L5.1,15.4z M26.3,15.9L26.3,15.9
	c0.3-0.1,0.3,0,0.4,0.3s0,0.7-0.3,0.4C26.3,16.6,25.8,16.1,26.3,15.9L26.3,15.9z M8.8,22.9L8.8,22.9c0.1,0.3,0.1,0.3-0.2,0.4
	c-0.3,0.2-0.7,0.1-0.4-0.3C8.1,23,8.5,22.4,8.8,22.9L8.8,22.9z M15.1,2.7L15.1,2.7c0.1-0.3,0.1-0.2,0.5-0.1c0.3,0.1,0.6,0.4,0.1,0.5
	C15.6,3.1,14.9,3.3,15.1,2.7L15.1,2.7z M0.9,6.8L0.9,6.8C1,6.5,1,6.6,1.3,6.7s0.6,0.4,0.1,0.5C1.4,7.2,0.7,7.3,0.9,6.8L0.9,6.8z
	 M14.1,5.8C14.4,5.4,14.7,6,14.7,6c0.2,0.5-0.2,0.4-0.5,0.2C13.9,6.1,13.9,6.1,14.1,5.8L14.1,5.8L14.1,5.8z M17.1,24.2L17.1,24.2
	c-0.3-0.2-0.3-0.1-0.4,0.2c-0.2,0.3-0.2,0.7,0.3,0.4C17,24.9,17.6,24.5,17.1,24.2L17.1,24.2z M22.2,14.2L22.2,14.2
	c-0.3-0.1-0.6-0.3-0.7,0s0.4,0.6,0.7,0.6c0.4,0.1,0.6-0.5,0.7-0.8C23,13.7,22.6,14.2,22.2,14.2L22.2,14.2z M20.8,17.4L20.8,17.4
	c-0.3,0-0.5-0.2-0.6-0.1c-0.1-0.4-0.2-0.8-0.6-0.9c-0.6-0.2-0.4,0.5-0.6,1.1l0,0c-0.1,0.4-0.5,0.7-0.8,0.9c-0.1,0-0.2,0-0.2,0.1l0,0
	c0,0.1,0,0.1,0.1,0.1c0.2,0.3,0.6,0.6,1,0.4c0.2-0.1,0.3-0.2,0.4-0.4v0.1c0,0,0.4,0.6,0.7,0.2l0,0c0.2-0.3,0.1-0.3-0.2-0.4
	c-0.1,0-0.1-0.1-0.2-0.1c0.1-0.1,0.1-0.2,0.2-0.3c0-0.1,0.1-0.3,0.1-0.5c0.1,0.2,0.4,0.3,0.7,0.4c0.4,0.1,0.6-0.5,0.7-0.8
	C21.6,17,21.2,17.5,20.8,17.4L20.8,17.4z M28.3,10.9L28.3,10.9c0,0.3-0.1,0.7,0.2,0.6s0.4-0.6,0.4-0.9c-0.1-0.4-0.6-0.5-1-0.4
	C27.6,10.3,28.2,10.6,28.3,10.9L28.3,10.9z M14,24.1L14,24.1c-0.3,0.1-0.7,0-0.6,0.3c0.1,0.2,0.3,0.3,0.6,0.3c0,0,0,0.1-0.1,0.2
	c0,0-0.1,0.7,0.4,0.5l0,0c0.3-0.1,0.2-0.1,0.1-0.5c0-0.1-0.1-0.2-0.2-0.3h0.1c0.4-0.1,0.4-0.7,0.3-1C14.6,23.4,14.4,24,14,24.1
	L14,24.1z M29.2,15.1L29.2,15.1c-0.3-0.2-0.5-0.5-0.6-0.2c-0.2,0.3,0.2,0.7,0.5,0.9s0.7-0.2,0.9-0.5C30.1,15,29.5,15.3,29.2,15.1
	L29.2,15.1z M10,25.6L10,25.6c0.1-0.3,0.4-0.5,0.1-0.6c-0.3-0.1-0.7,0.3-0.8,0.6c-0.1,0.4,0.4,0.7,0.6,0.8C10.3,26.5,9.9,26,10,25.6
	L10,25.6z M27.3,19L27.3,19c-0.3,0.3-0.8,0.4-0.5,0.7c0.3,0.3,0.9,0.1,1.3-0.2c0.4-0.3,0-1-0.2-1.4C27.5,17.8,27.6,18.6,27.3,19
	L27.3,19z M5.9,24.3L5.9,24.3c-0.3-0.3-0.5-0.7-0.8-0.4c-0.3,0.3,0.1,0.9,0.4,1.2c0.4,0.3,1-0.1,1.3-0.4C7.1,24.4,6.3,24.6,5.9,24.3
	L5.9,24.3z M4.3,8.5L4.3,8.5c0.3-0.1,0.3,0,0.4,0.3s0,0.7-0.3,0.4C4.3,9.2,3.8,8.7,4.3,8.5L4.3,8.5z M7.9,6.6L7.9,6.6
	C7.8,6.2,7.8,6.3,7.4,6.4C7.1,6.5,6.8,6.7,7.3,6.9C7.3,6.9,8,7.1,7.9,6.6L7.9,6.6z M7.1,3.2L7.1,3.2C7,2.8,7,2.9,6.7,3
	C6.6,3,6.6,3,6.5,3c0-0.1,0-0.7-0.4-0.5l0,0C5.9,2.7,5.9,2.7,6,3c0.1,0.1,0.1,0.2,0.2,0.3c0,0.1,0.1,0.2,0.2,0.2
	C6.6,3.5,7.3,3.7,7.1,3.2L7.1,3.2z M18.3,2.5L18.3,2.5c-0.1,0.3-0.1,0.2-0.5,0.1c-0.3-0.1-0.6-0.4-0.1-0.5C17.8,2.1,18.5,2,18.3,2.5
	L18.3,2.5z M3.7,6.7L3.7,6.7L3.7,6.7C3.3,6.6,3.1,6.2,3.6,6.2c0,0,0,0,0.1,0c0-0.1,0-0.2,0.1-0.2C4,5.7,4.6,5.4,4.9,5.7
	C5.2,6,4.8,6.1,4.5,6.4s-0.2,1-0.4,0.8C3.9,7.1,3.8,6.9,3.7,6.7L3.7,6.7z M20.5,6.2c-0.4-0.1-0.4,0.2-0.4,0.4
	c-0.2-0.1-0.2,0-0.3,0.2c-0.1,0.3-0.1,0.6,0.3,0.4c0,0,0.1-0.1,0.2-0.2c0.1,0.1,0.3-0.1,0.4-0.4C20.7,6.3,20.8,6.3,20.5,6.2
	L20.5,6.2L20.5,6.2z M5.6,17.7L5.6,17.7c0.2,0.2,0.5,0.3,0.7,0.2c-0.4,0.8-0.4,2-0.4,2.7c0.8,0.7,2.1-0.1,2.7-1
	c0,0.1,0.1,0.3,0.1,0.5l0,0c0.1,0.4-0.4,0.8-0.1,0.8s0.9-0.3,0.8-0.7c-0.1-0.3-0.3-0.8-0.6-0.7c-0.1,0-0.1,0-0.1,0
	c0.2-0.3,0.3-0.7,0.3-1c0,0-0.2,0.2-0.4,0.4l0,0C8.2,18.6,8,19,7.7,19.3l0,0c-0.4,0.3-1.1,0-0.9,0.3C7,19.7,7.1,19.9,7.3,20
	c-0.5,0.3-0.9,0.2-1-0.9c-0.2-1.7,1.3-0.2,1.5-1.9c-0.6-0.1-1,0.1-1.3,0.4c-0.1-0.1-0.2-0.1-0.4-0.2l0,0C6,17.4,6,17.3,6,17.2
	c0.2-0.1,0.5-0.2,0.5-0.5S6.3,16,6,16s-0.1,0.3-0.1,0.6l0,0c0,0.1,0,0.1,0,0.2H5.8v-0.1l0,0c0.2-0.5-0.5-0.4-0.6-0.4s-0.1,0-0.2,0
	c-0.1-0.1-0.2-0.2-0.4-0.2c0.2-0.1,0.4-0.3,0-0.4c0,0-0.7-0.1-0.5,0.3c0,0.1,0,0.1,0.1,0.1v0.1c-0.4,0.2-0.8,0.8-0.5,1.2
	c0.2,0.4,0.4-0.1,0.8-0.3l0,0C4.7,16.9,5.1,17,5.4,17c-0.1,0.2-0.1,0.5-0.1,0.5C5.3,17.7,5.4,17.8,5.6,17.7L5.6,17.7z M23.3,6.9
	L23.3,6.9c-0.3-0.2-0.6-0.3-0.4-0.5c0.2-0.3,0.7-0.1,1,0.1C24.1,6.7,24,6.9,24,7.2c0.2,0,0.4,0,0.6-0.2l0,0c0.3-0.2,0.4-0.7,0.7-0.3
	c0.2,0.3-0.1,0.9-0.4,1.1s-0.8-0.1-1.1-0.3l-0.1,0.1c-0.1,0.1-0.1,0-0.2-0.1h-0.1c0,0-0.4,0.1-0.5-0.1c0.2,0.3,0.3,0.6,0.3,0.9
	c0,0.4-0.5-0.3-1-0.3l0,0c-0.4,0-0.8,0.3-0.8-0.2s0.7-0.7,1.1-0.7c0.2,0,0.3,0.1,0.4,0.2c0-0.1,0-0.1,0-0.2C23,6.9,23.1,6.9,23.4,7
	c0,0,0,0,0.1,0C23.4,7,23.4,6.9,23.3,6.9L23.3,6.9z M2.3,15.7L2.3,15.7c-0.3-0.2-0.6-0.3-0.4-0.5c0.2-0.3,0.7-0.1,1,0.1
	c0.3,0.2,0,0.8-0.2,1C2.5,16.6,2.6,15.9,2.3,15.7L2.3,15.7z M12.7,7.1c-0.2,0-0.3-0.2-0.4-0.4C12,6.6,11.8,6.5,12,6.2
	c0.1-0.1,0.2-0.1,0.3-0.2c0,0-0.1,0-0.2,0c-0.3-0.1-0.2-0.1-0.1-0.4c0.1-0.3,0.4-0.6,0.4-0.1c0,0,0.1,0.2,0,0.4
	c0.2-0.1,0.4-0.2,0.6-0.2c0-0.3,0.2-0.7,0.4-0.9c0.3-0.3,0.9,0,1.2,0.3s-0.5,0.1-0.8,0.4l0,0c-0.3,0.3-0.3,0.7-0.6,0.4
	c0,0,0-0.1-0.1-0.1C13.1,6,13,6.1,13,6.2c0.1,0.1,0.2,0.1,0.3,0.2c0.2,0.2,0.2,0.6,0.1,0.9c0,0.1,0,0.1,0,0.2s0,0.2-0.1,0.2
	c0.1,0,0.2,0.1,0.3,0.1c0.5,0.2,0.3,1,0.1,1.4s-0.3-0.5-0.8-0.7l0,0C12.5,8.3,12,8.4,12.2,8c0.1-0.2,0.4-0.3,0.6-0.3l0,0
	c0,0-0.1-0.1-0.1-0.2C12.8,7.4,12.8,7.2,12.7,7.1L12.7,7.1z M18.4,4.8L18.4,4.8C18.1,5,18,5.4,17.8,5.1s0.1-0.7,0.4-0.9
	C18.5,4,19,4.4,19.1,4.6C19.3,4.9,18.7,4.6,18.4,4.8L18.4,4.8z M1.3,17.3c0.1-0.1,0.2-0.1,0.3-0.1c0,0.1,0.1,0.1,0.1,0.1l0,0
	c0.2,0.2,0.2,0.1,0.4-0.2c0.2-0.2,0.2-0.6-0.2-0.4c0,0,0,0-0.1,0.1c-0.2-0.2-0.5-0.3-0.7-0.2c-0.3,0.2-0.6,0.6-0.4,0.9
	C0.8,17.8,1,17.5,1.3,17.3L1.3,17.3L1.3,17.3z M10.9,18.5c0-0.4,0.6-0.7,0.2-0.7c-0.3,0-0.9,0.1-0.9,0.5c0,0.2,0.1,0.6,0.2,0.7
	c-0.2,0.1-0.5,0-0.6,0.1l0,0c-0.4-0.3-0.4,0.1-0.3,0.4c0.1,0.3,0.1,0.3,0.4,0.2l0,0c0.2-0.1,0.2-0.2,0.2-0.3
	c0.2,0.1,0.4,0.2,0.6,0.2c0.1,0.5-0.6,1.1-0.1,1c0.4-0.1,1.1-0.4,1.1-0.9c-0.1-0.3-0.2-0.6-0.4-0.8c0-0.1,0-0.1-0.1-0.2
	s-0.1-0.1-0.2-0.1C10.9,18.6,10.9,18.5,10.9,18.5L10.9,18.5L10.9,18.5z M15.9,22.9c-0.3,0.4-1.1,0.4-0.8,0.7c0.3,0.2,1.1,0.4,1.4,0
	l0,0c0.2,0.2,0.4,0.4,0.6,0.2c0.3-0.1,0.6-0.5,0.4-0.8c-0.1-0.3-0.3,0-0.6,0.2c-0.1,0.1-0.2,0.1-0.4,0.1c0.1-0.4,0.1-0.8-0.1-1
	C16.1,22.1,16.1,22.5,15.9,22.9L15.9,22.9L15.9,22.9z M21.7,4.6L21.7,4.6c-0.4,0.2-0.5,0.7-0.8,0.3C20.6,4.6,21,4,21.4,3.8
	c0.4-0.3,1,0.2,1.2,0.6C22.9,4.6,22.1,4.3,21.7,4.6L21.7,4.6z M5.7,10.7L5.7,10.7L5.7,10.7c-0.3-0.2-0.7-0.3-0.5,0.2
	c0,0,0,0.1,0.1,0.2c0-0.1-0.2-0.2-0.3-0.3l0,0c-0.2-0.3-0.1-0.9-0.3-0.7s-0.6,0.7-0.3,1c0.2,0.2,0.7,0.5,0.9,0.3
	c0.1-0.1,0.1-0.1,0.1-0.2c0,0,0,0,0.1,0c0.1,0.1,0.2,0.1,0.4,0H6c0.3,0,0.6,0.6,0.6,0.3s-0.1-0.8-0.4-0.9C6,10.7,5.9,10.7,5.7,10.7
	L5.7,10.7z M11,5.4L11,5.4c0.2-0.3,0.7-0.1,1,0.1c0.2,0.2-0.3,0.1-0.5,0.4c0,0,0.1,0.1,0.2,0.1c0.2,0.2-0.4,0.1-0.6,0.3l0,0
	c-0.2,0.2-0.3,0.6-0.5,0.3c-0.2-0.2,0-0.6,0.2-0.8c-0.1-0.1-0.1-0.2-0.1-0.2c0-0.1,0-0.1,0-0.1h-0.1c0,0-0.7,0.1-0.5-0.3l0,0
	C10,5,10,5,10.3,5.1c0.1,0,0.3,0.1,0.3,0.2C10.7,5.3,10.9,5.3,11,5.4L11,5.4L11,5.4z M7.2,5.1L7.2,5.1c0.2-0.3,0.1-0.2-0.1-0.4
	C6.8,4.5,6.4,4.4,6.6,4.9C6.6,4.9,6.9,5.6,7.2,5.1L7.2,5.1z M16.9,6.2L16.9,6.2c-0.1,0.3-0.1,0.2-0.5,0.1c-0.3-0.1-0.6-0.4-0.1-0.5
	C16.4,5.8,17.1,5.7,16.9,6.2L16.9,6.2z M2.7,10.2L2.7,10.2c-0.1,0.3-0.1,0.2-0.5,0.1s-0.5-0.4,0-0.5h0.1c0.1-0.2,0.5-0.6,0.8-0.5
	S3.7,9.8,3.6,10S3.3,10,3,9.9c-0.1,0-0.2,0-0.3,0C2.8,9.9,2.8,10,2.7,10.2L2.7,10.2z M0.8,11.2L0.8,11.2c-0.1,0.3-0.1,0.2-0.5,0.1
	c-0.3-0.1-0.6-0.4-0.1-0.5C0.3,10.8,1,10.7,0.8,11.2L0.8,11.2z M29.6,12.2L29.6,12.2c0.2,0.2,0.6,0.4,0.3,0.6
	c-0.3,0.2-0.7,0-0.9-0.3c-0.1-0.1-0.1-0.1-0.1-0.2c0,0-0.1,0.1-0.2,0.1c0,0-0.7,0.1-0.5-0.3c0.1-0.3,0.1-0.2,0.4-0.1
	c0.1,0,0.3,0.1,0.3,0.2c0.1-0.2,0.2-0.5,0.4-0.6C29.5,11.3,29.3,11.9,29.6,12.2L29.6,12.2z M8.1,6.1L8.1,6.1C8,6,8,6,8,5.9
	C7.8,5.6,8.2,5.2,8.5,5.1c0.1,0,0.2,0,0.3,0c0-0.1-0.1-0.2-0.1-0.3c-0.1,0-0.3-0.1-0.4-0.1c-0.1,0-0.2,0-0.3,0.1C8,4.9,8,4.9,7.9,5
	C7.8,5.2,7.8,5.3,7.5,5.2l0,0C7.1,5,7.5,4.7,7.6,4.6c0.1-0.2,0.2-0.5,0.5-0.5c0.2,0,0.5,0.1,0.6,0.3c0-0.1,0.1-0.2,0.1-0.2
	C9,3.9,9.1,4.6,9.4,4.8l0,0C9.7,4.9,10,4.9,9.9,5.2C9.7,5.4,9.4,5.4,9.1,5.3c0.1,0.1,0.2,0.2,0.2,0.3h0.1C9.8,5.8,9,5.9,8.8,6.3
	C8.6,6.6,8.6,7.1,8.3,6.9C8,6.7,8,6.4,8.1,6.1L8.1,6.1z M7.8,2.4c0.3-0.2,0.9,0.2,0.8-0.1C8.5,2,8.1,1.5,7.7,1.7
	C7.4,1.8,7.1,2.2,7.2,2.5C7.3,2.8,7.5,2.5,7.8,2.4L7.8,2.4L7.8,2.4z M10.1,8.2L10.1,8.2c0.1,0,0.1,0.1,0.2,0.1
	c0.2,0,0.4,0.1,0.6,0.2c0.2,0.1-0.1,0.1-0.4,0.3l0,0l0,0l0,0c-0.1,0-0.1,0.1-0.1,0.1c-0.2,0.2-0.2,0.6-0.4,0.4
	C9.7,9.2,9.7,8.9,9.8,8.7c0,0-0.1,0-0.1-0.1c-0.3-0.2-0.2-0.8,0-1C9.8,7.3,9.8,8,10.1,8.2L10.1,8.2z M8.9,14.4
	c0.3,0.3,0.7,0.4,0.4,0.7c-0.1,0.1-0.3,0.1-0.5,0.1c0,0.1,0,0.1-0.1,0.1c-0.1,0.2-0.2-0.1-0.4-0.4c-0.1-0.1-0.2-0.2-0.3-0.3
	c0,0,0-0.1-0.1-0.1C7.5,14.3,7,14.4,7.2,14c0.1-0.3,0.5-0.3,0.8-0.3c0,0,0-0.1,0.1-0.1c-0.2,0-0.4,0-0.3-0.3c0-0.1,0.1-0.2,0.1-0.2
	c-0.1-0.2-0.2-0.4-0.2-0.6H7.6c-0.4-0.1-0.6-0.8-0.5-1.2C7.2,11,8,10.9,8.4,10.9C8.8,11,8,11.4,8,11.8l0,0c0,0.3,0,0.6-0.1,0.7
	c0.1,0.1,0.3,0.2,0.5,0.2c0.3,0,0.6-0.2,0.6,0.1s-0.3,0.4-0.6,0.5c0,0,0.1,0,0.1,0.1c0.2-0.1,0.1,0.3,0.2,0.6
	C8.8,14.1,8.9,14.3,8.9,14.4L8.9,14.4z M6.5,19.2C6,19,6.6,18.6,6.7,18.5c0.4-0.3,0.4,0.1,0.3,0.4C6.8,19.3,6.8,19.4,6.5,19.2
	L6.5,19.2L6.5,19.2z M24.4,9.6L24.4,9.6C24.4,9.7,24.4,9.7,24.4,9.6c0.1,0.1,0.2,0.2,0.1,0.4c-0.2,0.2-0.6,0.1-0.9-0.1
	c-0.3-0.2-0.1-0.7,0.1-0.9c0.1-0.1,0.1,0,0.2,0.2C24,9.2,24.6,9.2,24.4,9.6L24.4,9.6z M24,10.9L24,10.9c-0.1,0.3-0.1,0.2-0.5,0.1
	s-0.6-0.4-0.1-0.5C23.5,10.5,24.2,10.4,24,10.9L24,10.9z M11.1,21.7c0.5,0.1,0.3-0.6,0.3-0.6c-0.1-0.5-0.4-0.2-0.5,0.2
	C10.8,21.5,10.7,21.6,11.1,21.7L11.1,21.7L11.1,21.7z M5.2,19.3L5.2,19.3c-0.1,0.3-0.1,0.2-0.5,0.1c-0.3-0.1-0.6-0.4-0.1-0.5
	C4.7,18.9,5.4,18.8,5.2,19.3L5.2,19.3z M21.9,20.9L21.9,20.9c0.2-0.3,0.3-0.6,0.5-0.4c0.3,0.2,0.1,0.7-0.1,1s-0.8,0-1-0.2
	C21,21.1,21.7,21.2,21.9,20.9L21.9,20.9z M20.5,24.1L20.5,24.1c0.2-0.3,0.3-0.6,0.5-0.4c0.3,0.2,0.1,0.7-0.1,1s-0.8,0-1-0.2
	l-0.1-0.1c-0.2,0-0.5-0.3-0.6-0.5s0.4,0,0.7-0.1c0.3-0.1,0.4-0.4,0.6-0.2c0.1,0.2-0.1,0.5-0.3,0.7C20.3,24.3,20.5,24.2,20.5,24.1
	L20.5,24.1z M24.3,16.7L24.3,16.7c-0.3,0-0.6,0.2-0.6-0.1c0-0.3,0.5-0.5,0.8-0.5c0.4,0,0.6,0.6,0.6,0.9C25,17.2,24.7,16.7,24.3,16.7
	L24.3,16.7z M25.3,8.8c0.2,0.3,0,0.9,0.2,0.7c0.3-0.2,0.6-0.6,0.4-1c-0.2-0.3-0.6-0.6-0.9-0.4C24.8,8.4,25.1,8.6,25.3,8.8L25.3,8.8
	L25.3,8.8z M12.8,19.7c0.1-0.4,0.7-0.6,0.3-0.7c-0.3-0.1-0.9,0-1,0.4c-0.1,0.3,0,0.9,0.4,0.9C12.9,20.4,12.8,20,12.8,19.7L12.8,19.7
	L12.8,19.7z M1.9,13.3L1.9,13.3c-0.3,0.1-0.5,0.5-0.6,0.1c-0.1-0.3,0.2-0.7,0.5-0.8c0.3-0.2,0.7,0.3,0.9,0.6
	c0.1,0.2-0.2,0.1-0.4,0.1c0.1,0.2,0.1,0.6,0.4,0.7l0,0c0.3,0.2,0.7,0.3,0.5,0.6S2.4,14.7,2,14.5c-0.3-0.3-0.1-0.9,0.1-1.2
	C1.9,13.3,1.9,13.3,1.9,13.3L1.9,13.3z M16.4,1C16,0.6,16.3-0.2,16,0.1c-0.3,0.3-0.7,0.9-0.4,1.3c0.1,0.1,0.2,0.2,0.4,0.3
	c0,0.1,0,0.1,0,0.2c-0.1,0.3-0.3,0.5-0.1,0.6c0.3,0.1,0.6-0.3,0.7-0.6c0.1,0,0.2,0,0.3-0.1C17.1,1.4,16.7,1.3,16.4,1L16.4,1L16.4,1z
	 M25.6,12.1L25.6,12.1c-0.2-0.4-0.7-0.5-0.3-0.8c0.4-0.3,0.9,0.1,1.2,0.5c0.3,0.4-0.2,1-0.6,1.3C25.6,13.3,25.9,12.5,25.6,12.1
	L25.6,12.1z M10.4,23c-0.1-0.2-0.5-0.1-0.5-0.1C9.5,23,9.8,23.3,10,23.4h0.1c-0.4,0.3-1.2,0.1-0.9,0.4s1,0.7,1.3,0.4
	c0.3-0.3,0.6-0.9,0.3-1.2C10.7,22.7,10.6,22.8,10.4,23L10.4,23L10.4,23z M12,10.4c0.1-0.1,0.1,0,0.3,0c0.3,0.1,0.6,0.4,0.1,0.4
	c0,0-0.2,0-0.3,0c0,0.2,0,0.3,0,0.5c0.1-0.1,0.1-0.2,0.2-0.3c0.3-0.4,0.9-0.1,1.2,0.1c0.3,0.2-0.5,0.2-0.7,0.5l0,0
	c-0.2,0.3-0.3,0.7-0.6,0.5c-0.1-0.1-0.1-0.1-0.1-0.2V12c-0.2,0.9-1.7,0.9-2.4,0.7c-0.7-0.2,0.8-0.7,1-1.6l0,0
	c0.2-0.8-0.1-1.6,0.7-1.4C11.6,10,11.8,10.2,12,10.4L12,10.4z M4.6,17.9c-0.1-0.5,0.5-0.3,0.5-0.3C5.6,17.7,5.3,18,5,18.1
	C4.7,18.1,4.7,18.2,4.6,17.9L4.6,17.9L4.6,17.9z M24.5,9.1L24.5,9.1c0.5-0.2-0.1-0.6-0.1-0.6C24,8.2,24,8.6,24.1,8.9
	C24.3,9.1,24.2,9.2,24.5,9.1L24.5,9.1z M5.5,9L5.5,9C5.2,9.1,5.3,9,5.1,8.8s0-0.6,0.3-0.4C5.5,8.5,6,8.9,5.5,9L5.5,9z M17.1,4.2
	L17.1,4.2C17,4,17,4,17.3,3.8c0.2-0.2,0.6-0.2,0.4,0.2C17.7,4.1,17.4,4.7,17.1,4.2L17.1,4.2z M28.4,16L28.4,16
	c-0.1,0.3-0.1,0.2-0.4,0.1s-0.6-0.4-0.1-0.4C27.9,15.7,28.5,15.6,28.4,16L28.4,16z M1.2,15c0.2-0.2,0.1-0.2-0.2-0.4
	c-0.2-0.2-0.6-0.2-0.4,0.2C0.7,14.8,1,15.4,1.2,15L1.2,15L1.2,15z M6.9,7.8C6.7,7.9,6.5,8.1,6.5,7.9c0-0.3,0.2-0.8,0.6-0.8h0.1
	c0.3-0.2,0.4,0,0.5,0.2c0.1,0.1,0.1,0.2,0.1,0.3l0,0C8,8,8.2,8.4,8.8,8.2C10.1,7.9,8,10.5,8,10.6c-0.2,0.4-1,0-1.4,0.1l0,0
	c-0.3,0-0.9-0.2-0.7-0.6C6,9.9,6.2,9.8,6.3,9.8C9.8,10.1,7.3,8.8,6.9,7.8L6.9,7.8z M4,13.6L4,13.6c0-0.3,0.1-0.6-0.2-0.5
	s-0.4,0.5-0.3,0.8c0.1,0.3,0.6,0.4,0.9,0.3C4.6,14.2,4.1,14,4,13.6L4,13.6z M12.4,3.4c-0.3,0.1-0.5,0.7-0.6,0.4
	C11.7,3.6,11.7,3,12,2.9s0.8-0.1,0.9,0.2C13,3.4,12.7,3.3,12.4,3.4L12.4,3.4L12.4,3.4z M19.6,2.8L19.6,2.8c0.3,0.2,0.5,0.6,0.7,0.3
	S20.2,2.3,19.9,2c-0.4-0.3-0.9,0.2-1.1,0.5C18.5,2.8,19.3,2.6,19.6,2.8L19.6,2.8z M26.4,18.6L26.4,18.6c-0.3,0.1-0.2,0.1-0.4-0.2
	c-0.1-0.3-0.1-0.6,0.3-0.4C26.3,18,26.9,18.4,26.4,18.6L26.4,18.6z M11.9,14.1L11.9,14.1c-0.4-0.6-0.4-0.4-1.1-0.1
	c-0.7,0.4-1.1,1.2,0,1.2C10.9,15.2,12.5,15.1,11.9,14.1L11.9,14.1z M20.3,11.7L20.3,11.7c-0.3-0.6-0.4-0.5-0.9-0.2
	c-0.3-0.1-0.4-0.1-0.6,0.4c-0.4,0.4-0.5,0.9,0.3,0.9c0.4,0.1,0.9,0,1,0c0.8-0.2,0.7-0.6,0.3-0.9C20.4,11.9,20.3,11.8,20.3,11.7
	L20.3,11.7z M18,21.4L18,21.4c-0.1-0.4-0.4-0.8,0.1-0.9c0.4-0.1,0.8,0.6,0.9,1c0.1,0.5-0.6,0.8-1.1,0.9C17.5,22.5,18.1,21.9,18,21.4
	L18,21.4z M18.2,9.8L18.2,9.8c0.1,0.3,0.1,0.2,0.4,0.1c0.3-0.1,0.6-0.4,0.1-0.4C18.7,9.5,18.1,9.3,18.2,9.8L18.2,9.8z M23.3,20.6
	L23.3,20.6c0.1,0.3,0.1,0.2,0.4,0.1s0.6-0.4,0.1-0.4C23.8,20.2,23.2,20.1,23.3,20.6L23.3,20.6z M21,15.4L21,15.4
	c-0.1-0.5,0.5-0.3,0.5-0.3c0.4,0.1,0.2,0.4-0.1,0.4C21.2,15.6,21.1,15.7,21,15.4L21,15.4z M20.3,16.7c-0.1-0.5,0.5-0.3,0.5-0.3
	c0.4,0.1,0.2,0.4-0.1,0.4C20.4,16.9,20.3,17,20.3,16.7L20.3,16.7L20.3,16.7z M10,3.9c0.4-0.2,0.4,0.4,0.4,0.5c0,0.4-0.3,0.2-0.5,0
	C9.8,4.1,9.7,4.1,10,3.9L10,3.9L10,3.9z M9.9,21.9L9.9,21.9c0.1-0.3,0.1-0.2,0.4-0.1c0.3,0.1,0.6,0.4,0.1,0.4
	C10.4,22.2,9.7,22.3,9.9,21.9L9.9,21.9z M25.5,16.4L25.5,16.4c-0.1,0.5,0.5,0.3,0.5,0.3c0.4-0.1,0.2-0.4-0.1-0.4
	C25.6,16.2,25.5,16.1,25.5,16.4L25.5,16.4z M8.7,17.8L8.7,17.8c-0.3-0.1-0.2-0.1-0.1-0.4C8.7,17.1,9,16.8,9,17.3
	C9,17.3,9.1,18,8.7,17.8L8.7,17.8z M21.5,10.5c0,0.3-0.4,0.7-0.2,0.7c0.3,0,0.8-0.2,0.8-0.5S21.9,10,21.6,10c0,0,0,0-0.1,0
	c0.1-0.3,0.2-0.5,0-0.7C21.2,9,20.7,8.7,20.4,9c-0.3,0.3,0.1,0.4,0.4,0.7l0,0c0.3,0.3,0.1,1.1,0.4,0.8c0.1-0.1,0.1-0.2,0.2-0.3
	C21.4,10.3,21.5,10.4,21.5,10.5L21.5,10.5L21.5,10.5z M14.1,7.2L14.1,7.2C14.3,7,14.4,6.7,14.6,7c0.2,0.2-0.1,0.6-0.3,0.8
	C14,8,13.6,7.7,13.4,7.5C13.2,7.2,13.8,7.4,14.1,7.2L14.1,7.2z M21.3,13.2c0.3-0.4,0.6,0.2,0.6,0.2c0.2,0.4-0.2,0.4-0.4,0.2
	C21.2,13.5,21.1,13.5,21.3,13.2L21.3,13.2L21.3,13.2z M20.3,21.3L20.3,21.3c-0.2,0.2-0.1,0.2,0.2,0.4s0.6,0.2,0.4-0.2
	C20.9,21.5,20.6,20.9,20.3,21.3L20.3,21.3z M11.9,17.7L11.9,17.7c-0.1,0.5,0.5,0.3,0.5,0.3c0.4-0.1,0.2-0.4-0.1-0.4
	C12,17.4,11.9,17.4,11.9,17.7L11.9,17.7z M26.5,13c-0.2,0.5,0.5,0.3,0.5,0.3c0.4-0.1,0.2-0.4-0.1-0.4C26.6,12.8,26.6,12.8,26.5,13
	L26.5,13L26.5,13z M24.4,12.6L24.4,12.6c0.2,0.2,0.1,0.8,0.3,0.6s0.5-0.7,0.2-0.9c-0.2-0.2-0.6-0.4-0.9-0.2
	C23.9,12.3,24.2,12.4,24.4,12.6L24.4,12.6z M2.8,12.6L2.8,12.6c0.2,0.2,0.1,0.8,0.3,0.6s0.5-0.7,0.2-0.9c-0.2-0.2-0.6-0.4-0.9-0.2
	C2.2,12.3,2.5,12.3,2.8,12.6L2.8,12.6z M21.2,19.3L21.2,19.3c-0.3-0.1-0.6-0.1-0.5-0.4s0.6-0.2,0.9-0.1s0.2,0.7,0.1,0.9
	C21.6,20,21.5,19.4,21.2,19.3L21.2,19.3z M22.1,22.3L22.1,22.3c0.3,0.1,0.4,0.7,0.5,0.5s0.2-0.8-0.1-0.9c-0.3-0.1-0.7-0.2-0.9,0.1
	C21.5,22.2,21.8,22.1,22.1,22.3L22.1,22.3z M23,15.8L23,15.8c0,0.4-0.7,0.8-0.4,0.8c0.4,0,1.1-0.1,1.1-0.5s-0.1-1-0.5-1
	C22.8,15.1,23,15.4,23,15.8L23,15.8z M19.4,14.9c0.3,0.1,0.4,0.7,0.5,0.5s0.2-0.8-0.1-0.9c-0.1-0.1-0.3-0.1-0.5-0.1
	c0-0.1,0-0.2-0.1-0.2C19,14,18.6,13.8,18.3,14c-0.2,0.2,0.1,0.3,0.3,0.5l0,0c0.2,0.2,0.1,0.8,0.3,0.6C19,15,19,15,19,14.9
	C19.2,14.8,19.3,14.9,19.4,14.9L19.4,14.9L19.4,14.9z M9.4,10.9L9.4,10.9c-0.2,0.2-0.1,0.2,0.2,0.4c0.2,0.2,0.6,0.2,0.4-0.2
	C10,11.1,9.7,10.5,9.4,10.9L9.4,10.9z M8.8,15.9L8.8,15.9c0.1-0.3,0.1-0.2,0.4-0.1c0.3,0.1,0.6,0.4,0.1,0.4
	C9.2,16.2,8.6,16.4,8.8,15.9L8.8,15.9z M18.2,5.9L18.2,5.9c-0.1-0.3,0.3-0.7,0.1-0.7c-0.3,0.1-0.7,0.3-0.7,0.6
	c0.1,0.3,0.3,0.7,0.6,0.6C18.5,6.4,18.2,6.2,18.2,5.9L18.2,5.9z M6.8,15.4L6.8,15.4L6.8,15.4L6.8,15.4c0.3-0.3,1-0.1,1.3,0.2
	c0.3,0.2-0.5,0.2-0.7,0.5l0,0c-0.2,0.3-0.3,0.7-0.6,0.5c-0.2-0.1-0.2-0.4-0.1-0.6c-0.2-0.1-0.3-0.2-0.4-0.3
	c-0.2-0.3,0.1-0.7,0.3-0.9C6.7,14.5,6.5,15.1,6.8,15.4L6.8,15.4z M11.6,9c0,0.3-0.6,0.6-0.3,0.6s0.8-0.1,0.9-0.4
	c0-0.3-0.1-0.8-0.4-0.8C11.5,8.4,11.7,8.7,11.6,9L11.6,9L11.6,9z M27.1,10.2L27.1,10.2c0.3-0.1,0.4-0.4,0.6-0.2
	c0.1,0.3-0.2,0.6-0.4,0.8c-0.3,0.2-0.7-0.2-0.8-0.5C26.3,10.1,26.8,10.4,27.1,10.2L27.1,10.2z M5.6,12.3C5.7,12,5.9,11.8,6,11.6
	c0.2-0.2,0.1,0.2,0.2,0.6c0.1,0,0.2,0,0.2,0.2c0,0.1,0,0.1,0,0.2C6.7,12.8,7,13,6.7,13.2c-0.2,0.2-0.6,0.1-0.8-0.1
	c-0.1,0-0.2,0.1-0.3,0.1c-0.4,0-0.7-0.6-0.7-1C4.8,11.8,5.2,12.2,5.6,12.3L5.6,12.3z M23,13.8c-0.5,0-0.5-0.5-0.9-0.6
	c-0.7-0.2-0.3-0.9-0.4-1.4c0-0.1,0.1-0.2,0.2-0.1c0.1,0,0.2,0.5,0.3,0.5l0,0c0.1,0,0.1,0.1,0.2,0.1l0,0l0.1,0.1l0,0
	c0.8,0.1-0.6,0.3,0.9,0.7c0.6,0.1,1,0.4,1.2,0.7s0.2,1-0.2,1.1C23.4,15.1,24.4,13.8,23,13.8L23,13.8z"/>
</svg>
