<?xml version="1.0" encoding="utf-8"?>
<!-- Generator: Adobe Illustrator 23.0.1, SVG Export Plug-In . SVG Version: 6.00 Build 0)  -->
<svg version="1.1" id="圖層_1" xmlns="http://www.w3.org/2000/svg" xmlns:xlink="http://www.w3.org/1999/xlink" x="0px" y="0px"
	 viewBox="0 0 107.73 41.94" style="enable-background:new 0 0 107.73 41.94;" xml:space="preserve">
<style type="text/css">
	.st0{fill:#F3F3F4;}
	.st1{fill:#FFFFFF;stroke:#231815;stroke-width:0.5;stroke-miterlimit:10;}
	.st2{fill:#789626;stroke:#789626;stroke-width:3;}
	.st3{fill:#B1D8D4;}
	.st4{fill-rule:evenodd;clip-rule:evenodd;fill:#7A432A;}
	.st5{fill-rule:evenodd;clip-rule:evenodd;fill:#8A5330;}
	.st6{fill-rule:evenodd;clip-rule:evenodd;fill:#975C34;}
	.st7{fill-rule:evenodd;clip-rule:evenodd;fill:#9A5E36;}
	.st8{fill-rule:evenodd;clip-rule:evenodd;fill:#A16338;}
	.st9{fill-rule:evenodd;clip-rule:evenodd;fill:#A8653A;}
	.st10{fill-rule:evenodd;clip-rule:evenodd;fill:#904332;}
	.st11{fill-rule:evenodd;clip-rule:evenodd;fill:#995635;}
	.st12{fill-rule:evenodd;clip-rule:evenodd;fill:#7A5B4B;}
	.st13{fill-rule:evenodd;clip-rule:evenodd;fill:#8A6B55;}
	.st14{fill-rule:evenodd;clip-rule:evenodd;fill:#97765D;}
	.st15{fill-rule:evenodd;clip-rule:evenodd;fill:#9A795F;}
	.st16{fill-rule:evenodd;clip-rule:evenodd;fill:#A17F63;}
	.st17{fill-rule:evenodd;clip-rule:evenodd;fill:#A88368;}
	.st18{fill-rule:evenodd;clip-rule:evenodd;fill:#906559;}
	.st19{fill-rule:evenodd;clip-rule:evenodd;fill:#99735E;}
	.st20{fill-rule:evenodd;clip-rule:evenodd;fill:#7A3D31;}
	.st21{fill-rule:evenodd;clip-rule:evenodd;fill:#8A4C37;}
	.st22{fill-rule:evenodd;clip-rule:evenodd;fill:#97543C;}
	.st23{fill-rule:evenodd;clip-rule:evenodd;fill:#9A563D;}
	.st24{fill-rule:evenodd;clip-rule:evenodd;fill:#A15A40;}
	.st25{fill-rule:evenodd;clip-rule:evenodd;fill:#A85D43;}
	.st26{fill-rule:evenodd;clip-rule:evenodd;fill:#903D39;}
	.st27{fill-rule:evenodd;clip-rule:evenodd;fill:#994E3D;}
	.st28{fill:none;}
	.st29{fill:#825035;}
	.st30{fill:#4C2A1A;}
	.st31{fill:#FFFFEA;}
	.st32{fill:#F5F2EA;}
	.st33{fill:#994E3D;}
	.st34{fill-rule:evenodd;clip-rule:evenodd;fill:#3E0E00;}
	.st35{fill-rule:evenodd;clip-rule:evenodd;fill:#4E1800;}
	.st36{fill-rule:evenodd;clip-rule:evenodd;fill:#5B1E00;}
	.st37{fill-rule:evenodd;clip-rule:evenodd;fill:#5E1F00;}
	.st38{fill-rule:evenodd;clip-rule:evenodd;fill:#652100;}
	.st39{fill-rule:evenodd;clip-rule:evenodd;fill:#6C2200;}
	.st40{fill-rule:evenodd;clip-rule:evenodd;fill:#540900;}
	.st41{fill-rule:evenodd;clip-rule:evenodd;fill:#5D1700;}
	.st42{fill-rule:evenodd;clip-rule:evenodd;fill:#40622F;}
	.st43{fill-rule:evenodd;clip-rule:evenodd;fill:url(#SVGID_29_);}
	.st44{fill-rule:evenodd;clip-rule:evenodd;fill:url(#SVGID_30_);}
	.st45{fill-rule:evenodd;clip-rule:evenodd;fill:url(#SVGID_31_);}
	.st46{fill-rule:evenodd;clip-rule:evenodd;fill:url(#SVGID_32_);}
	.st47{fill-rule:evenodd;clip-rule:evenodd;fill:#460100;}
	.st48{clip-path:url(#SVGID_34_);}
	.st49{fill:#202916;}
	.st50{fill-rule:evenodd;clip-rule:evenodd;fill:#88B559;}
	.st51{fill-rule:evenodd;clip-rule:evenodd;fill:#B5814C;}
	.st52{opacity:0.67;}
	.st53{fill:#FFFFFF;}
	.st54{fill:none;stroke:#231815;stroke-miterlimit:10;}
	.st55{fill:#FFFFFF;stroke:#231815;stroke-miterlimit:10;}
	.st56{fill:url(#SVGID_39_);}
	.st57{fill-rule:evenodd;clip-rule:evenodd;fill:#DAE4EA;}
	.st58{fill-rule:evenodd;clip-rule:evenodd;fill:#B14F00;}
	.st59{fill-rule:evenodd;clip-rule:evenodd;fill:#BA9B87;}
	.st60{fill-rule:evenodd;clip-rule:evenodd;fill:url(#SVGID_40_);}
	.st61{fill-rule:evenodd;clip-rule:evenodd;fill:url(#SVGID_41_);}
	.st62{fill-rule:evenodd;clip-rule:evenodd;fill:url(#SVGID_42_);}
	.st63{fill-rule:evenodd;clip-rule:evenodd;fill:url(#SVGID_43_);}
	.st64{fill-rule:evenodd;clip-rule:evenodd;fill:url(#SVGID_44_);}
	.st65{fill-rule:evenodd;clip-rule:evenodd;fill:url(#SVGID_45_);}
	.st66{fill-rule:evenodd;clip-rule:evenodd;fill:url(#SVGID_46_);}
	.st67{fill-rule:evenodd;clip-rule:evenodd;fill:url(#SVGID_47_);}
	.st68{fill-rule:evenodd;clip-rule:evenodd;fill:url(#SVGID_48_);}
	.st69{fill-rule:evenodd;clip-rule:evenodd;fill:#3C2115;}
	.st70{fill-rule:evenodd;clip-rule:evenodd;fill:url(#SVGID_49_);}
	.st71{fill-rule:evenodd;clip-rule:evenodd;fill:#FDEFD9;}
	.st72{fill-rule:evenodd;clip-rule:evenodd;fill:#D7E3EB;}
	.st73{fill-rule:evenodd;clip-rule:evenodd;fill:#231815;}
	.st74{fill-rule:evenodd;clip-rule:evenodd;fill:#B78460;}
	.st75{fill-rule:evenodd;clip-rule:evenodd;fill:#AF734E;}
	.st76{fill-rule:evenodd;clip-rule:evenodd;fill:#AA6540;}
	.st77{fill-rule:evenodd;clip-rule:evenodd;fill:#A35530;}
	.st78{fill-rule:evenodd;clip-rule:evenodd;fill:#9E4722;}
	.st79{fill-rule:evenodd;clip-rule:evenodd;fill:#983716;}
	.st80{fill-rule:evenodd;clip-rule:evenodd;fill:#912508;}
	.st81{fill-rule:evenodd;clip-rule:evenodd;fill:#8B0D00;}
	.st82{fill-rule:evenodd;clip-rule:evenodd;fill:#860000;}
	.st83{fill-rule:evenodd;clip-rule:evenodd;fill:#640000;}
	.st84{fill-rule:evenodd;clip-rule:evenodd;fill:#CB997C;}
	.st85{fill-rule:evenodd;clip-rule:evenodd;fill:#B86C30;}
	.st86{fill-rule:evenodd;clip-rule:evenodd;fill:#5F3514;}
	.st87{fill-rule:evenodd;clip-rule:evenodd;fill:url(#SVGID_50_);}
	.st88{fill-rule:evenodd;clip-rule:evenodd;fill:url(#SVGID_51_);}
	.st89{fill-rule:evenodd;clip-rule:evenodd;fill:url(#SVGID_52_);}
	.st90{fill-rule:evenodd;clip-rule:evenodd;fill:url(#SVGID_53_);}
	.st91{fill-rule:evenodd;clip-rule:evenodd;fill:url(#SVGID_54_);}
	.st92{fill-rule:evenodd;clip-rule:evenodd;fill:url(#SVGID_55_);}
	.st93{fill-rule:evenodd;clip-rule:evenodd;fill:url(#SVGID_56_);}
	.st94{fill-rule:evenodd;clip-rule:evenodd;fill:url(#SVGID_57_);}
	.st95{fill-rule:evenodd;clip-rule:evenodd;fill:url(#SVGID_58_);}
	.st96{fill-rule:evenodd;clip-rule:evenodd;fill:url(#SVGID_59_);}
	.st97{fill:url(#SVGID_60_);stroke:#64513F;stroke-width:0.25;}
	.st98{fill:#FDEFD9;}
	.st99{fill:#B1D8B7;}
	.st100{fill-rule:evenodd;clip-rule:evenodd;fill:url(#SVGID_61_);}
	.st101{fill-rule:evenodd;clip-rule:evenodd;fill:url(#SVGID_62_);}
	.st102{fill-rule:evenodd;clip-rule:evenodd;fill:url(#SVGID_63_);}
	.st103{fill-rule:evenodd;clip-rule:evenodd;fill:url(#SVGID_64_);}
	.st104{fill-rule:evenodd;clip-rule:evenodd;fill:url(#SVGID_65_);}
	.st105{fill-rule:evenodd;clip-rule:evenodd;fill:url(#SVGID_66_);}
	.st106{fill-rule:evenodd;clip-rule:evenodd;fill:url(#SVGID_67_);}
	.st107{fill-rule:evenodd;clip-rule:evenodd;fill:url(#SVGID_68_);}
	.st108{fill-rule:evenodd;clip-rule:evenodd;fill:url(#SVGID_69_);}
	.st109{fill-rule:evenodd;clip-rule:evenodd;fill:url(#SVGID_70_);}
	.st110{fill-rule:evenodd;clip-rule:evenodd;fill:url(#SVGID_71_);}
	.st111{fill-rule:evenodd;clip-rule:evenodd;fill:url(#SVGID_72_);}
	.st112{fill-rule:evenodd;clip-rule:evenodd;fill:url(#SVGID_73_);}
	.st113{fill-rule:evenodd;clip-rule:evenodd;fill:url(#SVGID_74_);}
	.st114{fill-rule:evenodd;clip-rule:evenodd;fill:url(#SVGID_75_);}
	.st115{fill-rule:evenodd;clip-rule:evenodd;fill:url(#SVGID_76_);}
	.st116{fill-rule:evenodd;clip-rule:evenodd;fill:url(#SVGID_77_);}
	.st117{fill-rule:evenodd;clip-rule:evenodd;fill:url(#SVGID_78_);}
	.st118{fill-rule:evenodd;clip-rule:evenodd;fill:url(#SVGID_79_);}
	.st119{fill-rule:evenodd;clip-rule:evenodd;fill:url(#SVGID_80_);}
	.st120{fill:url(#SVGID_81_);stroke:#64513F;stroke-width:0.25;}
	.st121{fill-rule:evenodd;clip-rule:evenodd;fill:#2D7F18;}
	.st122{fill-rule:evenodd;clip-rule:evenodd;fill:#5D3730;}
	.st123{fill-rule:evenodd;clip-rule:evenodd;fill:#7F4428;}
	.st124{fill:url(#SVGID_84_);}
	.st125{fill:#FEF9F4;}
	.st126{fill:#FFFFFF;stroke:#000000;stroke-miterlimit:10;}
	.st127{clip-path:url(#SVGID_88_);}
	.st128{fill:url(#SVGID_95_);}
	.st129{clip-path:url(#SVGID_105_);}
	.st130{clip-path:url(#SVGID_109_);}
	.st131{fill:url(#SVGID_112_);}
	.st132{fill-rule:evenodd;clip-rule:evenodd;fill:url(#SVGID_121_);}
	.st133{fill-rule:evenodd;clip-rule:evenodd;fill:url(#SVGID_122_);}
	.st134{fill-rule:evenodd;clip-rule:evenodd;fill:url(#SVGID_123_);}
	.st135{fill-rule:evenodd;clip-rule:evenodd;fill:url(#SVGID_124_);}
	.st136{fill-rule:evenodd;clip-rule:evenodd;fill:url(#SVGID_125_);}
	.st137{fill-rule:evenodd;clip-rule:evenodd;fill:url(#SVGID_126_);}
	.st138{fill-rule:evenodd;clip-rule:evenodd;fill:url(#SVGID_127_);}
	.st139{fill-rule:evenodd;clip-rule:evenodd;fill:url(#SVGID_128_);}
	.st140{fill-rule:evenodd;clip-rule:evenodd;fill:url(#SVGID_129_);}
	.st141{fill-rule:evenodd;clip-rule:evenodd;fill:url(#SVGID_130_);}
	.st142{fill-rule:evenodd;clip-rule:evenodd;fill:url(#SVGID_131_);}
	.st143{fill-rule:evenodd;clip-rule:evenodd;fill:url(#SVGID_132_);}
	.st144{fill-rule:evenodd;clip-rule:evenodd;fill:url(#SVGID_133_);}
	.st145{fill-rule:evenodd;clip-rule:evenodd;fill:url(#SVGID_134_);}
	.st146{fill-rule:evenodd;clip-rule:evenodd;fill:url(#SVGID_135_);}
	.st147{fill-rule:evenodd;clip-rule:evenodd;fill:url(#SVGID_136_);}
	.st148{fill-rule:evenodd;clip-rule:evenodd;fill:url(#SVGID_137_);}
	.st149{fill-rule:evenodd;clip-rule:evenodd;fill:url(#SVGID_138_);}
	.st150{fill-rule:evenodd;clip-rule:evenodd;fill:url(#SVGID_139_);}
	.st151{fill-rule:evenodd;clip-rule:evenodd;fill:url(#SVGID_140_);}
	.st152{fill:url(#SVGID_141_);stroke:#64513F;stroke-width:0.25;}
	.st153{fill-rule:evenodd;clip-rule:evenodd;fill:#C4896B;}
	.st154{fill-rule:evenodd;clip-rule:evenodd;fill:#D3A383;}
	.st155{fill-rule:evenodd;clip-rule:evenodd;fill:#D9AE90;}
	.st156{fill-rule:evenodd;clip-rule:evenodd;fill:#E8C7AB;}
	.st157{fill-rule:evenodd;clip-rule:evenodd;fill:#F1D7BC;}
	.st158{fill-rule:evenodd;clip-rule:evenodd;fill:#F7E3C9;}
	.st159{fill-rule:evenodd;clip-rule:evenodd;fill:#FFFFFF;}
	.st160{fill-rule:evenodd;clip-rule:evenodd;fill:#6B2700;}
	.st161{fill-rule:evenodd;clip-rule:evenodd;fill:url(#SVGID_142_);}
	.st162{fill-rule:evenodd;clip-rule:evenodd;fill:#7F4B25;}
	.st163{fill-rule:evenodd;clip-rule:evenodd;fill:#BE956F;}
	.st164{fill:none;stroke:#2F391A;stroke-miterlimit:10;}
	.st165{fill:#652100;}
	.st166{clip-path:url(#SVGID_148_);}
	.st167{clip-path:url(#SVGID_150_);}
	.st168{fill-rule:evenodd;clip-rule:evenodd;fill:#3A673A;}
	.st169{fill-rule:evenodd;clip-rule:evenodd;fill:url(#SVGID_153_);}
	.st170{fill-rule:evenodd;clip-rule:evenodd;fill:url(#SVGID_154_);}
	.st171{fill-rule:evenodd;clip-rule:evenodd;fill:#214623;}
	.st172{fill-rule:evenodd;clip-rule:evenodd;fill:#456132;}
	.st173{fill-rule:evenodd;clip-rule:evenodd;fill:#67793D;}
	.st174{fill-rule:evenodd;clip-rule:evenodd;fill:#889247;}
	.st175{fill-rule:evenodd;clip-rule:evenodd;fill:url(#SVGID_155_);}
	.st176{fill-rule:evenodd;clip-rule:evenodd;fill:url(#SVGID_156_);}
</style>
<g>
	<g>
		<g>
			<path class="st49" d="M27.82,9.3c-1.12-1.31-2.49-2.32-4.11-3.03c-1.62-0.71-3.31-1.07-5.08-1.07c-1.68,0-3.3,0.33-4.85,1
				c-1.55,0.66-2.87,1.61-3.97,2.84c-1.99,2.3-2.99,5.32-2.99,9.07c0,1.83,0.29,3.61,0.86,5.35c0.57,1.74,1.41,3.21,2.52,4.42
				c2.12,2.21,5.07,3.32,8.86,3.32c2.6,0,4.77-0.45,6.51-1.34v-4.41v-2.23c0-1.66-0.04-2.9-0.12-3.71c1.02,0.08,1.68,0.12,1.98,0.12
				c0.89,0,1.49-0.08,1.79-0.25v1.22l-0.14,4.08v4.85v1.4c-3.62,1.24-7.32,1.85-11.09,1.85c-2.93,0-5.61-0.6-8.04-1.79
				c-2.27-1.01-4.15-2.79-5.62-5.36c-0.98-1.84-1.46-4.26-1.46-7.28c0-3.07,0.69-5.71,2.06-7.91c1.38-2.2,3.27-3.86,5.67-4.97
				C13,4.36,15.74,3.8,18.82,3.8c1.88,0,3.59,0.15,5.14,0.45c1.55,0.3,3.13,0.81,4.75,1.53c0.06,0.06,0.16,0.12,0.28,0.19
				c0.12,0.06,0.2,0.11,0.23,0.14c-0.18,0.48-0.36,1.05-0.55,1.72c-0.19,0.67-0.33,1.16-0.42,1.47H27.82z"/>
			<path class="st49" d="M46.89,3.68l11.56,27l0.7,1.46c-0.93-0.08-1.62-0.12-2.04-0.12c-1.03,0-1.78,0.04-2.24,0.12l-0.37-1.22
				l-1.85-4.85l-1.98-4.85l-4.91-0.14l-5.5,0.14c-2,5.11-3.34,8.75-4.02,10.91c-0.29-0.08-0.76-0.12-1.4-0.12
				c-0.33,0-0.84,0.04-1.53,0.12L46.06,3.68H46.89z M50.02,19.51L45.49,9.04l-4.46,10.47h4.91H50.02z"/>
			<path class="st49" d="M59.34,36.68c2.05-0.08,3.4-0.8,4.06-2.14c0.66-1.35,0.99-3.14,0.99-5.4c0.08-3.57,0.12-6.23,0.12-7.98
				v-4.78v-2.87c-0.08-4-0.19-7-0.33-9V4.19c0.43,0.08,1.11,0.12,2.06,0.12c0.84,0,1.47-0.04,1.9-0.12l-0.06,0.45
				c-0.17,1.58-0.25,3.43-0.25,5.55v7.46l0.19,10.92c0,2.68-0.74,4.86-2.21,6.55c-1.47,1.69-3.52,2.56-6.14,2.63L59.34,36.68z"/>
			<path class="st49" d="M96.73,29.92c-0.02,0.02-0.04,0.05-0.05,0.08c-0.04,0.07-0.05,0.14-0.05,0.19c0,0.15,0.14,0.21,0.33,0.26
				L96.73,29.92z M96.2,30.47c-0.35-0.03-0.18,0.3-0.21,0.64c-0.04,0.38-0.62,0.69-0.31,0.72c0.31,0.03,0.92-0.08,0.96-0.45
				C96.67,31.03,96.55,30.5,96.2,30.47z M95.66,27.43l-0.01-0.01l-0.28-0.64l-0.73-1.71l-0.58-1.34L85.5,3.68h-0.83L71.91,32.14
				c0.69-0.08,1.19-0.12,1.53-0.12c0.64,0,1.11,0.04,1.4,0.12c0.67-2.16,2.01-5.79,4.02-10.9l5.5-0.14l4.91,0.14l1.25,3.05l0.25,0.6
				l0.49,1.19l0.07,0.19l0.22,0.57c0.14,0.03,0.14-0.06,0.26-0.3c0.03-0.06,0.06-0.13,0.07-0.2c0.1-0.04,0.2-0.07,0.3-0.06
				c0.2,0.02,0.38,0.11,0.51,0.1c0,0.11,0.02,0.21,0.06,0.3c-0.1-0.03-0.2-0.03-0.29,0.02c-0.34,0.16-0.77,0.58-0.6,0.93
				c0.04,0.08,0.08,0.13,0.12,0.14c-0.01,0.04-0.02,0.09-0.03,0.13l0.31,0.83c0.33,0.12,0.31-0.33,0.5-0.69
				c0.25-0.44,1.11-0.51,0.74-0.7c-0.03-0.02-0.07-0.04-0.1-0.05c-0.06-0.1-0.14-0.22-0.24-0.32c0.28,0.09,0.62,0.09,0.79-0.09
				c-0.04,0.39,0.58,0.26,0.61,0.25c0.06-0.01,0.12-0.03,0.16-0.05c0.01,0.04,0.02,0.09,0.05,0.14c0.01,0.01,0.05,0.11,0.12,0.22
				c-0.22,0.25-0.42,0.72-0.17,0.95c0.06,0.05,0.11,0.08,0.15,0.08c0.14,0,0.22-0.26,0.4-0.45c0.14-0.15,0.39-0.19,0.56-0.22
				L95.66,27.43z M79.64,19.51l4.46-10.47l4.53,10.47H79.64z M94.15,25.37c0.5-0.24,0.44,0.49,0.44,0.53
				c-0.04,0.51-0.38,0.26-0.52-0.05C93.93,25.53,93.85,25.51,94.15,25.37z M92.88,24.42l0.02,0.06c0.16,0.08,0.3,0.28,0.31,0.29
				c0.29,0.41-0.13,0.45-0.43,0.29c-0.22-0.11-0.31-0.12-0.3-0.24c-0.12-0.12-0.54-0.56-0.03-0.73
				C92.8,23.99,92.75,24.07,92.88,24.42z M90.99,23.8c-0.17-0.35,0.26-0.77,0.6-0.93c0.39-0.18,0.83,0.33,0.98,0.65
				c0.15,0.32-0.48-0.06-0.86,0.12C91.37,23.8,91.16,24.15,90.99,23.8z M95.13,30.48c-0.14-0.11-0.39-0.23-0.62-0.25
				c-0.07-0.02-0.14-0.05-0.2-0.09c-0.37-0.2-0.43-0.93-0.59-0.62c-0.17,0.3-0.32,0.96,0.05,1.16c0.04,0.02,0.09,0.04,0.13,0.06
				c-0.07,0.24-0.08,0.49,0.1,0.62c0.28,0.21,0.3-0.16,0.51-0.44c0.04-0.06,0.1-0.1,0.17-0.14l0.01-0.01l0.03-0.01
				C94.98,30.63,95.33,30.62,95.13,30.48z M92.84,30.24l0.26,0.69l0.01,0.03C93.34,30.47,93.36,30.12,92.84,30.24z"/>
			<g>
				<path class="st50" d="M55.11,19.03c-1.92,0.27-3.73,0.21-5.61-0.29c-1.9-0.57-3.6-1.69-5.61-1.86
					c-3.57-0.21-6.69,2.21-7.87,5.51c-0.02,0.06-0.26,0.75-0.07,0.69c0.18-0.06,0.37-0.2,0.54-0.3c1.75-1.05,3.48-1.55,5.53-1.22
					c1.58,0.32,3.02,1.07,4.59,1.4C50.05,23.57,53.33,22.07,55.11,19.03z"/>
			</g>
			<path class="st51" d="M90.16,35.11c0.02-0.06,0.03-0.11,0.02-0.18c-0.01-0.22-0.12-0.27-0.27-0.25c-0.09-0.4,0.02-0.86-0.23-0.66
				c-0.2,0.15-0.45,0.46-0.54,0.76c-0.44-0.1-0.84-0.59-0.81-0.22c0.03,0.41,0.3,1.17,0.8,1.13c0.12-0.01,0.25-0.04,0.38-0.08
				c0.29,0.22,0.66,0.35,0.92,0.15C90.74,35.52,90.43,35.37,90.16,35.11z M96.2,30.47c-0.35-0.03-0.18,0.3-0.21,0.64
				c-0.04,0.38-0.62,0.69-0.31,0.72c0.31,0.03,0.92-0.08,0.96-0.45C96.67,31.03,96.55,30.5,96.2,30.47z M91.92,38.4
				c-0.32-0.25-1.08-0.53-1.38-0.13l-0.01,0.02l-0.05-0.05c-0.24-0.3-0.03-0.93-0.28-0.73c-0.25,0.19-0.61,0.69-0.37,0.99
				c0.11,0.13,0.27,0.27,0.44,0.35c-0.07,0.28-0.05,0.57,0.16,0.72c0.07,0.06,0.14,0.08,0.19,0.08c0.2,0,0.26-0.37,0.47-0.65
				C91.4,38.59,92.26,38.64,91.92,38.4z M103.38,26.77c-0.31,0.07-0.85,0.36-0.77,0.73c0.07,0.33,0.35,0.79,0.69,0.72
				c0.34-0.08,0.08-0.34,0-0.66C103.23,27.17,103.69,26.7,103.38,26.77z M93.19,38.69c-0.33-0.09-0.36-0.17-0.46,0.15
				c-0.17,0.52,0.55,0.37,0.58,0.36C93.81,39.09,93.52,38.78,93.19,38.69z M94.14,33.44c-0.01-0.03-0.35-0.68-0.65-0.22
				c-0.18,0.28-0.1,0.25,0.18,0.45C93.95,33.87,94.37,33.89,94.14,33.44z M105.16,37.21c-0.15-0.07-0.35-0.12-0.54-0.12
				c0-0.11-0.03-0.2-0.1-0.28c-0.24-0.24-0.72-0.48-0.97-0.24c-0.25,0.24,0.11,0.33,0.35,0.57c0.23,0.24,0.16,0.74,0.28,0.74
				c0.02,0,0.04-0.01,0.08-0.04c0.06-0.05,0.11-0.13,0.17-0.21c0.09,0.02,0.18,0.05,0.27,0.09c0.34,0.16,0.43,0.81,0.57,0.53
				C105.4,37.97,105.5,37.37,105.16,37.21z M96.69,40.67c-0.33-0.09-0.36-0.17-0.46,0.14c-0.17,0.52,0.55,0.37,0.58,0.36
				C97.31,41.07,97.02,40.76,96.69,40.67z M99.33,28.71c-0.21-0.27-0.34,0.08-0.6,0.29c-0.3,0.24-0.93,0.03-0.73,0.27
				c0.19,0.25,0.69,0.61,0.99,0.38C99.25,29.44,99.54,28.99,99.33,28.71z M107.15,32.15c-0.03,0-0.05,0-0.07,0.01
				c0.14-0.29,0.18-0.61-0.02-0.82c-0.31-0.32-0.94-0.63-1.27-0.31c-0.33,0.32,0.15,0.43,0.46,0.74c0.3,0.31,0.21,0.97,0.36,0.97
				c0.03,0,0.06-0.02,0.1-0.06c0.08-0.08,0.17-0.18,0.24-0.31c0.02,0.12,0.07,0.27,0.08,0.43c0.03,0.39-0.5,0.78-0.19,0.76
				c0.32-0.02,0.89-0.22,0.87-0.6C107.71,32.63,107.5,32.13,107.15,32.15z M103.95,31.6c-0.03-0.01-0.75-0.17-0.59,0.36
				c0.1,0.31,0.13,0.24,0.46,0.15C104.15,32.02,104.44,31.71,103.95,31.6z M105.83,34.37c-0.03-0.07-0.06-0.14-0.11-0.22
				c-0.38-0.64-0.44-0.54-0.99-0.22c-0.36-0.11-0.46-0.08-0.63,0.42c-0.45,0.42-0.58,0.97,0.31,0.99c0.43,0.14,1.05,0.01,1.1,0
				C106.41,35.16,106.28,34.7,105.83,34.37z M96.3,36.81c-0.41-0.7-0.45-0.5-1.19-0.1c-0.75,0.4-1.28,1.31-0.01,1.3
				C95.17,38,97,37.99,96.3,36.81z M97.38,24.46c-0.11-0.33-0.65-0.33-0.97-0.23c-0.36,0.13-0.33,0.74-0.23,1.04
				c0.1,0.3,0.27-0.34,0.63-0.46C97.13,24.69,97.49,24.79,97.38,24.46z M87.42,36.28c-0.06-0.33,0.08-0.67-0.26-0.61
				c-0.34,0.06-0.42,0.6-0.36,0.93c0.07,0.38,0.68,0.43,0.99,0.38C88.1,36.92,87.49,36.66,87.42,36.28z M92.84,30.24
				c-0.01,0-0.03,0.01-0.04,0.01c-0.71,0.17-0.98-0.26-1.16-0.68v-0.01c0.01-0.12-0.04-0.22-0.12-0.31
				c-0.12-0.32-0.24-0.53-0.55-0.27c-0.04-0.01-0.08-0.01-0.12-0.02c-0.38-0.03-0.6,0.54-0.63,0.85c-0.02,0.23,0.2,0.01,0.48-0.11
				c0.36,1.12,3.25,2.57-0.71,2.29c-0.14-0.01-0.36,0.18-0.43,0.33c-0.19,0.4,0.43,0.64,0.79,0.64h0.03
				c0.46-0.02,1.34,0.39,1.47-0.08c0.02-0.07,0.9-1.16,1.27-1.93C93.34,30.47,93.36,30.12,92.84,30.24z M102.34,25.28
				c-0.29,0.18-0.36,0.15-0.2,0.44c0.28,0.48,0.64-0.16,0.66-0.19C103.06,25.09,102.63,25.1,102.34,25.28z M89.01,30.46
				c-0.4-0.31-0.45,0.11-0.31,0.42c0.14,0.31,0.1,0.38,0.41,0.26C89.61,30.94,89.03,30.48,89.01,30.46z M98.11,33.59
				c-0.33-0.25-1.08-0.54-1.38-0.13c-0.07,0.09-0.13,0.2-0.18,0.32c0-0.18-0.01-0.36-0.04-0.53c0.15,0.01,0.31-0.02,0.33-0.02
				c0.5-0.11,0.21-0.42-0.12-0.51c-0.23-0.06-0.31-0.12-0.37-0.04c-0.14-0.29-0.35-0.51-0.66-0.59c-0.1-0.03-0.19-0.04-0.26-0.04
				c-0.58,0-0.37,0.84-0.59,1.61c-0.28,1-1.97,1.53-1.15,1.76c0.82,0.23,2.47,0.23,2.75-0.76l0.03-0.12
				c0.03,0.09,0.08,0.17,0.16,0.23c0.07,0.06,0.14,0.08,0.19,0.08c0.2,0,0.26-0.37,0.47-0.65C97.59,33.79,98.44,33.84,98.11,33.59z
				 M95.09,40.47c-0.35-0.05-1.02,0.03-1.09,0.45c-0.06,0.37,0.05,0.96,0.43,1.02c0.38,0.06,0.22-0.32,0.27-0.69
				C94.77,40.83,95.44,40.53,95.09,40.47z M92.9,37.17c-0.03-0.17-0.09-0.32-0.21-0.42c-0.09-0.39-0.03-0.81-0.22-0.71
				c-0.03-0.02-0.05-0.04-0.09-0.06c0.31-0.07,0.65-0.27,0.63-0.56c-0.02-0.35-0.32-0.12-0.66-0.1c-0.22,0.01-0.45-0.15-0.6-0.24
				c0.06-0.11,0.04-0.31,0.04-0.52c0-0.09,0-0.19,0.02-0.29c0.09-0.55,0.96-0.95,0.51-1.02c-0.45-0.07-1.34,0.03-1.43,0.58
				c-0.08,0.49,0.06,1.26,0.56,1.34c0.06,0.01,0.1,0.01,0.14,0.01c0.02,0.19,0.11,0.46,0.25,0.63c-0.05,0.02-0.08,0.08-0.13,0.22
				c-0.11,0.35,0.17,0.4,0.38,0.39c-0.02,0.03-0.04,0.06-0.06,0.09c-0.39-0.06-0.8,0.01-0.94,0.32c-0.22,0.46,0.32,0.4,0.77,0.61
				c0.02,0.04,0.04,0.07,0.07,0.1c0.09,0.1,0.21,0.21,0.34,0.3c0.21,0.33,0.32,0.68,0.45,0.39c0.02-0.05,0.04-0.1,0.06-0.16
				c0.2,0.04,0.38,0.02,0.53-0.11C93.69,37.66,93.22,37.51,92.9,37.17z M95.13,30.48c-0.14-0.11-0.39-0.23-0.62-0.25
				c-0.07-0.02-0.14-0.05-0.2-0.09c-0.37-0.2-0.43-0.93-0.59-0.62c-0.17,0.3-0.32,0.96,0.05,1.16c0.04,0.02,0.09,0.04,0.13,0.06
				c-0.07,0.24-0.08,0.49,0.1,0.62c0.28,0.21,0.3-0.16,0.51-0.44c0.04-0.06,0.1-0.1,0.17-0.14l0.01-0.01l0.03-0.01
				C94.98,30.63,95.33,30.62,95.13,30.48z M93.45,26.31c-0.37-0.2-0.43-0.92-0.59-0.62c-0.04,0.07-0.07,0.15-0.1,0.24
				c-0.15-0.2-0.47-0.32-0.72-0.34c-0.27-0.03-0.46,0.26-0.56,0.53c-0.03,0.03-0.1,0.08-0.16,0.15c-0.07,0.08-0.14,0.18-0.14,0.27
				c0,0.09,0.05,0.17,0.2,0.24c0.07,0.03,0.12,0.05,0.16,0.06c0.14,0.03,0.14-0.06,0.26-0.3c0.03-0.06,0.06-0.13,0.07-0.2
				c0.1-0.04,0.2-0.07,0.3-0.06c0.2,0.02,0.38,0.11,0.51,0.1c0,0.11,0.02,0.21,0.06,0.3c-0.1-0.03-0.2-0.03-0.29,0.02
				c-0.34,0.16-0.77,0.58-0.6,0.93c0.04,0.08,0.08,0.13,0.12,0.14c-0.01,0.04-0.02,0.09-0.03,0.13c-0.06,0.32-0.01,0.65,0.24,0.79
				c0.03,0.01,0.05,0.03,0.07,0.03c0.33,0.12,0.31-0.33,0.5-0.69c0.25-0.44,1.11-0.51,0.74-0.7c-0.03-0.02-0.07-0.04-0.1-0.05
				c-0.06-0.1-0.14-0.22-0.24-0.32c0.28,0.09,0.62,0.09,0.79-0.09c0-0.03,0.01-0.07,0.02-0.11c0.02-0.07,0.04-0.12,0.06-0.16
				C93.98,26.46,93.69,26.45,93.45,26.31z M86.34,31.44c-0.33-0.15-0.7,0.25-0.85,0.53c-0.08,0-0.14,0.01-0.15,0.01
				c-0.56,0.09-0.26,0.45,0.1,0.57c0.36,0.12,0.39,0.21,0.52-0.13c0.07-0.17,0.04-0.28-0.03-0.35c0.1-0.01,0.21,0,0.3,0.04
				c0.3,0.14,0.49,0.46,0.64,0.15C87.01,31.96,86.64,31.58,86.34,31.44z M101.32,27.45c-0.56,0.09-0.26,0.45,0.1,0.57
				c0.36,0.12,0.39,0.21,0.52-0.13C102.17,27.32,101.36,27.45,101.32,27.45z M90.83,26.22c-0.3-0.24-0.76-0.29-0.54,0.22
				c0.01,0.03,0.34,0.78,0.71,0.28C91.22,26.43,91.13,26.45,90.83,26.22z M96.26,27c-0.2-0.15-0.6-0.32-0.87-0.23
				c-0.07,0.02-0.14,0.06-0.18,0.13l-0.01,0.02c-0.15-0.09-0.31-0.13-0.41-0.09c-0.06-0.09-0.2-0.18-0.35-0.22
				c-0.15-0.04-0.24-0.08-0.3-0.08c-0.04,0-0.07,0.02-0.1,0.07c0.01,0.01,0.01,0.03,0.01,0.05c0,0.04-0.01,0.09-0.04,0.14
				c-0.01,0.03-0.03,0.05-0.05,0.07c-0.04,0.39,0.58,0.26,0.61,0.25c0.06-0.01,0.12-0.03,0.16-0.05c0.01,0.04,0.02,0.09,0.05,0.14
				c0.01,0.01,0.05,0.11,0.12,0.22c-0.22,0.25-0.42,0.72-0.17,0.95c0.06,0.05,0.11,0.08,0.15,0.08c0.14,0,0.22-0.26,0.4-0.45
				c0.14-0.15,0.39-0.19,0.56-0.22c0.15-0.03,0.23-0.06,0.12-0.16c-0.07-0.06-0.16-0.14-0.27-0.2c0,0-0.01,0-0.01-0.01
				c0,0,0,0,0.01-0.01C95.91,27.15,96.5,27.18,96.26,27z M89.83,32.99c-0.15-0.02-0.35,0-0.51,0.06l0,0
				c-0.29-0.24-0.76-0.29-0.54,0.22c0.01,0.01,0.05,0.11,0.12,0.21c-0.09-0.1-0.26-0.2-0.39-0.35c-0.24-0.28-0.13-0.84-0.26-0.84
				c-0.02,0-0.05,0.01-0.08,0.05c-0.26,0.23-0.64,0.8-0.36,1.12c0.25,0.28,0.77,0.58,1.06,0.32c0.08-0.07,0.11-0.13,0.1-0.19
				c0.01,0.02,0.04,0.03,0.06,0.04c0.11,0.1,0.25,0.14,0.39,0c0.05,0,0.1,0,0.15,0.01c0.38,0.04,0.68,0.62,0.71,0.31
				C90.31,33.64,90.2,33.03,89.83,32.99z M104.43,26.13c-0.2-0.29-0.72-0.72-1.07-0.48c-0.31,0.21-0.66,0.69-0.44,1.02
				c0.22,0.32,0.38-0.06,0.69-0.28C103.96,26.14,104.64,26.41,104.43,26.13z M97.76,27.7c0.08,0.07,0.14,0.1,0.2,0.1
				c0.19,0,0.29-0.34,0.53-0.59c0.34-0.37,1.19-0.22,0.89-0.5c-0.3-0.28-1.01-0.66-1.36-0.29c-0.23,0.24-0.44,0.66-0.4,0.98
				c-0.21,0.01-0.5,0.07-0.71,0.21c0.06-0.17,0.01-0.42,0-0.44c-0.1-0.49-0.42-0.21-0.51,0.12c-0.1,0.33-0.17,0.36,0.14,0.46
				c0.07,0.02,0.13,0.03,0.18,0.03c-0.11,0.03-0.21,0.08-0.29,0.17c-0.26,0.3,0.01,0.41,0.33,0.6c0.09,0.21,0.24,0.39,0.44,0.41
				c0.07,0.13,0.11,0.28,0.14,0.41c0.01,0.14,0.06,0.27,0.07,0.28l0.01,0.02c-0.28,0-0.54,0.07-0.68,0.26
				c-0.02,0.02-0.04,0.05-0.05,0.08c-0.04,0.07-0.05,0.14-0.05,0.19c0,0.15,0.14,0.21,0.33,0.26c0.15,0.04,0.33,0.09,0.5,0.17
				c0.52,0.25,0.65,1.21,0.86,0.79c0.2-0.42,0.36-1.32-0.16-1.57c-0.1-0.05-0.22-0.09-0.35-0.12c0.04-0.07,0.07-0.17,0.08-0.26
				c0.02-0.13,0.04-0.22,0.04-0.28c0.15-0.36,0.21-0.78-0.06-1.01c-0.11-0.09-0.24-0.18-0.38-0.24c0.06-0.12,0.15-0.22,0.2-0.31
				C97.7,27.64,97.73,27.67,97.76,27.7z M88.39,27.39c-0.32-0.32-0.96-0.02-1.27,0.29c-0.06,0.06-0.1,0.13-0.12,0.2
				c-0.06,0-0.09,0.01-0.1,0.01c-0.56,0.08-0.26,0.45,0.1,0.57l0.09,0.03c0.1,0.21,0.24,0.41,0.36,0.53
				c0.29,0.29,0.12-0.55,0.47-0.91C88.24,27.81,88.72,27.71,88.39,27.39z M90.91,24.51c-0.08-0.32-0.12-0.29-0.4-0.22
				c-0.03,0.01-0.07,0.01-0.1,0.02c-0.06,0.01-0.12,0.03-0.18,0.06c0-0.08,0.04-0.75-0.44-0.52c-0.15,0.07-0.2,0.11-0.2,0.18
				c0,0.06,0.05,0.14,0.12,0.3c0.06,0.13,0.16,0.25,0.25,0.31c-0.01,0.09,0.07,0.17,0.28,0.23c0.02,0.01,0.33,0.09,0.52,0.02
				C90.88,24.85,90.97,24.74,90.91,24.51z M91.76,28.34c-0.09-0.36-0.13-0.27-0.5-0.2c-0.37,0.08-0.71,0.4-0.17,0.56
				C91.12,28.71,91.91,28.93,91.76,28.34z M88.19,30.86c-0.13-0.36-0.09-0.43-0.43-0.32c-0.58,0.19,0.03,0.74,0.06,0.76
				C88.23,31.68,88.32,31.22,88.19,30.86z M99.39,27.78c-0.01-0.03-0.34-0.78-0.7-0.29c-0.21,0.3-0.13,0.27,0.17,0.51
				C99.15,28.24,99.62,28.3,99.39,27.78z M88.95,37.61l-0.11-0.04l0-0.04c0-0.43,0.61-0.84,0.26-0.83c-0.35,0-1.01,0.19-1.01,0.61
				c0,0.07,0.01,0.15,0.02,0.23c-0.43,0.22,0.12,0.7,0.14,0.73c0.25,0.22,0.38,0.15,0.42-0.01h0.01c0.14,0,0.2-0.04,0.22-0.12
				c0.09-0.01,0.16-0.02,0.17-0.02C89.56,38.01,89.27,37.7,88.95,37.61z M102.23,26.43c-0.09-0.36-0.13-0.27-0.5-0.2
				c-0.37,0.08-0.71,0.4-0.17,0.56C101.6,26.79,102.38,27.02,102.23,26.43z M103.85,38.1c-0.08,0-0.16,0-0.24-0.01
				c-0.56-0.07-1-0.79-1.19-0.75c0.04-0.03,0.07-0.08,0.11-0.16c0.31-0.65,0.56-1.92,0.05-2.56c-0.18-0.33-0.45-0.6-0.78-0.54
				c-0.07,0.01-0.13,0.03-0.17,0.05c-0.31-0.08-0.65-0.11-0.97-0.09c0.08-0.25,0.09-0.5-0.08-0.67c-0.31-0.32-0.94-0.63-1.27-0.31
				c-0.08,0.08-0.11,0.14-0.11,0.2c0,0.18,0.33,0.3,0.57,0.54c0.11,0.11,0.17,0.27,0.2,0.42c-0.17,0.1-0.32,0.24-0.41,0.43
				c-0.3,0.63,0.18,0.71,0.78,0.88c-0.05,0.03-0.1,0.07-0.15,0.1c-0.44,0.24-1.2-0.16-1,0.2c0.2,0.36,0.76,0.94,1.2,0.69
				c0.06-0.04,0.13-0.08,0.2-0.13c-0.13,0.15-0.2,0.25,0,0.27c0.3,0.03,0.79-0.04,1.06-0.26c0.33,0.49,0.52,1.04,0.72,0.97
				c-0.02,0.02-0.04,0.07-0.05,0.14c-0.07,0.55,0.08,1.62,0.74,1.73c-0.04,0.03-0.08,0.06-0.13,0.08c-0.16,0.09-0.36,0.09-0.54,0.07
				c0-0.06-0.02-0.13-0.07-0.22c0-0.01-0.03-0.06-0.07-0.12c0.26-0.34-0.29-0.8-0.9-0.97c-0.2-0.05-0.35-0.11-0.47-0.15
				c-0.08-0.11-0.2-0.24-0.33-0.24c-0.08,0-0.16,0.05-0.23,0.17c-0.13,0.2-0.13,0.24-0.01,0.32c-0.02,0.04-0.03,0.08-0.05,0.13
				c-0.48-0.12-1.05-0.13-1.39,0.13c0.01-0.16,0.02-0.32,0-0.48c0.29,0.22,0.59-0.26,0.63-0.74c0.02-0.23,0.05-0.38,0.05-0.49
				c0-0.19-0.09-0.24-0.47-0.29c-0.54-0.07-0.63,0.27-0.6,0.59c-0.07-0.06-0.16-0.11-0.26-0.13c-0.08-0.02-0.14-0.03-0.2-0.03
				c-0.44,0-0.28,0.64-0.45,1.23c-0.21,0.76-1.5,1.17-0.88,1.35c0.54,0.15,1.57,0.17,1.97-0.33c0.15,0.17,0.54,0.2,0.92,0.34
				c-0.22-0.03-0.31,0.08-0.46,0.53c-0.05-0.09-0.36-0.65-0.64-0.21c-0.18,0.28-0.1,0.25,0.18,0.45c0.13,0.09,0.28,0.14,0.39,0.13
				c-0.02,0.89,1.44,0.57,1.51,0.56c0.71-0.15,0.78-0.48,0.54-0.77c0.06-0.24,0.1-0.5,0.09-0.75c0.25-0.01,0.45-0.06,0.47-0.06
				l0.09-0.02l0.11,0.08l0.04,0.02c0,0.02,0.01,0.06,0.03,0.1c0.2,0.36,0.76,0.94,1.2,0.7c0.2-0.11,0.41-0.3,0.55-0.51
				c0.19,0.03,0.32-0.06,0.17-0.36c0,0-0.01-0.02-0.03-0.05c0-0.03,0-0.06-0.01-0.09c0.44-0.09,0.84-0.31,0.9-0.71
				C104.8,37.95,104.36,38.1,103.85,38.1z M103.19,30.33c-1.71-0.04-1.35,1.91-2.4,1.97c-0.07-0.03-0.12-0.03-0.16-0.01
				c-0.11-0.01-0.24-0.04-0.38-0.09c-0.67-0.24-0.87-0.59-0.81-0.98c0.14-0.04,0.23-0.14,0.17-0.39L99.6,30.8
				c0.3-0.52,0.94-1.07,1.53-1.51c0.01,0.03,0.01,0.06,0.01,0.1v0.01c0,0.38-0.52,0.75-0.21,0.74c0.31-0.01,0.9-0.2,0.89-0.58
				c-0.01-0.2-0.08-0.45-0.2-0.62c0.43-0.3,0.74-0.5,0.7-0.52c-0.66-0.26-1.8,0.34-2.69,1.22c-0.28-0.21-0.27-0.12-0.5,0.17
				c-0.15,0.19-0.23,0.46-0.13,0.56c-0.51,0.7-0.81,1.46-0.66,2.11c0.6,0.09,1.42,0.26,2.23,0.18c0.01,0.05,0.03,0.09,0.05,0.14
				c0.14,0.31,0.1,0.38,0.41,0.26c0.16-0.06,0.21-0.15,0.21-0.24c0-0.09-0.05-0.17-0.11-0.25C102,32.36,102.81,31.76,103.19,30.33z
				 M96.67,23.01c-0.07-0.21-0.09-0.25-0.38-0.15c-0.1,0.04-0.17,0.08-0.21,0.14c-0.66,0.01-1.33,0.12-1.83,0.19
				c-0.11,0.17-0.16,0.35-0.17,0.54c-0.03,0.46,0.21,0.93,0.58,1.34c0.46,0.51,1.11,0.91,1.73,1.05c-0.09,0.14,0.13,0.35,0.39,0.44
				c0.36,0.12,0.39,0.21,0.52-0.13c0.03-0.07,0.04-0.13,0.04-0.18c0-0.18-0.15-0.25-0.31-0.27c-0.75-0.45-3.45-1.94-0.97-2.62
				l0.06-0.01c0.09,0.15,0.22,0.27,0.24,0.28c0.38,0.34,0.49-0.01,0.41-0.34c0.8,0.15,0.15,1.45,1.75,1.39
				C98.47,23.48,97.65,23.09,96.67,23.01z M105.22,31.39c-0.67-1.1-0.79-1.93-1-3.37c-0.01-0.06-0.14,0.06-0.21,0.09
				c-1.16,0.96,0.06,3.42,0.56,3.56C104.74,31.72,105.31,31.53,105.22,31.39z"/>
		</g>
	</g>
</g>
</svg>
