<?xml version="1.0" encoding="utf-8"?>
<!-- Generator: Adobe Illustrator 23.0.3, SVG Export Plug-In . SVG Version: 6.00 Build 0)  -->
<svg version="1.1" id="圖層_1" xmlns="http://www.w3.org/2000/svg" xmlns:xlink="http://www.w3.org/1999/xlink" x="0px" y="0px"
	 viewBox="0 0 24.6 20.7" style="enable-background:new 0 0 24.6 20.7;" xml:space="preserve">
<style type="text/css">
	.st0{fill-rule:evenodd;clip-rule:evenodd;fill:#3A673A;}
	.st1{fill-rule:evenodd;clip-rule:evenodd;fill:url(#SVGID_1_);}
	.st2{fill-rule:evenodd;clip-rule:evenodd;fill:url(#SVGID_2_);}
	.st3{fill-rule:evenodd;clip-rule:evenodd;fill:#214623;}
	.st4{fill-rule:evenodd;clip-rule:evenodd;fill:#456132;}
	.st5{fill-rule:evenodd;clip-rule:evenodd;fill:#67793D;}
	.st6{fill-rule:evenodd;clip-rule:evenodd;fill:#889247;}
</style>
<g>
	<path class="st0" d="M18.9,19.5C4.9,21.4-0.4,9.9,0,1c0-0.6,0.2-0.9,0.2-0.9C0.2-1,19.6,5.8,18.9,19.5z"/>
	
		<linearGradient id="SVGID_1_" gradientUnits="userSpaceOnUse" x1="784.8112" y1="-2437.6699" x2="795.5248" y2="-2436.7327" gradientTransform="matrix(0.9204 0.391 0.391 -0.9204 229.2142 -2543.1438)">
		<stop  offset="0" style="stop-color:#3A673A"/>
		<stop  offset="1" style="stop-color:#69884A"/>
	</linearGradient>
	<path class="st1" d="M18.3,19.5C4.8,21.1-0.4,9.8,0,1c0-0.2,0-0.4,0.1-0.6C2.8,0.7,18.7,7.2,18.3,19.5z"/>
	
		<linearGradient id="SVGID_2_" gradientUnits="userSpaceOnUse" x1="782.2624" y1="-2436.3167" x2="795.2049" y2="-2437.2217" gradientTransform="matrix(0.9204 0.391 0.391 -0.9204 229.2142 -2543.1438)">
		<stop  offset="0" style="stop-color:#3A673A"/>
		<stop  offset="1" style="stop-color:#214623"/>
	</linearGradient>
	<path class="st2" d="M17.8,19C3.1,21.9-0.8,5.9,0.3,0.2C6.4,13.7,10.7,14.1,17.8,19z"/>
	<path class="st3" d="M24.3,20.5c0,0.1,0,0.1-0.1,0.2c-1.4-0.1-3.6-0.7-6.3-1.1c-3.1,0.2-6.2-0.4-8.8-1.4c3.9,1.2,6.3,1.2,8.2,1
		c-1.2-0.6-2.7-1.6-3.9-2.2c-0.4-0.2-0.7-0.4-0.9-0.5c-0.9-0.4-6.7-0.5-8.1-1.9c3.5,1.2,3.2,0.8,7.6,1.2c-2-1.5-3.5-2.8-5.4-4.2
		c-2-1.1-4.3-1.6-5-1.9c1.7,0,3.2,0.6,4.9,1.4c-2.7-3.6-5.1-6.3-6.2-11l0,0C2.4,4.3,3.5,7.2,7,10.6C5.6,7.9,5.3,6.5,6.8,3.4
		c-2.3,5.4,2.1,9.5,5.4,11.8c-1.9-2.4-1.6-5.6,0-8.6c-0.1,0.7-0.7,1.6-0.9,3.4c-0.3,2.4,0.4,4.9,2.5,6.3c1,0.7,2.5,1.7,3.6,2.2
		c-1.3-1.8-1.9-3.9-0.6-6.3c-1.4,3.3,0.5,5.5,1.5,6.4c1.5,0.8,3.4,1.1,5,1.3c0.5,0,0.9,0.1,1.1,0.1C24.5,20.2,24.4,20.3,24.3,20.5z"
		/>
	<path class="st4" d="M4.8,14.8c0.9,0.5,2.5,0.8,3.4,0.9c0.9,0.1,1.8,0.2,2.7,0.4c0.4,0,1.3,0.1,1.7,0.3c0.3,0.1,0.6,0.3,0.9,0.5
		c1.3,0.7,2.6,1.5,3.9,2.2l0.2,0.1l-0.2,0c-2.2,0.3-4.2,0.1-6.2-0.4c2.2,0.6,4.5,0.9,6.8,0.7c1.2,0.2,2.5,0.5,3.7,0.7
		c0.8,0.2,1.7,0.4,2.6,0.5c0,0,0-0.1,0-0.1c0.1-0.1,0.1-0.3,0.2-0.4c-0.3,0-0.7,0-1-0.1c-1.7-0.1-3.6-0.5-5.1-1.3
		c-1.5-1.4-2.4-3.2-1.9-5.3c-0.6,1.9,0,3.6,1.1,5.1l0.1,0.2l-0.2-0.1c-1.2-0.5-2.5-1.5-3.6-2.2c-2-1.4-2.8-3.8-2.5-6.4
		c0.1-0.7,0.2-1.4,0.5-2.1c0.1-0.2,0.1-0.4,0.2-0.5c-1.2,2.7-1.4,5.6,0.3,7.8l0.3,0.4l-0.4-0.2C8.9,13,5.2,9.3,6.3,4.7
		C5.5,7,5.9,8.3,7,10.6l0.2,0.4l-0.3-0.3c-3.1-3.1-4.5-6.2-6.4-10c1.1,4.3,3.5,7,6,10.4l0.2,0.2l-0.3-0.1c-1.4-0.6-2.8-1.3-4.4-1.4
		c0.5,0.1,1,0.3,1.6,0.5c1,0.3,2.1,0.7,3,1.3c1.9,1.3,3.6,2.8,5.4,4.2l0.2,0.1l-0.2,0c-1.4-0.1-2.9-0.2-4.3-0.3
		C6.7,15.4,5.7,15.1,4.8,14.8z"/>
	<path class="st5" d="M7.6,15.6c0.2,0,0.4,0.1,0.6,0.1c0.9,0.1,1.8,0.2,2.7,0.4c0.4,0,1.3,0.1,1.7,0.3c0.3,0.1,0.6,0.3,0.9,0.5
		c1.3,0.7,2.6,1.5,3.9,2.2l0.4,0.2l-0.5,0.1c-1.1,0.1-2.2,0.2-3.2,0.1c1.2,0.2,2.5,0.2,3.8,0.1h0h0c1.2,0.2,2.5,0.5,3.7,0.7
		c0.8,0.2,1.7,0.4,2.5,0.4c0,0,0,0,0-0.1c0-0.1,0.1-0.2,0.2-0.4c-0.3,0-0.6,0-1-0.1c-1.7-0.1-3.6-0.5-5.1-1.3l0,0l0,0
		c-1.1-1.1-1.9-2.3-2.1-3.8c0,1.2,0.6,2.4,1.3,3.4l0.3,0.4l-0.5-0.2c-1.2-0.5-2.5-1.5-3.6-2.2c-2-1.4-2.9-3.9-2.6-6.4
		c0-0.2,0.1-0.4,0.1-0.7c-0.5,2.1-0.3,4.1,1,5.8l0.5,0.7l-0.8-0.5c-3.1-2.1-6.5-5.4-6.1-9.6c-0.4,1.7,0,2.9,1,4.8l0.4,0.8l-0.6-0.6
		c-3-2.9-4.3-5.9-6.1-9.4C1.9,5.2,4.1,7.8,6.6,11l0.3,0.4l-0.5-0.2c-1.1-0.5-2.2-1-3.4-1.2c0.2,0.1,0.4,0.1,0.6,0.2
		c1,0.3,2.1,0.7,3,1.3c1.9,1.3,3.6,2.8,5.4,4.2l0.4,0.3l-0.5,0C10.5,15.8,9,15.7,7.6,15.6C7.6,15.6,7.6,15.6,7.6,15.6z"/>
	<path class="st6" d="M9.6,15.8c0.4,0.1,0.9,0.1,1.4,0.2c0.4,0.1,1.3,0.1,1.7,0.3c0.3,0.1,0.6,0.3,0.9,0.5c1.3,0.7,2.6,1.5,3.9,2.2
		l0.6,0.3l-0.7,0.1c-0.4,0-0.8,0.1-1.1,0.1c0.6,0,1.1,0,1.7,0h0h0c1.2,0.2,2.5,0.5,3.7,0.7c0.8,0.2,1.6,0.4,2.5,0.4c0,0,0,0,0,0
		c0-0.1,0.1-0.2,0.1-0.3c-0.3,0-0.6,0-0.9-0.1c-1.7-0.1-3.6-0.5-5.1-1.3l0,0l0,0c-0.6-0.6-1.1-1.2-1.5-1.9c0.2,0.5,0.5,1,0.9,1.5
		l0.4,0.6l-0.7-0.3c-1.2-0.5-2.5-1.5-3.7-2.2c-0.2-0.2-0.5-0.3-0.6-0.5l-0.9-0.6C9.3,13.4,6.2,10.5,6,6.8C6,8,6.4,9,7.1,10.5
		l0.6,1.2l-0.9-0.9C4.1,8,2.7,5.3,1.1,2.2C2.3,5.6,4.4,8,6.6,11l0.5,0.7l-0.2-0.1c1.8,1.3,3.4,2.7,5.2,4l0.6,0.4L11.9,16
		C11.2,15.9,10.4,15.8,9.6,15.8z"/>
</g>
</svg>
