<svg id="圖層_1" data-name="圖層 1" xmlns="http://www.w3.org/2000/svg" viewBox="0 0 227.73 272.03"><defs><style>.cls-1,.cls-2{fill:#547d26;stroke:#547d26;}.cls-2,.cls-4{stroke-width:0.5px;}.cls-3,.cls-4,.cls-5{fill:#789626;stroke:#789626;}.cls-3{stroke-width:3px;}</style></defs><title>plants</title><path class="cls-1" d="M40,239.84c2.41.2,4.84.28,7.24.52,3.84.38,8.08,1.58,10.79,4,4.11,3.71,5.81,10,8.46,14.59,1.64,2.82,3.15,5,3.59,8.17.19,1.39-1.3,5.73-3.26,4s-2.38-5.45-3.18-7.58c-1.88-5-3.44-10.92-7.41-15.07a23.08,23.08,0,0,0-7.7-4.87c-.51-.22-8.56-2.73-8.58-2.16C40,240.91,40,240.37,40,239.84Z"/><path class="cls-1" d="M70.94,211.56c2.25.9,4.55,1.69,6.77,2.63,3.55,1.5,7.24,3.91,9.11,7.05,2.83,4.76,2.58,11.3,3.76,16.44.73,3.18,1.55,5.67,1,8.87-.23,1.39-2.94,5.08-4.29,2.83-1.25-2.1-.66-5.92-.79-8.18-.31-5.38-.05-11.46-2.62-16.59a23,23,0,0,0-5.9-6.94c-.43-.36-7.38-5.14-7.56-4.6C70.6,212.56,70.78,212.06,70.94,211.56Z"/><path class="cls-2" d="M63.31,120.44c.88-1.41,7.09-2.12,8.68-2.52,2.61-.65,5.09,0,7.7.56,4,.77,8.27,2,11.57,4.44,2.57,1.94,4.5,4.78,6.24,7.56.81,1.29,3.67,7.4,5.8,6.62s0-6.9-.77-8.19a51.3,51.3,0,0,0-4.8-6.1C91,115,77.37,111.07,68.1,115.9A10.14,10.14,0,0,0,63.31,120.44Z"/><path class="cls-1" d="M137,154.45c1.45,1.2,3,2.32,4.42,3.55,6.09,5.23,5.52,12.51,4.09,19.68-.71,3.59-.74,7.93-2.37,11.23-.55,1.13-3.68,2.93-4.08.76-.38-2,1.12-5.14,1.64-7.09,1.24-4.61,3.1-9.71,2.56-14.55a18.18,18.18,0,0,0-2.59-7c-.22-.39-4.19-5.79-4.48-5.37C136.48,155.23,136.76,154.84,137,154.45Z"/><path class="cls-2" d="M134,153.37a8.09,8.09,0,0,0-.12-.84c-.65-3.24-2.87-6.51-5.12-8.85a25.27,25.27,0,0,0-15.59-7.24c-6.48-.73-12.06,1.42-17.84,4.15-1.33.63-2.54,1-.91,1.81,3.33,1.62,10.23-1.61,13.82-2a25.05,25.05,0,0,1,19.32,5.42c1.67,1.32,1.93,2.8,2.85,4.68,1.19,2.44,2.38,4.89,3.56,7.33C133.9,156.33,134.15,154.85,134,153.37Z"/><path class="cls-2" d="M135.21,156.16c.87-1.41,7.09-2.12,8.68-2.52,2.61-.65,5.09.06,7.69.56,4,.77,8.28,2,11.58,4.44,2.57,1.94,4.5,4.78,6.24,7.57.81,1.29,3.67,7.39,5.79,6.61s.05-6.9-.76-8.19a52.12,52.12,0,0,0-4.8-6.1c-6.75-7.8-20.36-11.74-29.64-6.91A10.16,10.16,0,0,0,135.21,156.16Z"/><path class="cls-2" d="M145.2,143.68c.9-1.19.89-5.58.73-7-.25-2.39-1.59-4.23-2.8-6.24-1.85-3.06-4.14-6.27-7.21-8.21a23.68,23.68,0,0,0-8.18-2.74c-1.31-.25-7.25-.65-7.25-2.67s5.72-2.3,7-2a44.38,44.38,0,0,1,6.53,2c8.53,3.08,15.93,13.15,14.74,22.47C148.46,141.81,146.61,141.86,145.2,143.68Z"/><path class="cls-2" d="M97.65,189.55c2.39-.23,15,2.88,17.51,3.07l6.5.49,5.46.36c3.83.26,1.61-3-.35-4a14.88,14.88,0,0,0-4.68-1.2c-4-.59-8-1.26-12-1.5-1.36-.08-8.47-.8-9.35.2C100.69,187,97.68,189.51,97.65,189.55Z"/><path class="cls-2" d="M96.68,191.27l9,4.86a38.13,38.13,0,0,1,9.9,7.83c1.33,1.45,5.23,9.19,7.13,8.79,4.28-.9.76-6.26-.54-8.19-3.29-4.83-8.62-7.52-13.73-10-.86-.42-11.22-5.24-11-5.81Z"/><path class="cls-2" d="M113.06,176.63c1.44-.35,6,2.19,8.31,3.52,6.12,3.52,9.88,9.71,13.08,15.88,1.48,2.86,7.64,16.76,2.27,18.74-3.32,1.22-3.18-4.26-3.2-6.13a23.53,23.53,0,0,0-1.36-8.6c-4.21-10.78-12.57-16.46-22.31-21.72a23.16,23.16,0,0,1,2.91-1.61Z"/><path class="cls-2" d="M86.82,197.26c.26-.6-5.94-3.32-6.52-3.49a16.59,16.59,0,0,0-9-.14,59,59,0,0,0-12.15,5.28c-.49.26-6.86,5.88-6.54,2.12.13-1.48,2.6-3.07,3.65-3.85,4.63-3.44,8.88-5.79,14.66-6.54a29.39,29.39,0,0,1,9.36.26,12.51,12.51,0,0,1,7.43,4.17Z"/><path class="cls-2" d="M93.67,191.39c1-.83-7.11-6.86-8-7.27a15.56,15.56,0,0,0-10.34-1.49c-.88.22-2.71.7-3.24,1.49-.81,1.22.84,2.06,2,1.72.8-.22,4.48.49,4.48.49a21.06,21.06,0,0,1,7.41,2.35,12.11,12.11,0,0,1,5.4,4.63Z"/><path class="cls-1" d="M68.28,213.85c1.46,1.21,3,2.33,4.42,3.56,2.29,2,4.44,4.72,5,7.74.84,4.59-1.15,10.07-1.66,14.66-.32,2.84-.33,5.9-1.61,8.51-.56,1.13-3.68,2.93-4.09.76S71.46,243.94,72,242c1.24-4.61,3.11-9.71,2.57-14.56a18.52,18.52,0,0,0-2.59-7c-.23-.39-4.2-5.79-4.49-5.38C67.75,214.64,68,214.25,68.28,213.85Z"/><path class="cls-2" d="M176.21,108.64c.34-.53,5.6-.16,6.67-.2A42.7,42.7,0,0,1,198,110.8a101.38,101.38,0,0,1,11.7,4.89c2.28,1.06,4.57,3.94,7.05,4.18,2.29.21,1.87-1.82.63-3.14A32.64,32.64,0,0,0,205.91,109c-8.83-3.7-18.37-3.35-27.89-3.17Z"/><path class="cls-2" d="M181.67,95.31a5,5,0,0,0,.28-1.16,36.74,36.74,0,0,0-.72-5.69c-.34-2.9-.93-6.17-3-8.35-1.46-1.52-5.78-3.54-8-2.66-1.17.47-5.87.77-3.22,2.49,2.12,1.37,4.74,1.17,6.79,2.75,3.17,2.44,3.26,5.53,4.51,8.94.89,2.44,1.6,4.7,2.26,7.25C180.41,98.26,181.22,96.61,181.67,95.31Z"/><path class="cls-2" d="M187.8,86.43c2.48-.19,4.81-2.41,6.78-3.75,3.08-2.1,6.26-4.76,10-5.65,4.86-1.17,13.32-1.29,17.74,1.2.86.48,3.21,1.13,2.54.3-3-3.77-8.62-4.5-13.14-4.43a29.42,29.42,0,0,0-16.93,5.61l-5.36,3.09Z"/><path class="cls-2" d="M196.41,49.42l-1.51-9a46.84,46.84,0,0,0-3.53-8.94,28.39,28.39,0,0,0-3.3-5.44c-.58-.63-1.4-1.52-2.31-1.45-4.44.35,1.28,5.41,2.36,6.58,4.2,4.55,4.87,11.64,6,17.39a44.86,44.86,0,0,0,2,5.69Z"/><path class="cls-2" d="M190.66,74.92a75.89,75.89,0,0,0,.49-10.13c-.39-8.49-5.91-16.07-12.76-20.76-.77-.53-3.6-3.37-4.5-2.89-1.41.74,1.72,5.85,2.74,6.43,6.08,3.42,8.64,8.13,10.86,14.48l1.61,6.79.41,9.73Z"/><path class="cls-2" d="M188.75,81.61c-.15.27-3.4-5.71-3.61-6.33-.84-2.59-1.25-5.28-2.27-7.82a12,12,0,0,0-4.74-5.9c-2.08-1.39-5-2.05-5.07-5.08,0-2.12,2.47-.87,4.49-.14,4,1.45,7.28,6.25,9.2,9.69.95,1.7,2.4,4,2.67,6C189.89,75.5,190.47,78.45,188.75,81.61Z"/><path class="cls-2" d="M200.88,37.45l5.84-7.57a65.38,65.38,0,0,0,4.55-13.7c.4-1.93.36-3.73,1.17-5.57,1.18-2.69,4.69-7.15,3.07-10.28a2.12,2.12,0,0,0-.86,1,96.32,96.32,0,0,0-6.83,14.63c-.81,2.28-1.47,4.61-2,7-.36,1.47-.44,4-1.26,5.28L200.78,34Z"/><path class="cls-2" d="M198.55,34.76c-.14.25-2.87-5-3-5.61-.7-2.29-1-4.7-1.85-6.95a10.13,10.13,0,0,0-4-5.2c-1.79-1.2-4.37-1.74-4.33-4.45,0-1.9,2.16-.83,3.91-.21,3.49,1.23,6.25,5.47,7.87,8.51.8,1.51,2,3.57,2.23,5.31C199.66,29.27,200.11,31.9,198.55,34.76Z"/><path class="cls-2" d="M206.45,54.34c-6.06,5.71-14.16,16.06-13.78,16.45s8.32-8.59,14.38-14.3,10.81-9,10.44-9.41S212.51,48.62,206.45,54.34Z"/><path class="cls-3" d="M39.57,230.85c25.82-17.73,71.7-52.68,96.16-77,22.32-22.2,45-46.5,55.11-77.83,4.38-13.52,6.66-27.5,9-43.06l.78.12c-2.33,15.59-4.61,29.6-9,43.18-10.21,31.5-32.92,55.88-55.3,78.15-24.5,24.36-71.42,62.9-97.28,80.66Z"/><path class="cls-4" d="M213.52,22.62c-4.06,7.21-14,15.67-13,16.23s12.53-7,16.59-14.2,11.25-12.44,10.26-13S217.58,15.41,213.52,22.62Z"/><path class="cls-4" d="M204.05,61c-4.06,7.21-14,15.67-13,16.23s12.52-7,16.58-14.2,17.08-6.91,16.08-7.47S208.11,53.75,204.05,61Z"/><path class="cls-2" d="M211.65,35.6c-6.06,5.71-14.16,16-13.78,16.45s8.32-8.59,14.38-14.31,10.81-9,10.44-9.4S217.71,29.88,211.65,35.6Z"/><path class="cls-4" d="M199.88,34.4c1.05-1.58,2.57-3.39,3.17-5.23.31-1-.38-5,0-7.24s-.22-10.07-.27-10.78-.4-4.52-1.36-6.42S200.1,1,199.72,3.32c-.85,5.17-.25,10.2.66,15.31.59,3.22-.15,7.4-.68,10.58C199.4,31,198.79,32.76,199.88,34.4Z"/><path class="cls-4" d="M193.9,62.71a16,16,0,0,0-1.52-10.23c-1.58-3.15-5.25-5.67-6.19-9-.22-.81-2.71-4-3.49-2.65s1.87,5.13,2.63,5.78,4.81,6.33,4.81,6.33l1.33,5.27,1.06,11S193.9,62.73,193.9,62.71Z"/><path class="cls-4" d="M173.94,109.85c3.45-4.95-.65-14.08-2.9-18.62-3-6.07-6.09-13.66-10.91-18.49-1.6-1.6-4.09-4-6.46-4.22s-5.2,3-2.11,4.31c1.82.79,7.4,5.75,7.4,5.75a130,130,0,0,1,10.15,17.77,28.84,28.84,0,0,1,3.22,14l-.76,3Z"/><path class="cls-4" d="M179.76,102.72a96.93,96.93,0,0,1,14.12-3.37,22,22,0,0,1,5.61-.2c.87.1,2.35.78,3.2.45,2.78-1.09.71-3-1-3.81-4.33-2-11.3-.91-15.53,1.24l-5.07,2.58Z"/><path class="cls-4" d="M185.73,92.51c.14-.48,4.26-1.82,4.85-2.05,4.19-1.65,7.75-1.2,11.92.43,1.37.54,3.28,1.74,4.81,1.32a2.3,2.3,0,0,0,.45-4.27c-6.57-3.7-14.45-.21-21.17,1.43Z"/><path class="cls-2" d="M69.33,106c.28-.56-2.77-4.87-3.29-5.8a42.39,42.39,0,0,0-9.87-11.7A100.55,100.55,0,0,0,45.92,81c-2.09-1.4-5.74-1.86-7.23-3.86-1.37-1.83.58-2.53,2.36-2.17a33,33,0,0,1,12.57,5.79C61.36,86.4,66,94.73,70.81,103Z"/><path class="cls-2" d="M77.89,94.39a4.41,4.41,0,0,1,.85-.84A36.64,36.64,0,0,1,84,91.2c2.66-1.21,5.76-2.4,8.72-1.74,2.06.47,6,3.11,6.41,5.43.2,1.25,2.38,5.42-.46,4-2.27-1.1-3.46-3.43-5.88-4.37-3.73-1.44-6.42.08-10,.79a73.92,73.92,0,0,0-7.36,1.83C76,97,77,95.44,77.89,94.39Z"/><path class="cls-2" d="M82.3,84.54c-1.12-2.22-.44-5.37-.31-7.75.2-3.72.81-7.81-.35-11.44-1.52-4.76-5.81-12-10.23-14.54-.86-.48-2.63-2.16-1.57-2,4.79.64,8.31,5,10.6,8.93a29.39,29.39,0,0,1,4,17.39l.14,6.18Z"/><path class="cls-2" d="M109.47,58l8.46-3.38A47.77,47.77,0,0,1,127.4,53a28.27,28.27,0,0,1,6.37,0c.83.16,2,.4,2.44,1.21,2,4-5.29,1.72-6.85,1.4-6.07-1.23-12.48,1.89-18,3.87a46.39,46.39,0,0,1-5.92,1.24Z"/><path class="cls-2" d="M90.66,76.12a72.7,72.7,0,0,1,8.4-5.68c7.46-4.08,16.8-3.29,24.37.13.84.38,4.74,1.33,4.81,2.35.09,1.58-5.9,1.56-6.93,1-6.07-3.42-11.43-3.16-18-1.77l-6.64,2.15L88.13,79Z"/><path class="cls-2" d="M85.92,81.22c-.15.28,6.65,0,7.29-.2,2.65-.62,5.16-1.68,7.86-2.12a12,12,0,0,1,7.51,1c2.27,1.06,4.37,3.25,7,1.69,1.82-1.08-.53-2.56-2.2-3.9-3.34-2.69-9.14-3-13.07-2.83-2,.07-4.69,0-6.5.82C90.56,77.07,87.74,78.11,85.92,81.22Z"/><path class="cls-2" d="M117.38,47.94,120.81,39a65.09,65.09,0,0,1,9.36-11c1.44-1.34,3-2.25,4.14-3.89,1.69-2.41,3.68-7.72,7.19-8a2.11,2.11,0,0,1-.38,1.25,98,98,0,0,1-9,13.42,67.24,67.24,0,0,1-4.89,5.37c-1.06,1.07-3.19,2.45-3.86,3.82l-3,6.21Z"/><path class="cls-2" d="M120.88,48.52c-.14.25,5.81-.16,6.37-.31,2.32-.6,4.54-1.59,6.9-2a10.23,10.23,0,0,1,6.54.76c2,.91,3.76,2.83,6.06,1.39,1.61-1-.42-2.28-1.86-3.45-2.86-2.35-7.92-2.5-11.36-2.3-1.7.09-4.1.11-5.69.85C125,44.73,122.52,45.71,120.88,48.52Z"/><path class="cls-2" d="M100.05,51.94c-1.74,8.14-6.38,20.43-6.91,20.32s3-11.57,4.76-19.72,2.09-13.92,2.62-13.81S101.79,43.79,100.05,51.94Z"/><path class="cls-3" d="M38.17,263.1c1.75-31.28,5.44-65.53,13.54-99.07,7.39-30.6,16.41-62.56,37.92-87.5,9.28-10.77,20.05-20,32.14-30l-.5-.61C109.15,56,98.35,65.2,89,76,67.41,101.09,58.36,133.15,51,163.85a548.38,548.38,0,0,0-14.87,97.82Z"/><path class="cls-4" d="M123.49,29.43c-4.06,7.21-6.14,20.08-7.14,19.52s-.53-14.34,3.53-21.55,4.79-16.08,5.79-15.52S127.55,22.22,123.49,29.43Z"/><path class="cls-4" d="M95.63,57.42c-4,7.22-6.13,20.08-7.13,19.52S88,62.61,92,55.39s-3-18.18-2-17.62S99.69,50.21,95.63,57.42Z"/><path class="cls-2" d="M113.37,37.77c-1.74,8.14-6.38,20.43-6.91,20.32s3-11.58,4.76-19.72,2.09-13.92,2.62-13.81S115.11,29.62,113.37,37.77Z"/><path class="cls-4" d="M120.5,47.21c.81-1.73,1.57-4,2.83-5.43.65-.76,4.43-2.25,6.18-3.76s8.73-5,9.36-5.37,4.07-2,6.2-2.16,3.83-.79,2.08.72c-4,3.41-8.59,5.5-13.43,7.38-3.05,1.17-6.25,4-8.69,6.07C123.64,45.86,122.47,47.28,120.5,47.21Z"/><path class="cls-4" d="M99.4,67A16.13,16.13,0,0,1,109,63c3.51-.29,7.56,1.54,10.93.6.8-.23,4.84.23,4.07,1.61s-5.35,1.06-6.31.75-7.9-.83-7.9-.83l-5.2,1.6-10,4.81Z"/><path class="cls-4" d="M69.47,108.54c2.45-5.52,12.37-6.76,17.42-7.19,6.76-.58,14.84-1.88,21.47-.27,2.2.53,5.52,1.44,7,3.33s.17,6-2.59,4c-1.62-1.14-8.76-3.34-8.76-3.34a129.48,129.48,0,0,0-20.46.55,28.79,28.79,0,0,0-13.6,4.49l-2.13,2.19Z"/><path class="cls-4" d="M72.55,99.86A97.61,97.61,0,0,0,68.1,86.05a21.22,21.22,0,0,0-2.74-4.9c-.53-.7-1.89-1.61-2-2.51-.52-2.93,2.2-2.17,3.78-1.1,3.94,2.68,6.65,9.19,7,13.92l.42,5.68Z"/><path class="cls-4" d="M78.18,89.46c.34-.37-.66-4.59-.77-5.21-.76-4.44-3-7.25-6.55-10-1.18-.9-3.19-1.9-3.63-3.44a2.31,2.31,0,0,1,3.42-2.6c6.57,3.7,7.68,12.25,9.76,18.84Z"/><path class="cls-4" d="M112.91,175.29c.17-.22.33-.46.48-.7,1.68-2.84,2.21-6.77,2.1-10a25.22,25.22,0,0,0-6.78-15.8c-4.34-4.87-9.92-7-16-8.82-1.42-.43-2.58-.93-1.9.74,1.41,3.43,8.7,5.63,11.64,7.73a25,25,0,0,1,10.76,16.93c.37,2.1-.42,3.38-1,5.39-.75,2.61-1.5,5.23-2.24,7.84C110.84,177.41,112,176.47,112.91,175.29Z"/><path class="cls-4" d="M92.56,192.57c-.1-3.45.36-7.48-.4-8.14-1.28-1.11-1.34-3-2.5-4.28-.31-.32-4.1-2.52-4.13-1.73a4.94,4.94,0,0,0,1.3,3c2.84,3.71,3.63,7.42,4.63,11.88Z"/><path class="cls-2" d="M54.93,146.06,53.82,138l-2.49-6.83c-1.32-3.62-4.62-8.69-8.74-9.24-2-.26-2.92.74-1.56,2.4,1.08,1.31,2.92,1.62,4.21,2.67,2.42,2,4.81,6.56,5.83,9.45l1.4,4,1,4.63-4.13-2.32c-3.61-2-8.91-1.7-12.77-.62-2.35.66-16.49,4.91-15.79,8.15.8,3.73,7.56-1.74,9.08-2.65,2-1.18,5.74-1.43,8-1.85a29.7,29.7,0,0,1,13.71.7l3.37,1.67Z"/><path class="cls-4" d="M56.79,147.54c0-1.55,8.17-.1,9,.21,2.52.92,5.35,2.05,6.93,4.34.76,1.11,1.87,3,3.27,3.56,1.21.49,2.49-.4,1.24-1.79-3-3.3-7.33-7.37-11.41-9.25-3.15-1.45-5.9-.43-9.08.21C56.77,145.73,56.79,146.63,56.79,147.54Z"/><path class="cls-4" d="M158.92,128.56q.27-.3.51-.6c2.88-3.6,4.35-7.48,2.76-12-1.8-5.15-3.81-11.74-8.1-15.42a8.46,8.46,0,0,0-3.83-2.84c-2.77-1.11-5.24-1.14-3.72.17s5.73,5.48,6.33,6a22.33,22.33,0,0,1,5.62,9.77c.7,2.32,2.27,7.34,1.28,9.73,0,0-3.8,9.15-3.8,9.17A16.94,16.94,0,0,1,158.92,128.56Z"/><path class="cls-5" d="M70.16,211.87A73.11,73.11,0,0,1,78,213.43a87.84,87.84,0,0,1,11.79,4.72c3.05,1.55,7.28,3.84,8.05,7.52.25,1.23-6.27-3.39-6.55-3.7l-7.18-3.59-6.76-2.45-9.71-3.65Z"/><path class="cls-4" d="M139.32,152c1.3.09-1.56-11.82-2-12.89-1.67-4-4.12-7.69-7.53-9.91-.86-.56-2.65-1.67-3.58-1.44-1.41.37-.59,2.47.61,3.19.8.48,3.36,4.16,3.36,4.16a30.9,30.9,0,0,1,4.61,8.21,17.66,17.66,0,0,1,1.54,8.47Z"/><path class="cls-1" d="M36.92,248.82c.89-7.51-2.77-14.72-6.82-20.71s-9-9-15.46-12.28c-3.44-1.76-6.26-3.61-9.86-4.78-1.56-.5-5.67-.67-3.8,1.75,1.73,2.25,6,3.68,8.36,5,8.68,4.79,17,9.44,21.17,19,2,4.59,2.88,9.95,4,14.79.09.37,1.22,5.88,1.16,5.88C36.31,257.51,36.62,251.37,36.92,248.82Z"/></svg>