<?xml version="1.0" encoding="utf-8"?>
<!-- Generator: Adobe Illustrator 23.0.3, SVG Export Plug-In . SVG Version: 6.00 Build 0)  -->
<svg version="1.1" id="圖層_1" xmlns="http://www.w3.org/2000/svg" xmlns:xlink="http://www.w3.org/1999/xlink" x="0px" y="0px"
	 viewBox="0 0 2020.8 813.6" style="enable-background:new 0 0 2020.8 813.6;" xml:space="preserve">
<style type="text/css">
	.st0{fill:#547D26;stroke:#547D26;}
	.st1{fill:#547D26;stroke:#547D26;stroke-width:0.5;}
	.st2{fill:#789626;stroke:#789626;stroke-width:3;}
	.st3{fill:#789626;stroke:#789626;stroke-width:0.5;}
	.st4{fill:#789626;stroke:#789626;}
	.st5{fill:#789626;}
</style>
<g>
	<path class="st0" d="M0.6,783.2c2.4,0.1,4.8,0.1,7.3,0.3c3.8,0.3,8.1,1.4,10.9,3.7c4.2,3.6,6.1,9.9,8.9,14.4
		c1.7,2.8,3.3,4.9,3.8,8.1c0.2,1.4-1.2,5.8-3.1,4.1c-1.9-1.6-2.5-5.4-3.4-7.5c-2-5-3.7-10.8-7.8-14.9c-2.1-2.1-5-3.5-7.8-4.7
		c-0.5-0.2-8.6-2.5-8.6-1.9C0.6,784.2,0.6,783.7,0.6,783.2z"/>
	<path class="st0" d="M30.7,754c2.3,0.8,4.6,1.6,6.8,2.5c3.6,1.4,7.3,3.7,9.3,6.8c3,4.7,2.9,11.2,4.2,16.3c0.8,3.2,1.7,5.6,1.3,8.8
		c-0.2,1.4-2.8,5.2-4.2,2.9c-1.3-2.1-0.8-5.9-1-8.2c-0.5-5.4-0.4-11.5-3.1-16.5c-1.4-2.6-3.7-4.9-6.1-6.8c-0.4-0.3-7.5-4.9-7.7-4.4
		C30.4,755.1,30.5,754.6,30.7,754z"/>
	<path class="st1" d="M20.6,663.2c0.8-1.4,7-2.3,8.6-2.8c2.6-0.7,5.1-0.1,7.7,0.3c4,0.7,8.3,1.7,11.7,4.1c2.6,1.9,4.6,4.7,6.4,7.4
		c0.8,1.3,3.9,7.3,6,6.5c2-0.8-0.1-6.9-1-8.2c-1.4-2.1-3.2-4.1-5-6c-7-7.6-20.7-11.2-29.8-6.1C22.7,659.9,21.8,661,20.6,663.2z"/>
	<path class="st0" d="M95.2,695.2c1.5,1.2,3.1,2.2,4.5,3.4c6.2,5.1,5.9,12.4,4.6,19.6c-0.6,3.6-0.5,8-2.1,11.3
		c-0.5,1.1-3.6,3-4.1,0.9c-0.4-2,1-5.2,1.4-7.1c1.1-4.6,2.8-9.8,2.2-14.6c-0.3-2.5-1.5-4.9-2.8-7c-0.2-0.4-4.4-5.7-4.6-5.3
		C94.7,696,94.9,695.6,95.2,695.2z"/>
	<path class="st1" d="M92.1,694.2c0-0.3-0.1-0.6-0.1-0.8c-0.7-3.2-3-6.4-5.4-8.7c-4.3-4.2-9.9-6.3-15.8-6.8
		c-6.5-0.6-12,1.7-17.7,4.6c-1.3,0.7-2.5,1.1-0.9,1.8c3.4,1.5,10.2-1.9,13.8-2.4c7.3-1,13.5,0.5,19.5,4.9c1.7,1.3,2,2.7,3,4.6
		c1.3,2.4,2.5,4.8,3.8,7.2C92.1,697.1,92.3,695.6,92.1,694.2z"/>
	<path class="st1" d="M93.4,696.9c0.8-1.4,7-2.3,8.6-2.8c2.6-0.7,5.1-0.1,7.7,0.3c4,0.7,8.3,1.7,11.7,4.1c2.6,1.9,4.6,4.7,6.4,7.4
		c0.8,1.3,3.9,7.3,6,6.5c2-0.8-0.1-6.9-1-8.2c-1.4-2.1-3.2-4.1-5-6c-7-7.6-20.7-11.2-29.8-6.1C95.5,693.7,94.7,694.7,93.4,696.9z"/>
	<path class="st1" d="M103,684.2c0.9-1.2,0.7-5.6,0.5-7.1c-0.3-2.4-1.7-4.2-3-6.2c-1.9-3-4.3-6.2-7.4-8c-2.4-1.4-5.4-2-8.2-2.5
		c-1.3-0.2-7.3-0.5-7.3-2.5c0-1.9,5.6-2.4,7-2.2c2.2,0.4,4.4,1.1,6.6,1.8c8.6,2.8,16.3,12.7,15.4,22.1
		C106.3,682.2,104.4,682.3,103,684.2z"/>
	<path class="st1" d="M56.8,731.3c2.4-0.3,15.1,2.5,17.6,2.6l6.5,0.3c0,0,5.3,0.2,5.5,0.2c3.8,0.2,1.5-3-0.5-4
		c-1.4-0.7-3.1-0.9-4.7-1.1c-4-0.5-8-1-12.1-1.2c-1.4,0-8.5-0.6-9.3,0.5C59.7,728.7,56.8,731.3,56.8,731.3z"/>
	<path class="st1" d="M55.8,733.1l9.2,4.6c3.8,1.9,7.2,4.6,10.1,7.6c1.4,1.4,5.5,9,7.4,8.6c4.3-1,0.6-6.3-0.8-8.2
		c-3.4-4.7-8.8-7.3-14-9.6c-0.9-0.4-11.4-4.9-11.2-5.5L55.8,733.1z"/>
	<path class="st1" d="M71.8,718c1.4-0.4,6.1,2,8.4,3.3c6.2,3.4,10.1,9.4,13.5,15.5c1.6,2.8,8.1,16.5,2.8,18.7
		c-3.3,1.3-3.3-4.2-3.4-6c-0.1-3-0.4-5.7-1.6-8.6c-4.5-10.7-13-16.1-22.9-21.1c-0.1-0.1,2.6-1.6,2.9-1.7C71.6,718,71.7,718,71.8,718
		z"/>
	<path class="st1" d="M46.2,739.3c0.2-0.6-6-3.2-6.6-3.3c-2.9-0.8-6.1-0.8-9,0.1c-4.2,1.3-8.2,3.4-12,5.6c-0.5,0.3-6.7,6.1-6.5,2.3
		c0.1-1.5,2.5-3.1,3.5-3.9c4.5-3.6,8.7-6,14.5-6.9c3.3-0.5,6.1-0.5,9.4,0c3.1,0.5,5.3,1.8,7.5,4L46.2,739.3z"/>
	<path class="st1" d="M52.8,733.3c0.9-0.9-7.3-6.7-8.2-7.1c-3.3-1.5-6.9-2.1-10.4-1.2c-0.9,0.2-2.7,0.8-3.2,1.6
		c-0.8,1.2,0.9,2,2.1,1.7c0.8-0.2,4.5,0.4,4.5,0.4c2.6,0.2,5.1,1,7.5,2.1s4,2.3,5.5,4.5L52.8,733.3z"/>
	<path class="st0" d="M28.1,756.4c1.5,1.2,3.1,2.2,4.5,3.4c2.3,1.9,4.6,4.6,5.2,7.6c1,4.6-0.9,10.1-1.3,14.7
		c-0.2,2.8-0.2,5.9-1.4,8.6c-0.5,1.1-3.6,3-4.1,0.9c-0.4-2,1-5.2,1.4-7.1c1.1-4.6,2.8-9.8,2.2-14.6c-0.3-2.5-1.5-4.9-2.8-7
		c-0.2-0.4-4.4-5.7-4.6-5.3C27.6,757.2,27.8,756.8,28.1,756.4z"/>
	<g>
		<path class="st1" d="M133.1,648.3c0.3-0.5,5.6-0.3,6.7-0.4c5.5-0.3,9.9,0.4,15.2,1.9c4.1,1.2,7.9,2.9,11.8,4.6
			c2.3,1,4.7,3.8,7.2,4c2.3,0.1,1.8-1.9,0.5-3.2c-3.3-3.3-7.3-5.7-11.7-7.4c-8.9-3.5-18.5-2.8-28-2.4L133.1,648.3z"/>
		<path class="st1" d="M138.2,634.8c0.1-0.5,0.2-0.9,0.2-1.2c0-1.9-0.6-3.8-0.9-5.7c-0.4-2.9-1.1-6.1-3.3-8.3
			c-1.5-1.5-5.9-3.4-8-2.4c-1.2,0.5-5.8,0.9-3.1,2.6c2.2,1.3,4.8,1,6.9,2.6c3.2,2.4,3.4,5.4,4.7,8.8c1,2.4,1.7,4.7,2.5,7.2
			C137,637.8,137.8,636.1,138.2,634.8z"/>
		<path class="st1" d="M144.1,625.8c2.5-0.3,4.7-2.5,6.7-3.9c3-2.2,6.1-4.9,9.8-5.9c4.8-1.3,13.3-1.6,17.8,0.7
			c0.9,0.5,3.2,1,2.6,0.2c-3.1-3.7-8.7-4.3-13.3-4.1c-6.5,0.3-11.5,2.3-16.8,6.1l-5.3,3.2L144.1,625.8z"/>
		<path class="st1" d="M151.7,588.6l-1.7-8.9c-1.1-3.1-2.1-6-3.8-8.8c-1.1-1.8-2-3.8-3.5-5.3c-0.6-0.6-1.4-1.5-2.3-1.4
			c-4.4,0.5,1.4,5.4,2.5,6.5c4.3,4.4,5.2,11.5,6.5,17.2c0.4,1.8,1.5,3.9,2.2,5.6C151.6,591.8,151.6,590.2,151.7,588.6z"/>
		<path class="st1" d="M146.6,614.2c0.1-0.6,0.5-6.4,0.2-10.1c-0.6-8.5-6.4-15.9-13.3-20.4c-0.8-0.5-3.7-3.3-4.6-2.8
			c-1.4,0.8,1.9,5.8,2.9,6.4c6.2,3.3,8.9,7.9,11.3,14.2l1.8,6.7l0.7,9.7L146.6,614.2z"/>
		<path class="st1" d="M144.9,620.9c-0.2,0.3-3.6-5.6-3.8-6.2c-0.9-2.6-1.4-5.2-2.5-7.8c-1.1-2.5-2.6-4.3-4.9-5.8
			c-2.1-1.3-5.1-1.9-5.2-4.9c-0.1-2.1,2.4-0.9,4.5-0.3c4.1,1.3,7.5,6.1,9.5,9.4c1,1.7,2.5,4,2.8,5.9
			C145.9,614.8,146.5,617.7,144.9,620.9z"/>
		<path class="st1" d="M155.8,576.5l5.6-7.7c1.9-4.7,3.3-8.8,4.2-13.8c0.3-1.9,0.3-3.7,1-5.6c1.1-2.7,4.5-7.3,2.8-10.4
			c-0.4,0.2-0.6,0.6-0.8,1c-2.5,4.8-4.7,9.7-6.4,14.8c-0.8,2.3-1.4,4.6-1.9,7c-0.3,1.5-0.3,4-1.1,5.3l-3.6,5.9L155.8,576.5z"/>
		<path class="st1" d="M153.4,573.8c-0.1,0.2-3-5-3.2-5.5c-0.8-2.3-1.1-4.7-2-6.9s-2.2-3.8-4.2-5.1c-1.8-1.2-4.4-1.6-4.5-4.3
			c0-1.9,2.1-0.9,3.9-0.3c3.5,1.1,6.4,5.3,8.1,8.3c0.8,1.5,2.1,3.5,2.4,5.2C154.4,568.3,154.9,570.9,153.4,573.8z"/>
		<path class="st1" d="M161.8,593.2c-5.9,5.9-13.7,16.4-13.3,16.8s8.1-8.8,14-14.7s10.6-9.3,10.2-9.7
			C172.3,585.3,167.7,587.3,161.8,593.2z"/>
		<g>
			<path class="st2" d="M-0.2,774.2c25.3-18.4,70.2-54.6,94-79.6c21.7-22.8,43.7-47.7,53-79.3c4-13.6,5.9-27.7,7.8-43.3l0.8,0.1
				c-1.9,15.6-3.8,29.7-7.8,43.4c-9.4,31.8-31.4,56.8-53.2,79.6c-23.8,25-69.7,64.8-95,83.3L-0.2,774.2z"/>
		</g>
		<path class="st3" d="M168,561.3c-3.9,7.3-13.5,16-12.5,16.6c1,0.5,12.3-7.3,16.2-14.6s10.9-12.7,9.9-13.3
			C180.6,549.4,171.9,554,168,561.3z"/>
		<path class="st3" d="M159.6,599.9c-3.9,7.3-13.5,16-12.5,16.6c1,0.5,12.3-7.3,16.2-14.6s16.9-7.4,15.9-7.9
			C178.1,593.4,163.5,592.6,159.6,599.9z"/>
		<path class="st1" d="M166.5,574.3c-5.9,5.9-13.7,16.4-13.3,16.8c0.4,0.4,8.1-8.8,14-14.7s10.6-9.3,10.2-9.7
			C177,566.4,172.4,568.4,166.5,574.3z"/>
		<path class="st3" d="M154.7,573.4c1-1.6,2.5-3.5,3-5.3c0.3-1-0.5-5-0.2-7.2c0.3-2.3-0.5-10.1-0.6-10.8s-0.5-4.5-1.5-6.4
			s-1.4-3.6-1.7-1.4c-0.7,5.2,0,10.2,1.1,15.3c0.7,3.2,0.1,7.4-0.4,10.6C154.2,570.1,153.6,571.8,154.7,573.4z"/>
		<path class="st3" d="M149.5,601.9c0.6-3.5-0.1-7.1-1.8-10.2c-1.7-3.1-5.4-5.5-6.4-8.9c-0.2-0.8-2.8-3.9-3.6-2.5
			c-0.7,1.4,2,5.1,2.8,5.7c0.8,0.6,5,6.2,5,6.2l1.5,5.2l1.3,11L149.5,601.9z"/>
		<path class="st3" d="M130.9,649.6c3.3-5-1-14.1-3.4-18.5c-3.2-6-6.5-13.5-11.4-18.2c-1.6-1.6-4.2-3.9-6.6-4
			c-2.3-0.2-5.1,3.1-2,4.4c1.8,0.7,7.6,5.5,7.6,5.5c4.1,5.7,7.4,11.2,10.6,17.5c2.5,4.9,3.5,8.3,3.6,13.9l-0.7,3L130.9,649.6z"/>
		<path class="st3" d="M136.5,642.3c2.8-1,7.8-2.6,14-3.8c1.8-0.3,3.8-0.5,5.6-0.4c0.9,0.1,2.4,0.7,3.2,0.4c2.7-1.2,0.6-3-1.1-3.8
			c-4.4-1.9-11.3-0.6-15.5,1.7l-5,2.7L136.5,642.3z"/>
		<path class="st3" d="M142.2,631.9c0.1-0.5,4.2-1.9,4.8-2.2c4.1-1.8,7.7-1.4,11.9,0.1c1.4,0.5,3.3,1.6,4.8,1.2
			c2-0.6,2.2-3.3,0.3-4.3c-6.7-3.5-14.5,0.2-21.1,2C142.9,628.8,142.2,631.9,142.2,631.9z"/>
	</g>
	<g>
		<path class="st1" d="M26.2,648.6c0.3-0.6-2.9-4.8-3.5-5.7c-2.8-4.7-6-8-10.2-11.4c-3.3-2.7-6.9-4.9-10.5-7.2
			c-2.1-1.3-5.8-1.7-7.3-3.7c-1.4-1.8,0.5-2.6,2.3-2.2c4.6,0.8,8.9,2.8,12.7,5.4c7.9,5.4,12.8,13.6,17.8,21.7L26.2,648.6z"/>
		<path class="st1" d="M34.4,636.7c0.3-0.4,0.6-0.7,0.8-0.9c1.6-1.1,3.5-1.7,5.2-2.5c2.6-1.3,5.7-2.6,8.7-2c2.1,0.4,6.1,2.9,6.6,5.3
			c0.2,1.2,2.5,5.4-0.4,4c-2.3-1-3.6-3.3-6-4.2c-3.8-1.3-6.4,0.3-9.9,1.1c-2.5,0.6-4.8,1.2-7.3,2C32.6,639.4,33.6,637.8,34.4,636.7z
			"/>
		<path class="st1" d="M38.6,626.8c-1.2-2.2-0.6-5.4-0.5-7.7c0.1-3.7,0.6-7.8-0.7-11.4c-1.6-4.7-6.1-11.9-10.6-14.3
			c-0.9-0.5-2.7-2.1-1.6-2c4.8,0.5,8.5,4.8,10.8,8.6c3.4,5.5,4.6,10.8,4.5,17.3l0.3,6.2L38.6,626.8z"/>
		<path class="st1" d="M65,599.5l8.4-3.6c3.2-0.8,6.1-1.7,9.4-1.9c2.1-0.1,4.3-0.5,6.4-0.2c0.8,0.1,2,0.3,2.5,1.1
			c2.1,3.9-5.2,1.9-6.8,1.6c-6.1-1.1-12.4,2.2-17.9,4.4c-1.8,0.7-4,1-5.9,1.4C62.4,601.4,63.7,600.4,65,599.5z"/>
		<path class="st1" d="M46.7,618.1c0.4-0.4,5-4,8.2-5.9c7.4-4.3,16.7-3.7,24.4-0.5c0.9,0.4,4.8,1.2,4.9,2.2c0.1,1.6-5.9,1.7-6.9,1.2
			c-6.2-3.3-11.5-2.8-18.1-1.3l-6.6,2.3l-8.4,4.9L46.7,618.1z"/>
		<path class="st1" d="M42.1,623.4c-0.1,0.3,6.6-0.2,7.3-0.4c2.6-0.7,5.1-1.8,7.8-2.3s5-0.3,7.5,0.8c2.3,1,4.5,3.1,7,1.5
			c1.8-1.1-0.6-2.5-2.3-3.8c-3.4-2.6-9.2-2.7-13.1-2.5c-1.9,0.1-4.7,0.2-6.5,1C46.6,619.1,43.8,620.2,42.1,623.4z"/>
		<path class="st1" d="M72.6,589.2l3.2-9c2.8-4.2,5.4-7.7,9.1-11.3c1.4-1.4,2.9-2.3,4-4c1.6-2.5,3.5-7.8,7-8.2
			c0.1,0.5-0.1,0.8-0.4,1.3c-2.5,4.8-5.3,9.4-8.6,13.7c-1.5,1.9-3.1,3.7-4.7,5.5c-1,1.1-3.1,2.5-3.8,3.9l-2.9,6.3L72.6,589.2z"/>
		<path class="st1" d="M76.1,589.7c-0.1,0.2,5.8-0.3,6.4-0.5c2.3-0.7,4.5-1.7,6.8-2.2s4.4-0.4,6.6,0.6c2,0.9,3.8,2.7,6.1,1.2
			c1.6-1-0.5-2.3-1.9-3.4c-2.9-2.3-8-2.3-11.4-2c-1.7,0.1-4.1,0.2-5.7,1C80.2,585.8,77.7,586.9,76.1,589.7z"/>
		<path class="st1" d="M55.4,593.7c-1.5,8.2-5.8,20.6-6.4,20.5c-0.5-0.1,2.7-11.7,4.2-19.8c1.5-8.2,1.7-14,2.2-13.9
			C56.1,580.6,56.9,585.5,55.4,593.7z"/>
		<g>
			<path class="st2" d="M-0.7,806.5c0.9-31.3,3.7-65.6,10.8-99.4c6.6-30.8,14.7-63,35.5-88.5c9-11,19.5-20.5,31.3-30.9l-0.5-0.6
				C64.6,597.5,54,607,45,618.1C24.1,643.7,16,676,9.4,706.9c-7.2,33.8-11.3,66.8-12.2,98.2L-0.7,806.5z"/>
		</g>
		<path class="st3" d="M78.2,570.6c-3.9,7.3-5.6,20.2-6.6,19.7s-0.9-14.3,2.9-21.6c3.9-7.3,4.3-16.2,5.4-15.7
			C80.9,553.5,82.1,563.2,78.2,570.6z"/>
		<path class="st3" d="M51.2,599.3c-3.9,7.3-5.6,20.2-6.6,19.7s-0.9-14.3,2.9-21.6c3.9-7.3-3.5-18.1-2.4-17.6
			C46,580.3,55,592,51.2,599.3z"/>
		<path class="st1" d="M68.3,579.2c-1.5,8.2-5.8,20.6-6.4,20.5c-0.5-0.1,2.7-11.7,4.2-19.8s1.7-14,2.2-13.9S69.9,571,68.3,579.2z"/>
		<path class="st3" d="M75.7,588.4c0.8-1.7,1.5-4,2.7-5.5c0.6-0.8,4.4-2.4,6.1-3.9s8.6-5.3,9.2-5.6s4-2.1,6.1-2.3s3.8-0.9,2.1,0.7
			c-3.9,3.5-8.4,5.7-13.2,7.7c-3,1.3-6.1,4.1-8.5,6.3C78.8,587,77.7,588.4,75.7,588.4z"/>
		<path class="st3" d="M55.2,608.8c2.6-2.5,5.9-3.9,9.4-4.3c3.5-0.4,7.6,1.3,10.9,0.3c0.8-0.2,4.8,0.1,4.1,1.5
			c-0.7,1.4-5.3,1.2-6.3,0.9s-7.9-0.6-7.9-0.6l-5.2,1.7l-9.8,5.1C50.5,613.4,55.2,608.8,55.2,608.8z"/>
		<path class="st3" d="M26.4,651.1c2.3-5.6,12.2-7.1,17.2-7.7c6.7-0.8,14.8-2.3,21.4-0.9c2.2,0.5,5.6,1.3,7.1,3.1s0.3,6-2.5,4.1
			c-1.6-1.1-8.8-3.1-8.8-3.1c-7-0.2-13.4,0.2-20.4,1.1c-5.5,0.7-8.8,1.9-13.5,4.9l-2.1,2.3L26.4,651.1z"/>
		<path class="st3" d="M29.2,642.4c-0.7-2.8-2.3-7.9-4.8-13.7c-0.7-1.7-1.7-3.4-2.9-4.8c-0.5-0.7-1.9-1.6-2.1-2.4
			c-0.6-2.9,2.1-2.2,3.8-1.2c4,2.6,6.9,9,7.4,13.7l0.6,5.7L29.2,642.4z"/>
		<path class="st3" d="M34.6,631.8c0.3-0.4-0.8-4.6-0.9-5.2c-0.9-4.4-3.2-7.2-6.8-9.8c-1.2-0.9-3.2-1.8-3.7-3.3
			c-0.6-2,1.4-3.7,3.3-2.7c6.7,3.5,8,12,10.3,18.6C36.7,629.4,34.6,631.8,34.6,631.8z"/>
	</g>
	<path class="st3" d="M71.6,716.6c0.2-0.2,0.3-0.5,0.5-0.7c1.6-2.9,2-6.8,1.8-10.1c-0.4-6-3.2-11.3-7.2-15.6
		c-4.5-4.8-10.1-6.7-16.3-8.4c-1.4-0.4-2.6-0.9-1.9,0.8c1.5,3.4,8.8,5.4,11.8,7.4c6.1,4.1,9.7,9.4,11.2,16.6
		c0.4,2.1-0.3,3.4-0.8,5.4c-0.7,2.6-1.4,5.3-2,7.9C69.6,718.8,70.8,717.9,71.6,716.6z"/>
	<path class="st3" d="M51.8,734.5c-0.2-3.4,0.2-7.5-0.6-8.1c-1.3-1.1-1.4-3-2.6-4.2c-0.3-0.3-4.2-2.4-4.2-1.6c0,1.1,0.7,2.1,1.4,3
		c2.9,3.6,3.8,7.3,5,11.7L51.8,734.5z"/>
	<path class="st1" d="M12.9,689l-1.3-8.1c0,0-2.6-6.5-2.7-6.8c-1.4-3.6-4.9-8.6-9-9c-2-0.2-2.9,0.8-1.5,2.4c1.1,1.3,3,1.5,4.3,2.5
		c2.5,1.9,5,6.4,6.1,9.3l1.5,3.9l1.1,4.6l-4.2-2.2c-3.7-1.9-9-1.5-12.8-0.3c-2.3,0.7-16.3,5.4-15.6,8.6c0.9,3.7,7.5-2,9-2.9
		c1.9-1.2,5.7-1.6,7.9-2.1c4.8-1,9-0.8,13.7,0.3l3.4,1.6L12.9,689z"/>
	<path class="st3" d="M14.8,690.4c0-1.6,8.2-0.3,9,0c2.5,0.8,5.4,1.9,7,4.2c0.8,1.1,2,2.9,3.4,3.5c1.2,0.4,2.5-0.5,1.2-1.8
		c-3.1-3.2-7.5-7.2-11.7-8.9c-3.2-1.4-5.9-0.3-9.1,0.5C14.7,688.6,14.8,689.5,14.8,690.4z"/>
	<path class="st3" d="M116.4,668.7c0.2-0.2,0.3-0.4,0.5-0.6c2.8-3.7,4.1-7.6,2.4-12.1c-1.9-5.1-4.1-11.6-8.5-15.2
		c-0.8-0.6-1.1-1.7-3.9-2.7s-5.3-1-3.7,0.3c1.6,1.3,5.9,5.3,6.5,5.9c2.8,2.5,4.7,6.1,5.9,9.6c0.8,2.3,2.5,7.3,1.5,9.7
		c0,0-3.5,9.3-3.6,9.3C114,671.3,115.3,670,116.4,668.7z"/>
	<path class="st4" d="M29.9,754.4c0,0,5.9,0.7,7.9,1.3c4.1,1.3,8.1,2.6,11.9,4.4c3.1,1.5,7.4,3.6,8.2,7.3c0.3,1.2-6.4-3.2-6.6-3.5
		l-7.3-3.4l-6.8-2.3l-9.8-3.4L29.9,754.4z"/>
	<path class="st3" d="M97.4,692.7c1.3,0.1-1.9-11.8-2.4-12.8c-1.8-4-4.3-7.6-7.8-9.7c-0.9-0.5-2.7-1.6-3.6-1.3
		c-1.4,0.4-0.5,2.5,0.7,3.2c0.8,0.5,3.5,4.1,3.5,4.1c2,2.4,3.6,5.2,4.8,8.1c1.3,3,1.9,5.3,1.8,8.4C94.4,692.5,97.4,692.7,97.4,692.7
		z"/>
	<path class="st0" d="M-2.3,792.2c0.7-7.5-3.2-14.6-7.4-20.5c-4.3-6-9.2-8.7-15.8-11.8c-3.5-1.7-6.4-3.4-10-4.5
		c-1.6-0.5-5.7-0.5-3.8,1.8c1.8,2.2,6.1,3.5,8.5,4.8c8.8,4.6,17.3,9,21.7,18.4c2.1,4.5,3.2,9.9,4.4,14.7c0.1,0.4,1.4,5.8,1.3,5.8
		C-2.7,800.9-2.5,794.8-2.3,792.2z"/>
</g>
<g>
	<g>
		<path class="st4" d="M2020.2,383.8c-16.4-49.5-28.8-101.3-40.7-151.4c-7.8-32.7-15.9-66.5-25-99.3c-4-14.2-10.7-35-14.5-49
			l2.4-0.7l0.1,1.1l4.1,12.6c3.8,14,6.9,24.7,10.9,39c9.1,32.8,15.5,64.5,23.3,97.2c12,50.1,24.4,100.5,40.8,150L2020.2,383.8z"/>
	</g>
	<g>
		<g>
			<path class="st4" d="M1944.6,14.9c0.8,11.3,1.3,22.1,1,33l-0.5,15.1l-1.3,15.6l-1.2,7l-1-0.1l1.6-7l1.3-15.6l0.5-15.1
				c0.3-10.9-0.2-21.7-1-32.9L1944.6,14.9z"/>
		</g>
		<g>
			<path class="st5" d="M1913.9,22.1l2.2,7.2c2.2,6,4.1,11.9,6.6,17.9c2.4,5.8,5.2,11.5,7.9,17l3.3,6.8c2,4.1,4.5,7.9,6.9,11.5
				l1.7,2.5l-1.1,1.1l-1-3.3c-2.4-3.7-5-7.5-6.9-11.7l-3.3-6.8c-2.7-5.5-5.5-11.3-8-17.1c-2.5-6-4.8-12.2-6.9-18.2l-2.3-7
				L1913.9,22.1z"/>
		</g>
		<g>
			<path class="st5" d="M1940.8,85.6L1918,68.2L1906.3,58l0.7-0.4l11.3,9.9l22.5,17.1V85.6z"/>
		</g>
		<g>
			<path class="st5" d="M1934.4,37.4l3.2,22c0.2,1.2,0.5,1.8,3.9,24.8l-1-0.4l-3.5-24l-3.2-22.2L1934.4,37.4z"/>
		</g>
		<g>
			<path class="st5" d="M1955.9,46.3c-0.6,5-1.5,9.9-3.3,14.3c-1.2,3-2,6.2-3.2,9.3c-0.8,2.1-1.9,4.5-2.8,6.7
				c-1,2.3-2.5,4.3-3.9,6.4c0,0.1-0.8,1.4-0.9,1.4l-0.6-0.4c1.7-2.6,3.5-5.1,4.8-8c1.4-3.2,2.5-6.6,3.7-9.8c0.7-2,1.5-3.9,2.3-5.8
				c1.8-4.4,2.4-9.2,3-14.1L1955.9,46.3z"/>
		</g>
		<g>
			<path class="st5" d="M1972.9,34.1c-0.2,1.1-0.2,1.4-0.4,2.5c-0.6,3.9-1.1,7.9-2.7,11.1c-0.8,1.6-1.5,3.4-2.3,5
				c-2.6,5.9-5.3,12-9.1,16.7c-1.8,2.3-3.9,4.2-5.8,6.2c-1,0.9-2,1.9-3,2.9l0,0l0,0l-7.6,6.1l-0.4-0.6l7.6-6.1l0,0c1-1,2-2,3-2.9
				c2-1.9,4-3.9,5.8-6.1c3.7-4.7,6.4-10.7,9-16.6c0.7-1.7,1.5-3.4,2.3-5c1.5-3.2,2.1-7.1,2.6-10.9c0.1-0.8-0.3-1.2,0-3.1
				L1972.9,34.1z"/>
		</g>
		<g>
			<path class="st5" d="M1973.4,74.5c-11.4,5-21.4,8.3-31.2,10.5l-0.2-0.7c9.8-2.2,19.8-5.5,31.2-10.5L1973.4,74.5z"/>
		</g>
		<g>
			<path class="st5" d="M1941.5,86.6l-3.6-5.2c-0.9-1.3-2.2-2.4-3.2-3.6c-1.1-1.2-2.2-2.5-3.2-3.8c-2.1-2.5-4.7-5.6-6.7-8.2
				c-2.4-3.2-3.9-5.5-6.4-10.1c-0.8-1.4-1-3.6,0-2.1c1,1.3,2.6,4.8,3.9,7.2c3.5,6,7.2,10,11.7,14.8c1.3,1.4,3.4,4,4.7,5.4l3.5,3.8
				L1941.5,86.6z"/>
		</g>
		<g>
			<path class="st5" d="M1940.5,86.5l-3.6-0.4c-6.9-0.8-14.1-1.6-21.2-4.1c-9.2-3.2-16-7.8-23.7-13.2l0.5-0.5
				c7.7,5.4,14.2,9.8,23.3,13c7,2.5,14.2,3.3,21.1,4.1l4.6-0.4L1940.5,86.5z"/>
		</g>
		<g>
			<path class="st5" d="M1941.5,86.6c-1.4,0.2-3.4,0-4.8,0.3c-3.5,0.7-7.1,1.5-10.9,1c-6.3-0.8-9.1-4.2-13.7-9.5l0.4-0.4
				c4.6,5.3,7.1,8.4,13.3,9.2c3.7,0.5,7.3-0.3,10.8-1c1.4-0.3,3.6-0.5,5-0.8L1941.5,86.6z"/>
		</g>
		<path class="st1" d="M1914.5,21.9l2.4-7.2c0,0,0.6-2.4,0.8-3c-0.1-0.3-0.1-0.7,0-1.2c0.2-0.6,0.5-0.9,0.8-0.7s0.3,0.8,0.1,1.4
			c-0.1,0.4-0.3,0.6-0.5,0.7l-0.9,2.8c0,0-1.6,4.8-2.2,6.6l-0.7,1L1914.5,21.9z"/>
		<path class="st1" d="M1955.6,46.3l6.7,0.6c0,0,2.1,0,2.7,0c0.1-0.2,0.5-0.3,0.9-0.3c0.5,0,1,0.3,1,0.7c0,0.3-0.4,0.6-1,0.6
			c-0.3,0-0.6-0.1-0.8-0.3l-2.6-0.1c0,0-4.5-0.4-6.2-0.5l-1.1-0.5L1955.6,46.3z"/>
		<path class="st1" d="M1902.7,17.4c0.1-0.4,0.6-0.4,1.2-0.1c0.3,0.2,0.6,0.4,0.8,0.7l2.8,1.4c0,0,4.6,2.5,6.4,3.5l-5.3-6.2
			c0,0-1.9-1.9-2.5-2.5c-0.2,0-0.6-0.2-1-0.6c-0.5-0.5-0.7-1.2-0.5-1.4c0.2-0.3,0.7-0.1,1.2,0.5c0.3,0.3,0.5,0.7,0.5,1l2.3,2.5
			c0,0,3.8,4.4,5.3,6.1v-0.1l-3.7-8.3c0.5,1-0.8-1.5-1.2-2.3c-0.3-0.1-0.6-0.4-0.8-0.9c-0.3-0.7-0.3-1.3-0.1-1.5
			c0.3-0.2,0.7,0.3,1,0.9c0.2,0.4,0.3,0.8,0.3,1.1l1.5,3.2c0,0,2.5,5.6,3.4,7.7l0.1,0.3l-0.2-7.9c0,0-0.2-2.8-0.3-3.6
			c-0.2-0.2-0.4-0.7-0.4-1.2c0-0.7,0.2-1.3,0.5-1.2c0.3,0,0.6,0.7,0.6,1.4c0,0.4-0.1,0.8-0.2,1l0.2,3.5c0,0,0.1,5.9,0.2,8.2
			c0,0.8-0.5,1.2-1.1,0.8c-0.5-0.3-1-0.6-1.6-0.9c-1.2-0.7-2.5-1.3-3.7-2c-0.3-0.1-0.6-0.3-0.9-0.5c0,0-2.2-1-2.9-1.3
			c-0.2,0.1-0.6,0.1-1-0.1C1903.1,18.3,1902.7,17.8,1902.7,17.4z"/>
		<path class="st1" d="M1906.8,9.9c0.3-0.2,0.7,0.2,1,0.9c0.2,0.4,0.3,0.8,0.3,1.1l1.6,3.2c0,0,2.5,5.4,3.6,7.5l-1.2-8.4
			c0,0-0.6-2.8-0.8-3.6c-0.2-0.2-0.4-0.6-0.5-1.2c-0.1-0.7,0-1.3,0.3-1.3s0.6,0.6,0.7,1.3c0.1,0.4,0,0.8-0.1,1.1l0.6,3.5
			c0,0,0.9,6,1.2,8.3h0.1l1.4-8.4c-0.1,1.1,0.2-1.6,0.2-2.4c-0.2-0.3-0.2-0.8-0.2-1.3c0.1-0.7,0.4-1.1,0.7-1
			c0.3,0.1,0.5,0.8,0.4,1.5c-0.1,0.4-0.2,0.7-0.4,0.9l-0.5,3.3c0,0-0.9,5.6-1.3,7.8l-0.1,0.2l4.2-5.3c0,0,1.3-2,1.7-2.6
			c-0.1-0.3,0.1-0.8,0.4-1.1c0.4-0.5,0.9-0.7,1.1-0.4s0.1,0.9-0.2,1.4c-0.2,0.3-0.5,0.5-0.7,0.5l-1.8,2.4c0,0-3.1,4-4.3,5.5
			c-0.4,0.6-1.1,0.3-1.4-0.4c-0.2-0.6-0.6-1.2-0.9-1.8c-0.7-1.4-1.4-2.9-2.1-4.3c-0.2-0.3-0.3-0.7-0.5-1c0,0-1.4-2.5-1.8-3.2
			c-0.3-0.1-0.6-0.4-0.8-0.9C1906.6,10.7,1906.6,10.1,1906.8,9.9z"/>
		<path class="st1" d="M1928.4,27.5c0.2-0.1,0.6,0.2,0.8,0.7c0.2,0.3,0.2,0.6,0.2,0.8l1.3,2.5c0,0,2.1,4.2,2.9,5.9l-1-6.6
			c0,0-0.5-2.2-0.6-2.8c-0.2-0.1-0.4-0.5-0.4-0.9c-0.1-0.6,0-1,0.3-1c0.2,0,0.5,0.4,0.6,1c0.1,0.3,0,0.6,0,0.8l0.5,2.7
			c0,0,0.7,4.7,1,6.5h0.1l1.1-6.6c-0.1,0.9,0.1-1.3,0.2-1.9c-0.1-0.2-0.2-0.6-0.1-1c0.1-0.5,0.3-0.9,0.6-0.8
			c0.2,0.1,0.4,0.6,0.3,1.1c0,0.3-0.2,0.6-0.3,0.7l-0.4,2.6c0,0-0.7,4.4-1,6.1l-0.1,0.2l3.3-4c0,0,1-1.6,1.4-2
			c0-0.2,0.1-0.6,0.3-0.9c0.3-0.4,0.7-0.5,0.9-0.3c0.2,0.2,0.1,0.7-0.2,1.1c-0.2,0.2-0.4,0.4-0.6,0.4l-1.4,1.8c0,0-2.5,3-3.5,4.2
			c-0.3,0.4-0.9,0.2-1.1-0.4c-0.2-0.5-0.5-1-0.7-1.4c-0.5-1.1-1.1-2.3-1.7-3.4c-0.1-0.3-0.3-0.5-0.4-0.8c0,0-1.1-2-1.4-2.5
			c-0.2-0.1-0.5-0.3-0.7-0.7C1928.3,28.2,1928.2,27.6,1928.4,27.5z"/>
		<path class="st1" d="M1924.8,33.2c0.1-0.3,0.5-0.3,0.9-0.1c0.3,0.1,0.5,0.3,0.6,0.5l2.2,1.1c0,0,3.6,2,5.1,2.8l-4.1-4.9
			c0,0-1.5-1.5-1.9-1.9c-0.2,0-0.5-0.2-0.8-0.5c-0.4-0.4-0.5-0.9-0.4-1.1c0.2-0.2,0.6,0,0.9,0.4c0.2,0.2,0.4,0.5,0.4,0.7l1.8,2
			c0,0,3,3.5,4.1,4.8v-0.1l-2.8-6.5c0.4,0.8-0.6-1.2-0.9-1.8c-0.2-0.1-0.5-0.4-0.6-0.7c-0.2-0.5-0.2-1,0-1.1s0.6,0.2,0.8,0.7
			c0.1,0.3,0.2,0.6,0.2,0.8l1.1,2.5c0,0,1.8,4.4,2.6,6V37l0.1-6.1c0,0-0.1-2.2-0.2-2.8c-0.2-0.2-0.3-0.6-0.3-1c0-0.6,0.2-1,0.4-0.9
			c0.3,0,0.4,0.5,0.4,1.1c0,0.3-0.1,0.6-0.2,0.8v2.7c0,0-0.1,4.6-0.1,6.4c0,0.7-0.5,0.9-0.9,0.6c-0.4-0.3-0.8-0.5-1.2-0.7
			c-1-0.5-1.9-1.1-2.9-1.6c-0.2-0.1-0.5-0.3-0.7-0.4c0,0-1.8-0.8-2.3-1c-0.2,0.1-0.5,0.1-0.8-0.1C1925,33.8,1924.7,33.4,1924.8,33.2
			z"/>
		<path class="st1" d="M1939.9,0.5c0.3-0.1,0.7,0.4,0.9,1.1c0.1,0.4,0.1,0.8,0.1,1.1l1,3.4c0,0,1.6,5.7,2.2,8.1l0.3-8.2
			c0,0-0.1-2.8-0.1-3.6c-0.2-0.2-0.3-0.7-0.3-1.3c0-0.7,0.3-1.2,0.6-1.2c0.3,0.1,0.5,0.7,0.5,1.4c0,0.4-0.1,0.8-0.3,1l-0.1,3.5
			c0,0-0.2,5.9-0.3,8.1h0.1l2.9-7.6c-0.3,1,0.5-1.5,0.7-2.2c-0.1-0.3-0.1-0.8,0.1-1.3c0.2-0.6,0.6-1,0.9-0.8s0.3,0.9,0.1,1.5
			c-0.1,0.4-0.3,0.6-0.5,0.8l-1.1,3c0,0-2,5.1-2.7,7l-0.1,0.2l5.2-3.8c0,0,1.7-1.6,2.2-2c0-0.3,0.2-0.7,0.6-1c0.5-0.4,1-0.4,1.2,0
			c0.2,0.3,0,0.9-0.5,1.2c-0.3,0.2-0.6,0.3-0.8,0.3l-2.2,1.8c0,0-3.9,2.9-5.4,3.9c-0.5,0.4-1.2,0-1.3-0.8c-0.1-0.6-0.3-1.3-0.5-2
			c-0.4-1.5-0.9-3.1-1.3-4.6c-0.1-0.4-0.2-0.7-0.3-1.1c0,0-0.9-2.7-1.2-3.5c-0.2-0.1-0.5-0.6-0.7-1.1
			C1939.6,1.2,1939.7,0.6,1939.9,0.5z"/>
		<g>
			<path class="st1" d="M1912.2,42.1c0.2-0.1,0.6,0.2,0.9,0.8c0.2,0.3,0.3,0.7,0.2,0.9l1.4,2.8c0,0,2.2,4.7,3.1,6.6l-1-7.4
				c0,0-0.5-2.5-0.7-3.2c-0.2-0.2-0.4-0.6-0.5-1c-0.1-0.6,0-1.2,0.3-1.2s0.6,0.5,0.7,1.1c0.1,0.4,0,0.7-0.1,0.9l0.5,3.1
				c0,0,0.7,5.3,1,7.3h0.1l1.2-7.4c-0.1,1,0.1-1.4,0.2-2.1c-0.2-0.2-0.2-0.7-0.1-1.1c0.1-0.6,0.4-1,0.6-0.9c0.3,0.1,0.4,0.7,0.3,1.3
				c0,0.4-0.2,0.7-0.3,0.8l-0.4,2.9c0,0-0.8,5-1.1,6.8l-0.1,0.2l3.6-4.6c0,0,1.2-1.8,1.5-2.3c-0.1-0.3,0.1-0.7,0.3-1
				c0.3-0.4,0.8-0.6,1-0.3c0.2,0.2,0.1,0.8-0.2,1.2c-0.2,0.3-0.4,0.4-0.6,0.4l-1.5,2.1c0,0-2.7,3.5-3.8,4.8c-0.4,0.5-1,0.3-1.2-0.4
				c-0.2-0.5-0.5-1.1-0.7-1.6c-0.6-1.3-1.2-2.5-1.8-3.8c-0.1-0.3-0.3-0.6-0.4-0.9c0,0-1.2-2.2-1.6-2.8c-0.2-0.1-0.5-0.4-0.7-0.8
				C1912,42.8,1912,42.2,1912.2,42.1z"/>
			<path class="st1" d="M1908,48.3c0.1-0.3,0.6-0.3,1.1,0c0.3,0.2,0.5,0.4,0.7,0.6l2.4,1.3c0,0,4,2.3,5.6,3.3l-4.5-5.5
				c0,0-1.6-1.7-2.1-2.2c-0.2,0-0.6-0.2-0.9-0.5c-0.4-0.5-0.6-1-0.4-1.2s0.7,0,1,0.5c0.2,0.3,0.4,0.6,0.4,0.8l1.9,2.2
				c0,0,3.2,3.9,4.4,5.5V53l-2.8-7.3c0.4,0.9-0.6-1.3-0.9-2c-0.2-0.1-0.5-0.4-0.7-0.8c-0.2-0.6-0.2-1.1,0-1.3
				c0.2-0.1,0.6,0.3,0.9,0.9c0.1,0.3,0.2,0.7,0.2,0.9l1.2,2.8c0,0,1.9,4.9,2.6,6.7v0.2l0.4-6.7c0,0,0-2.4,0-3.1
				c-0.2-0.2-0.3-0.6-0.3-1.1c0-0.6,0.3-1.1,0.5-1c0.3,0,0.5,0.6,0.5,1.2c0,0.4-0.1,0.7-0.2,0.9l-0.1,3c0,0-0.3,5.1-0.4,7
				c0,0.7-0.6,1-1.1,0.6c-0.4-0.3-0.9-0.5-1.4-0.8c-1.1-0.6-2.1-1.3-3.2-1.9c-0.3-0.1-0.5-0.3-0.8-0.4c0,0-2-1-2.6-1.2
				c-0.2,0.1-0.6,0.1-0.9-0.1C1908.3,49,1907.9,48.6,1908,48.3z"/>
		</g>
		<g>
			<path class="st1" d="M1899.3,49.8c0.2-0.2,0.6,0,0.9,0.4c0.2,0.2,0.4,0.5,0.4,0.7l1.8,1.9c0,0,2.9,3.3,4,4.7l-2.5-6
				c0,0-1-2-1.2-2.5c-0.2-0.1-0.4-0.4-0.6-0.7c-0.2-0.5-0.2-1,0-1.1s0.6,0.2,0.8,0.7c0.1,0.3,0.2,0.6,0.2,0.8l1.1,2.5
				c0,0,1.8,4.3,2.5,6l0.1-0.1l-0.6-6.9c0.1,0.9-0.2-1.3-0.3-1.9c-0.2-0.1-0.3-0.5-0.4-0.9c-0.1-0.6,0.1-1,0.3-1s0.5,0.4,0.5,1
				c0,0.3,0,0.6-0.1,0.8l0.3,2.7c0,0,0.4,4.6,0.6,6.4v0.2l2-5.3c0,0,0.6-2,0.7-2.5c-0.1-0.2-0.1-0.6,0-1c0.2-0.5,0.5-0.8,0.7-0.6
				c0.2,0.1,0.3,0.6,0.1,1.1c-0.1,0.3-0.3,0.5-0.4,0.6l-0.8,2.4c0,0-1.5,4-2.1,5.5c-0.2,0.6-0.7,0.6-1.1,0.1c-0.3-0.4-0.7-0.8-1-1.1
				c-0.8-0.9-1.5-1.8-2.3-2.7c-0.2-0.2-0.4-0.4-0.5-0.6c0,0-1.5-1.5-1.9-1.9c-0.2,0-0.5-0.1-0.8-0.5
				C1899.3,50.5,1899.1,50,1899.3,49.8z"/>
			<path class="st1" d="M1897.2,56.6c0-0.3,0.4-0.5,0.9-0.4c0.3,0,0.5,0.2,0.7,0.3l2.3,0.3c0,0,3.8,0.6,5.4,0.9l-4.9-3.3
				c0,0-1.7-0.9-2.2-1.2c-0.2,0.1-0.5,0-0.8-0.2c-0.4-0.3-0.7-0.7-0.6-0.9c0.1-0.3,0.5-0.2,1,0c0.3,0.2,0.5,0.4,0.5,0.6l2.1,1.3
				c0,0,3.5,2.3,4.9,3.2v-0.1l-3.9-5.4c0.6,0.6-0.8-1-1.2-1.4c-0.2,0-0.5-0.2-0.7-0.5c-0.3-0.4-0.4-0.9-0.3-1.1
				c0.2-0.2,0.6,0,0.9,0.4c0.2,0.3,0.3,0.5,0.3,0.8l1.6,2c0,0,2.6,3.6,3.6,5l0.1,0.2l-1.2-6c0,0-0.6-2.1-0.7-2.7
				c-0.2-0.1-0.4-0.4-0.5-0.8c-0.1-0.5,0-1,0.2-1.1s0.5,0.3,0.6,0.9c0.1,0.3,0.1,0.6,0,0.8l0.6,2.6c0,0,0.9,4.5,1.2,6.2
				c0.1,0.6-0.3,1.1-0.8,0.9c-0.4-0.1-0.9-0.2-1.3-0.2c-1-0.2-2.1-0.3-3.1-0.5c-0.2,0-0.5-0.1-0.7-0.1c0,0-1.9-0.1-2.4-0.2
				c-0.1,0.2-0.5,0.3-0.8,0.2C1897.6,57.2,1897.2,56.9,1897.2,56.6z"/>
		</g>
		<g>
			<path class="st1" d="M1883,61.2c0.1-0.3,0.6-0.2,1.1,0.2c0.3,0.2,0.5,0.5,0.6,0.7l2.2,1.8c0,0,3.6,3.1,5.1,4.4l-3.8-6.4
				c0,0-1.4-2-1.8-2.6c-0.2,0-0.5-0.3-0.8-0.7c-0.3-0.5-0.4-1.1-0.2-1.3c0.2-0.2,0.6,0.1,1,0.7c0.2,0.3,0.3,0.7,0.3,0.9l1.6,2.6
				c0,0,2.7,4.6,3.7,6.3v-0.1l-2-7.8c0.3,1-0.5-1.4-0.7-2.1c-0.2-0.1-0.4-0.5-0.6-1c-0.2-0.6-0.1-1.2,0.2-1.2c0.3-0.1,0.6,0.4,0.8,1
				c0.1,0.4,0.1,0.7,0.1,0.9l0.8,3c0,0,1.3,5.2,1.8,7.2v0.2l1.1-6.6c0,0,0.2-2.4,0.3-3.1c-0.1-0.2-0.2-0.7-0.1-1.1
				c0.1-0.6,0.4-1,0.6-0.9c0.3,0.1,0.4,0.7,0.3,1.3c-0.1,0.4-0.2,0.6-0.3,0.8l-0.4,2.9c0,0-0.8,4.9-1.1,6.8
				c-0.1,0.7-0.6,0.9-1.1,0.4c-0.4-0.4-0.8-0.7-1.2-1.1c-1-0.9-2-1.7-2.9-2.5c-0.2-0.2-0.5-0.4-0.7-0.6c0,0-1.8-1.3-2.4-1.7
				c-0.2,0.1-0.6-0.1-0.9-0.3C1883.2,62,1882.9,61.5,1883,61.2z"/>
			<path class="st1" d="M1882.2,69.6c0-0.3,0.3-0.6,0.9-0.7c0.3,0,0.6,0.1,0.8,0.2l2.5-0.2c0,0,4.1-0.2,5.8-0.2l-5.8-2.6
				c0,0-2-0.7-2.5-0.9c-0.2,0.2-0.5,0.2-0.9,0c-0.5-0.2-0.9-0.6-0.8-1c0.1-0.3,0.5-0.4,1-0.2c0.3,0.1,0.5,0.3,0.7,0.5l2.4,1
				c0,0,4.1,1.8,5.7,2.6V68l-5.1-5.2c0.7,0.6-1-0.9-1.5-1.3c-0.2,0.1-0.6-0.1-0.9-0.4c-0.4-0.4-0.6-1-0.5-1.2c0.2-0.3,0.6-0.1,1,0.3
				c0.3,0.2,0.4,0.5,0.5,0.8l2.1,2c0,0,3.4,3.5,4.8,4.8l0.1,0.2l-2.4-6.6c0,0-1-2.3-1.3-2.9c-0.2-0.1-0.5-0.4-0.6-0.9
				c-0.2-0.6-0.2-1.2,0-1.3s0.6,0.3,0.8,0.9c0.1,0.4,0.2,0.7,0.1,1l1.1,2.9c0,0,1.8,5,2.4,6.9c0.3,0.7-0.1,1.3-0.6,1.2
				c-0.5,0-0.9,0-1.4,0c-1.1,0-2.2,0.1-3.3,0.1c-0.3,0-0.5,0-0.8,0c0,0-2,0.3-2.5,0.4c-0.1,0.2-0.4,0.4-0.8,0.4
				C1882.7,70.2,1882.2,69.9,1882.2,69.6z"/>
		</g>
		<g>
			<path class="st1" d="M1904.5,68.8c0.2-0.2,0.6,0,1,0.5c0.2,0.3,0.4,0.6,0.4,0.9l1.9,2.3c0,0,3.1,4,4.3,5.6l-2.6-7.1
				c0,0-1-2.3-1.3-3c-0.2-0.1-0.5-0.4-0.6-0.9c-0.2-0.6-0.2-1.2,0-1.3c0.2-0.1,0.6,0.3,0.8,0.9c0.1,0.4,0.2,0.7,0.2,1l1.1,2.9
				c0,0,1.8,5,2.5,7l0.1-0.1l-0.5-7.8c0.1,1-0.2-1.5-0.3-2.2c-0.2-0.2-0.3-0.6-0.4-1.1c-0.1-0.6,0.1-1.1,0.4-1.1s0.5,0.5,0.6,1.2
				c0,0.4,0,0.7-0.1,0.9l0.3,3.1c0,0,0.3,5.2,0.4,7.2v0.2l2.4-5.8c0,0,0.7-2.2,0.9-2.8c-0.1-0.3-0.1-0.7,0.1-1.1
				c0.2-0.5,0.6-0.8,0.8-0.7c0.3,0.2,0.3,0.8,0.1,1.3c-0.1,0.3-0.3,0.6-0.5,0.7l-1,2.6c0,0-1.8,4.4-2.5,6.1c-0.3,0.6-0.8,0.6-1.2,0
				c-0.3-0.5-0.7-0.9-1-1.4c-0.8-1.1-1.6-2.1-2.5-3.2c-0.2-0.2-0.4-0.5-0.6-0.7c0,0-1.6-1.8-2-2.3c-0.2,0-0.6-0.2-0.8-0.6
				C1904.5,69.6,1904.3,69,1904.5,68.8z"/>
			<path class="st1" d="M1902,76.4c0-0.3,0.5-0.5,1-0.4c0.3,0.1,0.6,0.2,0.7,0.4l2.5,0.5c0,0,4.2,1.1,5.9,1.5l-5.3-4.1
				c0,0-1.9-1.2-2.4-1.6c-0.2,0.1-0.6,0-0.9-0.3c-0.5-0.3-0.7-0.8-0.6-1.1c0.1-0.3,0.6-0.2,1.1,0.1c0.3,0.2,0.5,0.5,0.6,0.7l2.3,1.6
				c0,0,3.8,2.9,5.2,4v-0.1l-4.2-6.4c0.6,0.8-0.9-1.1-1.3-1.7c-0.2,0-0.5-0.3-0.8-0.6c-0.3-0.5-0.5-1.1-0.2-1.3
				c0.2-0.2,0.7,0.1,1,0.6c0.2,0.3,0.3,0.6,0.3,0.9l1.7,2.4c0,0,2.8,4.3,3.9,5.9l0.1,0.2l-1.1-6.9c0,0-0.6-2.4-0.7-3.1
				c-0.2-0.1-0.4-0.5-0.5-1c-0.1-0.6,0-1.2,0.3-1.2s0.6,0.4,0.7,1.1c0.1,0.4,0,0.7,0,0.9l0.6,3c0,0,0.8,5.2,1.1,7.2
				c0.4,2.6,1.9,2-0.9,0.9c-0.5-0.2-1-0.3-1.4-0.4c-1.1-0.3-2.3-0.6-3.4-0.8c-0.3-0.1-0.5-0.1-0.8-0.2c0,0-2-0.3-2.6-0.4
				c-0.2,0.2-0.5,0.3-0.9,0.2C1902.4,77,1902,76.7,1902,76.4z"/>
		</g>
		<g>
			<path class="st1" d="M1952.9,35.5c0.2,0,0.5,0.4,0.6,1c0.1,0.3,0.1,0.6,0,0.8l0.6,2.7c0,0,0.8,4.5,1.2,6.3l0.9-6.1
				c0,0,0.2-2.1,0.2-2.7c-0.1-0.2-0.2-0.6-0.2-1c0.1-0.5,0.3-0.9,0.6-0.8c0.2,0.1,0.4,0.6,0.3,1.1c0,0.3-0.1,0.6-0.3,0.7l-0.3,2.6
				c0,0-0.7,4.3-0.9,6h0.1l3-5.2c-0.3,0.7,0.5-1.1,0.7-1.6c-0.1-0.2,0-0.6,0.1-0.9c0.2-0.4,0.6-0.6,0.8-0.4s0.2,0.7,0,1.1
				c-0.1,0.3-0.3,0.4-0.5,0.5l-1.1,2.1c0,0-2,3.5-2.7,4.8l-0.1,0.1l4.5-2.1c0,0,1.5-0.9,1.9-1.2c0-0.2,0.2-0.5,0.5-0.6
				c0.4-0.2,0.8-0.1,1,0.1c0.1,0.3-0.1,0.7-0.5,0.9c-0.2,0.1-0.5,0.1-0.7,0.1l-1.9,1c0,0-3.4,1.6-4.7,2.2c-0.5,0.2-0.9-0.2-1-0.8
				c0-0.5-0.2-1-0.3-1.5c-0.2-1.2-0.4-2.4-0.7-3.6c-0.1-0.3-0.1-0.6-0.2-0.8c0,0-0.6-2.2-0.7-2.8c-0.2-0.1-0.4-0.5-0.5-0.9
				C1952.5,36,1952.6,35.5,1952.9,35.5z"/>
			<path class="st1" d="M1947.5,38.6c0.2-0.2,0.6,0,1,0.4c0.2,0.2,0.4,0.5,0.4,0.7l1.9,2c0,0,3.1,3.4,4.3,4.8l-2.7-6
				c0,0-1-2-1.3-2.5c-0.2-0.1-0.5-0.4-0.6-0.8c-0.2-0.5-0.2-1,0-1.1s0.6,0.3,0.8,0.8c0.1,0.3,0.2,0.6,0.2,0.8l1.2,2.5
				c0,0,1.9,4.3,2.6,6l0.1-0.1l-0.7-6.7c0.2,0.9-0.2-1.3-0.3-1.9c-0.2-0.2-0.3-0.5-0.4-0.9c-0.1-0.5,0.1-1,0.3-1
				c0.2,0,0.5,0.5,0.6,1c0,0.3,0,0.6-0.1,0.8l0.3,2.6c0,0,0.5,4.5,0.7,6.2v0.2l2.1-5c0,0,0.6-1.9,0.7-2.4c-0.1-0.2-0.1-0.6,0-0.9
				c0.2-0.5,0.5-0.7,0.8-0.6c0.2,0.1,0.3,0.6,0.1,1.1c-0.1,0.3-0.3,0.5-0.4,0.6l-0.8,2.2c0,0-1.5,3.8-2.1,5.2
				c-0.2,0.5-0.8,0.5-1.1,0c-0.3-0.4-0.7-0.8-1-1.2c-0.8-0.9-1.6-1.8-2.5-2.7c-0.2-0.2-0.4-0.4-0.6-0.6c0,0-1.6-1.5-2-2
				c-0.2,0-0.5-0.2-0.8-0.5C1947.5,39.3,1947.4,38.8,1947.5,38.6z"/>
		</g>
		<g>
			<path class="st1" d="M1966.5,24.3c0.2-0.1,0.6,0.2,0.9,0.6c0.2,0.3,0.3,0.6,0.3,0.8l1.4,2.4c0,0,2.2,4,3.1,5.6l-1.2-6.4
				c0,0-0.6-2.1-0.7-2.7c-0.2-0.1-0.4-0.5-0.5-0.9c-0.1-0.5,0-1,0.2-1.1c0.2,0,0.5,0.4,0.6,0.9c0.1,0.3,0.1,0.6,0,0.8l0.6,2.7
				c0,0,0.9,4.6,1.2,6.3h0.1l0.9-6.6c0,0.9,0.1-1.3,0.1-1.9c-0.1-0.2-0.2-0.6-0.2-1c0.1-0.5,0.3-0.9,0.5-0.8
				c0.3,0.1,0.4,0.6,0.3,1.1c0,0.3-0.1,0.6-0.3,0.7l-0.3,2.6c0,0-0.6,4.4-0.8,6.1l-0.1,0.2l3.2-4.3c0,0,1-1.6,1.3-2.1
				c-0.1-0.2,0-0.6,0.2-0.9c0.3-0.4,0.7-0.5,0.9-0.3s0.1,0.7-0.1,1.1c-0.2,0.2-0.4,0.4-0.6,0.4l-1.3,1.9c0,0-2.4,3.2-3.3,4.4
				c-0.3,0.5-0.9,0.3-1.1-0.3c-0.2-0.5-0.5-0.9-0.7-1.4c-0.6-1.1-1.2-2.2-1.8-3.2c-0.1-0.2-0.3-0.5-0.4-0.7c0,0-1.2-1.8-1.5-2.4
				c-0.2,0-0.5-0.3-0.7-0.7C1966.4,24.9,1966.3,24.4,1966.5,24.3z"/>
			<path class="st1" d="M1963,30c0.1-0.3,0.5-0.3,1-0.1c0.3,0.1,0.5,0.3,0.6,0.5l2.3,1c0,0,3.7,1.8,5.2,2.6l-4.3-4.6
				c0,0-1.5-1.4-2-1.8c-0.2,0-0.5-0.1-0.8-0.4c-0.4-0.4-0.5-0.9-0.4-1.1c0.2-0.2,0.6,0,1,0.3c0.2,0.2,0.4,0.5,0.4,0.7l1.8,1.9
				c0,0,3,3.3,4.2,4.6v-0.1l-2.8-6.2c0.4,0.8-0.6-1.1-0.9-1.7c-0.2-0.1-0.5-0.3-0.6-0.7c-0.2-0.5-0.2-1,0-1.1s0.6,0.2,0.8,0.7
				c0.1,0.3,0.2,0.6,0.2,0.8l1.2,2.4c0,0,1.9,4.2,2.6,5.8v0.2l0.1-5.9c0,0-0.1-2.1-0.1-2.7c-0.2-0.2-0.3-0.5-0.3-0.9
				c0-0.5,0.2-1,0.5-0.9c0.3,0,0.5,0.5,0.5,1c0,0.3-0.1,0.6-0.2,0.8v2.6c0,0-0.1,4.5-0.1,6.2c0,0.6-0.5,0.9-1,0.6
				c-0.4-0.3-0.8-0.4-1.3-0.6c-1-0.5-2-1-3-1.5c-0.2-0.1-0.5-0.2-0.7-0.3c0,0-1.8-0.7-2.4-0.9c-0.2,0.1-0.5,0.1-0.9-0.1
				C1963.2,30.6,1962.9,30.2,1963,30z"/>
		</g>
		<g>
			<path class="st1" d="M1972.1,62.8c0.2,0,0.5,0.5,0.5,1.1c0,0.3,0,0.6-0.1,0.8l0.2,2.7c0,0,0.2,4.5,0.2,6.3l1.9-5.6
				c0,0,0.5-2,0.6-2.5c-0.1-0.2-0.1-0.6,0-1c0.1-0.5,0.5-0.8,0.7-0.6c0.2,0.2,0.3,0.7,0.1,1.1c-0.1,0.3-0.2,0.5-0.4,0.6l-0.7,2.4
				c0,0-1.3,4-1.8,5.5h0.1l3.8-4.3c-0.4,0.6,0.7-0.9,1-1.3c0-0.2,0.1-0.6,0.3-0.8c0.3-0.4,0.7-0.5,0.9-0.2c0.2,0.2,0.1,0.7-0.2,1.1
				c-0.2,0.2-0.4,0.3-0.6,0.3l-1.4,1.7c0,0-2.5,2.9-3.5,4l-0.1,0.1l4.9-0.9c0,0,1.7-0.5,2.1-0.7c0.1-0.2,0.3-0.4,0.6-0.5
				c0.4-0.1,0.9,0.1,1,0.3c0.1,0.3-0.2,0.6-0.6,0.7c-0.3,0.1-0.5,0-0.7-0.1l-2.1,0.5c0,0-3.7,0.7-5.1,1c-0.5,0.1-0.9-0.4-0.9-1
				c0-0.5,0-1,0-1.5c0-1.2-0.1-2.4-0.1-3.6c0-0.3,0-0.6,0-0.8c0,0-0.2-2.2-0.3-2.8c-0.2-0.2-0.3-0.6-0.3-1
				C1971.7,63.2,1971.8,62.8,1972.1,62.8z"/>
			<path class="st1" d="M1966.2,64.5c0.2-0.1,0.6,0.1,0.9,0.6c0.2,0.3,0.3,0.6,0.3,0.8l1.6,2.3c0,0,2.6,4,3.6,5.6l-1.8-6.4
				c0,0-0.7-2.1-1-2.7c-0.2-0.1-0.4-0.5-0.5-0.9c-0.2-0.5-0.1-1,0.1-1.1c0.2,0,0.6,0.4,0.7,0.9c0.1,0.3,0.1,0.6,0.1,0.8l0.8,2.7
				c0,0,1.3,4.6,1.7,6.3h0.1l0.3-6.6c0,0.9,0-1.3,0-1.9c-0.2-0.2-0.3-0.6-0.3-1c0-0.5,0.2-0.9,0.5-0.8s0.4,0.6,0.4,1.1
				c0,0.3-0.1,0.6-0.2,0.7l-0.1,2.6c0,0-0.2,4.4-0.3,6.1l-0.1,0.2l2.9-4.3c0,0,0.9-1.6,1.1-2.1c-0.1-0.2,0-0.6,0.2-0.9
				c0.2-0.4,0.6-0.6,0.8-0.4c0.2,0.2,0.2,0.7-0.1,1.1c-0.1,0.2-0.3,0.4-0.5,0.4l-1.2,1.9c0,0-2.1,3.2-3,4.5
				c-0.3,0.5-0.8,0.3-1.2-0.2c-0.2-0.5-0.6-0.9-0.9-1.4c-0.7-1.1-1.4-2.1-2.1-3.2c-0.2-0.2-0.3-0.5-0.5-0.7c0,0-1.4-1.8-1.7-2.3
				c-0.2,0-0.5-0.3-0.8-0.7C1966.2,65.2,1966,64.7,1966.2,64.5z"/>
		</g>
		<path class="st1" d="M1976.6,25c0.2,0.2,0.2,0.7-0.1,1.2c-0.1,0.3-0.3,0.4-0.5,0.5l-1.2,2.1c0,0-2,3.5-2.8,4.9l4.4-2.9
			c0,0,1.4-1.1,1.8-1.5c0-0.3,0.2-0.5,0.5-0.7c0.4-0.3,0.8-0.3,0.9,0s0,0.7-0.4,1c-0.2,0.2-0.5,0.2-0.6,0.2l-1.8,1.3
			c0,0-3.1,2.1-4.3,2.9l0.1,0.1l5.5-0.6c-0.7,0.2,1-0.2,1.5-0.3c0.1-0.2,0.3-0.4,0.7-0.4c0.4-0.1,0.9,0.1,0.9,0.4s-0.2,0.6-0.7,0.7
			c-0.3,0-0.5,0-0.7-0.1l-2.1,0.3c0,0-3.7,0.4-5.1,0.5h-0.2l4.9,2.7c0,0,1.8,0.8,2.3,1c0.2-0.1,0.5-0.1,0.8,0.1
			c0.4,0.2,0.8,0.6,0.7,0.9c-0.1,0.3-0.5,0.3-0.9,0.1c-0.3-0.1-0.5-0.3-0.6-0.5l-2.2-1.1c0,0-3.7-2-5.1-2.8c-0.5-0.3,0-1.8-0.3-1.3
			c-0.2,0.3,0.2-0.3,0.7-1.2c0.5-0.9,1.1-1.9,1.6-2.8c0.1-0.2,0.3-0.4,0.4-0.7c0,0,0.8-1.8,1.1-2.3c-0.1-0.2,0-0.6,0.2-1
			C1976.1,25,1976.4,24.8,1976.6,25z"/>
		<path class="st3" d="M1943.1,2c0.3-0.1,0.6,0.4,0.6,1.1c0,0.4,0,0.8-0.1,1.1l0.3,3.4c0,0,0.4,5.6,0.6,7.9l1.8-8.3
			c0,0,0.4-2.8,0.6-3.6c-0.1-0.2-0.2-0.7-0.1-1.2c0.1-0.7,0.5-1.3,0.7-1.2c0.3,0,0.4,0.7,0.2,1.4c-0.1,0.4-0.2,0.8-0.4,1l-0.7,3.5
			c0,0-1.3,5.9-1.8,8.2h0.1l4-7.8c-0.5,1.1,0.7-1.5,1-2.3c-0.1-0.3,0-0.8,0.3-1.3c0.3-0.6,0.8-1,1-0.8s0.1,0.8-0.2,1.5
			c-0.2,0.4-0.4,0.7-0.6,0.8l-1.5,3.1c0,0-2.7,5.2-3.7,7.3L1945,16l5.4-4.2c0,0,1.8-1.7,2.4-2.2c0.1-0.3,0.3-0.7,0.7-1
			c0.5-0.4,1-0.5,1.1-0.1c0.1,0.3-0.2,0.9-0.7,1.3c-0.3,0.2-0.6,0.4-0.8,0.3l-2.3,1.9c0,0-4.1,3.2-5.6,4.4c-0.6,0.5-1.1,0.1-1-0.7
			c0-0.6-0.1-1.3-0.1-1.9c-0.1-1.5-0.2-3-0.3-4.5c0-0.3,0-0.7-0.1-1.1c0,0-0.4-2.7-0.5-3.4c-0.2-0.1-0.4-0.5-0.4-1
			C1942.6,2.7,1942.8,2.1,1943.1,2z"/>
		<path class="st1" d="M1934.7,9.9c0.1-0.3,0.5-0.3,1,0c0.3,0.2,0.5,0.4,0.6,0.6l2.3,1.2c0,0,3.8,2.2,5.3,3l-4.4-5.3
			c0,0-1.6-1.6-2-2.1c-0.2,0-0.5-0.2-0.8-0.5c-0.4-0.4-0.6-1-0.4-1.2c0.2-0.2,0.6,0,1,0.4c0.2,0.3,0.4,0.6,0.4,0.8l1.9,2.1
			c0,0,3.1,3.8,4.3,5.2V14l-3-7c0.4,0.9-0.6-1.3-0.9-1.9c-0.2-0.1-0.5-0.4-0.7-0.8c-0.2-0.6-0.3-1.1,0-1.2c0.2-0.1,0.6,0.2,0.9,0.8
			c0.2,0.3,0.2,0.7,0.2,0.9l1.2,2.7c0,0,2,4.7,2.7,6.5v0.2V7.6c0,0-0.2-2.4-0.2-3c-0.2-0.2-0.3-0.6-0.3-1c0-0.6,0.2-1.1,0.5-1
			c0.3,0,0.5,0.6,0.5,1.2c0,0.4-0.1,0.7-0.2,0.8l0.1,2.9c0,0,0,5,0,6.9c0,0.7-0.5,1-1,0.6c-0.4-0.3-0.9-0.5-1.3-0.8
			c-1-0.6-2-1.2-3.1-1.7c-0.2-0.1-0.5-0.3-0.7-0.4c0,0-1.9-0.9-2.4-1.1c-0.2,0.1-0.5,0.1-0.9-0.1C1935,10.7,1934.6,10.2,1934.7,9.9z
			"/>
		<path class="st1" d="M1942.8,3.4c0.2,0,0.5,0.5,0.5,1.1c0,0.3,0,0.6-0.1,0.8l0.3,2.8c0,0,0.4,4.6,0.6,6.5l1.5-6
			c0,0,0.3-2.1,0.4-2.7c-0.1-0.2-0.2-0.6-0.1-1c0.1-0.5,0.4-0.8,0.6-0.7s0.3,0.6,0.2,1.2c-0.1,0.3-0.2,0.6-0.3,0.7l-0.5,2.5
			c0,0-1,4.3-1.4,5.9h0.1l3.4-4.8c-0.4,0.7,0.6-1,0.9-1.5c-0.1-0.2,0-0.6,0.2-0.9c0.3-0.4,0.7-0.5,0.8-0.3c0.2,0.2,0.1,0.7-0.1,1.1
			c-0.2,0.2-0.4,0.4-0.5,0.4l-1.3,1.9c0,0-2.3,3.2-3.2,4.5l-0.1,0.1l4.7-1.5c0,0,1.6-0.7,2-0.9c0-0.2,0.3-0.5,0.6-0.6
			c0.4-0.1,0.8,0,1,0.3s-0.2,0.6-0.6,0.8c-0.2,0.1-0.5,0.1-0.7,0l-2,0.7c0,0-3.5,1.1-4.9,1.5c-0.5,0.2-0.9-0.3-0.9-0.9
			c0-0.5-0.1-1.1-0.1-1.6c-0.1-1.2-0.2-2.5-0.4-3.7c0-0.3-0.1-0.6-0.1-0.9c0,0-0.4-2.2-0.5-2.9c-0.2-0.2-0.3-0.5-0.4-1
			C1942.4,3.9,1942.6,3.4,1942.8,3.4z"/>
		<g>
			<path class="st3" d="M1978.2,68.8c-0.2-0.2-0.5-0.2-0.8,0.1c-0.2,0.2-0.3,0.4-0.3,0.6l-1.4,1.3c0,0-2.2,2.3-3.1,3.3l1.6-4.9
				c0,0,0.7-1.6,0.9-2c0.2,0,0.3-0.2,0.5-0.5c0.1-0.4,0.1-0.9-0.1-1s-0.5,0.1-0.6,0.5c-0.1,0.3-0.1,0.5-0.1,0.7l-0.7,2
				c0,0-1.2,3.5-1.6,4.8l-0.1-0.1l-0.1-6.1c-0.1,0.8,0.1-1.1,0.1-1.7c0.1-0.1,0.2-0.4,0.2-0.8c0-0.5-0.2-0.9-0.4-1s-0.4,0.3-0.4,0.8
				c0,0.3,0.1,0.6,0.2,0.8V68c0,0,0.1,4.1,0.1,5.6l0.1,0.2l-2.2-5.3c0,0-0.7-1.9-0.9-2.5c0.1-0.2,0-0.5-0.1-0.9
				c-0.2-0.5-0.5-0.8-0.7-0.7s-0.2,0.5,0,1c0.1,0.3,0.3,0.5,0.4,0.6l0.9,2.3c0,0,1.7,4,2.3,5.5c0.2,0.6,0.7,0.7,1,0.3
				c0.2-0.3,0.5-0.5,0.7-0.8c0.6-0.6,1.2-1.3,1.8-1.9c0.1-0.1,0.3-0.3,0.4-0.4c0,0,1.2-1,1.5-1.3c0.2,0.1,0.4,0,0.6-0.2
				C1978.3,69.4,1978.4,69,1978.2,68.8z"/>
			<path class="st3" d="M1980.7,75.5c0-0.3-0.4-0.5-0.8-0.6c-0.2,0-0.4,0-0.6,0.1l-2-0.2c0,0-3.3-0.3-4.6-0.4l4-1.8
				c0,0,1.4-0.4,1.8-0.6c0.2,0.1,0.5,0.1,0.7,0c0.3-0.1,0.5-0.5,0.4-0.7s-0.5-0.3-0.8-0.2c-0.2,0.1-0.4,0.2-0.4,0.4l-1.7,0.7
				c0,0-2.9,1.3-3.9,1.8v-0.1l2.9-3.9c-0.4,0.4,0.6-0.7,0.9-1c0.2,0,0.4-0.1,0.6-0.3c0.2-0.3,0.3-0.7,0.1-0.9
				c-0.2-0.2-0.5-0.1-0.8,0.2c-0.1,0.2-0.2,0.4-0.2,0.6l-1.2,1.5c0,0-2,2.6-2.7,3.6v0.2l0.5-5.2c0,0,0.3-1.8,0.4-2.3
				c0.1-0.1,0.3-0.3,0.3-0.7c0-0.5-0.1-0.9-0.3-1c-0.2-0.1-0.4,0.2-0.5,0.7c0,0.3,0,0.6,0.1,0.8l-0.3,2.2c0,0-0.3,3.9-0.5,5.4
				c0,0.6,0.3,1,0.7,1c0.4,0,0.8,0.1,1.1,0.1c0.9,0.1,1.8,0.2,2.7,0.3c0.2,0,0.4,0,0.6,0.1c0,0,1.6,0.3,2.1,0.4
				c0.1,0.2,0.4,0.3,0.7,0.4C1980.4,75.9,1980.7,75.8,1980.7,75.5z"/>
		</g>
		<g>
			<path class="st3" d="M1962.9,40.7c-0.2-0.2-0.6-0.2-1,0.2c-0.2,0.2-0.3,0.4-0.4,0.7l-1.7,1.6c0,0-2.8,2.7-3.9,3.8l2.2-5.6
				c0,0,0.9-1.8,1.1-2.3c0.2,0,0.4-0.3,0.6-0.6c0.2-0.5,0.2-1-0.1-1.1c-0.2-0.2-0.6,0.1-0.8,0.6c-0.1,0.3-0.1,0.6-0.1,0.8l-1,2.3
				c0,0-1.5,4-2.1,5.5l-0.1-0.1l0.1-6.8c-0.1,0.9,0.1-1.3,0.2-1.9c0.2-0.1,0.3-0.4,0.3-0.9c0-0.6-0.2-1-0.4-1.1
				c-0.3-0.1-0.5,0.3-0.5,0.9c0,0.3,0.1,0.6,0.2,0.8l-0.1,2.7c0,0-0.1,4.6-0.1,6.3l0.1,0.2l-2.5-5.8c0,0-0.8-2.1-1-2.7
				c0.1-0.2,0-0.6-0.1-1c-0.2-0.5-0.6-0.9-0.8-0.8c-0.2,0.1-0.2,0.6,0,1.1c0.1,0.3,0.3,0.6,0.5,0.7l1.1,2.6c0,0,1.9,4.4,2.7,6.1
				c0.3,0.6,0.8,0.8,1.2,0.3c0.3-0.4,0.6-0.6,0.9-0.9c0.7-0.7,1.5-1.5,2.3-2.2c0.2-0.2,0.3-0.3,0.5-0.5c0,0,1.5-1.2,1.9-1.5
				c0.2,0.1,0.5,0,0.8-0.3C1962.9,41.4,1963,40.9,1962.9,40.7z"/>
			<path class="st3" d="M1965.6,48.1c0-0.3-0.5-0.6-1-0.6c-0.3,0-0.5,0-0.7,0.2l-2.4-0.2c0,0-4-0.2-5.7-0.3l5-2.2
				c0,0,1.8-0.6,2.3-0.7c0.2,0.1,0.6,0.1,0.9,0c0.4-0.2,0.7-0.6,0.5-0.8c-0.1-0.3-0.6-0.4-1-0.2c-0.3,0.1-0.4,0.3-0.5,0.5l-2.1,0.8
				c0,0-3.5,1.6-4.9,2.2v-0.1l3.8-4.5c-0.5,0.5,0.8-0.8,1.2-1.1c0.2,0,0.5-0.1,0.7-0.3c0.3-0.4,0.4-0.8,0.2-1.1
				c-0.2-0.2-0.6-0.1-0.9,0.2c-0.2,0.2-0.3,0.5-0.3,0.7l-1.5,1.7c0,0-2.5,3-3.5,4.2l-0.1,0.2l0.8-5.8c0,0,0.4-2,0.6-2.6
				c0.2-0.1,0.4-0.4,0.4-0.8c0.1-0.5-0.1-1-0.3-1.1c-0.3-0.1-0.5,0.2-0.6,0.8c0,0.3,0,0.6,0.1,0.8l-0.4,2.5c0,0-0.6,4.4-0.8,6.1
				c-0.1,0.6,0.3,1.1,0.9,1.1c0.4,0,0.9,0,1.4,0.1c1.1,0,2.2,0.1,3.3,0.2c0.3,0,0.5,0,0.8,0c0,0,2,0.3,2.5,0.4
				c0.2,0.2,0.5,0.4,0.9,0.4C1965.3,48.6,1965.6,48.4,1965.6,48.1z"/>
		</g>
		<g>
			<path class="st3" d="M1937.5,28.5c-0.3-0.1-0.6,0.2-0.7,0.7c-0.1,0.3-0.1,0.7,0,0.9l-0.8,2.6c0,0-1.2,4.4-1.7,6.2l-0.6-6.9
				c0,0,0-2.3,0-3c0.2-0.2,0.3-0.5,0.2-1c0-0.6-0.3-1.1-0.5-1.1c-0.3,0-0.4,0.5-0.4,1.1c0,0.4,0.1,0.7,0.3,0.9l0.2,2.9
				c0,0,0.4,5,0.6,6.9h-0.1l-2.8-7c0.3,0.9-0.5-1.4-0.7-2c0.1-0.2,0.1-0.6-0.1-1c-0.2-0.6-0.6-0.9-0.8-0.9c-0.2,0.1-0.3,0.6,0,1.2
				c0.1,0.3,0.3,0.6,0.5,0.8l1,2.8c0,0,1.9,4.7,2.6,6.5l0.1,0.2l-4.6-4.4c0,0-1.5-1.7-2-2.2c0-0.3-0.2-0.6-0.5-0.9
				c-0.4-0.4-0.9-0.5-1-0.3c-0.2,0.2,0.1,0.7,0.5,1.1c0.3,0.2,0.5,0.4,0.7,0.4l2,2c0,0,3.5,3.3,4.8,4.5c0.5,0.5,1,0.3,1.1-0.3
				c0.1-0.5,0.3-1,0.4-1.5c0.3-1.2,0.6-2.4,1-3.6c0.1-0.3,0.1-0.6,0.2-0.8c0,0,0.7-2.1,0.9-2.6c0.2-0.1,0.4-0.4,0.5-0.8
				C1937.9,29.2,1937.8,28.6,1937.5,28.5z"/>
			<path class="st3" d="M1943,34.3c-0.2-0.3-0.6-0.3-1.1,0c-0.3,0.2-0.4,0.4-0.5,0.6l-2.1,1.3c0,0-3.5,2.2-4.9,3.1l3.2-5.2
				c0,0,1.2-1.6,1.6-2.1c0.2,0,0.5-0.2,0.7-0.5c0.3-0.4,0.3-1,0.1-1.2c-0.2-0.2-0.7,0-0.9,0.4c-0.2,0.3-0.3,0.6-0.2,0.8l-1.4,2.1
				c0,0-2.3,3.7-3.2,5.1l-0.1-0.1l1.2-6.9c-0.2,0.8,0.3-1.3,0.5-1.9c0.2-0.1,0.4-0.4,0.5-0.8c0.1-0.6,0-1.1-0.3-1.2
				s-0.6,0.3-0.7,0.8c-0.1,0.3,0,0.7,0,0.9l-0.5,2.7c0,0-0.8,4.6-1.1,6.3v0.2l-1.9-6.3c0,0-0.5-2.3-0.6-2.9c0.1-0.2,0.1-0.6,0-1
				c-0.2-0.6-0.5-1-0.8-1c-0.3,0.1-0.4,0.6-0.2,1.1c0.1,0.3,0.3,0.6,0.4,0.8l0.7,2.8c0,0,1.4,4.8,1.9,6.6c0.2,0.7,0.8,0.9,1.2,0.6
				c0.3-0.3,0.8-0.5,1.2-0.8c0.9-0.6,1.9-1.2,2.8-1.8c0.2-0.1,0.4-0.3,0.6-0.4c0,0,1.8-0.9,2.3-1.1c0.2,0.1,0.6,0.1,0.9-0.1
				C1942.9,35.1,1943.2,34.6,1943,34.3z"/>
		</g>
		<g>
			<path class="st3" d="M1978.7,27.7c-0.2-0.3-0.6-0.2-0.9,0.1c-0.2,0.2-0.3,0.5-0.3,0.7l-1.6,1.6c0,0-2.6,2.8-3.6,3.9l1.9-5.9
				c0,0,0.8-1.9,1-2.4c0.2,0,0.4-0.3,0.5-0.6c0.2-0.5,0.1-1.1-0.1-1.2s-0.6,0.1-0.7,0.6c-0.1,0.3-0.1,0.6-0.1,0.9l-0.8,2.4
				c0,0-1.3,4.2-1.8,5.8l-0.1-0.1l-0.1-7.3c-0.1,0.9,0.1-1.4,0.1-2c0.2-0.1,0.3-0.5,0.3-0.9c0-0.6-0.2-1.1-0.5-1.2s-0.4,0.4-0.5,0.9
				c0,0.3,0.1,0.7,0.2,0.9v2.9c0,0,0.1,4.9,0.1,6.8l0.1,0.2l-2.7-6.4c0,0-0.8-2.3-1.1-3c0.1-0.2,0-0.6-0.1-1.1
				c-0.2-0.6-0.6-1-0.8-0.9c-0.2,0.1-0.2,0.6,0,1.2c0.1,0.3,0.3,0.6,0.5,0.8l1.1,2.8c0,0,2,4.8,2.8,6.6c0.3,0.7,0.8,0.9,1.1,0.4
				c0.2-0.4,0.6-0.7,0.9-1c0.7-0.8,1.4-1.5,2.1-2.2c0.2-0.2,0.3-0.4,0.5-0.5c0,0,1.4-1.2,1.8-1.5c0.2,0.1,0.5,0,0.7-0.3
				C1978.8,28.4,1978.9,27.9,1978.7,27.7z"/>
			<path class="st3" d="M1981.6,35.7c-0.1-0.3-0.5-0.6-1-0.7c-0.3,0-0.5,0-0.7,0.1l-2.4-0.3c0,0-3.9-0.4-5.5-0.6l4.7-2.2
				c0,0,1.7-0.5,2.1-0.7c0.2,0.1,0.5,0.2,0.8,0.1c0.4-0.2,0.6-0.6,0.5-0.9s-0.6-0.4-1-0.2c-0.2,0.1-0.4,0.3-0.5,0.5l-2,0.8
				c0,0-3.4,1.5-4.6,2.1v-0.1l3.4-4.7c-0.5,0.5,0.7-0.8,1.1-1.2c0.2,0.1,0.5-0.1,0.7-0.3c0.3-0.4,0.3-0.9,0.1-1.1
				c-0.2-0.3-0.6-0.2-0.9,0.2c-0.2,0.2-0.3,0.5-0.3,0.7l-1.4,1.8c0,0-2.3,3.2-3.2,4.4l-0.1,0.2l0.5-6.2c0,0,0.3-2.1,0.4-2.7
				c0.2-0.1,0.3-0.4,0.4-0.8c0.1-0.6-0.1-1.1-0.4-1.2s-0.5,0.2-0.6,0.8c0,0.3,0,0.7,0.1,0.9l-0.3,2.7c0,0-0.4,4.7-0.5,6.5
				c-0.1,0.7,0.4,1.2,0.9,1.2c0.4,0,0.9,0.1,1.3,0.1c1,0.1,2.1,0.2,3.1,0.3c0.2,0,0.5,0,0.7,0.1c0,0,1.9,0.4,2.5,0.5
				c0.2,0.2,0.5,0.4,0.9,0.5C1981.3,36.3,1981.7,36.1,1981.6,35.7z"/>
		</g>
		<g>
			<path class="st3" d="M1913.9,10.7c-0.2-0.1-0.4,0.3-0.4,0.9c0,0.4,0.1,0.8,0.2,1v3.1c0,0,0.1,5.3,0.1,7.4l-2.1-8.2
				c0,0-0.6-2.7-0.7-3.5c0.1-0.2,0.1-0.6,0-1.2c-0.2-0.7-0.5-1.3-0.7-1.3s-0.3,0.6-0.1,1.3c0.1,0.4,0.3,0.8,0.4,1l0.8,3.4
				c0,0,1.5,5.8,2.1,8.1h-0.1l-3.9-8.2c0.5,1.1-0.7-1.6-1-2.3c0-0.3-0.1-0.7-0.3-1.2c-0.3-0.7-0.7-1.1-0.9-1
				c-0.2,0.1-0.1,0.8,0.2,1.4c0.2,0.4,0.4,0.7,0.6,0.9l1.5,3.2c0,0,2.6,5.5,3.7,7.5l0.2,0.2l-4.8-5c0,0-1.7-1.9-2.1-2.5
				c-0.1-0.3-0.3-0.7-0.6-1.1c-0.4-0.5-0.8-0.6-0.9-0.3s0.2,0.9,0.7,1.3c0.3,0.3,0.5,0.4,0.7,0.5l2.1,2.3c0,0,3.6,3.7,5,5.2
				c0.5,0.5,0.9,0.3,0.8-0.5c-0.1-0.6,0-1.2,0-1.8c0-1.4,0-2.8-0.1-4.3c0-0.3,0-0.7,0-1c0,0,0.1-2.5,0.1-3.2
				c0.1-0.1,0.3-0.4,0.3-0.9C1914.4,11.5,1914.2,10.9,1913.9,10.7z"/>
			<path class="st3" d="M1919.8,17.5c-0.2-0.3-0.6-0.3-0.9,0c-0.2,0.2-0.3,0.5-0.3,0.7l-1.4,1.6c0,0-2.3,2.8-3.2,3.9l1.4-6.3
				c0,0,0.6-2,0.8-2.5c0.2,0,0.4-0.2,0.5-0.6c0.1-0.5,0-1.2-0.2-1.4s-0.5,0-0.7,0.6c-0.1,0.3-0.1,0.7,0,1l-0.6,2.6
				c0,0-1,4.5-1.4,6.2l-0.1-0.1l-0.6-8.2c0,1,0-1.5-0.1-2.2c0.1-0.1,0.2-0.5,0.2-1c0-0.6-0.3-1.3-0.5-1.4c-0.3-0.1-0.4,0.3-0.4,1
				c0,0.4,0.1,0.8,0.2,1l0.2,3.2c0,0,0.4,5.5,0.6,7.6l0.1,0.3l-3-7.4c0,0-0.9-2.7-1.2-3.4c0.1-0.2,0-0.7-0.2-1.2
				c-0.3-0.7-0.6-1.2-0.8-1.1c-0.2,0.1-0.2,0.7,0.1,1.3c0.2,0.4,0.4,0.7,0.5,0.9l1.3,3.3c0,0,2.3,5.6,3.1,7.7
				c0.3,0.8,0.8,1.1,1.1,0.6c0.2-0.4,0.5-0.6,0.8-1c0.6-0.8,1.2-1.5,1.9-2.2c0.1-0.2,0.3-0.4,0.4-0.5c0,0,1.2-1.1,1.6-1.5
				c0.2,0.1,0.5,0,0.7-0.2C1919.9,18.3,1920,17.8,1919.8,17.5z"/>
		</g>
		<g>
			<path class="st3" d="M1915.3,41.1c-0.2,0-0.3,0.5-0.1,1.2c0.1,0.4,0.2,0.7,0.4,0.9l0.7,3.1c0,0,1.2,5.2,1.7,7.3l-3.4-6.9
				c0,0-1-2.4-1.3-3.1c0-0.3-0.1-0.7-0.3-1.1c-0.3-0.6-0.7-1-0.8-0.8c-0.2,0.1-0.1,0.7,0.2,1.3c0.2,0.4,0.4,0.6,0.5,0.8l1.4,2.9
				c0,0,2.4,4.9,3.4,6.8h-0.1l-4.9-5.7c0.6,0.8-0.9-1.2-1.3-1.7c0-0.3-0.2-0.7-0.5-1c-0.4-0.5-0.8-0.7-0.9-0.4s0.1,0.8,0.5,1.3
				c0.2,0.3,0.5,0.5,0.6,0.5l1.9,2.3c0,0,3.3,3.8,4.5,5.2l0.2,0.1l-4.8-2c0,0-1.7-0.9-2.2-1.1c-0.1-0.3-0.4-0.5-0.7-0.7
				c-0.4-0.2-0.8-0.1-0.8,0.2s0.4,0.7,0.8,0.9c0.3,0.1,0.5,0.1,0.6,0l2.1,0.9c0,0,3.6,1.5,5,2c0.5,0.2,0.8-0.3,0.5-1
				c-0.2-0.6-0.3-1.2-0.4-1.8c-0.3-1.4-0.6-2.8-1-4.2c-0.1-0.3-0.2-0.7-0.2-1c0,0-0.4-2.5-0.6-3.3c0.1-0.2,0.1-0.6,0-1.1
				C1915.8,41.6,1915.5,41.1,1915.3,41.1z"/>
			<path class="st3" d="M1921.4,44.1c-0.2-0.2-0.5,0.1-0.7,0.6c-0.1,0.3-0.1,0.6-0.1,0.9l-0.8,2.5c0,0-1.2,4.2-1.7,5.9l-0.3-7.2
				c0,0,0.1-2.4,0.1-3c0.1-0.1,0.2-0.5,0.2-0.9c0-0.6-0.2-1.2-0.4-1.3c-0.2-0.1-0.4,0.4-0.4,1c0,0.4,0.1,0.7,0.2,1l0.1,3
				c0,0,0.2,5.1,0.3,7.1l-0.1-0.1l-2.3-7.8c0.2,1-0.4-1.5-0.5-2.2c0.1-0.2,0.1-0.6,0-1.1c-0.2-0.6-0.5-1.1-0.7-1.1s-0.3,0.6-0.1,1.2
				c0.1,0.4,0.3,0.7,0.4,0.9l0.8,3c0,0,1.5,5.2,2.1,7.2l0.1,0.2l-4-5.5c0,0-1.3-2.1-1.7-2.7c0-0.3-0.2-0.7-0.4-1.1
				c-0.4-0.5-0.8-0.8-0.9-0.6s0,0.8,0.4,1.3c0.2,0.3,0.4,0.5,0.6,0.6l1.7,2.5c0,0,3,4.2,4.1,5.8c0.4,0.6,0.9,0.5,1-0.1
				c0.1-0.5,0.3-1,0.4-1.4c0.3-1.1,0.7-2.3,1-3.4c0.1-0.3,0.1-0.5,0.2-0.8c0,0,0.7-1.9,0.9-2.5c0.2,0,0.4-0.3,0.5-0.6
				C1921.6,44.9,1921.6,44.3,1921.4,44.1z"/>
		</g>
		<g>
			<path class="st3" d="M1889.9,55.7c-0.2,0-0.3,0.5-0.2,1.2c0.1,0.4,0.2,0.7,0.4,0.9l0.6,3.1c0,0,1.1,5.1,1.6,7.2l-3.3-6.7
				c0,0-1-2.3-1.3-3c0-0.2-0.1-0.7-0.3-1.1c-0.3-0.6-0.6-1-0.8-0.8c-0.2,0.1-0.1,0.7,0.2,1.3c0.2,0.3,0.4,0.6,0.5,0.8l1.3,2.9
				c0,0,2.4,4.8,3.3,6.7h-0.1l-4.8-5.6c0.6,0.8-0.9-1.1-1.3-1.7c0-0.3-0.2-0.7-0.5-1c-0.4-0.5-0.8-0.7-0.9-0.4
				c-0.1,0.2,0.1,0.8,0.5,1.2c0.2,0.3,0.5,0.5,0.6,0.5l1.8,2.2c0,0,3.2,3.7,4.4,5.2l0.2,0.1l-4.8-2c0,0-1.7-0.9-2.2-1.1
				c-0.1-0.3-0.4-0.5-0.7-0.7c-0.4-0.2-0.8-0.1-0.8,0.2c0,0.3,0.4,0.7,0.8,0.9c0.3,0.1,0.5,0.1,0.6,0l2.1,0.9c0,0,3.6,1.5,5,2
				c0.5,0.2,0.8-0.3,0.6-0.9c-0.2-0.6-0.3-1.2-0.4-1.7c-0.3-1.4-0.6-2.8-0.9-4.1c-0.1-0.3-0.1-0.6-0.2-1c0,0-0.4-2.5-0.5-3.2
				c0.1-0.2,0.1-0.6,0-1.1C1890.4,56.3,1890.1,55.7,1889.9,55.7z"/>
			<path class="st3" d="M1895.9,58.8c-0.2-0.2-0.5,0.1-0.7,0.6c-0.1,0.3-0.1,0.6-0.1,0.9l-0.8,2.4c0,0-1.3,4.1-1.8,5.7l-0.2-7
				c0,0,0.1-2.3,0.1-3c0.1-0.1,0.3-0.5,0.3-0.9c0-0.6-0.2-1.1-0.4-1.2c-0.2-0.1-0.4,0.3-0.4,0.9c0,0.4,0.1,0.7,0.2,0.9V61
				c0,0,0.1,5,0.2,6.9l-0.1-0.1l-2.2-7.6c0.2,1-0.3-1.5-0.5-2.1c0.1-0.2,0.1-0.6,0-1.1c-0.2-0.6-0.5-1.1-0.7-1
				c-0.2,0-0.3,0.6-0.1,1.2c0.1,0.4,0.3,0.7,0.4,0.9l0.8,3c0,0,1.4,5.1,2,7l0.1,0.2l-3.9-5.5c0,0-1.3-2.1-1.7-2.6
				c0-0.3-0.2-0.7-0.4-1c-0.3-0.5-0.8-0.8-0.9-0.6s0,0.7,0.4,1.3c0.2,0.3,0.4,0.5,0.6,0.6l1.7,2.4c0,0,2.9,4.1,4.1,5.7
				c0.4,0.6,0.9,0.5,1-0.1c0.1-0.5,0.3-0.9,0.4-1.4c0.3-1.1,0.7-2.2,1-3.3c0.1-0.3,0.2-0.5,0.2-0.8c0,0,0.7-1.9,1-2.4
				c0.2,0,0.4-0.2,0.5-0.6C1896.2,59.5,1896.1,59,1895.9,58.8z"/>
		</g>
		<g>
			<path class="st3" d="M1913,65.8c-0.2-0.1-0.4,0.3-0.4,0.9c0,0.4,0.1,0.7,0.2,1v3c0,0,0.2,5.1,0.2,7.2l-2.2-7.7
				c0,0-0.6-2.6-0.8-3.3c0.1-0.2,0.1-0.6-0.1-1.1c-0.2-0.7-0.5-1.2-0.7-1.2s-0.2,0.6-0.1,1.2c0.1,0.4,0.3,0.7,0.4,1l0.9,3.2
				c0,0,1.6,5.5,2.2,7.6h-0.1l-4-7.5c0.5,1-0.7-1.5-1-2.2c0-0.3-0.1-0.7-0.3-1.2c-0.3-0.6-0.7-1-0.9-0.9c-0.2,0.1,0,0.8,0.3,1.4
				c0.2,0.4,0.4,0.6,0.6,0.8l1.5,3c0,0,2.7,5,3.7,6.9l0.2,0.2l-4.7-4.3c0,0-1.6-1.7-2.1-2.2c-0.1-0.3-0.3-0.7-0.6-1
				c-0.4-0.4-0.8-0.5-0.9-0.2s0.2,0.8,0.7,1.2c0.3,0.2,0.5,0.4,0.7,0.4l2.1,2c0,0,3.6,3.3,5,4.5c0.5,0.5,0.9,0.2,0.8-0.5
				c-0.1-0.6,0-1.2-0.1-1.7c-0.1-1.4-0.1-2.7-0.1-4.1c0-0.3,0-0.6,0-1c0,0,0.1-2.4,0.1-3.1c0.1-0.1,0.2-0.5,0.2-0.9
				C1913.4,66.5,1913.2,65.9,1913,65.8z"/>
			<path class="st3" d="M1918.8,71.7c-0.2-0.3-0.6-0.2-0.9,0.1c-0.2,0.2-0.3,0.5-0.3,0.7l-1.4,1.7c0,0-2.2,2.9-3.1,4.1l1.2-6.2
				c0,0,0.6-2,0.7-2.5c0.2,0,0.4-0.3,0.5-0.7c0.1-0.5,0-1.1-0.2-1.3s-0.5,0.1-0.6,0.6c-0.1,0.3-0.1,0.7,0,0.9l-0.6,2.6
				c0,0-0.9,4.5-1.2,6.2l-0.1-0.1L1912,70c0,1-0.1-1.5-0.1-2.1c0.1-0.1,0.2-0.5,0.2-1c-0.1-0.6-0.3-1.2-0.5-1.3
				c-0.2-0.1-0.4,0.4-0.3,1c0,0.4,0.1,0.7,0.3,1l0.2,3c0,0,0.5,5.2,0.7,7.3l0.1,0.2l-3.1-6.9c0,0-1-2.5-1.2-3.2
				c0.1-0.2,0-0.7-0.2-1.1c-0.3-0.6-0.6-1.1-0.8-1c-0.2,0.1-0.1,0.7,0.1,1.3c0.2,0.4,0.4,0.7,0.5,0.9l1.3,3.1c0,0,2.3,5.2,3.2,7.2
				c0.3,0.7,0.8,0.9,1.1,0.5c0.2-0.4,0.5-0.7,0.7-1c0.6-0.8,1.2-1.6,1.8-2.3c0.1-0.2,0.3-0.4,0.4-0.5c0,0,1.2-1.2,1.5-1.6
				c0.2,0.1,0.5,0,0.7-0.3C1918.9,72.5,1919,72,1918.8,71.7z"/>
		</g>
	</g>
	<g>
		<g>
			<path class="st4" d="M1903.4,129.2c4.1,10.7,7.7,21.2,10.8,32.2l4.1,15.2l3.5,16l1,7.4l-0.9,0.3l-0.7-7.6l-3.5-16l-4-15.1
				c-3-10.9-6.7-21.3-10.7-32.1L1903.4,129.2z"/>
		</g>
		<g>
			<path class="st5" d="M1878.7,150.2l4.1,6.2c3.7,4.9,7.1,9.9,11.1,14.7c3.9,4.6,8,9,12,13.2l5,5.2c3,3.2,6.3,5.8,9.5,8.3l2.2,1.8
				l-0.6,1.6l-1.8-2.8c-3.2-2.5-6.6-5.1-9.6-8.4l-4.9-5.2c-4-4.2-8.2-8.6-12.1-13.2c-4-4.8-7.8-9.9-11.5-14.8l-4.2-5.9L1878.7,150.2
				z"/>
		</g>
		<g>
			<path class="st5" d="M1921.2,200.7l-25.1-6.9l-13.3-4.8l0.5-0.7l12.9,4.6l24.8,6.7L1921.2,200.7z"/>
		</g>
		<g>
			<path class="st5" d="M1901.2,156.1l9.4,20.3c0.5,1.1,1,1.6,10.8,22.7l-1,0.1l-10.3-22.1l-9.5-20.4L1901.2,156.1z"/>
		</g>
		<g>
			<path class="st5" d="M1922.7,155.1c1,5.2,1.7,10.4,1.4,15.6c-0.1,3.5,0.1,7,0,10.6c-0.1,2.4-0.3,5.3-0.5,7.9
				c-0.2,2.8-0.9,5.4-1.5,8c0,0.1-0.3,1.8-0.4,1.8l-0.6-0.1c0.7-3.3,1.6-6.6,1.8-10.1c0.3-3.8,0.2-7.6,0.3-11.4
				c0.1-2.3,0.1-4.5,0.2-6.8c0.2-5.1-0.6-10.2-1.6-15.3L1922.7,155.1z"/>
		</g>
		<g>
			<path class="st5" d="M1933.9,135.3c0.2,1.2,0.2,1.4,0.4,2.6c0.7,4.1,1.4,8.3,1,12.2c-0.2,2-0.3,4-0.5,6c-0.5,7-1.1,14.3-3,20.6
				c-0.9,3-2.1,5.9-3.3,8.8c-0.6,1.4-1.2,2.8-1.7,4.2l0,0l0,0l-4.8,9.5l-0.5-0.4l4.8-9.5l0,0c0.6-1.4,1.2-2.9,1.7-4.3
				c1.2-2.8,2.4-5.7,3.3-8.7c1.8-6.3,2.4-13.5,2.9-20.5c0.2-2,0.3-4.1,0.5-6c0.4-3.8-0.3-8-1-12c-0.1-0.8-0.7-1-1-3.1L1933.9,135.3z
				"/>
		</g>
		<g>
			<path class="st5" d="M1946.4,175c-8.5,10.1-16.2,17.9-24.2,24.6l-0.4-0.6c8-6.6,15.6-14.4,24.1-24.5L1946.4,175z"/>
		</g>
		<g>
			<path class="st5" d="M1922.2,201.4l-4.7-3.5c-1.2-0.9-2.7-1.4-3.9-2.1c-1.3-0.7-2.6-1.5-3.9-2.2c-2.6-1.5-5.8-3.4-8.3-5
				c-3.1-2.1-5-3.7-8.6-7c-1.1-1-2-3-0.6-2.1c1.3,0.9,3.7,3.6,5.6,5.3c4.8,4.4,9.3,6.6,14.7,9.3c1.6,0.8,4.2,2.4,5.8,3.2l4.2,2.1
				L1922.2,201.4z"/>
		</g>
		<g>
			<path class="st5" d="M1921.2,201.7l-3.3,1.2c-6.3,2.4-12.9,4.8-19.8,5.5c-9,1-16.3-0.5-24.7-2.3l0.3-0.7
				c8.4,1.8,15.3,3.3,24.3,2.3c6.9-0.7,13.4-3.2,19.7-5.5l3.9-2.5L1921.2,201.7z"/>
		</g>
		<g>
			<path class="st5" d="M1922.2,201.4c-1.2,0.9-3,1.6-4.1,2.5c-2.8,2.3-5.8,4.7-9.2,5.9c-5.8,2-9.3-0.1-14.8-3.2l0.2-0.6
				c5.6,3.2,8.8,5.1,14.4,3.1c3.4-1.2,6.3-3.6,9.1-5.9c1.1-0.9,3-2.2,4.2-3L1922.2,201.4z"/>
		</g>
		<path class="st1" d="M1879.1,149.7v-8.2c0,0-0.2-2.6-0.2-3.3c-0.2-0.2-0.3-0.7-0.3-1.2c0-0.7,0.2-1.1,0.5-1.1
			c0.3,0.1,0.5,0.7,0.5,1.3c0,0.4-0.1,0.7-0.2,0.9l0.1,3.2c0,0,0,5.4,0,7.5l-0.3,1.3L1879.1,149.7z"/>
		<path class="st1" d="M1922.4,155.2l6-2.4c0,0,1.8-1,2.4-1.3c0.1-0.3,0.3-0.6,0.7-0.7c0.5-0.2,1-0.1,1.1,0.2s-0.2,0.8-0.7,1
			c-0.3,0.1-0.6,0.1-0.8,0.1l-2.3,1c0,0-4,1.6-5.6,2.2h-1.1L1922.4,155.2z"/>
		<path class="st1" d="M1867.5,150.7c0-0.4,0.4-0.7,1-0.6c0.4,0,0.7,0.1,0.9,0.3l2.8,0.1c0,0,4.7,0.4,6.6,0.5l-6.5-3.7
			c0,0-2.2-1-2.9-1.3c-0.2,0.1-0.6,0.1-1-0.1c-0.6-0.3-1-0.8-0.9-1.2c0.1-0.3,0.6-0.4,1.2-0.1c0.3,0.2,0.6,0.4,0.8,0.7l2.7,1.4
			c0,0,4.7,2.6,6.4,3.6v-0.1l-5.7-6.6c0.8,0.8-1.1-1.2-1.7-1.7c-0.2,0-0.6-0.2-1-0.6c-0.5-0.5-0.7-1.2-0.5-1.4
			c0.2-0.3,0.7-0.1,1.2,0.5c0.3,0.3,0.5,0.7,0.5,0.9l2.3,2.5c0,0,3.8,4.4,5.3,6.1l0.1,0.2l-2.5-7.7c0,0-1.1-2.7-1.4-3.4
			c-0.3-0.1-0.5-0.5-0.7-1.1c-0.2-0.7-0.2-1.3,0.1-1.4c0.3-0.1,0.7,0.4,0.9,1.1c0.1,0.4,0.2,0.8,0.1,1.1l1.2,3.4c0,0,1.9,5.8,2.6,8
			c0.3,0.8-0.1,1.4-0.8,1.3c-0.5-0.1-1.1-0.1-1.6-0.1c-1.3-0.1-2.6-0.2-3.8-0.3c-0.3,0-0.6-0.1-0.9-0.1c0,0-2.3,0.1-2.9,0.1
			c-0.1,0.2-0.5,0.4-0.9,0.4C1868,151.4,1867.5,151,1867.5,150.7z"/>
		<path class="st1" d="M1868.8,141.4c0.2-0.3,0.7-0.1,1.2,0.4c0.3,0.3,0.5,0.6,0.6,0.9l2.3,2.4c0,0,3.8,4.1,5.4,5.8l-3.6-7.7
			c0,0-1.4-2.5-1.7-3.2c-0.3-0.1-0.6-0.4-0.8-0.9c-0.3-0.7-0.4-1.3-0.1-1.5s0.7,0.3,1,0.9c0.2,0.4,0.3,0.8,0.3,1.1l1.6,3.2
			c0,0,2.5,5.5,3.5,7.7l0.1-0.1l-1.3-9c0.3,1.1-0.4-1.7-0.5-2.5c-0.2-0.2-0.4-0.6-0.5-1.2c-0.1-0.7,0-1.3,0.3-1.3s0.6,0.5,0.8,1.3
			c0.1,0.4,0,0.8-0.1,1.1l0.6,3.5c0,0,0.9,6,1.2,8.3v0.3l2.1-7.1c0,0,0.6-2.6,0.7-3.4c-0.1-0.3-0.2-0.8,0-1.3c0.2-0.7,0.6-1,0.9-0.9
			c0.3,0.2,0.4,0.8,0.2,1.5c-0.1,0.4-0.3,0.7-0.5,0.8l-0.8,3.2c0,0-1.6,5.3-2.2,7.4c-0.2,0.8-0.9,0.8-1.3,0.2
			c-0.4-0.5-0.9-1-1.3-1.4c-1-1.1-2.1-2.2-3.1-3.3c-0.2-0.3-0.5-0.5-0.7-0.8c0,0-2-1.8-2.5-2.4c-0.2,0-0.6-0.2-1-0.5
			C1868.9,142.3,1868.6,141.7,1868.8,141.4z"/>
		<path class="st1" d="M1893,149c0.1-0.2,0.6-0.1,1,0.3c0.2,0.2,0.4,0.5,0.5,0.7l1.9,1.9c0,0,3.1,3.2,4.3,4.5l-2.9-6
			c0,0-1.1-1.9-1.4-2.5c-0.2-0.1-0.5-0.3-0.7-0.7c-0.3-0.5-0.3-1-0.1-1.1c0.2-0.1,0.6,0.2,0.8,0.7c0.2,0.3,0.2,0.6,0.2,0.8l1.2,2.5
			c0,0,2,4.3,2.8,5.9v-0.1l-1-7c0.2,0.9-0.3-1.3-0.4-1.9c-0.2-0.1-0.4-0.5-0.4-0.9c-0.1-0.6,0-1,0.3-1c0.2,0,0.5,0.4,0.6,1
			c0.1,0.3,0,0.6,0,0.8l0.5,2.7c0,0,0.7,4.7,1,6.4v0.2l1.7-5.5c0,0,0.4-2,0.6-2.6c-0.1-0.2-0.1-0.6,0-1c0.1-0.5,0.5-0.8,0.7-0.7
			s0.3,0.6,0.2,1.1c-0.1,0.3-0.2,0.5-0.4,0.6l-0.7,2.5c0,0-1.3,4.1-1.8,5.7c-0.2,0.6-0.7,0.6-1.1,0.2c-0.3-0.4-0.7-0.7-1-1.1
			c-0.8-0.9-1.7-1.7-2.5-2.6c-0.2-0.2-0.4-0.4-0.6-0.6c0,0-1.6-1.4-2-1.8c-0.2,0-0.5-0.1-0.8-0.4
			C1893.1,149.7,1892.9,149.2,1893,149z"/>
		<path class="st1" d="M1891.5,156.2c0-0.3,0.3-0.5,0.8-0.5c0.3,0,0.5,0.1,0.7,0.3l2.2,0.1c0,0,3.8,0.3,5.3,0.5l-5.1-2.9
			c0,0-1.8-0.8-2.3-1c-0.2,0.1-0.5,0.1-0.8-0.1c-0.4-0.2-0.7-0.7-0.7-0.9c0.1-0.3,0.5-0.3,0.9,0c0.3,0.1,0.5,0.4,0.6,0.6l2.1,1.2
			c0,0,3.6,2.1,5,2.9v-0.1l-4.4-5.2c0.6,0.6-0.9-0.9-1.3-1.3c-0.2,0-0.5-0.1-0.8-0.5c-0.4-0.4-0.5-0.9-0.4-1.1
			c0.2-0.2,0.6,0,0.9,0.4c0.2,0.2,0.4,0.5,0.4,0.8l1.8,2c0,0,2.9,3.5,4,4.8l0.1,0.2l-1.8-6.1c0,0-0.8-2.1-1-2.7
			c-0.2-0.1-0.4-0.4-0.5-0.8c-0.2-0.5-0.1-1.1,0.1-1.1c0.2-0.1,0.5,0.3,0.7,0.9c0.1,0.3,0.1,0.6,0.1,0.9l0.8,2.7
			c0,0,1.3,4.6,1.8,6.3c0.2,0.6-0.1,1.1-0.6,1c-0.4-0.1-0.9-0.1-1.3-0.1c-1-0.1-2-0.2-3-0.2c-0.2,0-0.5,0-0.7-0.1c0,0-1.8,0-2.3,0
			c-0.1,0.2-0.4,0.3-0.8,0.3C1891.9,156.8,1891.5,156.5,1891.5,156.2z"/>
		<path class="st1" d="M1895,117.1c0.2-0.2,0.7,0.1,1.1,0.7c0.2,0.4,0.4,0.7,0.4,1l1.9,2.9c0,0,3.1,4.9,4.4,7l-2.2-8.3
			c0,0-0.9-2.7-1.2-3.5c-0.2-0.1-0.5-0.6-0.6-1.1c-0.2-0.7-0.1-1.3,0.2-1.4c0.3-0.1,0.7,0.4,0.9,1.2c0.1,0.4,0.1,0.8,0.1,1.1l1,3.4
			c0,0,1.6,5.9,2.2,8.2l0.1-0.1l0.3-8.8c0,1.1,0-1.7-0.1-2.5c-0.2-0.2-0.3-0.7-0.3-1.3c0-0.7,0.3-1.2,0.6-1.2
			c0.3,0.1,0.5,0.7,0.5,1.4c0,0.4-0.1,0.8-0.2,1v3.5c0,0-0.2,5.9-0.3,8.1l-0.1,0.2l3.4-6.1c0,0,1-2.3,1.3-3c-0.1-0.3,0-0.8,0.2-1.2
			c0.3-0.6,0.8-0.8,1-0.6c0.3,0.2,0.2,0.9-0.1,1.5c-0.2,0.3-0.4,0.6-0.6,0.6l-1.4,2.7c0,0-2.5,4.6-3.5,6.3c-0.4,0.7-1,0.5-1.4-0.2
			c-0.3-0.6-0.7-1.1-1.1-1.7c-0.8-1.3-1.7-2.7-2.5-4c-0.2-0.3-0.4-0.6-0.6-0.9c0,0-1.6-2.3-2.1-2.9c-0.3,0-0.6-0.3-0.9-0.8
			C1894.9,118,1894.7,117.3,1895,117.1z"/>
		<g>
			<path class="st1" d="M1883.1,170.7c0.1-0.2,0.6-0.1,1,0.4c0.3,0.3,0.4,0.6,0.5,0.8l2,2.1c0,0,3.3,3.6,4.7,5.1l-3.1-6.8
				c0,0-1.2-2.2-1.5-2.8c-0.2-0.1-0.5-0.4-0.7-0.8c-0.3-0.6-0.3-1.2-0.1-1.3c0.2-0.1,0.6,0.2,0.9,0.8c0.2,0.3,0.2,0.7,0.2,0.9
				l1.4,2.8c0,0,2.2,4.9,3.1,6.7l0.1-0.1l-1.2-7.9c0.2,1-0.3-1.5-0.5-2.2c-0.2-0.2-0.4-0.6-0.5-1c-0.1-0.6,0-1.2,0.3-1.2
				s0.6,0.5,0.7,1.1c0.1,0.4,0,0.7,0,0.9l0.5,3.1c0,0,0.8,5.3,1.1,7.3v0.2l1.8-6.2c0,0,0.5-2.3,0.6-2.9c-0.1-0.2-0.1-0.7,0-1.1
				c0.2-0.6,0.5-0.9,0.7-0.8c0.3,0.1,0.3,0.7,0.2,1.3c-0.1,0.3-0.2,0.6-0.4,0.7l-0.7,2.8c0,0-1.4,4.7-1.9,6.5
				c-0.2,0.7-0.7,0.7-1.2,0.2c-0.3-0.4-0.8-0.8-1.1-1.3c-0.9-1-1.8-2-2.7-2.9c-0.2-0.2-0.4-0.5-0.6-0.7c0,0-1.7-1.6-2.2-2.1
				c-0.2,0-0.6-0.1-0.9-0.5C1883.2,171.5,1883,171,1883.1,170.7z"/>
			<path class="st1" d="M1881.4,178.7c0-0.3,0.4-0.6,0.9-0.5c0.3,0,0.6,0.2,0.8,0.3l2.5,0.2c0,0,4.2,0.5,5.9,0.7l-5.6-3.4
				c0,0-1.9-1-2.5-1.2c-0.2,0.1-0.5,0.1-0.9-0.1c-0.5-0.3-0.8-0.8-0.7-1c0.1-0.3,0.6-0.3,1.1,0c0.3,0.2,0.5,0.4,0.6,0.6l2.3,1.4
				c0,0,4,2.5,5.5,3.4V179l-4.6-5.9c0.6,0.7-0.9-1-1.4-1.5c-0.2,0-0.6-0.2-0.8-0.5c-0.4-0.5-0.5-1-0.4-1.2c0.2-0.2,0.6,0,1,0.4
				c0.2,0.3,0.4,0.6,0.4,0.8l1.9,2.2c0,0,3.1,3.9,4.3,5.5l0.1,0.2l-1.7-6.8c0,0-0.8-2.4-1-3c-0.2-0.1-0.4-0.5-0.6-0.9
				c-0.2-0.6-0.1-1.2,0.2-1.3s0.6,0.4,0.8,1c0.1,0.4,0.1,0.7,0,0.9l0.8,3c0,0,1.3,5.1,1.7,7.1c0.2,0.7-0.2,1.2-0.8,1.1
				c-0.5-0.1-1-0.1-1.4-0.2c-1.1-0.1-2.3-0.3-3.4-0.4c-0.3,0-0.5-0.1-0.8-0.1c0,0-2,0-2.6-0.1c-0.1,0.2-0.5,0.3-0.9,0.3
				C1881.8,179.4,1881.4,179.1,1881.4,178.7z"/>
		</g>
		<g>
			<path class="st1" d="M1874.2,184.2c0.1-0.3,0.5-0.3,0.9-0.1c0.3,0.1,0.5,0.3,0.6,0.5l2.1,1.1c0,0,3.5,2,4.9,2.8l-4-4.9
				c0,0-1.4-1.5-1.8-1.9c-0.2,0-0.5-0.2-0.8-0.5c-0.4-0.4-0.5-0.9-0.3-1.1c0.2-0.2,0.6,0,0.9,0.4c0.2,0.2,0.3,0.5,0.4,0.7l1.7,2
				c0,0,2.8,3.5,3.9,4.8v-0.1l-2.6-6.5c0.4,0.8-0.6-1.2-0.8-1.8c-0.2-0.1-0.4-0.4-0.6-0.7c-0.2-0.5-0.2-1,0-1.1s0.6,0.2,0.8,0.7
				c0.1,0.3,0.2,0.6,0.2,0.8l1.1,2.5c0,0,1.7,4.4,2.4,6v0.2l0.2-6.1c0,0-0.1-2.2-0.1-2.8c-0.2-0.2-0.3-0.5-0.3-1c0-0.6,0.2-1,0.4-1
				c0.2,0,0.4,0.5,0.4,1.1c0,0.3-0.1,0.6-0.2,0.8v2.7c0,0-0.1,4.6-0.2,6.4c0,0.7-0.5,0.9-0.9,0.6c-0.4-0.3-0.8-0.5-1.2-0.7
				c-0.9-0.5-1.9-1.1-2.8-1.6c-0.2-0.1-0.4-0.2-0.7-0.4c0,0-1.7-0.8-2.2-1c-0.2,0.1-0.5,0.1-0.8-0.1
				C1874.4,184.8,1874.1,184.4,1874.2,184.2z"/>
			<path class="st1" d="M1874.4,191.9c-0.1-0.3,0.2-0.6,0.7-0.8c0.3-0.1,0.5-0.1,0.7,0l2.1-0.7c0,0,3.6-1.1,5-1.5l-5.3-1
				c0,0-1.8-0.1-2.3-0.2c-0.1,0.2-0.4,0.3-0.8,0.2c-0.5-0.1-0.8-0.4-0.8-0.7s0.4-0.5,0.9-0.4c0.3,0,0.5,0.2,0.7,0.3l2.2,0.3
				c0,0,3.8,0.7,5.2,1v-0.1l-5-3.5c0.7,0.4-1-0.6-1.5-0.9c-0.2,0.1-0.5,0-0.8-0.2c-0.4-0.3-0.7-0.7-0.6-1s0.5-0.3,0.9,0
				c0.3,0.2,0.4,0.4,0.5,0.6l2,1.3c0,0,3.4,2.3,4.7,3.2l0.1,0.2l-2.8-5.4c0,0-1.1-1.8-1.4-2.3c-0.2,0-0.5-0.3-0.7-0.6
				c-0.3-0.5-0.3-1-0.1-1.2c0.2-0.2,0.6,0.1,0.8,0.6c0.2,0.3,0.2,0.6,0.2,0.8l1.3,2.3c0,0,2.1,4.1,2.9,5.6c0.3,0.6,0.1,1.1-0.4,1.2
				c-0.4,0.1-0.8,0.2-1.2,0.4c-1,0.3-1.9,0.6-2.9,0.9c-0.2,0.1-0.4,0.1-0.7,0.2c0,0-1.7,0.7-2.2,0.9c-0.1,0.2-0.3,0.5-0.7,0.6
				C1874.9,192.3,1874.5,192.2,1874.4,191.9z"/>
		</g>
		<g>
			<path class="st1" d="M1863.4,202.8c0-0.3,0.5-0.4,1-0.3c0.3,0.1,0.6,0.3,0.7,0.5l2.5,0.8c0,0,4.1,1.4,5.8,2l-5.2-4.6
				c0,0-1.8-1.4-2.3-1.8c-0.2,0.1-0.6-0.1-0.9-0.4c-0.5-0.4-0.7-0.9-0.6-1.2s0.6-0.2,1.1,0.2c0.3,0.2,0.5,0.5,0.6,0.8l2.2,1.8
				c0,0,3.7,3.3,5.1,4.5V205l-4-6.8c0.6,0.8-0.8-1.2-1.2-1.8c-0.2,0-0.5-0.3-0.8-0.7c-0.3-0.5-0.4-1.1-0.2-1.3
				c0.2-0.2,0.6,0.1,1,0.7c0.2,0.3,0.3,0.7,0.3,0.9l1.6,2.6c0,0,2.7,4.5,3.7,6.3l0.1,0.2l-1-7c0,0-0.5-2.5-0.7-3.2
				c-0.2-0.2-0.4-0.6-0.5-1c-0.1-0.6,0-1.2,0.3-1.2s0.6,0.5,0.7,1.1c0.1,0.4,0,0.7,0,0.9l0.5,3.1c0,0,0.8,5.3,1,7.3
				c0.1,0.7-0.3,1.1-0.9,0.9c-0.5-0.2-0.9-0.3-1.4-0.5c-1.1-0.4-2.2-0.8-3.3-1.1c-0.3-0.1-0.5-0.2-0.8-0.3c0,0-2-0.5-2.6-0.6
				c-0.2,0.2-0.5,0.2-0.9,0.1C1863.7,203.6,1863.4,203.2,1863.4,202.8z"/>
			<path class="st1" d="M1865.1,211.5c-0.1-0.3,0.1-0.8,0.6-1c0.3-0.2,0.5-0.2,0.7-0.2l2.1-1.3c0,0,3.6-2,5-2.9l-5.8,0.1
				c0,0-1.9,0.2-2.5,0.3c-0.1,0.2-0.4,0.4-0.8,0.4c-0.5,0-0.9-0.2-1-0.6c0-0.3,0.3-0.6,0.8-0.7c0.3,0,0.6,0.1,0.8,0.2l2.4-0.1
				c0,0,4.2,0,5.7-0.1v-0.1l-6.1-2.8c0.8,0.3-1.2-0.4-1.7-0.6c-0.2,0.2-0.5,0.2-0.9,0c-0.5-0.2-0.8-0.7-0.8-1c0.1-0.3,0.5-0.4,1-0.2
				c0.3,0.1,0.5,0.3,0.7,0.6l2.4,1c0,0,4.1,1.9,5.6,2.6l0.2,0.1l-4-5.5c0,0-1.5-1.8-2-2.3c-0.2,0-0.5-0.2-0.8-0.6
				c-0.4-0.5-0.5-1.1-0.4-1.3c0.2-0.2,0.6,0,1,0.5c0.2,0.3,0.4,0.6,0.4,0.9l1.8,2.3c0,0,3,4.1,4.2,5.7c0.4,0.6,0.3,1.3-0.2,1.5
				c-0.4,0.2-0.8,0.5-1.2,0.7c-1,0.5-1.9,1.1-2.9,1.7c-0.2,0.1-0.4,0.3-0.7,0.4c0,0-1.6,1.2-2.1,1.5c0,0.3-0.3,0.6-0.6,0.8
				C1865.7,211.8,1865.3,211.8,1865.1,211.5z"/>
		</g>
		<g>
			<path class="st1" d="M1884.4,200.6c0.1-0.3,0.6-0.3,1,0c0.3,0.2,0.5,0.4,0.6,0.7l2.3,1.5c0,0,3.9,2.6,5.4,3.6l-4.3-5.8
				c0,0-1.6-1.8-2-2.3c-0.2,0-0.6-0.2-0.8-0.6c-0.4-0.5-0.5-1.1-0.4-1.3c0.2-0.2,0.6,0,1,0.5c0.2,0.3,0.4,0.6,0.4,0.9l1.9,2.4
				c0,0,3.1,4.1,4.3,5.7v-0.1l-2.8-7.5c0.4,0.9-0.6-1.4-0.9-2.1c-0.2-0.1-0.5-0.4-0.7-0.9c-0.2-0.6-0.2-1.2,0-1.3s0.6,0.3,0.9,0.9
				c0.1,0.4,0.2,0.7,0.2,1l1.1,2.9c0,0,1.9,5,2.6,7v0.2l0.3-6.8c0,0,0-2.5-0.1-3.2c-0.2-0.2-0.3-0.6-0.3-1.1c0-0.6,0.3-1.1,0.5-1
				s0.5,0.6,0.4,1.2c0,0.4-0.1,0.7-0.2,0.9l-0.1,3c0,0-0.2,5.1-0.3,7.1c0,0.7-0.5,1-1,0.6c-0.4-0.3-0.9-0.6-1.3-0.9
				c-1-0.7-2.1-1.4-3.1-2c-0.2-0.2-0.5-0.3-0.7-0.5c0,0-1.9-1-2.5-1.4c-0.2,0.1-0.5,0-0.9-0.2
				C1884.7,201.3,1884.3,200.9,1884.4,200.6z"/>
			<path class="st1" d="M1884.5,209.2c-0.1-0.3,0.3-0.7,0.8-0.8c0.3-0.1,0.6,0,0.8,0.1l2.4-0.6c0,0,4-0.9,5.6-1.2l-5.9-1.6
				c0,0-2-0.3-2.6-0.4c-0.2,0.2-0.5,0.2-0.9,0.2c-0.5-0.1-0.9-0.5-0.9-0.8s0.5-0.5,1-0.4c0.3,0.1,0.6,0.2,0.7,0.4l2.5,0.6
				c0,0,4.2,1.2,5.8,1.6v-0.1l-5.6-4.4c0.8,0.5-1.1-0.7-1.6-1.1c-0.2,0.1-0.6,0-0.9-0.3c-0.5-0.3-0.7-0.9-0.6-1.1
				c0.1-0.3,0.6-0.2,1,0.1c0.3,0.2,0.5,0.5,0.6,0.7l2.2,1.7c0,0,3.7,3,5.1,4.1l0.1,0.2l-3-6.3c0,0-1.2-2.1-1.5-2.7
				c-0.2-0.1-0.5-0.3-0.7-0.8c-0.3-0.6-0.3-1.2-0.1-1.3s0.6,0.2,0.9,0.7c0.2,0.3,0.3,0.7,0.2,0.9l1.4,2.7c0,0,2.3,4.7,3.1,6.6
				c0.3,0.7,0.1,1.3-0.5,1.3c-0.5,0-0.9,0.2-1.4,0.3c-1.1,0.2-2.1,0.5-3.2,0.7c-0.2,0.1-0.5,0.1-0.7,0.2c0,0-1.9,0.6-2.4,0.8
				c-0.1,0.3-0.4,0.5-0.7,0.6C1885.1,209.7,1884.6,209.5,1884.5,209.2z"/>
		</g>
		<g>
			<path class="st1" d="M1916.7,145.8c0.2-0.1,0.6,0.2,0.8,0.7c0.2,0.3,0.2,0.6,0.2,0.8l1.3,2.4c0,0,2.1,4.1,2.9,5.7l-1-6.4
				c0,0-0.5-2.1-0.6-2.8c-0.2-0.1-0.4-0.5-0.4-0.9c-0.1-0.5,0-1,0.3-1c0.2,0,0.5,0.4,0.6,1c0.1,0.3,0,0.6,0,0.8l0.5,2.7
				c0,0,0.7,4.6,1,6.3h0.1l1-6.5c-0.1,0.9,0.1-1.3,0.2-1.9c-0.1-0.2-0.2-0.6-0.1-1c0.1-0.5,0.3-0.9,0.6-0.8c0.2,0.1,0.4,0.6,0.3,1.1
				c0,0.3-0.2,0.6-0.3,0.7l-0.3,2.6c0,0-0.7,4.3-1,6l-0.1,0.2l3.3-4.1c0,0,1-1.6,1.3-2c0-0.2,0.1-0.6,0.3-0.9
				c0.3-0.4,0.7-0.5,0.9-0.3c0.2,0.2,0.1,0.7-0.2,1.1c-0.2,0.2-0.4,0.4-0.6,0.4l-1.4,1.9c0,0-2.5,3.1-3.4,4.3
				c-0.3,0.4-0.9,0.3-1.1-0.3c-0.2-0.5-0.5-0.9-0.7-1.4c-0.5-1.1-1.1-2.2-1.7-3.3c-0.1-0.2-0.3-0.5-0.4-0.8c0,0-1.1-1.9-1.5-2.4
				c-0.2-0.1-0.5-0.3-0.7-0.7C1916.6,146.4,1916.5,145.9,1916.7,145.8z"/>
			<path class="st1" d="M1913,151.3c0.1-0.3,0.5-0.3,1,0c0.3,0.1,0.5,0.3,0.6,0.5l2.2,1.1c0,0,3.7,2,5.2,2.8l-4.1-4.8
				c0,0-1.5-1.5-1.9-1.9c-0.2,0-0.5-0.2-0.8-0.5c-0.4-0.4-0.5-0.9-0.3-1.1c0.2-0.2,0.6,0,1,0.4c0.2,0.2,0.4,0.5,0.4,0.7l1.8,1.9
				c0,0,3,3.4,4.1,4.7V155l-2.7-6.3c0.4,0.8-0.6-1.2-0.9-1.7c-0.2-0.1-0.5-0.4-0.6-0.7c-0.2-0.5-0.2-1,0-1.1s0.6,0.2,0.8,0.7
				c0.1,0.3,0.2,0.6,0.2,0.8l1.1,2.4c0,0,1.8,4.2,2.4,5.8v0.2l0.3-5.9c0,0-0.1-2.1-0.1-2.7c-0.2-0.2-0.3-0.5-0.3-0.9
				c0-0.5,0.2-0.9,0.5-0.9s0.4,0.5,0.4,1c0,0.3-0.1,0.6-0.2,0.8l-0.1,2.6c0,0-0.2,4.4-0.3,6.1c0,0.6-0.5,0.9-1,0.5
				c-0.4-0.3-0.8-0.5-1.3-0.7c-1-0.5-2-1.1-3-1.6c-0.2-0.1-0.5-0.2-0.7-0.4c0,0-1.8-0.8-2.4-1c-0.2,0.1-0.5,0.1-0.9-0.1
				C1913.2,151.9,1912.9,151.5,1913,151.3z"/>
		</g>
		<g>
			<path class="st1" d="M1925.4,128.5c0.1-0.2,0.6-0.1,1,0.2c0.2,0.2,0.4,0.5,0.5,0.7l1.9,1.7c0,0,3.1,3,4.4,4.2l-3-5.8
				c0,0-1.1-1.9-1.4-2.4c-0.2,0-0.5-0.3-0.7-0.7c-0.3-0.5-0.3-1-0.1-1.1c0.2-0.1,0.6,0.2,0.8,0.6c0.2,0.3,0.2,0.6,0.2,0.8l1.3,2.4
				c0,0,2.1,4.1,2.9,5.7v-0.1l-1.2-6.9c0.2,0.9-0.3-1.3-0.5-1.9c-0.2-0.1-0.4-0.5-0.4-0.9c-0.1-0.5,0-1,0.2-1.1
				c0.2,0,0.5,0.4,0.6,0.9c0.1,0.3,0.1,0.6,0,0.8l0.5,2.7c0,0,0.8,4.6,1.1,6.4v0.2l1.5-5.6c0,0,0.4-2.1,0.5-2.7
				c-0.1-0.2-0.1-0.6,0-1c0.1-0.5,0.4-0.8,0.7-0.7c0.2,0.1,0.3,0.6,0.2,1.1c-0.1,0.3-0.2,0.6-0.4,0.7l-0.6,2.5c0,0-1.1,4.2-1.6,5.9
				c-0.2,0.6-0.7,0.7-1,0.2c-0.3-0.4-0.7-0.7-1-1c-0.8-0.8-1.7-1.6-2.5-2.4c-0.2-0.2-0.4-0.4-0.6-0.6c0,0-1.6-1.3-2-1.7
				c-0.2,0-0.5-0.1-0.8-0.4C1925.5,129.2,1925.3,128.8,1925.4,128.5z"/>
			<path class="st1" d="M1924,135.7c0-0.3,0.4-0.5,0.8-0.5c0.3,0,0.5,0.1,0.7,0.2h2.3c0,0,3.8,0.1,5.3,0.2l-5.1-2.6
				c0,0-1.8-0.7-2.3-0.9c-0.2,0.1-0.5,0.1-0.8-0.1c-0.4-0.2-0.7-0.6-0.6-0.9c0.1-0.3,0.5-0.3,0.9-0.1c0.3,0.1,0.5,0.3,0.6,0.5l2.1,1
				c0,0,3.6,1.9,5,2.6V135l-4.3-4.9c0.6,0.6-0.9-0.9-1.3-1.3c-0.2,0-0.5-0.1-0.8-0.4c-0.4-0.4-0.5-0.9-0.3-1.1s0.6-0.1,0.9,0.3
				c0.2,0.2,0.4,0.5,0.4,0.7l1.7,1.8c0,0,2.9,3.3,4,4.5l0.1,0.2l-1.7-5.9c0,0-0.7-2-0.9-2.6c-0.2-0.1-0.4-0.4-0.5-0.8
				c-0.2-0.5-0.1-1,0.1-1.1s0.5,0.3,0.7,0.8c0.1,0.3,0.1,0.6,0.1,0.8l0.8,2.6c0,0,1.2,4.5,1.7,6.1c0.2,0.6-0.2,1.1-0.7,1
				c-0.4-0.1-0.9,0-1.3-0.1c-1,0-2.1-0.1-3.1-0.1c-0.2,0-0.5,0-0.7,0c0,0-1.8,0.1-2.4,0.2c-0.1,0.2-0.4,0.3-0.8,0.3
				C1924.4,136.3,1924,136,1924,135.7z"/>
		</g>
		<g>
			<path class="st1" d="M1941.8,164.1c0.2-0.1,0.6,0.3,0.8,0.8c0.1,0.3,0.2,0.6,0.1,0.8l0.9,2.6c0,0,1.5,4.4,2.1,6.1v-6.3
				c0,0-0.2-2.2-0.2-2.8c-0.2-0.2-0.3-0.5-0.3-1s0.2-1,0.4-0.9c0.3,0,0.5,0.5,0.5,1.1c0,0.3-0.1,0.6-0.2,0.8l0.1,2.7
				c0,0,0,4.5,0.1,6.3h0.1l2-5.9c-0.2,0.8,0.3-1.2,0.5-1.7c-0.1-0.2-0.1-0.6,0-1c0.2-0.5,0.5-0.8,0.7-0.6c0.2,0.1,0.3,0.6,0.1,1.1
				c-0.1,0.3-0.2,0.5-0.4,0.6l-0.7,2.4c0,0-1.4,4-1.9,5.5l-0.1,0.1l4-3.1c0,0,1.3-1.3,1.7-1.6c0-0.2,0.1-0.5,0.4-0.8
				s0.8-0.3,0.9-0.1c0.2,0.2,0,0.7-0.3,1c-0.2,0.2-0.4,0.3-0.6,0.2l-1.7,1.4c0,0-3,2.4-4.1,3.3c-0.4,0.3-0.9,0.1-1.1-0.6
				c-0.1-0.5-0.3-1-0.5-1.5c-0.4-1.2-0.8-2.3-1.2-3.5c-0.1-0.3-0.2-0.5-0.3-0.8c0,0-0.9-2.1-1.1-2.7c-0.2-0.1-0.4-0.4-0.6-0.8
				C1941.5,164.6,1941.6,164.1,1941.8,164.1z"/>
			<path class="st1" d="M1937.2,168.4c0.1-0.2,0.6-0.1,1,0.2c0.3,0.2,0.4,0.4,0.5,0.6l2.1,1.6c0,0,3.4,2.8,4.8,3.9l-3.5-5.5
				c0,0-1.3-1.8-1.7-2.3c-0.2,0-0.5-0.3-0.7-0.6c-0.3-0.5-0.4-1-0.2-1.1c0.2-0.1,0.6,0.1,0.9,0.6c0.2,0.3,0.3,0.6,0.3,0.8l1.5,2.3
				c0,0,2.5,3.9,3.4,5.4v-0.1l-1.7-6.6c0.3,0.8-0.4-1.2-0.6-1.8c-0.2-0.1-0.4-0.4-0.5-0.8c-0.1-0.5-0.1-1,0.2-1
				c0.2,0,0.6,0.4,0.7,0.9c0.1,0.3,0.1,0.6,0,0.8l0.7,2.6c0,0,1.1,4.4,1.6,6.1v0.2l1.2-5.5c0,0,0.3-2,0.3-2.6
				c-0.1-0.2-0.2-0.6-0.1-0.9c0.1-0.5,0.4-0.8,0.6-0.7c0.3,0.1,0.4,0.6,0.3,1.1c-0.1,0.3-0.2,0.5-0.3,0.7l-0.5,2.5
				c0,0-0.9,4.2-1.3,5.8c-0.1,0.6-0.6,0.7-1.1,0.3c-0.4-0.3-0.8-0.6-1.2-1c-0.9-0.7-1.8-1.5-2.8-2.2c-0.2-0.2-0.4-0.3-0.6-0.5
				c0,0-1.7-1.2-2.2-1.5c-0.2,0.1-0.5-0.1-0.9-0.3C1937.3,169.1,1937.1,168.6,1937.2,168.4z"/>
		</g>
		<path class="st1" d="M1934.4,124.7c0.2,0.1,0.4,0.6,0.3,1.2c0,0.3-0.2,0.6-0.3,0.7l-0.4,2.6c0,0-0.7,4.4-1,6.1l2.9-4.9
			c0,0,0.9-1.8,1.1-2.3c-0.1-0.2,0-0.6,0.2-0.9c0.2-0.4,0.6-0.6,0.8-0.4c0.2,0.2,0.2,0.7-0.1,1.1c-0.1,0.3-0.3,0.4-0.5,0.5l-1.2,2.1
			c0,0-2.1,3.5-2.9,4.8h0.1l4.6-3.1c-0.5,0.5,0.8-0.7,1.2-1c0-0.3,0.2-0.5,0.5-0.7c0.4-0.3,0.8-0.2,0.9,0c0.1,0.3,0,0.7-0.4,1
			c-0.2,0.2-0.5,0.2-0.6,0.2l-1.8,1.3c0,0-3.1,2.1-4.3,2.8h-0.2l5.1,0.4c0,0,1.8,0,2.3-0.1c0.1-0.2,0.4-0.3,0.7-0.3
			c0.5,0,0.9,0.3,0.9,0.6s-0.3,0.5-0.8,0.5c-0.3,0-0.5-0.1-0.7-0.3l-2.2-0.1c0,0-3.8-0.3-5.3-0.4c-0.5,0-0.6-1.7-0.7-1.2
			c-0.1,0.4,0.1-0.4,0.3-1.5c0.2-1.2,0.4-2.3,0.6-3.5c0-0.3,0.1-0.5,0.1-0.8c0,0,0.2-2.2,0.3-2.8c-0.1-0.2-0.2-0.6-0.1-1
			C1933.9,124.9,1934.2,124.6,1934.4,124.7z"/>
		<path class="st3" d="M1898.2,117.1c0.2-0.2,0.6,0.1,0.9,0.8c0.2,0.4,0.2,0.8,0.2,1.1l1.3,3.2c0,0,2,5.4,2.9,7.6l-0.9-9
			c0,0-0.5-3-0.6-3.8c-0.2-0.2-0.4-0.6-0.4-1.2c-0.1-0.8,0-1.5,0.3-1.5c0.2-0.1,0.5,0.5,0.6,1.3c0.1,0.5,0,0.9-0.1,1.2l0.4,3.7
			c0,0,0.7,6.4,0.9,8.9l0.1-0.1l1.2-9.6c-0.1,1.3,0.1-1.8,0.2-2.7c-0.1-0.3-0.2-0.8-0.1-1.4c0.1-0.8,0.4-1.4,0.6-1.3
			c0.3,0.1,0.4,0.8,0.3,1.5c0,0.5-0.2,0.9-0.3,1.1l-0.4,3.8c0,0-0.8,6.4-1.1,8.9l-0.1,0.3l3.4-6.6c0,0,1.1-2.5,1.4-3.2
			c0-0.3,0.1-0.9,0.3-1.3c0.3-0.6,0.7-0.9,0.9-0.6c0.2,0.3,0.1,1-0.2,1.6c-0.2,0.4-0.4,0.6-0.6,0.7l-1.5,3c0,0-2.6,5-3.6,6.9
			c-0.4,0.7-0.9,0.6-1.1-0.2c-0.2-0.6-0.5-1.2-0.7-1.8c-0.5-1.5-1.1-2.9-1.7-4.3c-0.1-0.3-0.3-0.7-0.4-1c0,0-1.1-2.5-1.4-3.2
			c-0.2,0-0.5-0.4-0.7-0.8C1898,118,1897.9,117.3,1898.2,117.1z"/>
		<path class="st1" d="M1893.2,128.8c0-0.3,0.4-0.5,0.9-0.5c0.3,0,0.6,0.1,0.7,0.3l2.4,0.2c0,0,4,0.4,5.6,0.6l-5.4-3.2
			c0,0-1.9-0.9-2.4-1.2c-0.2,0.1-0.5,0.1-0.9-0.1c-0.5-0.3-0.8-0.7-0.7-1c0.1-0.3,0.5-0.3,1,0c0.3,0.2,0.5,0.4,0.6,0.6l2.3,1.3
			c0,0,3.9,2.3,5.4,3.2v-0.1l-4.7-5.6c0.6,0.7-0.9-1-1.4-1.5c-0.2,0-0.5-0.2-0.8-0.5c-0.4-0.4-0.6-1-0.4-1.2s0.6,0,1,0.4
			c0.2,0.3,0.4,0.6,0.4,0.8l1.9,2.1c0,0,3.1,3.7,4.3,5.2l0.1,0.2l-2-6.5c0,0-0.8-2.3-1.1-2.9c-0.2-0.1-0.4-0.5-0.6-0.9
			c-0.2-0.6-0.1-1.1,0.1-1.2s0.6,0.3,0.8,0.9c0.1,0.4,0.1,0.7,0.1,0.9l0.9,2.8c0,0,1.5,4.9,2,6.8c0.2,0.7-0.1,1.2-0.7,1
			c-0.4-0.1-0.9-0.1-1.4-0.2c-1.1-0.1-2.1-0.2-3.2-0.3c-0.3,0-0.5-0.1-0.8-0.1c0,0-1.9,0-2.5,0c-0.1,0.2-0.4,0.3-0.8,0.3
			C1893.7,129.4,1893.2,129.1,1893.2,128.8z"/>
		<path class="st1" d="M1898.4,118.7c0.2-0.1,0.6,0.3,0.8,0.8c0.1,0.3,0.2,0.6,0.2,0.8l1.1,2.6c0,0,1.8,4.4,2.5,6.1l-0.5-6.5
			c0,0-0.3-2.2-0.4-2.8c-0.2-0.2-0.3-0.5-0.4-1c-0.1-0.6,0.1-1,0.3-1c0.3,0,0.5,0.5,0.5,1.1c0,0.3,0,0.6-0.1,0.8l0.3,2.7
			c0,0,0.4,4.7,0.5,6.5h0.1l1.6-6.3c-0.1,0.8,0.2-1.2,0.3-1.8c-0.1-0.2-0.2-0.6-0.1-1c0.1-0.5,0.4-0.8,0.6-0.7
			c0.2,0.1,0.3,0.6,0.2,1.1c-0.1,0.3-0.2,0.5-0.3,0.7l-0.6,2.5c0,0-1.1,4.2-1.5,5.8l-0.1,0.2l3.7-3.6c0,0,1.2-1.4,1.5-1.8
			c0-0.2,0.1-0.6,0.3-0.8c0.3-0.3,0.7-0.4,0.9-0.2c0.2,0.2,0.1,0.7-0.3,1c-0.2,0.2-0.4,0.3-0.6,0.3l-1.6,1.6c0,0-2.8,2.7-3.8,3.7
			c-0.4,0.4-0.9,0.1-1.1-0.5c-0.2-0.5-0.4-1-0.6-1.5c-0.5-1.2-0.9-2.4-1.4-3.5c-0.1-0.3-0.2-0.5-0.3-0.8c0,0-1-2.1-1.3-2.6
			c-0.2-0.1-0.4-0.4-0.6-0.8C1898.1,119.3,1898.1,118.8,1898.4,118.7z"/>
		<g>
			<path class="st3" d="M1949,167.2c-0.2-0.1-0.5,0.1-0.6,0.5c-0.1,0.2-0.1,0.5-0.1,0.7l-0.8,1.9c0,0-1.2,3.3-1.7,4.6l-0.1-5.6
				c0,0,0.1-1.8,0.2-2.4c0.1-0.1,0.2-0.4,0.2-0.7c0-0.5-0.2-0.9-0.4-1c-0.2-0.1-0.4,0.3-0.4,0.8c0,0.3,0.1,0.6,0.2,0.7v2.3
				c0,0,0,4,0.1,5.5h-0.1l-1.9-6c0.2,0.8-0.3-1.1-0.4-1.7c0.1-0.2,0.1-0.5,0-0.8c-0.1-0.5-0.4-0.8-0.6-0.8s-0.2,0.5-0.1,0.9
				c0.1,0.3,0.2,0.5,0.4,0.7l0.7,2.3c0,0,1.3,4,1.7,5.5l0.1,0.2l-3.5-4.2c0,0-1.2-1.6-1.5-2c0-0.2-0.1-0.5-0.4-0.8
				c-0.3-0.4-0.7-0.6-0.8-0.4c-0.1,0.2,0,0.6,0.3,1c0.2,0.2,0.4,0.4,0.6,0.4l1.5,1.9c0,0,2.7,3.1,3.7,4.4c0.4,0.4,0.8,0.4,0.9-0.1
				c0.1-0.4,0.3-0.8,0.4-1.1c0.3-0.9,0.7-1.8,1-2.7c0.1-0.2,0.1-0.4,0.2-0.6c0,0,0.7-1.5,0.9-1.9c0.2,0,0.4-0.2,0.5-0.5
				C1949.2,167.8,1949.2,167.3,1949,167.2z"/>
			<path class="st3" d="M1953.1,172.7c-0.1-0.2-0.5-0.3-0.9-0.2c-0.2,0.1-0.4,0.2-0.5,0.4l-1.8,0.7c0,0-3,1.2-4.2,1.7l2.9-3.6
				c0,0,1.1-1.1,1.4-1.4c0.2,0,0.4-0.1,0.6-0.3c0.3-0.3,0.3-0.7,0.1-0.9c-0.2-0.2-0.5-0.1-0.8,0.2c-0.2,0.2-0.2,0.4-0.2,0.6
				l-1.3,1.4c0,0-2.1,2.6-2.9,3.5v-0.1l1.4-5.2c-0.2,0.6,0.3-1,0.5-1.4c0.2,0,0.3-0.2,0.4-0.6c0.1-0.4,0-0.9-0.2-1s-0.5,0.1-0.6,0.5
				c-0.1,0.3-0.1,0.5,0,0.7l-0.6,2c0,0-0.9,3.5-1.3,4.8v0.2l-1.1-5.3c0,0-0.3-1.9-0.3-2.4c0.1-0.1,0.2-0.4,0.1-0.8
				c-0.1-0.5-0.4-0.9-0.6-0.9s-0.3,0.4-0.2,0.9c0.1,0.3,0.2,0.5,0.3,0.7l0.4,2.3c0,0,0.9,4,1.2,5.5c0.1,0.6,0.6,0.9,1,0.6
				c0.3-0.2,0.7-0.3,1-0.4c0.8-0.3,1.6-0.6,2.4-0.9c0.2-0.1,0.4-0.2,0.6-0.2c0,0,1.5-0.4,1.9-0.5c0.2,0.1,0.5,0.1,0.8,0
				C1953,173.2,1953.2,172.9,1953.1,172.7z"/>
		</g>
		<g>
			<path class="st3" d="M1927.1,146.4c-0.2-0.1-0.6,0.1-0.8,0.6c-0.1,0.3-0.2,0.6-0.1,0.8l-1,2.3c0,0-1.6,3.9-2.3,5.5l0.2-6.5
				c0,0,0.2-2.2,0.3-2.8c0.2-0.1,0.3-0.5,0.3-0.9c0-0.6-0.2-1-0.4-1.1c-0.3,0-0.5,0.4-0.5,0.9c0,0.3,0,0.6,0.1,0.8l-0.2,2.7
				c0,0-0.2,4.6-0.2,6.4h-0.1l-1.9-6.8c0.2,0.9-0.3-1.3-0.4-1.9c0.1-0.2,0.1-0.6,0-1c-0.1-0.5-0.5-0.9-0.7-0.9
				c-0.2,0.1-0.3,0.6-0.2,1.1c0.1,0.3,0.2,0.6,0.4,0.8l0.7,2.7c0,0,1.3,4.6,1.8,6.3l0.1,0.2l-4-4.6c0,0-1.3-1.8-1.7-2.2
				c0-0.2-0.1-0.6-0.4-0.9c-0.4-0.4-0.8-0.6-1-0.4c-0.2,0.2,0,0.7,0.3,1.1c0.2,0.3,0.5,0.4,0.6,0.5l1.7,2.1c0,0,3,3.5,4.1,4.8
				c0.4,0.5,0.9,0.4,1.1-0.2c0.1-0.5,0.4-0.9,0.5-1.4c0.4-1.1,0.9-2.1,1.3-3.2c0.1-0.3,0.2-0.5,0.3-0.7c0,0,0.9-1.8,1.2-2.3
				c0.2,0,0.4-0.3,0.6-0.6C1927.3,147,1927.3,146.5,1927.1,146.4z"/>
			<path class="st3" d="M1931.7,152.5c-0.1-0.3-0.6-0.3-1-0.2c-0.3,0.1-0.5,0.3-0.6,0.5l-2.2,0.9c0,0-3.6,1.6-5,2.3l3.7-4.4
				c0,0,1.4-1.3,1.8-1.7c0.2,0,0.5-0.1,0.8-0.4c0.3-0.4,0.4-0.9,0.2-1.1c-0.2-0.2-0.6-0.1-1,0.3c-0.2,0.2-0.3,0.5-0.3,0.7l-1.6,1.8
				c0,0-2.6,3.1-3.7,4.4l-0.1-0.1l1.9-6.2c-0.3,0.8,0.5-1.1,0.7-1.7c0.2-0.1,0.4-0.3,0.6-0.7c0.2-0.5,0.1-1-0.1-1.1
				c-0.3-0.1-0.6,0.2-0.8,0.7c-0.1,0.3-0.1,0.6-0.1,0.8l-0.8,2.4c0,0-1.3,4.1-1.8,5.7v0.2l-1.1-6.1c0,0-0.2-2.2-0.3-2.8
				c0.1-0.2,0.2-0.5,0.1-0.9c-0.1-0.5-0.4-1-0.6-1c-0.3,0-0.4,0.5-0.3,1c0.1,0.3,0.2,0.6,0.3,0.8l0.4,2.7c0,0,0.8,4.6,1.1,6.4
				c0.1,0.6,0.6,0.9,1.1,0.7c0.4-0.2,0.8-0.4,1.2-0.6c1-0.4,1.9-0.9,2.9-1.3c0.2-0.1,0.4-0.2,0.7-0.3c0,0,1.8-0.6,2.3-0.8
				c0.2,0.1,0.6,0.1,0.9,0C1931.5,153.1,1931.8,152.7,1931.7,152.5z"/>
		</g>
		<g>
			<path class="st3" d="M1901.2,145.8c-0.3,0-0.4,0.5-0.4,1.1c0,0.4,0.1,0.7,0.2,0.9l0.1,2.9c0,0,0.3,4.9,0.4,6.9l-2.6-6.6
				c0,0-0.7-2.3-0.9-2.9c0.1-0.2,0.1-0.6-0.1-1.1c-0.2-0.6-0.6-1-0.8-0.8c-0.2,0.1-0.3,0.7,0,1.2c0.1,0.3,0.3,0.6,0.5,0.8l1,2.8
				c0,0,1.8,4.7,2.6,6.5h-0.1l-4.6-5.6c0.5,0.8-0.8-1.1-1.2-1.7c0-0.3-0.1-0.6-0.4-1c-0.4-0.5-0.8-0.7-1-0.5s0,0.8,0.3,1.2
				c0.2,0.3,0.5,0.5,0.7,0.5l1.7,2.2c0,0,3.1,3.8,4.2,5.2l0.2,0.1l-5.4-2.2c0,0-1.9-1-2.4-1.2c-0.1-0.2-0.4-0.5-0.7-0.7
				c-0.5-0.2-0.9-0.1-1,0.2s0.3,0.7,0.8,0.9c0.3,0.1,0.6,0.2,0.8,0.1l2.3,1c0,0,4,1.7,5.6,2.3c0.6,0.2,1-0.2,0.9-0.8
				c-0.1-0.5-0.1-1.1-0.1-1.7c-0.1-1.3-0.2-2.6-0.2-4c0-0.3,0-0.6-0.1-0.9c0,0,0-2.4,0-3c0.2-0.2,0.3-0.5,0.2-1
				C1901.7,146.3,1901.5,145.8,1901.2,145.8z"/>
			<path class="st3" d="M1907.8,149.1c-0.2-0.2-0.6,0-0.9,0.5c-0.2,0.3-0.3,0.6-0.3,0.8l-1.5,2.2c0,0-2.4,3.8-3.3,5.3l1.3-6.6
				c0,0,0.6-2.2,0.8-2.8c0.2-0.1,0.4-0.4,0.5-0.8c0.1-0.6,0-1.1-0.3-1.2s-0.6,0.3-0.7,0.9c-0.1,0.3-0.1,0.7,0,0.9l-0.6,2.7
				c0,0-0.9,4.7-1.3,6.5l-0.1-0.1l-1-7.3c0,0.9-0.1-1.4-0.1-2.1c0.2-0.2,0.2-0.6,0.2-1c-0.1-0.6-0.3-1.1-0.6-1
				c-0.3,0-0.4,0.5-0.4,1.1c0,0.4,0.2,0.7,0.3,0.8l0.3,2.9c0,0,0.7,4.9,0.9,6.8l0.1,0.2l-3.5-5.4c0,0-1.1-2-1.4-2.6
				c0.1-0.3,0-0.6-0.3-1c-0.3-0.5-0.7-0.8-1-0.6c-0.2,0.2-0.1,0.7,0.2,1.2c0.2,0.3,0.4,0.5,0.6,0.6l1.5,2.4c0,0,2.7,4.1,3.7,5.6
				c0.4,0.6,1,0.6,1.2,0c0.2-0.5,0.5-0.9,0.8-1.3c0.6-1,1.3-2,1.9-3c0.1-0.2,0.3-0.5,0.4-0.7c0,0,1.3-1.7,1.7-2.2
				c0.2,0,0.5-0.2,0.7-0.5C1907.9,149.9,1908,149.3,1907.8,149.1z"/>
		</g>
		<g>
			<path class="st3" d="M1937,126.3c-0.2-0.2-0.6,0.1-0.8,0.6c-0.1,0.3-0.1,0.6-0.1,0.8l-0.9,2.3c0,0-1.4,3.9-2,5.5l-0.1-6.7
				c0,0,0.1-2.2,0.2-2.8c0.2-0.1,0.3-0.5,0.3-0.9c0-0.6-0.2-1.1-0.5-1.2s-0.5,0.3-0.5,0.9c0,0.3,0.1,0.7,0.2,0.9v2.8
				c0,0,0.1,4.8,0.1,6.6h-0.1l-2.3-7.2c0.2,0.9-0.4-1.4-0.5-2c0.1-0.2,0.1-0.6,0-1c-0.2-0.6-0.5-1-0.8-1c-0.2,0-0.3,0.6-0.1,1.1
				c0.1,0.3,0.3,0.6,0.4,0.8l0.8,2.8c0,0,1.6,4.8,2.2,6.6l0.1,0.2l-4.3-5.1c0,0-1.4-1.9-1.8-2.5c0-0.3-0.2-0.6-0.4-1
				c-0.4-0.5-0.8-0.7-1-0.5s0,0.7,0.4,1.2c0.2,0.3,0.5,0.5,0.7,0.5l1.8,2.3c0,0,3.2,3.8,4.4,5.3c0.5,0.5,1,0.5,1.1-0.1
				c0.1-0.5,0.3-0.9,0.5-1.4c0.4-1.1,0.8-2.1,1.2-3.2c0.1-0.2,0.2-0.5,0.3-0.7c0,0,0.8-1.8,1.1-2.3c0.2,0,0.4-0.3,0.6-0.6
				C1937.3,127.1,1937.3,126.5,1937,126.3z"/>
			<path class="st3" d="M1942,133c-0.1-0.3-0.6-0.4-1.1-0.2c-0.3,0.1-0.5,0.3-0.5,0.4l-2.2,0.7c0,0-3.5,1.4-4.9,1.9l3.5-4.3
				c0,0,1.3-1.3,1.7-1.7c0.2,0.1,0.5-0.1,0.7-0.3c0.3-0.4,0.4-0.8,0.2-1.1c-0.2-0.2-0.6-0.1-0.9,0.2c-0.2,0.2-0.3,0.5-0.3,0.7
				l-1.5,1.7c0,0-2.5,3-3.4,4.2l-0.1-0.1l1.6-6.2c-0.3,0.8,0.4-1.1,0.6-1.7c0.2,0,0.4-0.3,0.5-0.7c0.1-0.5,0-1-0.2-1.2
				c-0.3-0.2-0.6,0.1-0.7,0.6c-0.1,0.3-0.1,0.6,0,0.8l-0.7,2.4c0,0-1.1,4.2-1.5,5.8v0.2l-1.4-6.4c0,0-0.3-2.3-0.4-2.9
				c0.1-0.2,0.2-0.5,0.1-1c-0.1-0.6-0.4-1.1-0.7-1.1c-0.3,0-0.4,0.5-0.3,1c0.1,0.3,0.2,0.7,0.4,0.8l0.6,2.8c0,0,1.1,4.8,1.5,6.6
				c0.2,0.7,0.7,1,1.1,0.8s0.8-0.3,1.2-0.5c0.9-0.4,1.9-0.7,2.9-1.1c0.2-0.1,0.4-0.2,0.7-0.3c0,0,1.8-0.5,2.3-0.6
				c0.2,0.1,0.6,0.2,0.9,0.1C1941.9,133.7,1942.2,133.3,1942,133z"/>
		</g>
		<g>
			<path class="st3" d="M1875.3,139c-0.3,0-0.3,0.5-0.1,1.1c0.1,0.4,0.3,0.7,0.5,1l0.9,3.1c0,0,1.7,5.2,2.3,7.3l-4.3-7.1
				c0,0-1.3-2.5-1.7-3.2c0-0.2-0.1-0.7-0.4-1.1c-0.4-0.6-0.8-1-1-1c-0.2,0.1-0.1,0.7,0.3,1.3c0.2,0.4,0.5,0.7,0.7,0.8l1.7,3
				c0,0,3.1,5.1,4.2,7h-0.1l-5.9-6.3c0.7,0.9-1.1-1.3-1.6-1.8c-0.1-0.3-0.3-0.7-0.7-1.1c-0.5-0.5-0.9-0.8-1.1-0.6
				c-0.1,0.2,0.2,0.8,0.6,1.3c0.3,0.3,0.6,0.5,0.8,0.6l2.3,2.5c0,0,3.9,4.2,5.5,5.8l0.2,0.1l-5.7-2.7c0,0-2-1.2-2.6-1.5
				c-0.2-0.3-0.5-0.6-0.9-0.8c-0.5-0.3-0.9-0.2-0.9,0.1s0.5,0.8,1,1c0.3,0.2,0.6,0.2,0.7,0.2l2.5,1.3c0,0,4.3,2.1,5.9,2.8
				c0.6,0.3,0.9-0.1,0.6-0.8c-0.2-0.6-0.4-1.2-0.6-1.8c-0.5-1.4-0.9-2.8-1.3-4.2c-0.1-0.3-0.2-0.6-0.3-1c0,0-0.6-2.5-0.8-3.2
				c0.1-0.2,0.1-0.6,0-1C1875.9,139.6,1875.5,139,1875.3,139z"/>
			<path class="st3" d="M1882.4,143c-0.3-0.2-0.6,0-0.8,0.4c-0.1,0.3-0.1,0.6,0,0.8l-0.8,2.2c0,0-1.2,3.8-1.7,5.3l-0.7-6.8
				c0,0-0.1-2.2-0.1-2.9c0.2-0.1,0.3-0.4,0.2-0.8c0-0.6-0.3-1.2-0.6-1.3s-0.5,0.3-0.4,0.8c0,0.3,0.1,0.7,0.3,0.9l0.2,2.8
				c0,0,0.5,4.9,0.7,6.8l-0.1-0.1l-3-7.8c0.3,1-0.5-1.5-0.7-2.2c0.1-0.2,0.1-0.6-0.1-1c-0.2-0.6-0.6-1.1-0.9-1.1
				c-0.2,0-0.3,0.5,0,1.1c0.1,0.4,0.3,0.7,0.5,0.9l1.1,3c0,0,2,5.2,2.8,7.2l0.1,0.2l-4.9-6c0,0-1.6-2.2-2.1-2.8
				c0-0.3-0.2-0.7-0.6-1.1c-0.4-0.5-0.9-0.9-1.1-0.7s0.1,0.7,0.5,1.3c0.3,0.3,0.5,0.6,0.8,0.7l2.1,2.7c0,0,3.7,4.5,5.1,6.2
				c0.5,0.6,1.1,0.7,1.2,0.1c0.1-0.5,0.3-0.9,0.4-1.3c0.3-1,0.6-2,1-3c0.1-0.2,0.1-0.5,0.2-0.7c0,0,0.7-1.7,0.9-2.2
				c0.2,0,0.4-0.2,0.6-0.5C1882.8,143.7,1882.7,143.2,1882.4,143z"/>
		</g>
		<g>
			<path class="st3" d="M1885.6,168.3c-0.2,0.1-0.1,0.7,0.2,1.2c0.2,0.3,0.4,0.6,0.6,0.8l1.5,2.8c0,0,2.6,4.6,3.7,6.5l-5.1-5.2
				c0,0-1.6-1.9-2.1-2.4c0-0.3-0.3-0.6-0.6-1c-0.4-0.5-0.9-0.7-1-0.5s0.1,0.7,0.6,1.2c0.3,0.3,0.5,0.5,0.7,0.5l2.1,2.2
				c0,0,3.6,3.7,5,5.2h-0.1l-6-3.4c0.8,0.5-1.1-0.7-1.7-1.1c-0.1-0.3-0.4-0.6-0.8-0.8c-0.5-0.3-0.9-0.3-0.9,0s0.3,0.7,0.8,1
				c0.3,0.2,0.6,0.2,0.7,0.2l2.3,1.4c0,0,4,2.3,5.5,3.1h0.2l-4.8,0.3c0,0-1.8-0.1-2.3-0.1c-0.2-0.2-0.5-0.3-0.9-0.3
				s-0.7,0.3-0.6,0.6s0.5,0.6,1,0.6c0.3,0,0.5-0.1,0.6-0.3h2.1c0,0,3.6-0.2,5-0.3c0.5,0,0.6-0.6,0.2-1.2c-0.3-0.5-0.6-1.1-0.9-1.6
				c-0.7-1.2-1.4-2.5-2.1-3.7c-0.2-0.3-0.3-0.6-0.5-0.9c0,0-1.1-2.3-1.5-3c0-0.2-0.1-0.6-0.3-1.1
				C1886.2,168.6,1885.8,168.2,1885.6,168.3z"/>
			<path class="st3" d="M1891.8,168.6c-0.3-0.1-0.4,0.3-0.4,0.9c0,0.3,0.1,0.7,0.2,0.9v2.8c0,0,0.2,4.7,0.3,6.6l-2.4-7
				c0,0-0.7-2.4-0.8-3c0.1-0.2,0.1-0.6-0.1-1c-0.2-0.6-0.5-1.1-0.8-1c-0.2,0-0.3,0.5-0.1,1.1c0.1,0.4,0.3,0.7,0.5,0.9l0.9,2.9
				c0,0,1.7,5,2.4,6.9h-0.1l-4.3-6.6c0.5,0.9-0.8-1.3-1.1-1.9c0-0.2-0.1-0.6-0.4-1.1s-0.8-0.9-0.9-0.7c-0.2,0.1,0,0.7,0.3,1.2
				c0.2,0.3,0.4,0.6,0.6,0.7l1.6,2.6c0,0,2.9,4.4,4,6.1l0.2,0.2l-5.1-3.7c0,0-1.8-1.5-2.3-1.9c-0.1-0.3-0.4-0.6-0.7-0.9
				c-0.5-0.3-0.9-0.4-1-0.2c-0.1,0.3,0.3,0.7,0.7,1.1c0.3,0.2,0.5,0.3,0.7,0.3l2.2,1.7c0,0,3.9,2.8,5.3,3.8c0.6,0.4,0.9,0.1,0.9-0.5
				c-0.1-0.5-0.1-1.1-0.1-1.6c-0.1-1.3-0.1-2.5-0.1-3.8c0-0.3,0-0.6,0-0.9c0,0,0.1-2.2,0.1-2.8c0.2-0.1,0.3-0.4,0.3-0.9
				C1892.2,169.2,1892,168.7,1891.8,168.6z"/>
		</g>
		<g>
			<path class="st3" d="M1867.7,194.3c-0.2,0.1-0.1,0.6,0.2,1.2c0.2,0.3,0.4,0.6,0.6,0.8l1.5,2.8c0,0,2.5,4.5,3.6,6.4l-4.9-5.2
				c0,0-1.6-1.9-2-2.4c0-0.3-0.3-0.6-0.6-1c-0.4-0.5-0.9-0.7-1-0.4c-0.1,0.2,0.1,0.7,0.5,1.2c0.3,0.3,0.5,0.4,0.7,0.5l2,2.2
				c0,0,3.5,3.7,4.9,5.1h-0.1l-5.9-3.4c0.7,0.5-1.1-0.7-1.6-1.1c-0.1-0.3-0.4-0.6-0.8-0.8c-0.5-0.3-0.9-0.3-0.9,0s0.3,0.7,0.8,1
				c0.3,0.2,0.5,0.2,0.7,0.2l2.3,1.4c0,0,3.9,2.2,5.4,3.1h0.2l-4.8,0.2c0,0-1.8-0.1-2.3-0.1c-0.2-0.2-0.5-0.3-0.8-0.3
				c-0.4,0-0.7,0.3-0.6,0.6s0.5,0.6,1,0.6c0.3,0,0.5-0.1,0.6-0.2h2.1c0,0,3.6-0.2,5-0.3c0.5,0,0.6-0.6,0.2-1.2
				c-0.3-0.5-0.6-1-0.9-1.5c-0.7-1.2-1.4-2.4-2-3.7c-0.2-0.3-0.3-0.6-0.5-0.9c0,0-1.1-2.3-1.4-2.9c0-0.2-0.1-0.6-0.3-1.1
				C1868.3,194.6,1867.9,194.2,1867.7,194.3z"/>
			<path class="st3" d="M1873.9,194.6c-0.3-0.1-0.4,0.3-0.4,0.9c0,0.3,0.1,0.7,0.2,0.9v2.7c0,0,0.1,4.6,0.2,6.5l-2.2-6.8
				c0,0-0.6-2.3-0.8-3c0.1-0.2,0.1-0.6-0.1-1c-0.2-0.6-0.5-1-0.7-1s-0.3,0.5-0.1,1.1c0.1,0.4,0.3,0.7,0.4,0.8l0.9,2.9
				c0,0,1.6,4.9,2.2,6.8h-0.1l-4.2-6.5c0.5,0.9-0.7-1.3-1.1-1.9c0-0.2-0.1-0.6-0.3-1c-0.3-0.5-0.7-0.9-0.9-0.7
				c-0.2,0.1-0.1,0.7,0.3,1.2c0.2,0.3,0.4,0.6,0.6,0.7l1.6,2.6c0,0,2.8,4.4,3.9,6.1l0.2,0.2l-5.1-3.6c0,0-1.7-1.4-2.2-1.9
				c-0.1-0.3-0.3-0.6-0.7-0.8c-0.5-0.3-0.9-0.4-1-0.2c-0.1,0.3,0.2,0.7,0.7,1.1c0.3,0.2,0.5,0.3,0.7,0.3l2.2,1.7
				c0,0,3.8,2.7,5.3,3.8c0.5,0.4,0.9,0.1,0.9-0.5c-0.1-0.5,0-1.1-0.1-1.6c0-1.2-0.1-2.5-0.1-3.7c0-0.3,0-0.6,0-0.9
				c0,0,0.1-2.2,0.1-2.8c0.2-0.1,0.3-0.4,0.3-0.8C1874.4,195.2,1874.2,194.7,1873.9,194.6z"/>
		</g>
		<g>
			<path class="st3" d="M1890.9,193.8c-0.2,0-0.3,0.5-0.1,1.1c0.1,0.4,0.3,0.7,0.5,0.9l1,3c0,0,1.7,5,2.4,7l-4.2-6.6
				c0,0-1.3-2.3-1.7-2.9c0-0.2-0.1-0.7-0.4-1.1c-0.4-0.6-0.8-1-1-0.8c-0.2,0.1,0,0.7,0.3,1.2c0.2,0.3,0.5,0.6,0.7,0.8l1.7,2.8
				c0,0,3,4.7,4.2,6.5h-0.1l-5.7-5.6c0.7,0.8-1-1.1-1.6-1.7c-0.1-0.3-0.3-0.7-0.6-1c-0.5-0.5-0.9-0.7-1-0.4
				c-0.1,0.2,0.2,0.8,0.6,1.2c0.3,0.3,0.6,0.5,0.7,0.5l2.2,2.2c0,0,3.8,3.7,5.3,5.2l0.2,0.1l-5.5-2.1c0,0-1.9-0.9-2.5-1.2
				c-0.2-0.2-0.5-0.5-0.9-0.7c-0.5-0.2-0.9-0.1-0.8,0.2c0,0.3,0.4,0.7,0.9,0.9c0.3,0.1,0.6,0.1,0.7,0.1l2.4,1c0,0,4.1,1.6,5.7,2.2
				c0.6,0.2,0.8-0.2,0.5-0.9c-0.2-0.5-0.4-1.1-0.6-1.7c-0.5-1.3-0.9-2.7-1.3-4c-0.1-0.3-0.2-0.6-0.3-0.9c0,0-0.7-2.4-0.9-3.1
				c0.1-0.2,0.1-0.6-0.1-1C1891.5,194.3,1891.2,193.8,1890.9,193.8z"/>
			<path class="st3" d="M1897.8,197c-0.3-0.2-0.6,0-0.7,0.5c-0.1,0.3-0.1,0.6,0,0.8l-0.7,2.3c0,0-1,3.9-1.5,5.4l-0.8-6.7
				c0,0-0.1-2.2-0.1-2.8c0.2-0.1,0.2-0.4,0.2-0.9c-0.1-0.6-0.3-1.1-0.6-1.2c-0.3-0.1-0.4,0.3-0.4,0.9c0,0.3,0.1,0.7,0.3,0.9l0.3,2.8
				c0,0,0.6,4.8,0.8,6.6l-0.1-0.1l-3-7.4c0.3,0.9-0.5-1.4-0.7-2.1c0.1-0.2,0-0.6-0.1-1c-0.2-0.6-0.6-1.1-0.8-1c-0.2,0-0.2,0.5,0,1.1
				c0.1,0.4,0.3,0.7,0.5,0.9l1.1,2.9c0,0,2,4.9,2.8,6.8l0.1,0.2l-4.7-5.4c0,0-1.6-2-2-2.6c0-0.2-0.2-0.6-0.5-1
				c-0.4-0.5-0.9-0.8-1-0.6s0.1,0.7,0.5,1.2c0.3,0.3,0.5,0.5,0.7,0.6l2,2.4c0,0,3.6,4.1,4.9,5.6c0.5,0.6,1,0.6,1.1,0
				c0.1-0.5,0.2-0.9,0.3-1.3c0.3-1,0.6-2.1,0.8-3.1c0.1-0.2,0.1-0.5,0.2-0.7c0,0,0.7-1.7,0.9-2.2c0.2,0,0.4-0.2,0.5-0.6
				C1898.1,197.7,1898,197.2,1897.8,197z"/>
		</g>
	</g>
	<g>
		<path class="st4" d="M2008,344.9c-0.1-0.9-1.3-2.5-1.7-3.3c-1.2-2.5-2.5-4.9-3.7-7.4c-12.5-24.6-26.7-48.5-41.6-71.2
			c-4.1-6.3-8.3-12.5-12.4-18.7c-9.2-13.8-18.8-29-27.4-43.6l1.1-1.4c8.7,14.6,18.3,30.8,27.6,44.5c11.1,16.5,22.5,33.6,32.5,51.4
			c8.2,14.6,16.8,28.8,24.9,43.4L2008,344.9z"/>
	</g>
</g>
</svg>
