<svg id="圖層_1" data-name="圖層 1" xmlns="http://www.w3.org/2000/svg" viewBox="0 0 123.04 78.8"><defs><style>.cls-1{fill:#7a4833;}.cls-1,.cls-2,.cls-3,.cls-4,.cls-5,.cls-6,.cls-7,.cls-8{fill-rule:evenodd;}.cls-2{fill:#8a593a;}.cls-3{fill:#97623f;}.cls-4{fill:#9a6541;}.cls-5{fill:#a16944;}.cls-6{fill:#a86c46;}.cls-7{fill:#9e5343;}.cls-8{fill:#995d41;}</style></defs><title>bean</title><path class="cls-1" d="M35.47,75.59C89.87,96.59,159.8,8,100.3.82,35.33-7-48.87,43,35.47,75.59Z"/><path class="cls-2" d="M35.33,75.53C19.65,69.48,2,59.73.53,46-.55,36.21,7,27.58,15.51,21.41c10.74-7.78,25.31-13.5,40-16.8A132.58,132.58,0,0,1,99.81,2C157.67,9,88.55,96.07,35.33,75.53Z"/><path class="cls-3" d="M35.18,75.46C19.92,69.58,2.51,60.05,1.05,46.66c-1-9.56,6.38-18,14.72-24C26.4,14.94,40.85,9.27,55.42,6A131.31,131.31,0,0,1,99.21,3.39C155.07,10.13,87,95.45,35.18,75.46Z"/><path class="cls-4" d="M35.65,75.36C20.94,69.68,3.79,60.44,2.38,47.49,1.36,38.24,8.7,30,16.75,24.19,27.25,16.59,41.53,11,55.91,7.77A129.38,129.38,0,0,1,99.1,5.19C152.35,11.61,85.56,94.62,35.65,75.36Z"/><path class="cls-5" d="M35.64,74.57C21.71,69.2,4.92,60.34,3.59,48c-1-8.82,6.2-16.72,13.87-22.27C27.77,18.28,41.83,12.79,56,9.62A126.94,126.94,0,0,1,98.29,7.08c5.1.61,10.41,2.06,13.78,5.39,5.54,5.5,4,14,2.07,19.57-3.3,9.28-10.38,18.34-18.36,25.54C83.35,68.8,58.75,83.49,35.64,74.57Z"/><path class="cls-6" d="M37.24,74.31C24.66,69.46,8.47,61.23,7.25,50c-.89-8.09,6-15.48,13-20.55C30.28,22.23,44,16.9,57.63,13.83a122.84,122.84,0,0,1,40.89-2.48c4.09.5,8.63,1.59,11.34,4.29,4.73,4.69,3.1,12.7,1.43,17.39C108.1,42,101.2,50.8,93.47,57.77,82.09,68.05,58.64,82.58,37.24,74.31Z"/><path class="cls-5" d="M19.77,65.74a47.65,47.65,0,0,1-4.46-3.23c6.32-5.65,12.84-9.38,24.78-13.68,7-2.53,13.11-6.87,21.78-8.09,9.85-1.38,17.07-5,23.66-8.64,10.11-5.55,17.8-8.21,25-15.76,3.74,4.51,2.52,11.47,1,16C97.61,46.83,75.39,49.64,58,58.38,43.73,65.51,31.39,65.6,19.77,65.74Z"/><path class="cls-1" d="M31.9,61.48,25.06,60l7.43-1.79c11-2.67,24.13-6,35.15-11.64a48.48,48.48,0,0,0,14-10.65A75.64,75.64,0,0,1,93.76,25c10.24-7.09,16.42-9.6,27-12.4C94.72,36.29,60.06,67.6,31.9,61.48Z"/><path class="cls-7" d="M117.94,14.17c-29.69,19.72-56,52.27-88.76,46C101.48,43.47,69.33,35.1,117.94,14.17Z"/><path class="cls-1" d="M25.09,61.64c-31.18,1.5-21.16-29.53-6.84-39.13C-6.52,37.41,1.18,67.19,25.09,61.64Z"/><path class="cls-8" d="M69.45,70.92c16.84-9.57,25-12.9,36.63-27.67-3.77,9.82-8.16,16.48-36.63,27.67ZM10.33,49.5c16.44.32,23.92,1.38,38.28-4.17C42.1,50.7,36.29,53.55,10.33,49.5ZM33.7,26.88c24.68-9.33,34.49-15,64.87-14.25C80.5,7.93,67.28,6.69,33.7,26.88Z"/><path class="cls-5" d="M55.79,69.37c12.62-7.18,22-5.68,30.69-16.74C83.67,60,77.12,61,55.79,69.37ZM11.51,53.31c13.6.51,20.49,2.09,28.67-3.11-4.87,4-9.23,6.16-28.67,3.11ZM29,36.37C47.5,29.38,55.55,15,78.3,15.57,64.76,12.05,54.17,21.26,29,36.37Z"/></svg>