<svg id="圖層_1" data-name="圖層 1" xmlns="http://www.w3.org/2000/svg" viewBox="0 0 126.76 82.32"><defs><style>.cls-1{fill:#7a371a;}.cls-1,.cls-2,.cls-3,.cls-4,.cls-5,.cls-6,.cls-7,.cls-8{fill-rule:evenodd;}.cls-2{fill:#8a471e;}.cls-3{fill:#974f21;}.cls-4{fill:#9a5121;}.cls-5{fill:#a15423;}.cls-6{fill:#a85624;}.cls-7{fill:#903b1d;}.cls-8{fill:#99431c;}</style></defs><title>bean</title><path class="cls-1" d="M90.61,6.08C34.88-23.46-37.93,63.44,23.18,78.69,89.91,95.35,177,51.86,90.61,6.08Z"/><path class="cls-2" d="M90.75,6.15c16.07,8.52,34.09,21.27,35.49,36.3,1,10.71-6.82,19.08-15.66,24.68-11.12,7.05-26.16,11.39-41.33,13.1A130.07,130.07,0,0,1,23.7,77.51C-35.73,62.67,36.23-22.74,90.75,6.15Z"/><path class="cls-3" d="M90.9,6.25c15.63,8.28,33.44,20.77,34.81,35.42,1,10.45-6.75,18.64-15.38,24.11-11,7-25.93,11.27-40.94,13a129,129,0,0,1-45.06-2.69C-33,61.74,37.88-21.86,90.9,6.25Z"/><path class="cls-4" d="M90.42,6.3c15.07,8,32.61,20.13,33.93,34.3,1,10.12-6.67,18.08-15,23.37C98.46,70.86,83.72,75.1,68.9,76.77a126.8,126.8,0,0,1-44.44-2.64C-30.23,60.48,39.3-20.79,90.42,6.3Z"/><path class="cls-5" d="M90.43,7.15c14.26,7.56,31.43,19.25,32.69,32.72.9,9.65-6.56,17.29-14.5,22.32C97.94,69,83.43,73.13,68.87,74.77a124.59,124.59,0,0,1-43.55-2.58c-5.25-1.31-10.69-3.54-14.12-7.57C5.56,58,7.19,49,9.27,43.22c3.49-9.61,10.86-18.51,19.14-25.28C41.31,7.38,66.75-5.39,90.43,7.15Z"/><path class="cls-6" d="M88.78,7.24c12.88,6.82,29.44,17.75,30.58,30,.84,8.85-6.36,16-13.61,20.56C95.4,64.37,81.29,68.42,67.19,70a120.39,120.39,0,0,1-42.07-2.47c-4.2-1.05-8.86-2.81-11.61-6.06-4.83-5.66-3.07-14.11-1.3-19C15.59,33.21,22.77,24.58,30.78,18,42.59,8.35,66.85-4.4,88.78,7.24Z"/><path class="cls-5" d="M106.65,18.69a56.26,56.26,0,0,1,4.56,4.06c-6.56,5.3-13.3,8.51-25.63,11.66-7.24,1.84-13.55,5.77-22.47,6C53,40.65,45.5,43.67,38.69,46.76,28.24,51.48,20.3,53.39,12.86,60.64c-3.8-5.34-2.48-12.7-.9-17.39C26.41,29.32,49.3,29.08,67.3,21.84,82,15.93,94.7,17.38,106.65,18.69Z"/><path class="cls-1" d="M5.9,58.31,3,64.9l6-4.66c8.93-6.91,19.64-15,31-19.71a44.16,44.16,0,0,1,17.32-3.41c6.18-.15,10.92-.39,16.47-1.78,12.11-3,17.94-6.15,26.68-12.59C65,26.28,18,31.2,5.9,58.31Z"/><path class="cls-7" d="M97.47,23.82C63.05,33.24,20.05,30.55,5.33,61.47,63.16,15.59,50.53,47.56,97.47,23.82Z"/><path class="cls-1" d="M101.14,22.46c32.08,2.3,21.46,34.56,6.63,43.13C133.4,52.61,125.78,19.47,101.14,22.46Z"/><path class="cls-8" d="M55.62,6.84C38.2,15.07,29.79,17.64,17.68,32.13c4-10.14,8.55-16.78,37.94-25.29Zm60.57,30.59c-16.9-2.41-24.58-4.5-39.4-.32,6.75-5,12.75-7.32,39.4.32ZM91.93,58.93c-25.47,7-35.62,11.86-66.85,7.22C43.62,73.5,57.19,76.51,91.93,58.93Z"/><path class="cls-5" d="M69.65,10.24C56.6,16.4,47,13.61,37.92,24.46c3-7.6,9.71-7.85,31.73-14.22ZM115,33.16c-14-2.26-21-4.84-29.51-.25,5-3.72,9.55-5.49,29.51.25ZM96.85,49.26C77.77,54.49,69.34,69,46,65.52,59.84,71,70.83,62.42,96.85,49.26Z"/></svg>