<svg id="圖層_1" data-name="圖層 1" xmlns="http://www.w3.org/2000/svg" viewBox="0 0 127.27 81.73"><defs><style>.cls-1{fill:#7a3915;}.cls-1,.cls-2,.cls-3,.cls-4,.cls-5,.cls-6,.cls-7,.cls-8{fill-rule:evenodd;}.cls-2{fill:#8a4b18;}.cls-3{fill:#97541a;}.cls-4{fill:#9a551b;}.cls-5{fill:#a15a1b;}.cls-6{fill:#a85b1d;}.cls-7{fill:#903518;}.cls-8{fill:#993d03;}</style></defs><title>bean</title><path class="cls-1" d="M30.26,71.48c50.79,37.41,135.57-37.86,77.36-61.92C44.07-16.71-48.47,13.51,30.26,71.48Z"/><path class="cls-2" d="M30.14,71.39C15.49,60.61-.46,45.35.36,30.28.94,19.53,9.91,12.41,19.47,8.17,31.51,2.83,47,.74,62.28,1.27a130,130,0,0,1,44.65,9.39C163.54,34.06,79.82,108,30.14,71.39Z"/><path class="cls-3" d="M30,71.28C15.75,60.79,0,45.82.77,31.13c.57-10.49,9.41-17.45,18.75-21.59,11.92-5.28,27.3-7.35,42.41-6.82A128.66,128.66,0,0,1,106.1,12C160.75,34.59,78.32,106.87,30,71.28Z"/><path class="cls-4" d="M30.48,71.29C16.75,61.18,1.19,46.59,2,32.38c.54-10.15,9.25-16.9,18.28-20.9C32,6.26,47.21,4.22,62.12,4.74a127,127,0,0,1,43.57,9.15C157.78,35.42,77.07,105.6,30.48,71.29Z"/><path class="cls-5" d="M30.6,70.45C17.6,60.88,2.33,46.8,3.07,33.28c.53-9.67,9-16.13,17.62-19.94C32.25,8.21,47.21,6.22,61.85,6.73a124.56,124.56,0,0,1,42.71,9c5,2.06,10,5.07,12.85,9.56,4.61,7.39,1.67,16.07-1.24,21.45-4.86,9-13.46,16.72-22.64,22.2C79.22,77.44,52.18,86.34,30.6,70.45Z"/><path class="cls-6" d="M32.24,70.61C20.51,62,5.73,48.73,6.4,36.41,6.87,27.53,15,21.55,22.89,18.07c11.2-5,25.75-6.88,39.93-6.39a120.43,120.43,0,0,1,41.25,8.63c4,1.65,8.34,4.07,10.6,7.69,3.93,6.32,1,14.42-1.51,19-4.7,8.7-13.07,16.19-22,21.5C78.09,76.29,52.23,85.34,32.24,70.61Z"/><path class="cls-5" d="M16.25,56.65A58.19,58.19,0,0,1,12.33,52c7.27-4.28,14.41-6.46,27.07-7.77,7.43-.76,14.25-3.71,23.11-2.62,10.07,1.24,17.89-.66,25.08-2.71,11-3.13,19.17-3.86,27.59-9.94,3,5.85.58,12.93-1.66,17.34-16.34,11.65-39,8.53-57.88,13C40.22,63,27.88,59.71,16.25,56.65Z"/><path class="cls-1" d="M121.73,32.26l3.86-6.09L119,29.9c-9.85,5.52-21.63,12-33.6,14.94a44,44,0,0,1-17.63.83c-6.13-.76-10.86-1.22-16.55-.66-12.42,1.22-18.66,3.45-28.25,8.54C58.56,55.27,105.82,57.31,121.73,32.26Z"/><path class="cls-7" d="M26.08,52.93c35.43-4.27,77.57,4.72,96.67-23.71C58.81,66.11,76,36.34,26.08,52.93Z"/><path class="cls-1" d="M22.25,53.74C-9.14,46.76,6.1,16.4,22,10.1-5.23,19.17-2.56,53.07,22.25,53.74Z"/><path class="cls-8" d="M65,75.87C83.42,70.29,92.12,69,106.23,56.43,100.82,65.87,95.31,71.77,65,75.87ZM9.56,36.72c16.37,4.87,23.66,8.06,38.93,6.1-7.4,3.93-13.69,5.37-38.93-6.1ZM36.72,19c26.21-3.15,37-6.49,67.18,2.68C86.65,11.69,73.66,6.73,36.72,19Z"/><path class="cls-5" d="M51.61,70.45c13.81-4.18,22.91,0,33.47-9.41-4,7.08-10.76,6.34-33.47,9.41ZM10.09,41.11C23.59,45.4,30.2,49,39.25,45.7c-5.54,2.93-10.26,4-29.16-4.59ZM30.43,27.86c19.65-2.37,30.11-15.49,52.73-8.62C70.24,11.76,58.1,18.66,30.43,27.86Z"/></svg>