<svg id="圖層_1" data-name="圖層 1" xmlns="http://www.w3.org/2000/svg" viewBox="0 0 127.06 81.93"><defs><style>.cls-1{fill:#7a3d31;}.cls-1,.cls-2,.cls-3,.cls-4,.cls-5,.cls-6,.cls-7,.cls-8{fill-rule:evenodd;}.cls-2{fill:#8a4c37;}.cls-3{fill:#97543c;}.cls-4{fill:#9a563d;}.cls-5{fill:#a15a40;}.cls-6{fill:#a85d43;}.cls-7{fill:#903d39;}.cls-8{fill:#994e3d;}</style></defs><title>bean</title><path class="cls-1" d="M92.42,74.87C37.87,106.53-38.22,22.49,22.25,4.9,88.29-14.3,177,25.8,92.42,74.87Z"/><path class="cls-2" d="M92.56,74.79c15.73-9.12,33.25-22.56,34.07-37.63.59-10.74-7.55-18.8-16.6-24.06C98.64,6.49,83.45,2.73,68.23,1.59A130,130,0,0,0,22.82,6.07C-36,23.17,39.19,105.76,92.56,74.79Z"/><path class="cls-3" d="M92.71,74.69c15.3-8.87,32.62-22,33.42-36.73.57-10.48-7.46-18.37-16.3-23.5C98.56,7.92,83.49,4.19,68.42,3.07A128.82,128.82,0,0,0,23.5,7.49C-33.27,24,40.8,104.82,92.71,74.69Z"/><path class="cls-4" d="M92.22,74.66C107,66.1,124,53.29,124.81,39.08c.56-10.15-7.36-17.81-15.9-22.77C97.78,9.84,82.89,6.17,68,5.06A127,127,0,0,0,23.7,9.42C-30.42,25.15,42.18,103.69,92.22,74.66Z"/><path class="cls-5" d="M92.2,73.81c14-8.1,30.67-20.44,31.4-33.95.53-9.68-7.21-17-15.34-21.75-10.93-6.35-25.59-10-40.2-11a124.68,124.68,0,0,0-43.42,4.25c-5.19,1.51-10.55,3.95-13.82,8.1-5.38,6.85-3.41,15.8-1.1,21.46C13.57,50.35,21.28,59,29.81,65.41,43.1,75.46,69,87.25,92.2,73.81Z"/><path class="cls-6" d="M90.55,73.79c12.6-7.32,28.74-18.87,29.4-31.19.5-8.88-7-15.71-14.39-20-10.59-6.14-24.85-9.64-39-10.69A120.27,120.27,0,0,0,24.61,16c-4.14,1.21-8.73,3.15-11.36,6.5-4.6,5.85-2.52,14.22-.57,19C16.41,50.64,23.92,59,32.18,65.24,44.35,74.44,69.08,86.25,90.55,73.79Z"/><path class="cls-5" d="M108,61.65a59,59,0,0,0,4.4-4.22c-6.76-5-13.62-8-26.06-10.67C79,45.2,72.55,41.51,63.62,41.64,53.47,41.77,45.9,39,39,36.22,28.35,31.9,20.35,30.3,12.64,23.33c-3.6,5.49-2,12.8-.24,17.42C27.38,54.11,50.26,53.47,68.52,60,83.45,65.36,96.07,63.42,108,61.65Z"/><path class="cls-1" d="M5.77,25.93,2.58,19.46l6.18,4.42C18,30.45,29,38.14,40.54,42.39,46.26,44.5,50.92,45.23,58,45.14c6.19-.09,10.93,0,16.53,1.14,12.21,2.56,18.17,5.46,27.15,11.56C66.06,55.67,18.86,52.56,5.77,25.93Z"/><path class="cls-7" d="M98.59,56.88C63.84,48.79,21,53.13,5.08,22.8,64.63,66.43,50.78,35,98.59,56.88Z"/><path class="cls-1" d="M102.31,58.1c32-3.53,20.12-35.36,5-43.35C133.39,26.73,127.05,60.14,102.31,58.1Z"/><path class="cls-8" d="M57.43,75.46C27.73,68.08,22.9,61.62,18.54,51.65c12.66,14,21.17,16.26,38.89,23.81Zm59.35-32.9c-26.33,8.67-32.43,6.55-39.36,1.84,15,3.61,22.56,1.22,39.36-1.84ZM24.64,17.36C55.66,11.53,66,16,91.71,22,56.33,5.78,42.87,9.3,24.64,17.36Z"/><path class="cls-5" d="M71.31,71.52c-22.24-5.52-29-5.52-32.25-13,9.48,10.5,19,7.33,32.25,13Zm44.46-24.64c-19.72,6.49-24.29,4.9-29.48,1.38,8.64,4.26,15.6,1.41,29.48-1.38ZM45.52,17.19C68.75,12.82,77.73,27,97,31.48,70.49,19.33,59.18,11.15,45.52,17.19Z"/></svg>