<svg id="圖層_1" data-name="圖層 1" xmlns="http://www.w3.org/2000/svg" viewBox="0 0 154 86.31"><defs><style>.cls-1{fill:#7a3e17;}.cls-1,.cls-2,.cls-3,.cls-4,.cls-5,.cls-6,.cls-7{fill-rule:evenodd;}.cls-2{fill:#8a4f1a;}.cls-3{fill:#97581d;}.cls-4{fill:#9a5b1d;}.cls-5{fill:#a15f1f;}.cls-6{fill:#a86120;}.cls-7{fill:#99501d;}</style></defs><title>bean</title><path class="cls-1" d="M90.61,10.07C34.88-19.47-37.93,67.43,23.18,82.68,89.91,99.34,177,55.86,90.61,10.07Z"/><path class="cls-2" d="M90.75,10.14c16.07,8.52,34.09,21.27,35.49,36.3,1,10.71-6.82,19.08-15.66,24.68-11.12,7-26.16,11.39-41.33,13.1A130.07,130.07,0,0,1,23.7,81.5C-35.73,66.66,36.23-18.75,90.75,10.14Z"/><path class="cls-3" d="M90.9,10.24c15.63,8.28,33.44,20.77,34.81,35.42,1,10.45-6.75,18.65-15.38,24.11-11,7-25.93,11.27-40.94,13a129,129,0,0,1-45.06-2.69C-33,65.73,37.88-17.87,90.9,10.24Z"/><path class="cls-4" d="M90.42,10.29c15.07,8,32.61,20.13,33.93,34.3,1,10.12-6.67,18.08-15,23.37C98.46,74.85,83.72,79.09,68.9,80.77a127.05,127.05,0,0,1-44.44-2.65C-30.23,64.47,39.3-16.8,90.42,10.29Z"/><path class="cls-5" d="M90.43,11.14c14.26,7.56,31.43,19.25,32.69,32.72.89,9.65-6.56,17.29-14.5,22.32C97.94,73,83.43,77.12,68.87,78.76a124.59,124.59,0,0,1-43.55-2.58c-5.25-1.31-10.69-3.54-14.12-7.57C5.56,62,7.19,53,9.27,47.21,12.76,37.6,20.13,28.7,28.41,21.93,41.31,11.37,66.75-1.4,90.43,11.14Z"/><path class="cls-6" d="M88.78,11.23c12.88,6.82,29.44,17.75,30.58,30,.84,8.85-6.36,16-13.61,20.56C95.4,68.36,81.29,72.41,67.19,74a120.46,120.46,0,0,1-42.08-2.47c-4.19-1-8.85-2.8-11.6-6.06-4.82-5.66-3.07-14.11-1.3-19C15.58,37.2,22.77,28.57,30.78,22,42.59,12.34,66.85-.41,88.78,11.23Z"/><path class="cls-7" d="M55.62,10.83C38.2,19.06,29.79,21.63,17.68,36.12c4-10.14,8.55-16.78,37.94-25.29Z"/><path class="cls-5" d="M69.65,14.23C56.6,20.39,47,17.6,37.92,28.45c3-7.59,9.71-7.85,31.73-14.22ZM115,37.15c-14-2.26-21-4.84-29.52-.25,5-3.72,9.56-5.49,29.52.25ZM96.85,53.25C77.77,58.48,69.34,73,46,69.51,59.84,75,70.83,66.41,96.85,53.25Z"/><path class="cls-6" d="M149.67,61.36a13.17,13.17,0,1,0-2.37,18.48A13.17,13.17,0,0,0,149.67,61.36Z"/><path class="cls-6" d="M152,34.47A9.79,9.79,0,1,0,150.2,48.2,9.79,9.79,0,0,0,152,34.47Z"/><path class="cls-6" d="M137.85,15.19A7.68,7.68,0,1,0,136.47,26,7.67,7.67,0,0,0,137.85,15.19Z"/><path class="cls-6" d="M121.46,2.11a5.43,5.43,0,1,0-1,7.61A5.44,5.44,0,0,0,121.46,2.11Z"/></svg>