<svg id="圖層_1" data-name="圖層 1" xmlns="http://www.w3.org/2000/svg" viewBox="0 0 163.91 83.18"><defs><style>.cls-1{fill:#7a3e17;}.cls-1,.cls-2,.cls-3,.cls-4,.cls-5,.cls-6,.cls-7{fill-rule:evenodd;}.cls-2{fill:#8a4f1a;}.cls-3{fill:#97581d;}.cls-4{fill:#9a5b1d;}.cls-5{fill:#a15f1f;}.cls-6{fill:#a86120;}.cls-7{fill:#99501d;}</style></defs><title>bean</title><path class="cls-1" d="M92.42,76.12c-54.55,31.66-130.64-52.39-70.17-70C88.29-13.06,177,27.05,92.42,76.12Z"/><path class="cls-2" d="M92.56,76c15.73-9.13,33.25-22.56,34.07-37.63.59-10.75-7.55-18.81-16.6-24.06C98.64,7.73,83.45,4,68.23,2.84A130.19,130.19,0,0,0,22.82,7.31C-36,24.42,39.19,107,92.56,76Z"/><path class="cls-3" d="M92.71,75.94c15.3-8.88,32.62-22,33.42-36.73.57-10.49-7.46-18.37-16.3-23.5C98.56,9.17,83.49,5.44,68.42,4.31A128.84,128.84,0,0,0,23.5,8.74C-33.27,25.25,40.8,106.07,92.71,75.94Z"/><path class="cls-4" d="M92.23,75.91C107,67.35,124,54.54,124.81,40.33c.56-10.16-7.36-17.81-15.9-22.77C97.78,11.09,82.89,7.41,68,6.31A127.17,127.17,0,0,0,23.7,10.66C-30.42,26.4,42.18,104.94,92.23,75.91Z"/><path class="cls-5" d="M92.2,75.05c14-8.09,30.67-20.43,31.4-33.95.53-9.68-7.21-17-15.34-21.74-10.93-6.35-25.59-10-40.2-11a124.2,124.2,0,0,0-43.42,4.25c-5.19,1.5-10.55,3.95-13.82,8.1-5.38,6.85-3.41,15.8-1.11,21.46,3.86,9.47,11.57,18.08,20.1,24.53C43.11,76.71,69,88.5,92.2,75.05Z"/><path class="cls-6" d="M90.55,75c12.61-7.31,28.74-18.86,29.4-31.18.5-8.88-7-15.71-14.39-20-10.59-6.15-24.85-9.65-39-10.7a120.52,120.52,0,0,0-41.95,4.09c-4.14,1.21-8.73,3.14-11.36,6.5-4.6,5.84-2.52,14.22-.57,19,3.73,9.16,11.24,17.51,19.5,23.76C44.35,75.69,69.08,87.5,90.55,75Z"/><path class="cls-7" d="M57.43,76.7c-29.7-7.37-34.54-13.83-38.89-23.81,12.66,14,21.17,16.26,38.89,23.81Zm59.35-32.89c-26.33,8.66-32.43,6.55-39.36,1.83,15,3.61,22.56,1.23,39.36-1.83Z"/><path class="cls-5" d="M71.31,72.77c-22.24-5.52-29-5.52-32.25-13,9.48,10.49,19,7.33,32.25,13Zm44.46-24.65C96.05,54.62,91.48,53,86.29,49.5c8.64,4.27,15.6,1.41,29.48-1.38ZM45.52,18.43C68.75,14.06,77.73,28.24,97,32.73,70.49,20.58,59.18,12.4,45.52,18.43Z"/><path class="cls-6" d="M159.57,21.23A13.17,13.17,0,1,1,157.2,2.75,13.17,13.17,0,0,1,159.57,21.23Z"/><path class="cls-6" d="M161.87,48.11a9.79,9.79,0,1,1-1.77-13.73A9.78,9.78,0,0,1,161.87,48.11Z"/><path class="cls-6" d="M147.76,67.39a7.67,7.67,0,1,1-1.39-10.76A7.68,7.68,0,0,1,147.76,67.39Z"/><path class="cls-6" d="M131.36,80.47a5.43,5.43,0,1,1-1-7.61A5.42,5.42,0,0,1,131.36,80.47Z"/></svg>