<svg id="圖層_1" data-name="圖層 1" xmlns="http://www.w3.org/2000/svg" viewBox="0 0 125.3 84.36"><defs><style>.cls-1{fill:#7a5b4b;}.cls-1,.cls-2,.cls-3,.cls-4,.cls-5,.cls-6,.cls-7,.cls-8{fill-rule:evenodd;}.cls-2{fill:#8a6b55;}.cls-3{fill:#97765d;}.cls-4{fill:#9a795f;}.cls-5{fill:#a17f63;}.cls-6{fill:#a88368;}.cls-7{fill:#906559;}.cls-8{fill:#99735e;}</style></defs><title>bean</title><path class="cls-1" d="M22.46,17.2c42.86-46.28,140.27,11.72,87.62,46.29C52.59,101.23-44,88.93,22.46,17.2Z"/><path class="cls-2" d="M22.36,17.31C10,30.65-2.8,48.64.83,63.29,3.42,73.73,13.57,79.05,23.76,81.42c12.83,3,28.46,2.11,43.34-1.27a130.28,130.28,0,0,0,42.1-17.61C160.4,28.92,64.28-27.95,22.36,17.31Z"/><path class="cls-3" d="M22.25,17.45c-12,13-24.72,30.65-21.17,44.93C3.6,72.57,13.6,77.75,23.55,80.06c12.7,2.94,28.2,2.09,42.93-1.26a129,129,0,0,0,41.65-17.42C157.56,28.93,63-26.58,22.25,17.45Z"/><path class="cls-4" d="M22.71,17.34C11.13,29.85-1.42,47.11,2,60.92,4.45,70.79,14.27,75.78,23.89,78c12.54,2.92,27.86,2.06,42.4-1.25A127.15,127.15,0,0,0,107.37,59.6C154.49,28.67,62-25.1,22.71,17.34Z"/><path class="cls-5" d="M23,18.15C12,30-.33,46.69,2.93,59.83,5.27,69.23,14.83,74,24,76.11c12.32,2.86,27.39,2,41.67-1.24a124.85,124.85,0,0,0,40.27-16.82c4.52-3,8.92-6.87,10.82-11.8,3.14-8.12-1.37-16.1-5.24-20.84C105,17.49,95.14,11.52,85.09,7.86,69.43,2.16,41.2-1.51,23,18.15Z"/><path class="cls-6" d="M24.57,17.69C14.67,28.38,2.64,44.16,5.62,56.13,7.75,64.76,16.89,69.1,25.25,71,37.18,73.81,51.84,73,65.67,69.82a120.42,120.42,0,0,0,38.9-16.22c3.61-2.38,7.43-5.57,9-9.55,2.68-6.94-1.76-14.33-5-18.34-6.25-7.66-15.88-13.44-25.61-17C68.54,3.5,41.43-.53,24.57,17.69Z"/><path class="cls-5" d="M11.48,34.4a58.81,58.81,0,0,0-3,5.33c7.94,2.84,15.36,3.65,28,2.55,7.44-.65,14.7,1,23.19-1.76,9.66-3.11,17.7-2.72,25.15-2.06,11.43,1,19.55.19,29,4.59,1.83-6.31-1.85-12.82-4.89-16.72-18.24-8.38-39.92-1-59.3-1.95C33.83,23.65,22.33,29.22,11.48,34.4Z"/><path class="cls-1" d="M119.67,38.55l4.94,5.25-7.21-2.42C106.7,37.81,93.91,33.69,81.59,33c-6.08-.33-10.75.34-17.47,2.49-5.88,1.9-10.44,3.24-16.13,3.76-12.43,1.14-19,.11-29.35-3.08C53.3,27.81,99.34,16.93,119.67,38.55Z"/><path class="cls-7" d="M21.85,36.21c35.59-2.47,75.3-19.2,99.4,5.12C51.52,17.11,74,43.13,21.85,36.21Z"/><path class="cls-1" d="M17.93,36.13C-11.59,48.89,9.08,75.85,25.9,79-2.57,75.25-6.32,41.45,17.93,36.13Z"/><path class="cls-8" d="M55.74,6.37C86.3,4.7,92.82,9.46,99.91,17.71,83.69,8,74.9,8.39,55.74,6.37ZM8.66,55.23c22.63-16,29.08-15.77,37.09-13.3-15.37.94-21.93,5.45-37.09,13.3Zm95.48-3C76.2,67,65,65.7,38.66,67.52,77.25,72.65,89.08,65.33,104.14,52.27Z"/><path class="cls-5" d="M43.63,14.2C66.51,13,73,11,78.27,17.16c-12.14-7.25-20.3-1.44-34.64-3ZM8.36,50.82c17-12,21.78-11.83,27.78-10-9.51-1.54-15.33,3.23-27.78,10Zm75.87,7.76c-20.92,11-33.66.07-53.4,1.44C59.73,63.86,73,68.35,84.23,58.58Z"/></svg>