<svg id="圖層_1" data-name="圖層 1" xmlns="http://www.w3.org/2000/svg" xmlns:xlink="http://www.w3.org/1999/xlink" viewBox="0 0 172.43 172.65"><defs><style>.cls-1{fill:#d7e3eb;}.cls-1,.cls-10,.cls-11,.cls-12,.cls-13,.cls-14,.cls-2,.cls-3,.cls-4,.cls-5,.cls-6,.cls-7,.cls-8,.cls-9{fill-rule:evenodd;}.cls-2{fill:#231815;}.cls-3{fill:#c4896b;}.cls-4{fill:#d3a383;}.cls-5{fill:#d9ae90;}.cls-6{fill:#e8c7ab;}.cls-7{fill:#f1d7bc;}.cls-8{fill:#f7e3c9;}.cls-9{fill:#fdefd9;}.cls-10{fill:#fff;}.cls-11{fill:#6b2700;}.cls-12{fill:url(#GradientFill_67);}.cls-13{fill:#7f4b25;}.cls-14{fill:#be956f;}</style><linearGradient id="GradientFill_67" x1="44.64" y1="102.44" x2="155.54" y2="126.01" gradientUnits="userSpaceOnUse"><stop offset="0" stop-color="#dfd4be"/><stop offset="1" stop-color="#640000"/></linearGradient></defs><title>step</title><path class="cls-1" d="M148.57,143.12A84.17,84.17,0,0,1,139,151.8a85.27,85.27,0,0,0,6.72-6.35A82.89,82.89,0,0,0,37.42,21l-.84.46a82.9,82.9,0,0,1,112,121.7Z"/><path class="cls-2" d="M152.83,32.52c30.22,37.27,24.9,91.6-11.89,121.31S49.82,177.4,19.6,140.12-5.3,48.53,31.49,18.82,122.61-4.76,152.83,32.52Z"/><path class="cls-3" d="M152.28,33.25c29.94,36.92,24.82,90.59-11.42,119.86S51,176.18,21,139.26-3.79,48.67,32.45,19.4,122.35-3.66,152.28,33.25Z"/><path class="cls-4" d="M150,36.37c28.7,35.39,24.46,86.32-9.46,113.71S46.7,173.36,26.21,136.59.3,50.7,36.56,21.88,121.26,1,150,36.37Z"/><path class="cls-5" d="M148.8,37.92c28.08,34.64,24.28,84.19-8.48,110.64S44.57,172,28.8,135.25,2.35,51.71,38.62,23.12,120.72,3.29,148.8,37.92Z"/><path class="cls-6" d="M146.47,41C173.32,74.15,170.4,121,140,145.53s-99.65,23.6-106-12.95-27.54-78.84,8.74-107S119.63,7.93,146.47,41Z"/><path class="cls-7" d="M145.31,42.6C171.54,75,169.07,120.37,139.78,144s-101.6,23.7-103.2-12.77S8.48,54.76,44.78,26.84,119.08,10.24,145.31,42.6Z"/><path class="cls-8" d="M144.15,44.15c25.61,31.6,23.58,75.64-4.55,98.35S36.05,166.31,39.17,129.91,10.53,55.77,46.83,28.07,118.54,12.56,144.15,44.15Z"/><path class="cls-9" d="M143,45.71c25,30.83,23.4,73.5-3.57,95.28S33.92,164.9,41.76,128.58,12.57,56.79,48.89,29.31,118,14.88,143,45.71Z"/><path class="cls-10" d="M81.41,100.56l.71.53-.37.5-2.2-1.65c-4.8-3.84-8-10.6-6.83-16.75.46-2.33,1.26-2.64,1.18-.56-.28,6.65,2.14,13.74,7.51,17.93Zm-29-31.27A42,42,0,0,0,49,85.78c.07,11,4.89,23.4,13.32,30.74a.3.3,0,0,0,.42,0c.33-.31-.33-.82-.52-1-11-11.57-15.29-28.38-9.82-43.56a41.57,41.57,0,0,1,7.18-12.4c-.27.46,0,1,.59.41C66.7,53.53,75.4,47.87,84.85,47.83l.9.12c11.89-.18,22.75,5.17,29.27,15.19,1.24,1.9,1.41.19,0-2.2-9.42-15.63-30.9-18.55-45.95-9.65a.3.3,0,0,0-.25-.42,39.55,39.55,0,0,1,27.91-3.79c2.16.49,1.9-.21,1.18-.49-13.73-5.35-30.26.64-39.72,11.33-7.42,8.4-11.86,21-10,32.19.11.67.68.39.65-.23a44.59,44.59,0,0,1,3.56-20.59Zm8.47,22.48a34.7,34.7,0,0,0,21.5,24.89A38.83,38.83,0,0,0,117.26,112a34.94,34.94,0,0,0,7.73-7.28.32.32,0,0,0,0-.43c-.36-.31-.86.49-1,.7-8.93,9.89-22.4,14.94-35.62,12.4C73.9,114.65,62.4,102.57,61.32,88a.3.3,0,0,0,.53-.2c.28-7.12,1.71-13.46,6.35-19.06.26-.22,3.35-3,5.26-4.76a25.07,25.07,0,0,1,22.78-2c4.3,1.65,2.1-1.43-3.12-3.06-11.5-3.6-23,2.61-28.63,12.81l-.38-.18C70.63,60,83.19,55,96.06,59.05c.84.26,1.08-.37-.54-1-14.14-5.81-30,3.92-34.7,17.71-6.86,20,8.1,40.66,28.44,43.78,8,1.23,7.3-.22,6.29-.24C79.33,119,63.82,108.05,60.84,91.77ZM73,91c-2.4-8.49,1.2-18.21,9.86-21.36a14.78,14.78,0,0,1,12,.55c2.52,1.18,1-1-1.27-2.08-9.7-4.68-20.24,3.19-22.42,12.79-3.66,16.43,13.86,30.65,29.59,26,.6-.17.54-.76-.13-.66C88.84,108.21,76.56,103,73,91Zm18.7,17.16c14.1,1.48,26-7.86,30.47-20.87.24-.67.85-.64.68.08-3.79,15.14-19.76,24.85-34.95,20.77-1.49-.44-1-1-.62-.86a30.32,30.32,0,0,0,4.42.88Zm15.89-32.82c.16-.91-.36-4.17.17-4.27,1.77-.33,2.81,12-2.14,15.32-.22.14-.53.3-.77.11-.73-.56,2.81-6.54,2.76-10.14l0-1ZM94.24,63.44c7.5,2.14,13.62,9.5,11.41,16.78-.37,1.21-1.22,2-1.23.22,0-7.68-3.48-13.49-10.66-16.53l.2-.55.28.08ZM71.6,73.73c-1.39,1.14-2.71,6.7-3,8.32-.16,1-.51,6.7.69,6.7.62,0,.42-3,.44-3.41C70.32,74.4,79.7,64.58,91.08,67c1.86.39,10.26,5.1,6.06.87-7.55-7.63-20.54-2.71-25.54,5.86Zm42.54-19c10.26,10.67,10.34,25.59,8.8,25.47-.34,0-.31-.43-.32-.66-.13-11.59-5.35-22.75-15.4-29L101.94,47l1.87.55c3.71,1.09,7.69,4.48,10.33,7.24Zm5.53,16.66a37.44,37.44,0,0,0-1.81-6.3c-.38-1,.07-1.49.48-.79,4.86,8.09,4.17,21.08-1.26,28.76-.44.62-1.11.56-.7-.24,6.36-12.37,3-19.12,3.29-21.43Zm-6.74,22.15c.38-.45,1.95-2.93,2.62-2.52.28.17.15.54,0,.79-2.89,7.16-12.46,13.33-20.24,12.65-.81-.09-.81-.67,0-.83,7.31-1.44,13-4,17.59-10.09Zm-20,9,1.28-.18L93,102c-11.45-4-20.46-15.12-12-26.64,1.45-2-.43-1.42-1.43-.63-7.67,6.11-4.8,18.22,2,23.76C84.45,100.8,89.29,103.13,93,102.63Z"/><path class="cls-11" d="M147.39,143.23a82.52,82.52,0,0,1-9.61,8.69,82.79,82.79,0,0,0,3.45-123.43,83.11,83.11,0,0,0-105-7.41l-.84.46a82.89,82.89,0,0,1,112,121.69Z"/><path class="cls-12" d="M9.94,120.2A84.74,84.74,0,0,1,18.68,36a85,85,0,0,0,139.17,97.7A85.16,85.16,0,0,1,9.94,120.2Z"/><path class="cls-10" d="M137.54,73c-3.72-11.73-8.68-22.51-16.57-32-1.68-1.9,2.69-5.55,4.26-3.69a68.27,68.27,0,0,1,11.26,20c1.49,4.09,3.44,11.05,3.69,15.31a1.35,1.35,0,0,1-2.64.42ZM97.77,18.26c-1.76-.66-3,1.38-1.17,2.46a94.9,94.9,0,0,1,20.09,15.45c1.3,1.65,5.84-2.08,4.24-3.56A66.37,66.37,0,0,0,97.77,18.26Z"/><path class="cls-10" d="M88.37,143.77c10.41-.55,20.3-2.32,29.8-6.73,1.9-1,4,3.37,2.12,4.26a58.12,58.12,0,0,1-18.8,4.95c-3.67.35-9.79.46-13.33-.24a1.13,1.13,0,0,1,.21-2.24Zm53.31-20.85c.91-1.31-.5-2.75-1.77-1.49A80.13,80.13,0,0,1,123,134.56c-1.63.71.46,5.21,2,4.22A56.08,56.08,0,0,0,141.68,122.92Z"/><path class="cls-13" d="M124,88.92c0-4.31-18-7.81-40.13-7.81S44.75,84,44.75,88.35c0,.17,6.63,39.35,24.51,40H98.57C116.45,127.7,124,89.1,124,88.92Z"/><path class="cls-13" d="M99.56,129.09a.62.62,0,0,1-.67.58H68.94a.62.62,0,0,1-.67-.58v-.58a.63.63,0,0,1,.67-.58h30a.63.63,0,0,1,.67.58v.58Z"/><path class="cls-13" d="M118.76,114.47c-4.38,0-2.44-4-1-6.83S124.66,99.5,129,99.5s5.66,5.18,4.59,8.14-10.49,6.83-14.87,6.83Zm11.4-20.18c-8.27,0-19.45,7.15-19.45,13.35S105.35,120,113.62,120s26.14-6.11,27-12.37-2.23-13.35-10.5-13.35Z"/><path class="cls-14" d="M118.26,89c0,2.91-15.16,5.27-33.86,5.27S50.54,91.93,50.54,89,65.7,83.75,84.4,83.75s33.86,2.36,33.86,5.27Z"/><path class="cls-13" d="M88.64,84.58S75.1,61.84,81.06,51s4.79-26.94,2.67-30.39c0,0,11.82,16.12,4.76,32.27S86,77.14,88.64,84.58Z"/><path class="cls-13" d="M77.62,75.4s-12.5-17.39-7-25.68S75,29.1,73.09,26.46c0,0,10.89,12.34,4.38,24.69s-2.33,18.57.15,24.25Z"/><path class="cls-13" d="M97.64,87.54s-12.49-17.41-7-25.7,4.42-20.61,2.47-23.26c0,0,10.9,12.34,4.39,24.7s-2.34,18.56.14,24.26Z"/></svg>