<svg id="圖層_1" data-name="圖層 1" xmlns="http://www.w3.org/2000/svg" xmlns:xlink="http://www.w3.org/1999/xlink" viewBox="0 0 171.82 172.18"><defs><style>.cls-1{fill:#dae4ea;}.cls-1,.cls-10,.cls-11,.cls-12,.cls-13,.cls-14,.cls-15,.cls-2,.cls-3,.cls-4,.cls-5,.cls-6,.cls-7,.cls-8,.cls-9{fill-rule:evenodd;}.cls-2{fill:#b14f00;}.cls-3{fill:#ba9b87;}.cls-4{fill:url(#GradientFill_60);}.cls-5{fill:url(#GradientFill_61);}.cls-6{fill:url(#GradientFill_62);}.cls-7{fill:url(#GradientFill_63);}.cls-8{fill:url(#GradientFill_64);}.cls-9{fill:url(#GradientFill_65);}.cls-10{fill:url(#GradientFill_66);}.cls-11{fill:url(#GradientFill_67);}.cls-12{fill:url(#GradientFill_68);}.cls-13{fill:#3c2115;}.cls-14{fill:url(#GradientFill_69);}.cls-15{fill:#fdefd9;}</style><linearGradient id="GradientFill_60" x1="65.57" y1="143.42" x2="107.41" y2="28.48" gradientUnits="userSpaceOnUse"><stop offset="0" stop-color="#86442c"/><stop offset="1" stop-color="#88432c"/></linearGradient><linearGradient id="GradientFill_61" x1="83.92" y1="136.35" x2="92.62" y2="36.82" gradientUnits="userSpaceOnUse"><stop offset="0" stop-color="#7e4029"/><stop offset="1" stop-color="#813c25"/></linearGradient><linearGradient id="GradientFill_62" x1="100.32" y1="141.01" x2="81.33" y2="33.32" gradientUnits="userSpaceOnUse"><stop offset="0" stop-color="#763d28"/><stop offset="1" stop-color="#7e371f"/></linearGradient><linearGradient id="GradientFill_63" x1="117.47" y1="142.18" x2="66.9" y2="33.75" gradientUnits="userSpaceOnUse"><stop offset="0" stop-color="#6e3a26"/><stop offset="1" stop-color="#783019"/></linearGradient><linearGradient id="GradientFill_64" x1="132.75" y1="137.44" x2="51.18" y2="43.59" gradientUnits="userSpaceOnUse"><stop offset="0" stop-color="#643421"/><stop offset="1" stop-color="#722a12"/></linearGradient><linearGradient id="GradientFill_65" x1="143.07" y1="126.28" x2="44" y2="59.46" gradientUnits="userSpaceOnUse"><stop offset="0" stop-color="#5b301d"/><stop offset="1" stop-color="#6c240b"/></linearGradient><linearGradient id="GradientFill_66" x1="277.18" y1="155.91" x2="73.19" y2="85.67" gradientUnits="userSpaceOnUse"><stop offset="0" stop-color="#522a19"/><stop offset="1" stop-color="#661d03"/></linearGradient><linearGradient id="GradientFill_67" x1="159.69" y1="99.24" x2="55.39" y2="39.02" gradientUnits="userSpaceOnUse"><stop offset="0" stop-color="#dfd4be"/><stop offset="1" stop-color="#640000"/></linearGradient><linearGradient id="GradientFill_68" x1="47.56" y1="100.5" x2="147.59" y2="121.76" gradientUnits="userSpaceOnUse"><stop offset="0" stop-color="#fbe1bd"/><stop offset="1" stop-color="#6c1c03"/></linearGradient><linearGradient id="GradientFill_69" x1="59.25" y1="155.17" x2="60.5" y2="152.06" gradientUnits="userSpaceOnUse"><stop offset="0" stop-color="#572e1d"/><stop offset="1" stop-color="#6c1c03"/></linearGradient></defs><title>step</title><path class="cls-1" d="M90.12,28.4C45.45,23.69,5.89,51.49,1.78,90.48s28.77,74.43,73.44,79.15,84.24-23.09,88.35-62.09S134.79,33.11,90.12,28.4Z"/><path class="cls-2" d="M152.43,32.26c30,37.1,24.58,91.3-12.15,121S49.41,177,19.39,139.92-5.19,48.63,31.54,18.9,122.41-4.84,152.43,32.26Z"/><path class="cls-3" d="M150.67,33.74c29.3,36.22,24.14,89-11.53,117.87s-88.38,22.9-117.69-13.32S-2.69,49.29,33,20.42,121.36-2.48,150.67,33.74Z"/><path class="cls-4" d="M150.13,34.45c29,35.87,24.07,88-11.08,116.46S51.86,173.33,22.84,137.45-1.22,49.43,33.92,21,121.11-1.42,150.13,34.45Z"/><path class="cls-5" d="M148.63,36.47c28.23,34.88,23.84,85.25-9.81,112.48S52.35,173.73,27.05,136.37,3.22,49,36.58,22.6,120.4,1.58,148.63,36.47Z"/><path class="cls-6" d="M147.13,38.48c27.43,33.9,23.61,82.49-8.54,108.5S52.84,174.13,31.27,135.29,7.66,48.6,39.23,24.2,119.7,4.58,147.13,38.48Z"/><path class="cls-7" d="M145.63,40.5C172.26,73.42,169,120.22,138.36,145s-85,29.52-102.88-10.81-23.37-86,6.41-108.4S119,7.59,145.63,40.5Z"/><path class="cls-8" d="M144.12,42.52c25.84,31.93,23.16,76.95-6,100.54S53.8,174.94,39.7,133.12,16.55,47.78,44.55,27.41,118.29,10.59,144.12,42.52Z"/><path class="cls-9" d="M142.62,44.54c25,30.94,22.92,74.18-4.72,96.55s-83.61,34.26-94-9.05S21,47.36,47.2,29,117.58,13.59,142.62,44.54Z"/><path class="cls-10" d="M141.12,46.56c24.24,30,22.69,71.41-3.46,92.57S54.77,175.75,48.13,131,25.43,47,49.86,30.62,116.88,16.6,141.12,46.56Z"/><path class="cls-11" d="M145.39,141.31a81.1,81.1,0,0,1-9.32,8.44A80.48,80.48,0,0,0,37.6,22.62l-.81.45a80.47,80.47,0,0,1,108.6,118.24Z"/><path class="cls-12" d="M16.41,116.55a76.61,76.61,0,0,1,7.87-76,76.62,76.62,0,0,0,125.33,88.14,76.61,76.61,0,0,1-133.2-12.16Z"/><path class="cls-13" d="M45.78,33.45h0l0,0-.06,0,0,0a66.35,66.35,0,0,0-15.11,92.77,65.09,65.09,0,0,0,11,11.81A66.27,66.27,0,0,1,45.1,33l0,0,.06,0,0,0a64.27,64.27,0,0,1,78.45,2.88,64.27,64.27,0,0,0-77.83-2.37Zm4.35,6.25a57,57,0,0,1,69,2A57,57,0,0,0,49.5,39.19l0,0a58.85,58.85,0,0,0-13.53,82.24,58,58,0,0,0,10.47,11.09A57.86,57.86,0,0,1,36.54,122,58.85,58.85,0,0,1,50.07,39.74l.06,0ZM116,45.93a52.42,52.42,0,0,1,9.92,11,53.73,53.73,0,0,1-13.12,73.23l0,0a51.81,51.81,0,0,1-63.07-1.63,51.83,51.83,0,0,0,63.69,2.15l.06,0a53.77,53.77,0,0,0,13.12-73.24A52.67,52.67,0,0,0,116,45.93ZM61.16,55.56a38.61,38.61,0,0,1,46.54,1.36,38.61,38.61,0,0,0-47.16-1.87l-.06,0a39.84,39.84,0,0,0-9.3,55.47,38.92,38.92,0,0,0,7.25,7.71,39,39,0,0,1-6.63-7.19,39.84,39.84,0,0,1,9.3-55.47l.06,0Zm42.3,6.82a32.37,32.37,0,0,1,5.85,6.51,32.88,32.88,0,0,1-7.85,45l0,0A31.9,31.9,0,0,1,62.73,113a31.89,31.89,0,0,0,37.9,2.39c.41-.27.82-.54,1.22-.83A33,33,0,0,0,114,98a32.12,32.12,0,0,0,1.06-4.3,32.6,32.6,0,0,0-11.61-31.27Zm-50,17.69A31,31,0,0,1,65.51,62.33l0-.07a29.72,29.72,0,0,1,4.13-2.48,30.86,30.86,0,0,1,33.08,3.43,30.78,30.78,0,0,0-37.63-1.56l0,0,0,.07,0,0a31.72,31.72,0,0,0-7.49,44.22,31,31,0,0,0,5.91,6.28,31.43,31.43,0,0,1-5.29-5.77A31.84,31.84,0,0,1,52.8,82.9c.16-1,.37-1.9.62-2.83ZM60,94.92a24.69,24.69,0,0,1,9.19-27.25,23.55,23.55,0,0,1,15.94-4.3,25.34,25.34,0,0,1,2.74.35,24.16,24.16,0,0,1,10.8,4.86A24.33,24.33,0,0,0,69,67.24l-.06.05A25.15,25.15,0,0,0,63,102.06a24.15,24.15,0,0,0,4.69,5A24.45,24.45,0,0,1,60,94.92ZM70.76,98c-.25-.31-.49-.62-.72-.95a16.25,16.25,0,0,1,3.9-22.59,15.77,15.77,0,0,1,16.55-1.08,16,16,0,0,1,2.91,1.8,15.86,15.86,0,0,0-19.51-.92l-.06,0A16.67,16.67,0,0,0,67.13,85,16.41,16.41,0,0,0,69.9,97.15a16.15,16.15,0,0,0,3.26,3.43A16,16,0,0,1,70.76,98Zm53.48-63a65.78,65.78,0,0,1,12.7,14.17l0,0,0,0a67.56,67.56,0,0,1-16.67,91.83l-.06,0a65.07,65.07,0,0,1-79.28-2.14,65.07,65.07,0,0,0,79.91,2.66l0,0a67.58,67.58,0,0,0,16.67-91.84l0,0,0,0a65.6,65.6,0,0,0-13.32-14.68Z"/><path class="cls-14" d="M60.26,153.47a1,1,0,1,1-1.43.07A1,1,0,0,1,60.26,153.47Z"/><path class="cls-15" d="M136.17,65.46c-.19-.71-1.47-2.09-2.94-.33-5.16,6.2-14.78,18.92-39.92,25.11-24.75,6.09-34.84,19.45-35.8,17.94C56.42,106.45,62.92,92.79,89,84.5c25.46-8.1,35.4-19.21,40.4-25,1.87-2.17.95-3.57.41-4-11.92-10-36.34-7.89-58.48,6.08-25,15.8-37.7,40.77-28.25,55.77s37.45,14.33,62.51-1.48C127.8,101.8,140.27,80.55,136.17,65.46Z"/></svg>