<svg id="圖層_1" data-name="圖層 1" xmlns="http://www.w3.org/2000/svg" viewBox="0 0 172.81 172.84"><defs><style>.cls-1{fill:#d7e3eb;}.cls-1,.cls-10,.cls-11,.cls-12,.cls-13,.cls-14,.cls-15,.cls-16,.cls-2,.cls-3,.cls-4,.cls-5,.cls-6,.cls-7,.cls-8,.cls-9{fill-rule:evenodd;}.cls-2{fill:#231815;}.cls-3{fill:#b78460;}.cls-4{fill:#af734e;}.cls-5{fill:#aa6540;}.cls-6{fill:#a35530;}.cls-7{fill:#9e4722;}.cls-8{fill:#983716;}.cls-9{fill:#912508;}.cls-10{fill:#8b0d00;}.cls-11{fill:#860000;}.cls-12{fill:#640000;}.cls-13{fill:#cb997c;}.cls-14{fill:#b86c30;}.cls-15{fill:#fdefd9;}.cls-16{fill:#5f3514;}</style></defs><title>step</title><path class="cls-1" d="M146,146.27a84.27,84.27,0,0,1-10.06,8.2A83,83,0,0,0,40.8,18.69l-.86.42a83.52,83.52,0,0,1,108.66,10A82.59,82.59,0,0,1,146,146.27Z"/><path class="cls-2" d="M155.83,36c28.4,38.75,20.35,92.76-18,120.61S45.39,175.61,17,136.86-3.37,44.11,35,16.25,127.43-2.77,155.83,36Z"/><path class="cls-3" d="M155.25,36.69c28.13,38.37,20.31,91.74-17.45,119.18s-91.21,18.58-119.34-19.8S-1.86,44.32,35.91,16.88,127.11-1.69,155.25,36.69Z"/><path class="cls-4" d="M152.5,39.54c26.81,36.56,19.63,87.24-16,113.15s-88,19.36-113-18.54S3.89,45.7,39.37,20.24,125.7,3,152.5,39.54Z"/><path class="cls-5" d="M149.76,42.39c25.48,34.76,18.93,82.72-14.64,107.11S50.39,169.66,28.44,132.23,9.64,47.08,42.83,23.6,124.28,7.63,149.76,42.39Z"/><path class="cls-6" d="M147,45.24c24.16,32.95,18.23,78.21-13.24,101.08s-81.49,21-100.34-16S15.39,48.46,46.29,27,122.87,12.29,147,45.24Z"/><path class="cls-7" d="M144.28,48.09c22.83,31.15,17.53,73.71-11.83,95s-78.25,21.75-94-14.75-17.29-78.54,11.33-98S121.45,17,144.28,48.09Z"/><path class="cls-8" d="M141.54,50.94c21.51,29.34,16.83,69.2-10.43,89s-75,22.54-87.68-13.49S26.9,51.23,53.21,33.69,120,21.61,141.54,50.94Z"/><path class="cls-9" d="M138.8,53.79c20.18,27.53,16.14,64.69-9,83S58,160.1,48.42,124.54,32.64,52.61,56.68,37.05,118.62,26.27,138.8,53.79Z"/><path class="cls-10" d="M136.06,56.64c18.85,25.72,15.44,60.18-7.63,76.94s-68.53,24.13-75-11S38.4,54,60.14,40.41,117.2,30.92,136.06,56.64Z"/><path class="cls-11" d="M133.32,59.5c17.53,23.91,14.74,55.66-6.23,70.89s-65.28,24.93-68.68-9.7S44.15,55.37,63.6,43.78,115.79,35.58,133.32,59.5Z"/><path class="cls-12" d="M49.51,28.59h0l0,0-.06,0,0,0A67.91,67.91,0,0,0,39.85,136a68.06,68.06,0,0,1,9-107.88l0,0,.06,0,0,0a66.65,66.65,0,0,1,80.89,7,66.67,66.67,0,0,0-80.27-6.44Zm81,5.56a67.73,67.73,0,0,1,12.39,15.22l0,0,0,0a69.38,69.38,0,0,1-22,93.57l-.06,0a67.52,67.52,0,0,1-81.78-6.27,67.52,67.52,0,0,0,82.4,6.83l.06,0a69.38,69.38,0,0,0,21.95-93.57l0,0,0,0a67.57,67.57,0,0,0-13-15.78ZM92.54,78.57a10.7,10.7,0,0,1-1.6,16.54l-.07,0a10.57,10.57,0,0,1-12.49-.75l.1.09a10.63,10.63,0,0,0,12.41.69,10.47,10.47,0,0,0,4.62-6.61,10.64,10.64,0,0,0-1.37-8,11.11,11.11,0,0,0-1.54-2l-.06-.05ZM77.28,95a11.18,11.18,0,0,1-1.93-2.32,11.51,11.51,0,0,1-1.5-8.88,12.09,12.09,0,0,1,5.22-7.44A11.43,11.43,0,0,1,92.93,77.4c.14.1.27.21.4.32a12,12,0,0,0-5.48-3,11.44,11.44,0,0,0-8.76,1.53l-.06,0a12.14,12.14,0,0,0-5.25,7.47,11.79,11.79,0,0,0,1.54,8.93,12,12,0,0,0,2.34,2.7l-.38-.4ZM94,76.87a13.28,13.28,0,0,1,2,2.49,13.09,13.09,0,0,1,1.65,9.69,12.92,12.92,0,0,1-5.55,8l-.06,0a12.84,12.84,0,0,1-15.18-1,13,13,0,0,0,1.2,1,13,13,0,0,0,19.68-8.09,13.18,13.18,0,0,0-1.65-9.77A14.24,14.24,0,0,0,95.25,78,14.77,14.77,0,0,0,94,76.87ZM74.79,95.76a15.51,15.51,0,0,1-1.41-1.87,14.19,14.19,0,0,1-1.87-10.68,14.48,14.48,0,0,1,6.31-8.89,13.63,13.63,0,0,1,10.5-1.85,13.82,13.82,0,0,1,5.09,2.31,12.65,12.65,0,0,1,1.52,1.12,14,14,0,0,0-17.12-1.73l-.06,0a14.29,14.29,0,0,0-1.69,22.94,14.06,14.06,0,0,1-1.27-1.39ZM97.32,73.13a18.89,18.89,0,0,1,2.91,3.56,18,18,0,0,1,2.21,13.44,17.56,17.56,0,0,1-7.69,11.06l-.06,0a17.61,17.61,0,0,1-21.15-1.44,17.51,17.51,0,0,0,4.19,3A17.9,17.9,0,0,0,97.32,73.13ZM61.06,92.53A25.38,25.38,0,0,1,72,65a26.09,26.09,0,0,1,19.5-3.1,24.93,24.93,0,0,1,10.9,5.54,25.26,25.26,0,0,0-30.59-2.89l-.06,0A25.85,25.85,0,0,0,63.79,100a25,25,0,0,0,4.59,5.35,24.39,24.39,0,0,1-4-4.79,25.27,25.27,0,0,1-3.35-8ZM55,76.92A32,32,0,0,1,68.4,59.3l0-.07a30.94,30.94,0,0,1,4.39-2.34,32,32,0,0,1,34,5.23A31.93,31.93,0,0,0,68,58.58l0,0,0,.07,0,0a32.59,32.59,0,0,0-10,45.08,32.2,32.2,0,0,0,5.79,6.77,31.9,31.9,0,0,1-5.17-6.21A32.68,32.68,0,0,1,54.21,79.8c.22-1,.49-1.93.79-2.88ZM107.59,61.3a33.73,33.73,0,0,1-4.71,52.87l-.06,0a33.12,33.12,0,0,1-39.9-2.94,33.11,33.11,0,0,0,39,4.41c.44-.26.87-.53,1.3-.8a34.05,34.05,0,0,0,13.42-16.47A33.17,33.17,0,0,0,118,94.05a33.58,33.58,0,0,0-4.06-25.2,33,33,0,0,0-6.33-7.55ZM60.28,45.77a47.27,47.27,0,0,1,56.79,4.5,47.27,47.27,0,0,0-57.41-5.06l-.06,0A48.16,48.16,0,0,0,45,112.07a47.4,47.4,0,0,0,8.33,9.74,47.21,47.21,0,0,1-7.71-9.18,48.16,48.16,0,0,1,14.6-66.82l.06,0Zm-3.07-4.9A52.82,52.82,0,0,1,97.75,34a52.19,52.19,0,0,1,23,11.9A52.29,52.29,0,0,0,97.13,33.43a52.82,52.82,0,0,0-40.54,6.88l-.06,0A54,54,0,0,0,40.2,115.13a53.11,53.11,0,0,0,9.17,10.7,53,53,0,0,1-8.55-10.14A54,54,0,0,1,57.14,40.91l.07,0ZM121.41,45a55.1,55.1,0,0,1-7.65,86.51l-.06,0a53.79,53.79,0,0,1-65.06-4.92,53.78,53.78,0,0,0,65.68,5.48l.06,0a54.89,54.89,0,0,0,7-87.07Z"/><path class="cls-13" d="M144.84,146.33a84.27,84.27,0,0,1-10.06,8.2,84.68,84.68,0,0,0,7.05-6,82.59,82.59,0,0,0,2.58-117.14A83.53,83.53,0,0,0,39.62,18.75l-.86.42a83.52,83.52,0,0,1,108.66,10A82.59,82.59,0,0,1,144.84,146.33Z"/><path class="cls-11" d="M6.54,79.87C7.33,163,91.71,186.51,147.29,139.22,100.65,192.53-2.06,165.66,6.54,79.87Z"/><path class="cls-14" d="M21.46,41C49,8,97.29-2.33,133.33,23.22c18.79,13.33,35.49,40.32,29.89,64.64-.23,1-.7,2.59-.94.61-2.77-23.27-11.61-43.88-30.71-58.42C102.25,7.72,62.05,9.81,33.23,32.1c-4.52,3.49-9,6.49-13.13,10.53C20.55,42.08,21,41.51,21.46,41Z"/><path class="cls-11" d="M98.11,53a5.71,5.71,0,1,1-8.21-1.56A5.89,5.89,0,0,1,98.11,53Z"/><path class="cls-15" d="M135.93,53.94l-38.16,12-1.53-6.37,38.16-12s4.43,1.54,1.53,6.37Z"/><polygon class="cls-16" points="111.7 61.63 93.51 67.34 91.98 60.97 110.17 55.27 111.7 61.63 111.7 61.63"/><path class="cls-15" d="M110.79,128.63,95.71,52.33H64.63l-12.8,76.44a2,2,0,0,0-.09.53c0,3.93,13.25,7.13,29.6,7.13s29.59-3.2,29.59-7.13a1.75,1.75,0,0,0-.14-.67Z"/><polygon class="cls-15" points="61.3 42.32 64.63 52.33 95.71 52.33 99.74 42.32 61.3 42.32 61.3 42.32"/><path class="cls-16" d="M81.75,122.74a67.55,67.55,0,0,1-11.28-1,60.36,60.36,0,0,1-16.62-5l.52-3.12c.25.13,26.92,13,53.43-.11l.64,3.21a58.86,58.86,0,0,1-26.69,6Z"/><polygon class="cls-16" points="96.24 55.03 64.19 55.03 64.63 52.33 95.71 52.33 96.24 55.03 96.24 55.03"/><path class="cls-16" d="M99.74,42.32c0,1-8.61,1.83-19.22,1.83S61.3,43.33,61.3,42.32s8.6-1.81,19.22-1.81,19.22.81,19.22,1.81Z"/><path class="cls-16" d="M79.26,87.63c1.52-4.16.86-9.53.07-13.22-4.2.72-7.46,6.54-7.46,13.62,0,7.55,3.73,13.68,8.34,13.68a4.28,4.28,0,0,0,.72,0c-1.46-3.37-3.41-9.31-1.67-14Z"/><path class="cls-16" d="M88.56,88c0-7.57-3.73-13.7-8.35-13.7H80c1.4,4.85,2,11.55.6,13.65s.09,9.42,1,13.54c4-1.07,7-6.71,7-13.5Z"/></svg>