<svg id="圖層_1" data-name="圖層 1" xmlns="http://www.w3.org/2000/svg" viewBox="0 0 333.8 333.81"><defs><style>.cls-1{fill:#ffffea;}.cls-2{fill:#825035;}.cls-3,.cls-4{font-size:18.73px;}.cls-3,.cls-6{fill:#7f4f21;}.cls-3,.cls-4,.cls-5,.cls-6{font-family:NotoSansCJKtc-Thin-B5pc-H, Noto Sans CJK TC;}.cls-4,.cls-5{fill:#fff;}.cls-5,.cls-6{font-size:19.69px;}</style></defs><title>coffee-</title><path class="cls-1" d="M5.67,123.7a167.27,167.27,0,0,1,118-118l0,.06,13.92,52a113.33,113.33,0,0,0-80,80l-52-13.92Z"/><path class="cls-1" d="M5.67,123.7l0,0,52,13.92A112.93,112.93,0,0,0,87,246.83L48.91,284.9A166.72,166.72,0,0,1,5.67,123.7Z"/><path class="cls-1" d="M123.72,5.73l0-.06A166.73,166.73,0,0,1,284.89,48.91L246.83,87A112.92,112.92,0,0,0,137.64,57.68Z"/><path class="cls-1" d="M246.83,87l38.06-38.06A166.74,166.74,0,0,1,328.14,210.1h-.06l-51.95-13.92A113,113,0,0,0,246.83,87Z"/><path class="cls-2" d="M48.91,284.9,87,246.83a112.9,112.9,0,0,0,109.19,29.29l13.92,52v.06A166.73,166.73,0,0,1,48.91,284.9Z"/><path class="cls-2" d="M210.09,328.08l-13.92-52a113.34,113.34,0,0,0,80-80l51.95,13.92h.06a167.34,167.34,0,0,1-118,118Z"/><text class="cls-3" transform="translate(125.77 51.64) rotate(-15.8)">m</text><text class="cls-3" transform="matrix(0.98, -0.19, 0.19, 0.98, 141.6, 47.41)">i</text><text class="cls-3" transform="translate(145.98 46.56) rotate(-8.82)">l</text><text class="cls-3" transform="matrix(1, -0.1, 0.1, 1, 150.5, 45.79)">k</text><text class="cls-3" transform="translate(159.63 44.97) rotate(-2.48)">	</text><text class="cls-3" transform="matrix(1, -0.04, 0.04, 1, 160.05, 44.94)">	</text><text class="cls-3" transform="matrix(0.99, 0.1, -0.1, 0.99, 177.46, 45.2)">	</text><text class="cls-3" transform="matrix(0.97, 0.24, -0.24, 0.97, 194.66, 47.95)">	</text><text class="cls-3" transform="translate(211.29 53.12) rotate(22.29)">	</text><text class="cls-3" transform="translate(227.04 60.6) rotate(30.42)">	</text><text class="cls-3" transform="translate(241.55 70.21) rotate(38.57)">	</text><text class="cls-3" transform="translate(254.56 81.81) rotate(46.77)">	</text><text class="cls-3" transform="matrix(0.57, 0.82, -0.82, 0.57, 265.78, 95.14)">	</text><text class="cls-3" transform="translate(274.96 109.92) rotate(63.22)">	</text><text class="cls-3" transform="translate(281.96 125.86) rotate(71.37)">	</text><text class="cls-3" transform="translate(286.64 142.63) rotate(79.42)">	</text><text class="cls-3" transform="translate(288.89 159.91) rotate(87.66)">	</text><text class="cls-3" transform="translate(288.65 177.32) rotate(95.89)">	</text><text class="cls-4" transform="matrix(-0.24, 0.97, -0.97, -0.24, 285.92, 194.53)">	</text><text class="cls-4" transform="translate(280.77 211.16) rotate(112.22)">	</text><text class="cls-4" transform="matrix(-0.51, 0.86, -0.86, -0.51, 273.31, 226.92)"> </text><text class="cls-4" transform="translate(271.3 230.36) rotate(122.22)"> </text><text class="cls-4" transform="translate(269.15 233.78) rotate(124.1)"> </text><text class="cls-4" transform="translate(266.9 237.11) rotate(125.98)"> </text><text class="cls-4" transform="translate(264.54 240.36) rotate(127.87)"> </text><text class="cls-4" transform="matrix(-0.64, 0.77, -0.77, -0.64, 262.08, 243.52)"> </text><text class="cls-4" transform="matrix(-0.66, 0.75, -0.75, -0.66, 259.52, 246.61)"> </text><text class="cls-5" transform="translate(256.99 249.62) rotate(135.11)">E</text><text class="cls-5" transform="translate(249.3 257.23) rotate(139.65)">s</text><text class="cls-5" transform="translate(242.91 262.75) rotate(144.36)">p</text><text class="cls-5" transform="matrix(-0.85, 0.52, -0.52, -0.85, 233.53, 269.37)">r</text><text class="cls-5" transform="translate(228.24 272.69) rotate(152.4)">e</text><text class="cls-5" transform="translate(219.23 277.38) rotate(156.75)">s</text><text class="cls-5" transform="translate(211.54 280.75) rotate(161.37)">s</text><text class="cls-5" transform="matrix(-0.97, 0.26, -0.26, -0.97, 203.53, 283.57)">o</text><text class="cls-5" transform="matrix(-0.98, 0.19, -0.19, -0.98, 192.54, 286.37)"> </text><text class="cls-5" transform="translate(188.48 287.25) rotate(172.06)">c</text><text class="cls-5" transform="translate(179.51 288.56) rotate(176.77)">o</text><text class="cls-5" transform="matrix(-1, -0.04, 0.04, -1, 168.24, 289.2)">ff</text><text class="cls-5" transform="translate(157.6 288.83) rotate(-173.15)">e</text><text class="cls-5" transform="translate(147.56 287.64) rotate(-168.4)">e</text><text class="cls-3" transform="translate(137.57 285.5) rotate(-165.08)">	</text><text class="cls-3" transform="translate(122.81 280.82) rotate(-157.84)">	</text><text class="cls-5" transform="matrix(-0.84, -0.54, 0.54, -0.84, 464.69, 467.35)">E</text><text class="cls-5" transform="translate(455.58 461.45) rotate(-142.99)">s</text><text class="cls-5" transform="translate(448.82 456.44) rotate(-138.55)">p</text><text class="cls-5" transform="matrix(-0.7, -0.71, 0.71, -0.7, 440.27, 448.78)">r</text><text class="cls-5" transform="translate(435.83 444.37) rotate(-130.88)">e</text><text class="cls-5" transform="matrix(-0.6, -0.8, 0.8, -0.6, 429.23, 436.71)">s</text><text class="cls-5" transform="matrix(-0.54, -0.84, 0.84, -0.54, 424.15, 429.91)">s</text><text class="cls-5" transform="matrix(-0.48, -0.88, 0.88, -0.48, 419.52, 422.88)">o</text><text class="cls-5" transform="matrix(-0.42, -0.91, 0.91, -0.42, 414.19, 412.86)"> </text><text class="cls-5" transform="translate(412.38 409.16) rotate(-112.04)">c</text><text class="cls-5" transform="matrix(-0.3, -0.95, 0.95, -0.3, 408.91, 400.74)">o</text><text class="cls-5" transform="translate(405.51 390.04) rotate(-102.7)">ff</text><text class="cls-5" transform="translate(403.16 379.61) rotate(-98.13)">e</text><text class="cls-5" transform="matrix(-0.06, -1, 1, -0.06, 401.72, 369.62)">e</text><text class="cls-5" transform="translate(401.15 359.45) rotate(-90.45)">	</text><text class="cls-5" transform="translate(401.75 343.53) rotate(-83.32)">	</text><text class="cls-5" transform="matrix(0.26, -0.97, 0.97, 0.26, 404.87, 325.48)">	</text><text class="cls-5" transform="translate(410.55 308.09) rotate(-66.87)">	</text><text class="cls-5" transform="translate(418.64 291.67) rotate(-58.71)">	</text><text class="cls-5" transform="translate(428.95 276.55) rotate(-50.66)">	</text><text class="cls-5" transform="translate(441.32 263.04) rotate(-42.43)">	</text><text class="cls-6" transform="matrix(0.83, -0.56, 0.56, 0.83, 455.5, 251.44)">	</text><text class="cls-6" transform="translate(471.14 242.01) rotate(-26.03)">	</text><text class="cls-6" transform="translate(488 234.88) rotate(-17.89)">	</text><text class="cls-6" transform="translate(505.51 229.96) rotate(-6.91)">m</text><text class="cls-6" transform="translate(522.62 228.15) rotate(-2.07)">i</text><text class="cls-6" transform="translate(527.32 227.98) rotate(0.07)">l</text><text class="cls-6" transform="matrix(1, 0.06, -0.06, 1, 532.14, 227.91)">k</text><text class="cls-6" transform="translate(541.78 228.53) rotate(6.4)">	</text><text class="cls-6" transform="matrix(0.99, 0.11, -0.11, 0.99, 542.22, 228.58)">	</text><text class="cls-6" transform="matrix(0.97, 0.26, -0.26, 0.97, 560.27, 231.67)">	</text><text class="cls-6" transform="matrix(0.92, 0.39, -0.39, 0.92, 577.67, 237.32)">	</text><text class="cls-6" transform="translate(594.1 245.38) rotate(31.29)">	</text><text class="cls-6" transform="matrix(0.77, 0.63, -0.63, 0.77, 609.24, 255.68)">	</text><text class="cls-6" transform="matrix(0.68, 0.74, -0.74, 0.68, 622.77, 268.03)">	</text><text class="cls-6" transform="matrix(0.56, 0.83, -0.83, 0.56, 634.39, 282.19)">	</text><text class="cls-6" transform="translate(643.85 297.82) rotate(63.88)">	</text><text class="cls-6" transform="translate(651 314.67) rotate(72.03)">	</text><text class="cls-6" transform="matrix(0.17, 0.99, -0.99, 0.17, 655.71, 332.39)">	</text><text class="cls-6" transform="translate(657.85 350.59) rotate(88.32)">	</text><text class="cls-6" transform="matrix(-0.11, 0.99, -0.99, -0.11, 657.39, 368.88)">	</text><text class="cls-6" transform="matrix(-0.3, 0.95, -0.95, -0.3, 654.63, 386.84)">m</text><text class="cls-6" transform="translate(649.18 403.15) rotate(112.49)">i</text><text class="cls-6" transform="translate(647.39 407.49) rotate(114.63)">l</text><text class="cls-6" transform="matrix(-0.47, 0.88, -0.88, -0.47, 645.45, 411.89)">k</text><text class="cls-6" transform="translate(640.92 420.38) rotate(121.29)"> </text><text class="cls-6" transform="translate(638.75 424) rotate(122.94)">f</text><text class="cls-6" transform="translate(636.06 428.34) rotate(126.54)">o</text><text class="cls-6" transform="matrix(-0.66, 0.75, -0.75, -0.66, 629.59, 437.09)">a</text><text class="cls-6" transform="matrix(-0.74, 0.68, -0.68, -0.74, 623.01, 444.92)">m</text></svg>