<svg id="圖層_1" data-name="圖層 1" xmlns="http://www.w3.org/2000/svg" viewBox="0 0 333.73 333.78"><defs><style>.cls-1{fill:#825035;}.cls-2{fill:#ffffea;}.cls-3,.cls-4{font-size:18.73px;font-family:NotoSansCJKtc-Thin-B5pc-H, Noto Sans CJK TC;}.cls-3{fill:#fff;}.cls-4{fill:#7f4f21;}</style></defs><title>coffee-</title><path class="cls-1" d="M333.72,166.86a166.91,166.91,0,0,1-8.11,51.59l-.05,0-51.15-16.62A113.31,113.31,0,0,0,233.32,75.39l31.62-43.52,0,0A166.59,166.59,0,0,1,333.72,166.86Z"/><path class="cls-1" d="M325.56,218.43l.05,0A166.81,166.81,0,0,1,166.86,333.73V279.9a113,113,0,0,0,107.55-78.09Z"/><path class="cls-1" d="M265,31.83l0,0L233.32,75.39a113.21,113.21,0,0,0-132.92,0L68.78,31.87l0,0a167.12,167.12,0,0,1,196.22,0Z"/><path class="cls-1" d="M166.86,279.9v53.83A166.81,166.81,0,0,1,8.11,218.45l.06,0,51.15-16.62A113,113,0,0,0,166.86,279.9Z"/><path class="cls-2" d="M68.78,31.87,100.4,75.39A113.32,113.32,0,0,0,59.32,201.81L8.17,218.43l-.06,0A167.25,167.25,0,0,1,68.75,31.83Z"/><text class="cls-3" transform="translate(228.82 272.17) rotate(151.95)">E</text><text class="cls-3" transform="translate(219.7 276.99) rotate(156.22)">s</text><text class="cls-3" transform="translate(212.41 280.28) rotate(160.66)">p</text><text class="cls-3" transform="translate(202.07 283.82) rotate(164.69)">r</text><text class="cls-3" transform="translate(196.35 285.46) rotate(168.33)">e</text><text class="cls-3" transform="translate(186.93 287.39) rotate(172.49)">s</text><text class="cls-3" transform="translate(178.93 288.45) rotate(176.29)">s</text><text class="cls-3" transform="matrix(-1, -0.01, 0.01, -1, 170.93, 289.03)">o</text><text class="cls-3" transform="translate(160.15 288.8) rotate(-175.85)"> </text><text class="cls-3" transform="translate(156.18 288.58) rotate(-172.81)">c</text><text class="cls-3" transform="translate(147.63 287.56) rotate(-168.38)">o</text><text class="cls-3" transform="translate(137.13 285.4) rotate(-163.47)">ff</text><text class="cls-3" transform="translate(127.42 282.53) rotate(-158.92)">e</text><text class="cls-3" transform="translate(118.42 279.07) rotate(-154.41)">e</text><text class="cls-3" transform="translate(109.72 274.82) rotate(-151.22)">	</text><text class="cls-3" transform="translate(96.78 266.93) rotate(-144.08)">	</text><text class="cls-3" transform="translate(83.27 255.97) rotate(-135.86)">	</text><text class="cls-3" transform="matrix(-0.61, -0.79, 0.79, -0.61, 71.45, 243.16)">	</text><text class="cls-3" transform="translate(61.58 228.82) rotate(-119.48)">	</text><text class="cls-3" transform="matrix(-0.37, -0.93, 0.93, -0.37, 53.82, 213.23)">	</text><text class="cls-3" transform="matrix(-0.23, -0.97, 0.97, -0.23, 48.35, 196.69)">	</text><text class="cls-4" transform="translate(45.31 179.54) rotate(-94.97)">	</text><text class="cls-4" transform="translate(44.75 162.13) rotate(-86.78)">	</text><text class="cls-4" transform="matrix(0.25, -0.97, 0.97, 0.25, 46.38, 144.94)">m</text><text class="cls-4" transform="translate(50.64 129.12) rotate(-70.97)">i</text><text class="cls-4" transform="matrix(0.36, -0.93, 0.93, 0.36, 52.1, 124.87)">l</text><text class="cls-4" transform="matrix(0.41, -0.91, 0.91, 0.41, 53.69, 120.56)">k</text><text class="cls-4" transform="translate(57.52 112.26) rotate(-62.56)">	</text><text class="cls-4" transform="translate(57.71 111.89) rotate(-62.37)">	</text><text class="cls-4" transform="matrix(0.59, -0.81, 0.81, 0.59, 66.64, 96.9)">	</text><text class="cls-4" transform="translate(77.6 83.36) rotate(-45.91)">	</text><text class="cls-4" transform="translate(90.37 71.54) rotate(-37.7)">	</text><text class="cls-4" transform="translate(104.7 61.65) rotate(-29.49)">	</text><text class="cls-4" transform="matrix(0.93, -0.37, 0.37, 0.93, 120.28, 53.88)">	</text><text class="cls-4" transform="translate(136.82 48.39) rotate(-13.27)">	</text><text class="cls-4" transform="translate(153.96 45.33) rotate(-5.04)">	</text><text class="cls-4" transform="translate(171.37 44.75) rotate(3.16)">	</text><text class="cls-4" transform="matrix(0.98, 0.2, -0.2, 0.98, 188.69, 46.65)">	</text></svg>