<svg id="圖層_1" data-name="圖層 1" xmlns="http://www.w3.org/2000/svg" viewBox="0 0 333.47 333.16"><defs><style>.cls-1{fill:none;}.cls-2{fill:#825035;}.cls-3{font-size:19.25px;fill:#fff;font-family:NotoSansCJKtc-Thin-B5pc-H, Noto Sans CJK TC;}</style></defs><title>coffee-</title><path class="cls-1" d="M166.86,333.16H0V166.3A166.76,166.76,0,0,0,166.86,333.16Z"/><path class="cls-1" d="M0,166.3V-.56H166.87A166.75,166.75,0,0,0,0,166.3Z"/><path class="cls-1" d="M166.87,279.33v53.83h0V279.33A112.93,112.93,0,1,1,254.33,238,113,113,0,0,1,166.86,279.33Z"/><path class="cls-2" d="M333.73,166.3A166.77,166.77,0,0,1,166.87,333.16V279.33a113.07,113.07,0,1,0-113-113,112.76,112.76,0,0,0,113,113v53.83A166.91,166.91,0,1,1,333.73,166.3Z"/><path class="cls-1" d="M166.87,279.33v53.83h0V279.33A112.93,112.93,0,1,1,254.33,238,113,113,0,0,1,166.86,279.33Z"/><text class="cls-3" transform="matrix(0.89, -0.46, 0.46, 0.89, 104.12, 57.44)">E</text><text class="cls-3" transform="matrix(0.92, -0.39, 0.39, 0.92, 113.54, 52.57)">s</text><text class="cls-3" transform="translate(121.07 49.26) rotate(-18.82)">p</text><text class="cls-3" transform="matrix(0.97, -0.26, 0.26, 0.97, 131.73, 45.71)">r</text><text class="cls-3" transform="matrix(0.98, -0.19, 0.19, 0.98, 137.57, 44.1)">e</text><text class="cls-3" transform="translate(147.32 42.19) rotate(-6.98)">s</text><text class="cls-3" transform="translate(155.51 41.18) rotate(-3.2)">s</text><text class="cls-3" transform="translate(163.73 40.66) rotate(1.2)">o</text><text class="cls-3" transform="translate(174.81 40.99) rotate(4.65)"> </text><text class="cls-3" transform="matrix(0.99, 0.13, -0.13, 0.99, 178.84, 41.25)">c</text><text class="cls-3" transform="translate(187.67 42.38) rotate(12.12)">o</text><text class="cls-3" transform="translate(198.4 44.68) rotate(17.01)">ff</text><text class="cls-3" transform="translate(208.35 47.72) rotate(21.56)">e</text><text class="cls-3" transform="translate(217.57 51.35) rotate(26.07)">e</text></svg>