<svg id="圖層_1" data-name="圖層 1" xmlns="http://www.w3.org/2000/svg" viewBox="0 0 333.73 333.78"><defs><style>.cls-1{fill:#4c2a1a;}.cls-2{fill:#825035;}.cls-3{fill:#f5f2ea;}.cls-4{fill:#ffffea;}.cls-5,.cls-7{font-size:18.73px;}.cls-5{fill:#fff;}.cls-5,.cls-6,.cls-7{font-family:NotoSansCJKtc-Thin-B5pc-H, Noto Sans CJK TC;}.cls-6{font-size:19.69px;}.cls-6,.cls-7{fill:#7f4f21;}</style></defs><title>coffee-</title><path class="cls-1" d="M167.16,333.31a166.91,166.91,0,0,1-51.59-8.11l0-.06L132.21,274a113.32,113.32,0,0,0,126.42-41.08l43.52,31.61,0,0A166.57,166.57,0,0,1,167.16,333.31Z"/><path class="cls-2" d="M115.59,325.14l0,.06A166.82,166.82,0,0,1,.29,166.45H54.12A113,113,0,0,0,132.21,274Z"/><path class="cls-1" d="M302.19,264.55l0,0-43.52-31.61a113.23,113.23,0,0,0,0-132.93l43.52-31.61,0,0a167.1,167.1,0,0,1,0,196.21Z"/><path class="cls-3" d="M54.12,166.45H.29A166.82,166.82,0,0,1,115.57,7.69l0,.06L132.21,58.9A113,113,0,0,0,54.12,166.45Z"/><path class="cls-4" d="M302.15,68.37,258.63,100A113.32,113.32,0,0,0,132.21,58.9L115.59,7.75l0-.06A167.24,167.24,0,0,1,302.19,68.34Z"/><text class="cls-5" transform="translate(118.88 278.74) rotate(-154.31)">E</text><text class="cls-5" transform="matrix(-0.87, -0.5, 0.5, -0.87, 109.6, 274.24)">s</text><text class="cls-5" transform="translate(102.63 270.3) rotate(-145.6)">p</text><text class="cls-5" transform="matrix(-0.78, -0.62, 0.62, -0.78, 93.66, 264.06)">r</text><text class="cls-5" transform="translate(88.96 260.42) rotate(-137.93)">e</text><text class="cls-5" transform="translate(81.83 253.96) rotate(-133.76)">s</text><text class="cls-5" transform="matrix(-0.64, -0.77, 0.77, -0.64, 76.24, 248.13)">s</text><text class="cls-5" transform="matrix(-0.58, -0.81, 0.81, -0.58, 71.05, 242.03)">o</text><text class="cls-5" transform="translate(64.86 233.2) rotate(-122.11)"> </text><text class="cls-5" transform="translate(62.68 229.87) rotate(-119.06)">c</text><text class="cls-5" transform="translate(58.45 222.38) rotate(-114.64)">o</text><text class="cls-5" transform="translate(53.98 212.63) rotate(-109.73)">ff</text><text class="cls-5" transform="translate(50.56 203.09) rotate(-105.17)">e</text><text class="cls-5" transform="translate(48.02 193.79) rotate(-100.67)">e</text><text class="cls-5" transform="matrix(-0.13, -0.99, 0.99, -0.13, 46.3, 184.26)">	</text><text class="cls-5" transform="translate(45.02 169.16) rotate(-90.34)"> </text><text class="cls-5" transform="matrix(0.03, -1, 1, 0.03, 44.99, 165.17)"> </text><text class="cls-5" transform="matrix(0.06, -1, 1, 0.06, 45.1, 161.16)"> </text><text class="cls-5" transform="matrix(0.09, -1, 1, 0.09, 45.34, 157.14)"> </text><text class="cls-5" transform="matrix(0.13, -0.99, 0.99, 0.13, 45.71, 153.17)">	</text><text class="cls-5" transform="matrix(0.14, -0.99, 0.99, 0.14, 45.87, 151.76)">	</text><text class="cls-6" transform="translate(48.88 134.74) rotate(-70.84)">m</text><text class="cls-6" transform="matrix(0.41, -0.91, 0.91, 0.41, 54.76, 118.6)">i</text><text class="cls-6" transform="translate(56.69 114.3) rotate(-63.61)">l</text><text class="cls-6" transform="translate(58.77 109.95) rotate(-60.24)">k</text><text class="cls-6" transform="matrix(0.54, -0.84, 0.84, 0.54, 63.63, 101.59)"> </text><text class="cls-6" transform="matrix(0.58, -0.82, 0.82, 0.58, 65.9, 98.08)">f</text><text class="cls-6" transform="matrix(0.63, -0.78, 0.78, 0.63, 68.73, 93.87)">o</text><text class="cls-6" transform="translate(75.59 85.41) rotate(-46.01)">a</text><text class="cls-6" transform="matrix(0.77, -0.64, 0.64, 0.77, 82.56, 77.89)">m</text><text class="cls-7" transform="translate(96 67.15) rotate(-34.61)"> </text><text class="cls-7" transform="matrix(0.84, -0.54, 0.54, 0.84, 99.33, 64.85)"> </text><text class="cls-7" transform="translate(102.69 62.69) rotate(-30.84)"> </text><text class="cls-7" transform="translate(106.15 60.62) rotate(-28.96)"> </text><text class="cls-7" transform="translate(109.64 58.68) rotate(-27.09)"> </text><text class="cls-7" transform="translate(113.23 56.85) rotate(-25.21)"> </text><text class="cls-7" transform="translate(116.87 55.13) rotate(-23.33)"> </text><text class="cls-7" transform="translate(120.53 53.55) rotate(-21.48)"> </text><text class="cls-7" transform="translate(124.28 52.07) rotate(-19.6)"> </text><text class="cls-7" transform="translate(128.08 50.72) rotate(-17.72)"> </text><text class="cls-7" transform="translate(131.87 49.5) rotate(-15.86)"> </text><text class="cls-7" transform="matrix(0.97, -0.24, 0.24, 0.97, 135.75, 48.4)"> </text><text class="cls-7" transform="matrix(0.98, -0.21, 0.21, 0.98, 139.67, 47.42)"> </text><text class="cls-7" transform="translate(143.58 46.58) rotate(-10.22)"> </text><text class="cls-7" transform="translate(147.52 45.87) rotate(-8.34)"> </text><text class="cls-7" transform="translate(151.48 45.29) rotate(-6.46)"> </text><text class="cls-7" transform="matrix(1, -0.08, 0.08, 1, 155.47, 44.84)"> </text><text class="cls-7" transform="translate(159.48 44.51) rotate(-2.68)"> </text><text class="cls-7" transform="translate(163.51 44.32) rotate(-0.78)"> </text><text class="cls-7" transform="translate(167.5 44.27) rotate(1.11)"> </text><text class="cls-7" transform="translate(171.53 44.34) rotate(3.01)">	</text><text class="cls-7" transform="translate(181.57 44.85) rotate(10.71)">m</text><text class="cls-7" transform="translate(197.63 48.14) rotate(15.59)">i</text><text class="cls-7" transform="translate(201.91 49.33) rotate(17.71)">l</text><text class="cls-7" transform="translate(206.29 50.65) rotate(20.91)">k</text><text class="cls-7" transform="translate(214.82 53.97) rotate(24.26)">	<tspan x="0.44" y="0">	</tspan></text><text class="cls-7" transform="translate(230.71 62.12) rotate(32.24)">	</text><text class="cls-7" transform="translate(244.92 72.21) rotate(40.48)">	</text><text class="cls-7" transform="translate(257.52 84.22) rotate(48.71)">	</text><text class="cls-7" transform="matrix(0.55, 0.84, -0.84, 0.55, 268.29, 97.92)">	</text><text class="cls-7" transform="matrix(0.42, 0.91, -0.91, 0.42, 276.99, 113.01)"> </text><text class="cls-7" transform="translate(278.69 116.66) rotate(66.92)"> </text><text class="cls-7" transform="matrix(0.36, 0.93, -0.93, 0.36, 280.26, 120.32)"> </text><text class="cls-7" transform="translate(281.72 124.08) rotate(70.66)"> </text><text class="cls-7" transform="translate(283.05 127.88) rotate(72.54)"> </text><text class="cls-7" transform="translate(284.25 131.68) rotate(74.4)">	</text><text class="cls-7" transform="translate(287.61 146.1) rotate(81.32)">	</text><text class="cls-7" transform="translate(289.29 163.44) rotate(89.53)">	</text><text class="cls-7" transform="matrix(-0.14, 0.99, -0.99, -0.14, 288.48, 180.84)">	</text><text class="cls-7" transform="translate(285.19 197.93) rotate(105.97)">	</text><text class="cls-5" transform="matrix(-0.43, 0.9, -0.9, -0.43, 279.58, 214.36)">c</text><text class="cls-5" transform="translate(275.8 222.49) rotate(119.74)">h</text><text class="cls-5" transform="translate(270.61 231.6) rotate(124.72)">o</text><text class="cls-5" transform="translate(264.48 240.4) rotate(129.36)">c</text><text class="cls-5" transform="translate(259.05 247.12) rotate(133.86)">o</text><text class="cls-5" transform="translate(251.51 254.83) rotate(137.49)">l</text><text class="cls-5" transform="translate(248.19 257.99) rotate(140.89)">a</text><text class="cls-5" transform="matrix(-0.81, 0.58, -0.58, -0.81, 240.68, 264.03)">t</text><text class="cls-5" transform="matrix(-0.85, 0.53, -0.53, -0.85, 235.97, 267.47)">e</text></svg>