<svg id="圖層_1" data-name="圖層 1" xmlns="http://www.w3.org/2000/svg" viewBox="0 0 332.77 334.78"><defs><style>.cls-1{fill:none;}.cls-2{fill:#994e3d;}.cls-3{fill:#f5f2ea;}.cls-4{fill:#ffffea;}.cls-5{fill:#825035;}.cls-6,.cls-7{font-size:19.69px;font-family:NotoSansCJKtc-Thin-B5pc-H, Noto Sans CJK TC;}.cls-6{fill:#fff;}.cls-7{fill:#7f4f21;}</style></defs><title>coffee-</title><path class="cls-1" d="M279.34,167.41a113,113,0,1,0-113,113A112.55,112.55,0,0,0,279.34,167.41Z"/><path class="cls-2" d="M166.3.55h0Z"/><path class="cls-2" d="M166.3,334.28h0Z"/><path class="cls-2" d="M166.23,334.28h0Z"/><path class="cls-1" d="M279.34,167.41a113,113,0,1,0-113,113A112.55,112.55,0,0,0,279.34,167.41Z"/><path class="cls-1" d="M279.34,167.41a113,113,0,1,0-113,113A112.55,112.55,0,0,0,279.34,167.41Z"/><path class="cls-3" d="M333.16,167.21v.41A166.77,166.77,0,0,1,166.37,334.28h-.07V280.45a113.1,113.1,0,0,0,97.93-169.58L310.81,84l.05,0A166.1,166.1,0,0,1,333.16,167.21Z"/><path class="cls-4" d="M310.86,84l-.05,0-46.58,26.89a113.12,113.12,0,0,0-195.85,0L21.8,84l-.05,0A166.71,166.71,0,0,1,166.26.55h.08A166.74,166.74,0,0,1,310.86,84Z"/><path class="cls-5" d="M166.3,280.45v53.83h-.07A167,167,0,0,1,21.75,84l.05,0,46.58,26.89A113.1,113.1,0,0,0,166.3,280.45Z"/><text class="cls-6" transform="matrix(-0.84, -0.54, 0.54, -0.84, 101.52, 278.34)">E</text><text class="cls-6" transform="translate(92.42 272.44) rotate(-142.99)">s</text><text class="cls-6" transform="translate(85.66 267.43) rotate(-138.55)">p</text><text class="cls-6" transform="matrix(-0.7, -0.71, 0.71, -0.7, 77.1, 259.77)">r</text><text class="cls-6" transform="translate(72.67 255.36) rotate(-130.88)">e</text><text class="cls-6" transform="matrix(-0.6, -0.8, 0.8, -0.6, 66.06, 247.7)">s</text><text class="cls-6" transform="matrix(-0.54, -0.84, 0.84, -0.54, 60.98, 240.9)">s</text><text class="cls-6" transform="matrix(-0.48, -0.88, 0.88, -0.48, 56.35, 233.86)">o</text><text class="cls-6" transform="matrix(-0.42, -0.91, 0.91, -0.42, 51.03, 223.85)"> </text><text class="cls-6" transform="translate(49.21 220.14) rotate(-112.04)">c</text><text class="cls-6" transform="matrix(-0.3, -0.95, 0.95, -0.3, 45.74, 211.73)">o</text><text class="cls-6" transform="translate(42.34 201.02) rotate(-102.7)">ff</text><text class="cls-6" transform="translate(39.99 190.59) rotate(-98.13)">e</text><text class="cls-6" transform="matrix(-0.06, -1, 1, -0.06, 38.55, 180.6)">e</text><text class="cls-6" transform="translate(37.98 170.44) rotate(-90.45)">	</text><text class="cls-6" transform="translate(38.58 154.52) rotate(-83.32)">	</text><text class="cls-6" transform="matrix(0.26, -0.97, 0.97, 0.26, 41.71, 136.47)">	</text><text class="cls-6" transform="translate(47.38 119.07) rotate(-66.87)">	</text><text class="cls-6" transform="translate(55.47 102.65) rotate(-58.71)">	</text><text class="cls-6" transform="translate(65.79 87.54) rotate(-50.66)">	</text><text class="cls-6" transform="translate(78.15 74.02) rotate(-42.43)">	</text><text class="cls-7" transform="matrix(0.83, -0.56, 0.56, 0.83, 92.33, 62.43)">	</text><text class="cls-7" transform="translate(107.97 53) rotate(-26.03)">	</text><text class="cls-7" transform="translate(124.84 45.87) rotate(-17.89)">	</text><text class="cls-7" transform="translate(142.35 40.95) rotate(-6.91)">m</text><text class="cls-7" transform="translate(159.45 39.13) rotate(-2.07)">i</text><text class="cls-7" transform="translate(164.15 38.96) rotate(0.07)">l</text><text class="cls-7" transform="matrix(1, 0.06, -0.06, 1, 168.97, 38.89)">k</text><text class="cls-7" transform="translate(178.62 39.52) rotate(6.4)">	</text><text class="cls-7" transform="matrix(0.99, 0.11, -0.11, 0.99, 179.05, 39.56)">	</text><text class="cls-7" transform="matrix(0.97, 0.26, -0.26, 0.97, 197.1, 42.66)">	</text><text class="cls-7" transform="matrix(0.92, 0.39, -0.39, 0.92, 214.51, 48.31)">	</text><text class="cls-7" transform="translate(230.94 56.36) rotate(31.29)">	</text><text class="cls-7" transform="matrix(0.77, 0.63, -0.63, 0.77, 246.07, 66.66)">	</text><text class="cls-7" transform="matrix(0.68, 0.74, -0.74, 0.68, 259.61, 79.02)">	</text><text class="cls-7" transform="matrix(0.56, 0.83, -0.83, 0.56, 271.22, 93.17)">	</text><text class="cls-7" transform="translate(280.68 108.8) rotate(63.88)">	</text><text class="cls-7" transform="translate(287.83 125.66) rotate(72.03)">	</text><text class="cls-7" transform="matrix(0.17, 0.99, -0.99, 0.17, 292.54, 143.37)">	</text><text class="cls-7" transform="translate(294.68 161.57) rotate(88.32)">	</text><text class="cls-7" transform="matrix(-0.11, 0.99, -0.99, -0.11, 294.22, 179.86)">	</text><text class="cls-7" transform="matrix(-0.3, 0.95, -0.95, -0.3, 291.47, 197.82)">m</text><text class="cls-7" transform="translate(286.01 214.13) rotate(112.49)">i</text><text class="cls-7" transform="translate(284.22 218.48) rotate(114.63)">l</text><text class="cls-7" transform="matrix(-0.47, 0.88, -0.88, -0.47, 282.28, 222.87)">k</text><text class="cls-7" transform="translate(277.75 231.36) rotate(121.29)"> </text><text class="cls-7" transform="translate(275.58 234.98) rotate(122.94)">f</text><text class="cls-7" transform="translate(272.9 239.33) rotate(126.54)">o</text><text class="cls-7" transform="matrix(-0.66, 0.75, -0.75, -0.66, 266.42, 248.08)">a</text><text class="cls-7" transform="matrix(-0.74, 0.68, -0.68, -0.74, 259.84, 255.9)">m</text></svg>