<svg id="圖層_1" data-name="圖層 1" xmlns="http://www.w3.org/2000/svg" viewBox="0 0 333.73 333.78"><defs><style>.cls-1{fill:#825035;}.cls-2{fill:#bdccd4;}.cls-3{fill:none;}.cls-4{font-size:19.25px;fill:#fff;font-family:NotoSansCJKtc-Thin-B5pc-H, Noto Sans CJK TC;}</style></defs><title>coffee-</title><path class="cls-1" d="M245.87,314.16A166.76,166.76,0,0,1,19.94,246.05l47.43-25.46A113,113,0,1,0,207.17,61.45h0A113.07,113.07,0,0,0,67.36,220.59L19.93,246.05a166.92,166.92,0,1,1,225.94,68.11Z"/><path class="cls-1" d="M308.56,255A167.1,167.1,0,0,1,19.4,246l49.05-26.32a111.4,111.4,0,0,0,192.77,6L308.51,255Z"/><path class="cls-1" d="M308.56,255l-.05,0-47.29-29.3A111.41,111.41,0,0,0,170,55.71L171.72.1v0A167.12,167.12,0,0,1,308.56,255Z"/><path class="cls-2" d="M68.45,219.68,19.4,246A167.09,167.09,0,0,1,171.72.05V.1L170,55.71a111.39,111.39,0,0,0-101.54,164Z"/><rect class="cls-3" x="0.1" y="0.27" width="333.73" height="333.73" transform="translate(-59.19 98.83) rotate(-28.22)"/><rect class="cls-3" x="0.1" y="0.27" width="333.73" height="333.73" transform="translate(-59.19 98.83) rotate(-28.22)"/><text class="cls-4" transform="translate(233.21 60.38) rotate(34.25)">E</text><text class="cls-4" transform="translate(241.95 66.38) rotate(38.53)">s</text><text class="cls-4" transform="translate(248.43 71.45) rotate(42.96)">p</text><text class="cls-4" transform="matrix(0.68, 0.73, -0.73, 0.68, 256.6, 79.16)">r</text><text class="cls-4" transform="matrix(0.63, 0.77, -0.77, 0.63, 260.78, 83.54)">e</text><text class="cls-4" transform="translate(267.07 91.24) rotate(54.79)">s</text><text class="cls-4" transform="matrix(0.52, 0.85, -0.85, 0.52, 271.83, 97.97)">s</text><text class="cls-4" transform="matrix(0.45, 0.89, -0.89, 0.45, 276.18, 104.97)">o</text><text class="cls-4" transform="matrix(0.4, 0.92, -0.92, 0.4, 281.13, 114.89)"> </text><text class="cls-4" transform="translate(282.81 118.56) rotate(69.45)">c</text><text class="cls-4" transform="translate(285.99 126.87) rotate(73.9)">o</text><text class="cls-4" transform="translate(289.04 137.41) rotate(78.79)">ff</text><text class="cls-4" transform="translate(291.07 147.62) rotate(83.34)">e</text><text class="cls-4" transform="translate(292.22 157.46) rotate(87.85)">e</text><text class="cls-4" transform="translate(292.52 167.41) rotate(91.04)"> </text><text class="cls-4" transform="translate(292.45 171.53) rotate(92.92)"> </text><text class="cls-4" transform="translate(292.24 175.66) rotate(94.81)"> </text><text class="cls-4" transform="translate(291.9 179.74) rotate(96.69)"> </text><text class="cls-4" transform="matrix(-0.15, 0.99, -0.99, -0.15, 291.42, 183.86)"> </text><text class="cls-4" transform="matrix(-0.18, 0.98, -0.98, -0.18, 290.8, 187.92)"> </text><text class="cls-4" transform="translate(290.06 191.98) rotate(102.38)"> </text><text class="cls-4" transform="matrix(-0.25, 0.97, -0.97, -0.25, 289.17, 196.02)"> </text><text class="cls-4" transform="translate(288.16 200) rotate(106.17)"> </text><text class="cls-4" transform="translate(287.01 203.96) rotate(108.06)"> </text><text class="cls-4" transform="translate(285.73 207.9) rotate(109.97)"> </text><text class="cls-4" transform="translate(284.33 211.76) rotate(111.85)"> </text><text class="cls-4" transform="translate(282.79 215.6) rotate(113.74)"> </text><text class="cls-4" transform="translate(281.14 219.36) rotate(115.62)"> </text><text class="cls-4" transform="matrix(-0.46, 0.89, -0.89, -0.46, 279.35, 223.09)"> </text><text class="cls-4" transform="translate(277.46 226.74) rotate(119.35)"> </text><text class="cls-4" transform="translate(275.42 230.34) rotate(120.94)"> </text><text class="cls-4" transform="translate(273.31 233.86) rotate(123.05)"> </text><text class="cls-4" transform="translate(271.06 237.32) rotate(124.91)"> </text><text class="cls-4" transform="matrix(-0.6, 0.8, -0.8, -0.6, 268.68, 240.72)"> </text><text class="cls-4" transform="translate(266.21 244.03) rotate(128.66)"> </text><text class="cls-4" transform="translate(263.65 247.23) rotate(130.53)"> </text><text class="cls-4" transform="translate(260.97 250.37) rotate(132.42)"> </text><text class="cls-4" transform="translate(258.2 253.4) rotate(134.31)"> </text><text class="cls-4" transform="translate(255.32 256.36) rotate(136.21)"> </text><text class="cls-4" transform="translate(252.35 259.21) rotate(138.1)"> </text><text class="cls-4" transform="translate(249.26 261.99) rotate(140.01)"> </text><text class="cls-4" transform="translate(246.13 264.62) rotate(141.89)"> </text><text class="cls-4" transform="translate(242.89 267.16) rotate(143.78)"> </text><text class="cls-4" transform="matrix(-0.83, 0.56, -0.56, -0.83, 239.53, 269.62)"> </text><text class="cls-4" transform="translate(236.15 271.93) rotate(147.57)"> </text><text class="cls-4" transform="matrix(-0.86, 0.51, -0.51, -0.86, 232.66, 274.15)"> </text><text class="cls-4" transform="translate(229.1 276.25) rotate(151.36)"> </text><text class="cls-4" transform="matrix(-0.89, 0.45, -0.45, -0.89, 225.49, 278.22)"> </text><text class="cls-4" transform="matrix(-0.91, 0.42, -0.42, -0.91, 221.82, 280.08)"> </text><text class="cls-4" transform="translate(218.07 281.82) rotate(157)"> </text><text class="cls-4" transform="matrix(-0.93, 0.36, -0.36, -0.93, 214.27, 283.43)"> </text><text class="cls-4" transform="matrix(-0.94, 0.33, -0.33, -0.94, 210.45, 284.91)"> </text><text class="cls-4" transform="matrix(-0.95, 0.3, -0.3, -0.95, 206.54, 286.28)"> </text><text class="cls-4" transform="translate(202.58 287.52) rotate(164.5)"> </text><text class="cls-4" transform="matrix(-0.97, 0.24, -0.24, -0.97, 198.64, 288.62)"> </text><text class="cls-4" transform="matrix(-0.98, 0.2, -0.2, -0.98, 194.61, 289.6)"> </text><text class="cls-4" transform="translate(190.56 290.44) rotate(170.11)"> </text><text class="cls-4" transform="translate(186.52 291.15) rotate(171.97)"> </text><text class="cls-4" transform="translate(182.42 291.73) rotate(173.86)"> </text><text class="cls-4" transform="translate(178.34 292.17) rotate(175.72)"> </text><text class="cls-4" transform="translate(174.22 292.48) rotate(177.6)"> </text><text class="cls-4" transform="translate(170.09 292.65) rotate(179.48)"> </text><text class="cls-4" transform="translate(165.98 292.69) rotate(-178.64)"> </text><text class="cls-4" transform="translate(161.85 292.6) rotate(-176.75)"> </text><text class="cls-4" transform="matrix(-1, -0.09, 0.09, -1, 157.73, 292.36)"> </text><text class="cls-4" transform="translate(153.65 292) rotate(-172.99)"> </text><text class="cls-4" transform="translate(149.53 291.49) rotate(-171.08)"> </text><text class="cls-4" transform="translate(145.47 290.86) rotate(-169.19)"> </text><text class="cls-4" transform="translate(141.41 290.09) rotate(-167.29)"> </text><text class="cls-4" transform="translate(137.37 289.18) rotate(-165.39)"> </text><text class="cls-4" transform="translate(133.4 288.14) rotate(-163.5)"> </text><text class="cls-4" transform="translate(129.44 286.97) rotate(-161.6)"> </text><text class="cls-4" transform="translate(125.55 285.68) rotate(-159.72)"> </text><text class="cls-4" transform="translate(121.67 284.25) rotate(-157.82)"> </text><text class="cls-4" transform="translate(117.86 282.7) rotate(-155.94)"> </text><text class="cls-4" transform="translate(114.1 281.02) rotate(-154.07)"> </text><text class="cls-4" transform="translate(110.38 279.21) rotate(-152.19)"> </text><text class="cls-4" transform="translate(106.74 277.3) rotate(-150.33)"> </text><text class="cls-4" transform="matrix(-0.86, -0.51, 0.51, -0.86, 103.15, 275.23)"> </text><text class="cls-4" transform="matrix(-0.84, -0.55, 0.55, -0.84, 99.62, 273.09)"> </text><text class="cls-4" transform="matrix(-0.82, -0.58, 0.58, -0.82, 96.18, 270.82)"> </text><text class="cls-4" transform="translate(92.81 268.45) rotate(-142.9)"> </text><text class="cls-4" transform="translate(89.52 265.96) rotate(-141.02)"> </text><text class="cls-4" transform="translate(86.3 263.35) rotate(-139.13)"> </text><text class="cls-4" transform="matrix(-0.73, -0.68, 0.68, -0.73, 83.18, 260.66)"> </text><text class="cls-4" transform="matrix(-0.71, -0.7, 0.7, -0.71, 80.16, 257.87)"> </text><text class="cls-4" transform="matrix(-0.69, -0.73, 0.73, -0.69, 77.22, 254.97)"> </text><text class="cls-4" transform="matrix(-0.66, -0.75, 0.75, -0.66, 74.39, 251.99)"> </text><text class="cls-4" transform="translate(71.64 248.88) rotate(-129.66)"> </text><text class="cls-4" transform="translate(69.03 245.74) rotate(-127.78)"> </text><text class="cls-4" transform="translate(66.51 242.49) rotate(-125.89)"> </text><text class="cls-4" transform="translate(64.07 239.12) rotate(-123.98)"> </text><text class="cls-4" transform="matrix(-0.53, -0.85, 0.85, -0.53, 61.78, 235.73)"> </text><text class="cls-4" transform="matrix(-0.5, -0.86, 0.86, -0.5, 59.58, 232.22)"> </text><text class="cls-4" transform="translate(57.5 228.66) rotate(-118.32)"> </text><text class="cls-4" transform="translate(55.55 225.03) rotate(-116.44)"> </text><text class="cls-4" transform="translate(53.71 221.35) rotate(-114.56)"> </text><text class="cls-4" transform="translate(51.98 217.57) rotate(-112.67)"> </text><text class="cls-4" transform="translate(50.4 213.79) rotate(-110.81)"> </text><text class="cls-4" transform="translate(48.93 209.91) rotate(-108.92)"> </text><text class="cls-4" transform="translate(47.6 206.04) rotate(-107.06)"> </text><text class="cls-4" transform="translate(46.38 202.08) rotate(-105.18)"> </text><text class="cls-4" transform="translate(45.31 198.13) rotate(-103.32)"> </text><text class="cls-4" transform="matrix(-0.2, -0.98, 0.98, -0.2, 44.35, 194.1)"> </text><text class="cls-4" transform="translate(43.53 190.04) rotate(-99.57)"> </text><text class="cls-4" transform="translate(42.84 186) rotate(-97.71)"> </text><text class="cls-4" transform="matrix(-0.1, -0.99, 0.99, -0.1, 42.28, 181.89)"> </text><text class="cls-4" transform="matrix(-0.07, -1, 1, -0.07, 41.87, 177.81)"> </text><text class="cls-4" transform="translate(41.58 173.67) rotate(-92.07)"> </text><text class="cls-4" transform="translate(41.43 169.56) rotate(-90.19)"> </text><text class="cls-4" transform="translate(41.41 165.44) rotate(-88.31)"> </text><text class="cls-4" transform="matrix(0.06, -1, 1, 0.06, 41.53, 161.32)"> </text><text class="cls-4" transform="translate(41.79 157.19) rotate(-84.54)"> </text><text class="cls-4" transform="translate(42.18 153.12) rotate(-82.66)"> </text><text class="cls-4" transform="translate(42.71 149) rotate(-80.75)"> </text><text class="cls-4" transform="translate(43.36 144.93) rotate(-78.86)"> </text><text class="cls-4" transform="translate(44.16 140.88) rotate(-76.96)"> </text><text class="cls-4" transform="matrix(0.26, -0.97, 0.97, 0.26, 45.08, 136.89)"> </text><text class="cls-4" transform="translate(46.15 132.87) rotate(-73.16)"> </text><text class="cls-4" transform="translate(47.34 128.94) rotate(-71.28)"> </text><text class="cls-4" transform="translate(48.45 125.08) rotate(-67.13)">w</text><text class="cls-4" transform="translate(53.94 112.27) rotate(-61.74)">e</text><text class="cls-4" transform="matrix(0.54, -0.84, 0.84, 0.54, 58.43, 103.83)">a</text><text class="cls-4" transform="matrix(0.59, -0.81, 0.81, 0.59, 63.81, 95.53)">t</text><text class="cls-4" transform="translate(67.32 90.61) rotate(-50.23)">e</text><text class="cls-4" transform="matrix(0.69, -0.73, 0.73, 0.69, 73.7, 83.02)">r</text></svg>